%TF.GenerationSoftware,KiCad,Pcbnew,7.0.1*%
%TF.CreationDate,2023-05-12T16:10:07+02:00*%
%TF.ProjectId,SenseU_Microphoneboard,53656e73-6555-45f4-9d69-63726f70686f,rev?*%
%TF.SameCoordinates,Original*%
%TF.FileFunction,Soldermask,Top*%
%TF.FilePolarity,Negative*%
%FSLAX46Y46*%
G04 Gerber Fmt 4.6, Leading zero omitted, Abs format (unit mm)*
G04 Created by KiCad (PCBNEW 7.0.1) date 2023-05-12 16:10:07*
%MOMM*%
%LPD*%
G01*
G04 APERTURE LIST*
G04 Aperture macros list*
%AMRoundRect*
0 Rectangle with rounded corners*
0 $1 Rounding radius*
0 $2 $3 $4 $5 $6 $7 $8 $9 X,Y pos of 4 corners*
0 Add a 4 corners polygon primitive as box body*
4,1,4,$2,$3,$4,$5,$6,$7,$8,$9,$2,$3,0*
0 Add four circle primitives for the rounded corners*
1,1,$1+$1,$2,$3*
1,1,$1+$1,$4,$5*
1,1,$1+$1,$6,$7*
1,1,$1+$1,$8,$9*
0 Add four rect primitives between the rounded corners*
20,1,$1+$1,$2,$3,$4,$5,0*
20,1,$1+$1,$4,$5,$6,$7,0*
20,1,$1+$1,$6,$7,$8,$9,0*
20,1,$1+$1,$8,$9,$2,$3,0*%
G04 Aperture macros list end*
%ADD10RoundRect,0.237500X-0.250000X-0.237500X0.250000X-0.237500X0.250000X0.237500X-0.250000X0.237500X0*%
%ADD11RoundRect,0.237500X0.237500X-0.250000X0.237500X0.250000X-0.237500X0.250000X-0.237500X-0.250000X0*%
%ADD12C,3.200000*%
%ADD13RoundRect,0.237500X0.250000X0.237500X-0.250000X0.237500X-0.250000X-0.237500X0.250000X-0.237500X0*%
%ADD14RoundRect,0.237500X-0.237500X0.250000X-0.237500X-0.250000X0.237500X-0.250000X0.237500X0.250000X0*%
%ADD15C,0.350000*%
%ADD16R,1.650000X1.650000*%
%ADD17C,1.650000*%
G04 APERTURE END LIST*
D10*
%TO.C,R10*%
X102087500Y-74500000D03*
X103912500Y-74500000D03*
%TD*%
D11*
%TO.C,R6*%
X100000000Y-68912500D03*
X100000000Y-67087500D03*
%TD*%
D12*
%TO.C,REF\u002A\u002A*%
X138000000Y-119000000D03*
%TD*%
%TO.C,REF\u002A\u002A*%
X112000000Y-84000000D03*
%TD*%
D11*
%TO.C,R5*%
X97990000Y-68912500D03*
X97990000Y-67087500D03*
%TD*%
D10*
%TO.C,R9*%
X102087498Y-72500000D03*
X103912498Y-72500000D03*
%TD*%
D11*
%TO.C,R7*%
X101990000Y-68912500D03*
X101990000Y-67087500D03*
%TD*%
D10*
%TO.C,R8*%
X102087501Y-70500000D03*
X103912501Y-70500000D03*
%TD*%
D13*
%TO.C,R2*%
X97912500Y-74500000D03*
X96087500Y-74500000D03*
%TD*%
D12*
%TO.C,REF\u002A\u002A*%
X88000000Y-84000000D03*
%TD*%
%TO.C,REF\u002A\u002A*%
X62000000Y-119000000D03*
%TD*%
D13*
%TO.C,R3*%
X97912500Y-72500000D03*
X96087500Y-72500000D03*
%TD*%
%TO.C,R4*%
X97912500Y-70500000D03*
X96087500Y-70500000D03*
%TD*%
D14*
%TO.C,R1*%
X100000000Y-73875000D03*
X100000000Y-75700000D03*
%TD*%
D15*
%TO.C,MK1*%
X40001000Y-119987500D03*
%TD*%
%TO.C,MK2*%
X44566992Y-97033306D03*
%TD*%
%TO.C,MK3*%
X57565346Y-77580679D03*
%TD*%
%TO.C,MK9*%
X160000000Y-120000000D03*
%TD*%
%TO.C,MK4*%
X76989941Y-64554693D03*
%TD*%
D16*
%TO.C,J1*%
X93650000Y-78267500D03*
D17*
X93650000Y-80807500D03*
X96190000Y-78267500D03*
X96190000Y-80807500D03*
X98730000Y-78267500D03*
X98730000Y-80807500D03*
X101270000Y-78267500D03*
X101270000Y-80807500D03*
X103810000Y-78267500D03*
X103810000Y-80807500D03*
X106350000Y-78267500D03*
X106350000Y-80807500D03*
%TD*%
D15*
%TO.C,MK7*%
X142424991Y-77577145D03*
%TD*%
%TO.C,MK8*%
X155436005Y-97048830D03*
%TD*%
%TO.C,MK5*%
X100012500Y-59998000D03*
%TD*%
%TO.C,MK6*%
X122948363Y-64562579D03*
%TD*%
M02*
