%TF.GenerationSoftware,KiCad,Pcbnew,7.0.1*%
%TF.CreationDate,2023-05-12T16:10:07+02:00*%
%TF.ProjectId,SenseU_Microphoneboard,53656e73-6555-45f4-9d69-63726f70686f,rev?*%
%TF.SameCoordinates,Original*%
%TF.FileFunction,Paste,Bot*%
%TF.FilePolarity,Positive*%
%FSLAX46Y46*%
G04 Gerber Fmt 4.6, Leading zero omitted, Abs format (unit mm)*
G04 Created by KiCad (PCBNEW 7.0.1) date 2023-05-12 16:10:07*
%MOMM*%
%LPD*%
G01*
G04 APERTURE LIST*
G04 Aperture macros list*
%AMRoundRect*
0 Rectangle with rounded corners*
0 $1 Rounding radius*
0 $2 $3 $4 $5 $6 $7 $8 $9 X,Y pos of 4 corners*
0 Add a 4 corners polygon primitive as box body*
4,1,4,$2,$3,$4,$5,$6,$7,$8,$9,$2,$3,0*
0 Add four circle primitives for the rounded corners*
1,1,$1+$1,$2,$3*
1,1,$1+$1,$4,$5*
1,1,$1+$1,$6,$7*
1,1,$1+$1,$8,$9*
0 Add four rect primitives between the rounded corners*
20,1,$1+$1,$2,$3,$4,$5,0*
20,1,$1+$1,$4,$5,$6,$7,0*
20,1,$1+$1,$6,$7,$8,$9,0*
20,1,$1+$1,$8,$9,$2,$3,0*%
G04 Aperture macros list end*
%ADD10C,0.300000*%
%ADD11RoundRect,0.237500X-0.096149X0.370353X-0.338410X-0.178563X0.096149X-0.370353X0.338410X0.178563X0*%
%ADD12RoundRect,0.237500X0.049993X0.379351X-0.380700X-0.038385X-0.049993X-0.379351X0.380700X0.038385X0*%
%ADD13RoundRect,0.237500X0.300000X0.237500X-0.300000X0.237500X-0.300000X-0.237500X0.300000X-0.237500X0*%
%ADD14RoundRect,0.237500X0.188820X0.332796X-0.367243X0.107420X-0.188820X-0.332796X0.367243X-0.107420X0*%
%ADD15RoundRect,0.237500X-0.367243X-0.107420X0.188820X-0.332796X0.367243X0.107420X-0.188820X0.332796X0*%
%ADD16RoundRect,0.237500X-0.300000X-0.237500X0.300000X-0.237500X0.300000X0.237500X-0.300000X0.237500X0*%
%ADD17RoundRect,0.237500X-0.338410X0.178563X-0.096149X-0.370353X0.338410X-0.178563X0.096149X0.370353X0*%
%ADD18RoundRect,0.237500X-0.380700X0.038385X0.049993X-0.379351X0.380700X-0.038385X-0.049993X0.379351X0*%
%ADD19RoundRect,0.237500X-0.237500X0.300000X-0.237500X-0.300000X0.237500X-0.300000X0.237500X0.300000X0*%
G04 APERTURE END LIST*
D10*
%TO.C,MK1*%
X39811000Y-120617499D02*
G75*
G03*
X40191000Y-120617499I190000J602598D01*
G01*
X39371001Y-119797500D02*
G75*
G03*
X39371001Y-120177500I602598J-190000D01*
G01*
X40630999Y-120177500D02*
G75*
G03*
X40630999Y-119797500I-602598J190000D01*
G01*
X40191000Y-119357501D02*
G75*
G03*
X39811000Y-119357501I-190000J-602599D01*
G01*
%TO.C,MK2*%
X44154261Y-97545802D02*
G75*
G03*
X44506435Y-97688540I402439J487102D01*
G01*
X44054495Y-96620575D02*
G75*
G03*
X43911758Y-96972748I487103J-402438D01*
G01*
X45079489Y-97446036D02*
G75*
G03*
X45222226Y-97093863I-487102J402438D01*
G01*
X44979723Y-96520810D02*
G75*
G03*
X44627550Y-96378072I-402439J-487102D01*
G01*
%TO.C,MK3*%
X56990338Y-77900624D02*
G75*
G03*
X57263110Y-78165190I555931J300275D01*
G01*
X57245401Y-77005671D02*
G75*
G03*
X56980836Y-77278443I300276J-555931D01*
G01*
X57885291Y-78155688D02*
G75*
G03*
X58149856Y-77882916I-300276J555931D01*
G01*
X58140354Y-77260734D02*
G75*
G03*
X57867582Y-76996169I-555931J-300277D01*
G01*
%TO.C,MK9*%
X160190000Y-119370001D02*
G75*
G03*
X159810000Y-119370001I-190000J-602598D01*
G01*
X160629999Y-120190000D02*
G75*
G03*
X160629999Y-119810000I-602598J190000D01*
G01*
X159370001Y-119810000D02*
G75*
G03*
X159370001Y-120190000I602598J-190000D01*
G01*
X159810000Y-120629999D02*
G75*
G03*
X160190000Y-120629999I190000J602599D01*
G01*
%TO.C,MK4*%
X76336863Y-64635243D02*
G75*
G03*
X76490295Y-64982891I628010J69487D01*
G01*
X76909390Y-63901615D02*
G75*
G03*
X76561743Y-64055046I69487J-628010D01*
G01*
X77070492Y-65207770D02*
G75*
G03*
X77418139Y-65054339I-69487J628009D01*
G01*
X77643018Y-64474142D02*
G75*
G03*
X77489587Y-64126495I-628010J-69487D01*
G01*
%TO.C,MK7*%
X142122755Y-76992634D02*
G75*
G03*
X141849982Y-77257200I283159J-564842D01*
G01*
X143009501Y-77274909D02*
G75*
G03*
X142744936Y-77002137I-564841J-283159D01*
G01*
X141840481Y-77879382D02*
G75*
G03*
X142105046Y-78152154I564841J283159D01*
G01*
X142727227Y-78161656D02*
G75*
G03*
X142999999Y-77897091I-283159J564842D01*
G01*
%TO.C,MK8*%
X155375447Y-96393596D02*
G75*
G03*
X155023274Y-96536333I50265J-629839D01*
G01*
X156091239Y-96988272D02*
G75*
G03*
X155948502Y-96636099I-629840J-50265D01*
G01*
X154780771Y-97109387D02*
G75*
G03*
X154923508Y-97461560I629839J50265D01*
G01*
X155496562Y-97704064D02*
G75*
G03*
X155848736Y-97561327I-50265J629841D01*
G01*
%TO.C,MK5*%
X99382501Y-59808000D02*
G75*
G03*
X99382501Y-60188000I602598J-190000D01*
G01*
X100202500Y-59368001D02*
G75*
G03*
X99822500Y-59368001I-190000J-602598D01*
G01*
X99822500Y-60627999D02*
G75*
G03*
X100202500Y-60627999I190000J602598D01*
G01*
X100642499Y-60188000D02*
G75*
G03*
X100642499Y-59808000I-602599J190000D01*
G01*
%TO.C,MK6*%
X122448717Y-64134381D02*
G75*
G03*
X122295285Y-64482028I474578J-417134D01*
G01*
X123376561Y-64062932D02*
G75*
G03*
X123028914Y-63909501I-417134J-474579D01*
G01*
X122520165Y-65062225D02*
G75*
G03*
X122867812Y-65215656I417134J474578D01*
G01*
X123448008Y-64990776D02*
G75*
G03*
X123601440Y-64643129I-474578J417134D01*
G01*
%TD*%
D11*
%TO.C,C6*%
X122273251Y-68185932D03*
X121576749Y-69764068D03*
%TD*%
D12*
%TO.C,C7*%
X140444122Y-80674505D03*
X139205878Y-81875495D03*
%TD*%
D13*
%TO.C,C9*%
X156412500Y-120850000D03*
X154687500Y-120850000D03*
%TD*%
D14*
%TO.C,C8*%
X152449340Y-99176023D03*
X150850660Y-99823977D03*
%TD*%
D15*
%TO.C,C2*%
X48200660Y-97601023D03*
X49799340Y-98248977D03*
%TD*%
D16*
%TO.C,C1*%
X43587500Y-119150000D03*
X45312500Y-119150000D03*
%TD*%
D17*
%TO.C,C4*%
X79201749Y-67485932D03*
X79898251Y-69064068D03*
%TD*%
D18*
%TO.C,C3*%
X60730878Y-79474505D03*
X61969122Y-80675495D03*
%TD*%
D19*
%TO.C,C5*%
X100850000Y-63587500D03*
X100850000Y-65312500D03*
%TD*%
M02*
