%TF.GenerationSoftware,KiCad,Pcbnew,7.0.1*%
%TF.CreationDate,2023-05-12T16:10:07+02:00*%
%TF.ProjectId,SenseU_Microphoneboard,53656e73-6555-45f4-9d69-63726f70686f,rev?*%
%TF.SameCoordinates,Original*%
%TF.FileFunction,Legend,Bot*%
%TF.FilePolarity,Positive*%
%FSLAX46Y46*%
G04 Gerber Fmt 4.6, Leading zero omitted, Abs format (unit mm)*
G04 Created by KiCad (PCBNEW 7.0.1) date 2023-05-12 16:10:07*
%MOMM*%
%LPD*%
G01*
G04 APERTURE LIST*
%ADD10C,0.150000*%
%ADD11C,0.254000*%
%ADD12C,0.120000*%
%ADD13C,0.200000*%
G04 APERTURE END LIST*
D10*
%TO.C,MK1*%
X37894375Y-118617976D02*
X36894375Y-118617976D01*
X36894375Y-118617976D02*
X37608660Y-118951309D01*
X37608660Y-118951309D02*
X36894375Y-119284642D01*
X36894375Y-119284642D02*
X37894375Y-119284642D01*
X37894375Y-119760833D02*
X36894375Y-119760833D01*
X37894375Y-120332261D02*
X37322946Y-119903690D01*
X36894375Y-120332261D02*
X37465803Y-119760833D01*
X37894375Y-121284642D02*
X37894375Y-120713214D01*
X37894375Y-120998928D02*
X36894375Y-120998928D01*
X36894375Y-120998928D02*
X37037232Y-120903690D01*
X37037232Y-120903690D02*
X37132470Y-120808452D01*
X37132470Y-120808452D02*
X37180089Y-120713214D01*
%TO.C,C6*%
X121057762Y-71534873D02*
X121083191Y-71597231D01*
X121083191Y-71597231D02*
X121196409Y-71696516D01*
X121196409Y-71696516D02*
X121284196Y-71733444D01*
X121284196Y-71733444D02*
X121434341Y-71744941D01*
X121434341Y-71744941D02*
X121559056Y-71694082D01*
X121559056Y-71694082D02*
X121639878Y-71624758D01*
X121639878Y-71624758D02*
X121757627Y-71467647D01*
X121757627Y-71467647D02*
X121813019Y-71335966D01*
X121813019Y-71335966D02*
X121842980Y-71141927D01*
X121842980Y-71141927D02*
X121836014Y-71035676D01*
X121836014Y-71035676D02*
X121785154Y-70910960D01*
X121785154Y-70910960D02*
X121671937Y-70811675D01*
X121671937Y-70811675D02*
X121584150Y-70774747D01*
X121584150Y-70774747D02*
X121434005Y-70763250D01*
X121434005Y-70763250D02*
X121371647Y-70788679D01*
X120618487Y-70368543D02*
X120794062Y-70442398D01*
X120794062Y-70442398D02*
X120863386Y-70523220D01*
X120863386Y-70523220D02*
X120888816Y-70585577D01*
X120888816Y-70585577D02*
X120921212Y-70754186D01*
X120921212Y-70754186D02*
X120891250Y-70948225D01*
X120891250Y-70948225D02*
X120743539Y-71299375D01*
X120743539Y-71299375D02*
X120662718Y-71368698D01*
X120662718Y-71368698D02*
X120600360Y-71394128D01*
X120600360Y-71394128D02*
X120494109Y-71401094D01*
X120494109Y-71401094D02*
X120318534Y-71327239D01*
X120318534Y-71327239D02*
X120249210Y-71246417D01*
X120249210Y-71246417D02*
X120223781Y-71184060D01*
X120223781Y-71184060D02*
X120216815Y-71077809D01*
X120216815Y-71077809D02*
X120309134Y-70858340D01*
X120309134Y-70858340D02*
X120389955Y-70789016D01*
X120389955Y-70789016D02*
X120452313Y-70763586D01*
X120452313Y-70763586D02*
X120558564Y-70756620D01*
X120558564Y-70756620D02*
X120734139Y-70830476D01*
X120734139Y-70830476D02*
X120803463Y-70911297D01*
X120803463Y-70911297D02*
X120828893Y-70973655D01*
X120828893Y-70973655D02*
X120835859Y-71079906D01*
%TO.C,MK2*%
X43716919Y-95352721D02*
X42790147Y-94977095D01*
X42790147Y-94977095D02*
X43326918Y-95554323D01*
X43326918Y-95554323D02*
X42539730Y-95594943D01*
X42539730Y-95594943D02*
X43466501Y-95970569D01*
X43287632Y-96411888D02*
X42360861Y-96036262D01*
X43072989Y-96941472D02*
X42704387Y-96329641D01*
X42146217Y-96565846D02*
X42890444Y-96250906D01*
X42091386Y-96954676D02*
X42029367Y-96980921D01*
X42029367Y-96980921D02*
X41949461Y-97051298D01*
X41949461Y-97051298D02*
X41860026Y-97271958D01*
X41860026Y-97271958D02*
X41868384Y-97378108D01*
X41868384Y-97378108D02*
X41894629Y-97440127D01*
X41894629Y-97440127D02*
X41965006Y-97520033D01*
X41965006Y-97520033D02*
X42053270Y-97555807D01*
X42053270Y-97555807D02*
X42203553Y-97565336D01*
X42203553Y-97565336D02*
X42947780Y-97250396D01*
X42947780Y-97250396D02*
X42715250Y-97824111D01*
%TO.C,C7*%
X139204813Y-80396190D02*
X139272149Y-80397219D01*
X139272149Y-80397219D02*
X139407849Y-80331940D01*
X139407849Y-80331940D02*
X139476213Y-80265633D01*
X139476213Y-80265633D02*
X139545605Y-80131990D01*
X139545605Y-80131990D02*
X139547662Y-79997319D01*
X139547662Y-79997319D02*
X139515537Y-79895801D01*
X139515537Y-79895801D02*
X139417104Y-79725919D01*
X139417104Y-79725919D02*
X139317644Y-79623373D01*
X139317644Y-79623373D02*
X139150847Y-79519799D01*
X139150847Y-79519799D02*
X139050358Y-79484588D01*
X139050358Y-79484588D02*
X138915686Y-79482531D01*
X138915686Y-79482531D02*
X138779987Y-79547810D01*
X138779987Y-79547810D02*
X138711623Y-79614117D01*
X138711623Y-79614117D02*
X138642230Y-79747760D01*
X138642230Y-79747760D02*
X138641202Y-79815096D01*
X138335620Y-79978807D02*
X137857072Y-80442958D01*
X137857072Y-80442958D02*
X138860936Y-80862398D01*
%TO.C,MK3*%
X57483392Y-75484622D02*
X56765570Y-74788396D01*
X56765570Y-74788396D02*
X57046225Y-75524975D01*
X57046225Y-75524975D02*
X56301419Y-75266945D01*
X56301419Y-75266945D02*
X57019242Y-75963171D01*
X56687706Y-76304991D02*
X55969883Y-75608765D01*
X56289862Y-76715175D02*
X56178060Y-76009693D01*
X55572040Y-76018949D02*
X56380067Y-76006608D01*
X55339964Y-76258223D02*
X54908967Y-76702590D01*
X54908967Y-76702590D02*
X55414499Y-76728544D01*
X55414499Y-76728544D02*
X55315038Y-76831090D01*
X55315038Y-76831090D02*
X55282913Y-76932608D01*
X55282913Y-76932608D02*
X55283941Y-76999944D01*
X55283941Y-76999944D02*
X55319151Y-77100433D01*
X55319151Y-77100433D02*
X55490062Y-77266201D01*
X55490062Y-77266201D02*
X55591579Y-77298326D01*
X55591579Y-77298326D02*
X55658915Y-77297298D01*
X55658915Y-77297298D02*
X55759404Y-77262088D01*
X55759404Y-77262088D02*
X55958326Y-77056995D01*
X55958326Y-77056995D02*
X55990451Y-76955478D01*
X55990451Y-76955478D02*
X55989423Y-76888142D01*
%TO.C,MK9*%
X162537619Y-118715476D02*
X161537619Y-118715476D01*
X161537619Y-118715476D02*
X162251904Y-119048809D01*
X162251904Y-119048809D02*
X161537619Y-119382142D01*
X161537619Y-119382142D02*
X162537619Y-119382142D01*
X162537619Y-119858333D02*
X161537619Y-119858333D01*
X162537619Y-120429761D02*
X161966190Y-120001190D01*
X161537619Y-120429761D02*
X162109047Y-119858333D01*
X162537619Y-120905952D02*
X162537619Y-121096428D01*
X162537619Y-121096428D02*
X162490000Y-121191666D01*
X162490000Y-121191666D02*
X162442380Y-121239285D01*
X162442380Y-121239285D02*
X162299523Y-121334523D01*
X162299523Y-121334523D02*
X162109047Y-121382142D01*
X162109047Y-121382142D02*
X161728095Y-121382142D01*
X161728095Y-121382142D02*
X161632857Y-121334523D01*
X161632857Y-121334523D02*
X161585238Y-121286904D01*
X161585238Y-121286904D02*
X161537619Y-121191666D01*
X161537619Y-121191666D02*
X161537619Y-121001190D01*
X161537619Y-121001190D02*
X161585238Y-120905952D01*
X161585238Y-120905952D02*
X161632857Y-120858333D01*
X161632857Y-120858333D02*
X161728095Y-120810714D01*
X161728095Y-120810714D02*
X161966190Y-120810714D01*
X161966190Y-120810714D02*
X162061428Y-120858333D01*
X162061428Y-120858333D02*
X162109047Y-120905952D01*
X162109047Y-120905952D02*
X162156666Y-121001190D01*
X162156666Y-121001190D02*
X162156666Y-121191666D01*
X162156666Y-121191666D02*
X162109047Y-121286904D01*
X162109047Y-121286904D02*
X162061428Y-121334523D01*
X162061428Y-121334523D02*
X161966190Y-121382142D01*
%TO.C,MK4*%
X77503669Y-62797379D02*
X77099900Y-61882518D01*
X77099900Y-61882518D02*
X77083353Y-62670579D01*
X77083353Y-62670579D02*
X76489993Y-62151697D01*
X76489993Y-62151697D02*
X76893762Y-63066558D01*
X76458114Y-63258829D02*
X76054345Y-62343968D01*
X75935336Y-63489554D02*
X76096694Y-62793732D01*
X75531567Y-62574693D02*
X76285070Y-62866745D01*
X74881990Y-63225734D02*
X75151169Y-63835641D01*
X74945997Y-62781080D02*
X75452228Y-63338417D01*
X75452228Y-63338417D02*
X74885885Y-63588369D01*
D11*
%TO.C,J1*%
X94073332Y-77585026D02*
X94073332Y-78492169D01*
X94073332Y-78492169D02*
X94133809Y-78673597D01*
X94133809Y-78673597D02*
X94254761Y-78794550D01*
X94254761Y-78794550D02*
X94436190Y-78855026D01*
X94436190Y-78855026D02*
X94557142Y-78855026D01*
X92803332Y-78855026D02*
X93529047Y-78855026D01*
X93166190Y-78855026D02*
X93166190Y-77585026D01*
X93166190Y-77585026D02*
X93287142Y-77766454D01*
X93287142Y-77766454D02*
X93408094Y-77887407D01*
X93408094Y-77887407D02*
X93529047Y-77947883D01*
D10*
%TO.C,MK7*%
X144254646Y-77437093D02*
X144972468Y-76740867D01*
X144972468Y-76740867D02*
X144227662Y-76998897D01*
X144227662Y-76998897D02*
X144508318Y-76262318D01*
X144508318Y-76262318D02*
X143790495Y-76958544D01*
X143458959Y-76616724D02*
X144176781Y-75920498D01*
X143061115Y-76206540D02*
X143769682Y-76116335D01*
X143778938Y-75510314D02*
X143766597Y-76318342D01*
X143546863Y-75271040D02*
X143082712Y-74792491D01*
X143082712Y-74792491D02*
X142663272Y-75796355D01*
%TO.C,C9*%
X155716666Y-119787380D02*
X155764285Y-119835000D01*
X155764285Y-119835000D02*
X155907142Y-119882619D01*
X155907142Y-119882619D02*
X156002380Y-119882619D01*
X156002380Y-119882619D02*
X156145237Y-119835000D01*
X156145237Y-119835000D02*
X156240475Y-119739761D01*
X156240475Y-119739761D02*
X156288094Y-119644523D01*
X156288094Y-119644523D02*
X156335713Y-119454047D01*
X156335713Y-119454047D02*
X156335713Y-119311190D01*
X156335713Y-119311190D02*
X156288094Y-119120714D01*
X156288094Y-119120714D02*
X156240475Y-119025476D01*
X156240475Y-119025476D02*
X156145237Y-118930238D01*
X156145237Y-118930238D02*
X156002380Y-118882619D01*
X156002380Y-118882619D02*
X155907142Y-118882619D01*
X155907142Y-118882619D02*
X155764285Y-118930238D01*
X155764285Y-118930238D02*
X155716666Y-118977857D01*
X155240475Y-119882619D02*
X155049999Y-119882619D01*
X155049999Y-119882619D02*
X154954761Y-119835000D01*
X154954761Y-119835000D02*
X154907142Y-119787380D01*
X154907142Y-119787380D02*
X154811904Y-119644523D01*
X154811904Y-119644523D02*
X154764285Y-119454047D01*
X154764285Y-119454047D02*
X154764285Y-119073095D01*
X154764285Y-119073095D02*
X154811904Y-118977857D01*
X154811904Y-118977857D02*
X154859523Y-118930238D01*
X154859523Y-118930238D02*
X154954761Y-118882619D01*
X154954761Y-118882619D02*
X155145237Y-118882619D01*
X155145237Y-118882619D02*
X155240475Y-118930238D01*
X155240475Y-118930238D02*
X155288094Y-118977857D01*
X155288094Y-118977857D02*
X155335713Y-119073095D01*
X155335713Y-119073095D02*
X155335713Y-119311190D01*
X155335713Y-119311190D02*
X155288094Y-119406428D01*
X155288094Y-119406428D02*
X155240475Y-119454047D01*
X155240475Y-119454047D02*
X155145237Y-119501666D01*
X155145237Y-119501666D02*
X154954761Y-119501666D01*
X154954761Y-119501666D02*
X154859523Y-119454047D01*
X154859523Y-119454047D02*
X154811904Y-119406428D01*
X154811904Y-119406428D02*
X154764285Y-119311190D01*
%TO.C,MK8*%
X157238148Y-97787400D02*
X158164920Y-97411774D01*
X158164920Y-97411774D02*
X157377732Y-97371155D01*
X157377732Y-97371155D02*
X157914503Y-96793927D01*
X157914503Y-96793927D02*
X156987731Y-97169553D01*
X156808862Y-96728233D02*
X157735633Y-96352607D01*
X156594218Y-96198650D02*
X157284785Y-96381194D01*
X157520990Y-95823024D02*
X157206049Y-96567251D01*
X156909159Y-95454423D02*
X156989065Y-95524800D01*
X156989065Y-95524800D02*
X157051083Y-95551045D01*
X157051083Y-95551045D02*
X157157234Y-95559403D01*
X157157234Y-95559403D02*
X157201366Y-95541516D01*
X157201366Y-95541516D02*
X157271743Y-95461610D01*
X157271743Y-95461610D02*
X157297988Y-95399591D01*
X157297988Y-95399591D02*
X157306346Y-95293440D01*
X157306346Y-95293440D02*
X157234799Y-95116912D01*
X157234799Y-95116912D02*
X157154893Y-95046535D01*
X157154893Y-95046535D02*
X157092874Y-95020290D01*
X157092874Y-95020290D02*
X156986723Y-95011932D01*
X156986723Y-95011932D02*
X156942591Y-95029819D01*
X156942591Y-95029819D02*
X156872214Y-95109725D01*
X156872214Y-95109725D02*
X156845969Y-95171744D01*
X156845969Y-95171744D02*
X156837611Y-95277895D01*
X156837611Y-95277895D02*
X156909159Y-95454423D01*
X156909159Y-95454423D02*
X156900801Y-95560573D01*
X156900801Y-95560573D02*
X156874556Y-95622592D01*
X156874556Y-95622592D02*
X156804179Y-95702498D01*
X156804179Y-95702498D02*
X156627651Y-95774046D01*
X156627651Y-95774046D02*
X156521500Y-95765688D01*
X156521500Y-95765688D02*
X156459481Y-95739443D01*
X156459481Y-95739443D02*
X156379575Y-95669066D01*
X156379575Y-95669066D02*
X156308027Y-95492538D01*
X156308027Y-95492538D02*
X156316385Y-95386387D01*
X156316385Y-95386387D02*
X156342630Y-95324368D01*
X156342630Y-95324368D02*
X156413007Y-95244462D01*
X156413007Y-95244462D02*
X156589535Y-95172915D01*
X156589535Y-95172915D02*
X156695686Y-95181273D01*
X156695686Y-95181273D02*
X156757705Y-95207518D01*
X156757705Y-95207518D02*
X156837611Y-95277895D01*
%TO.C,MK5*%
X101338750Y-58605902D02*
X101356202Y-57606055D01*
X101356202Y-57606055D02*
X101010454Y-58314414D01*
X101010454Y-58314414D02*
X100689637Y-57594420D01*
X100689637Y-57594420D02*
X100672185Y-58594267D01*
X100196067Y-58585957D02*
X100213519Y-57586109D01*
X99624726Y-58575984D02*
X100063204Y-58012122D01*
X99642178Y-57576136D02*
X100203547Y-58157451D01*
X98737554Y-57560346D02*
X99213672Y-57568657D01*
X99213672Y-57568657D02*
X99252973Y-58045606D01*
X99252973Y-58045606D02*
X99206192Y-57997163D01*
X99206192Y-57997163D02*
X99111800Y-57947889D01*
X99111800Y-57947889D02*
X98873741Y-57943734D01*
X98873741Y-57943734D02*
X98777686Y-57989683D01*
X98777686Y-57989683D02*
X98729243Y-58036464D01*
X98729243Y-58036464D02*
X98679969Y-58130857D01*
X98679969Y-58130857D02*
X98675814Y-58368916D01*
X98675814Y-58368916D02*
X98721764Y-58464970D01*
X98721764Y-58464970D02*
X98768544Y-58513413D01*
X98768544Y-58513413D02*
X98862937Y-58562687D01*
X98862937Y-58562687D02*
X99100996Y-58566842D01*
X99100996Y-58566842D02*
X99197050Y-58520893D01*
X99197050Y-58520893D02*
X99245493Y-58474112D01*
%TO.C,C8*%
X151405314Y-98452591D02*
X151467333Y-98478836D01*
X151467333Y-98478836D02*
X151617616Y-98469307D01*
X151617616Y-98469307D02*
X151705879Y-98433533D01*
X151705879Y-98433533D02*
X151820388Y-98335740D01*
X151820388Y-98335740D02*
X151872878Y-98211702D01*
X151872878Y-98211702D02*
X151881237Y-98105551D01*
X151881237Y-98105551D02*
X151853821Y-97911136D01*
X151853821Y-97911136D02*
X151800160Y-97778741D01*
X151800160Y-97778741D02*
X151684480Y-97620100D01*
X151684480Y-97620100D02*
X151604574Y-97549723D01*
X151604574Y-97549723D02*
X151480536Y-97497233D01*
X151480536Y-97497233D02*
X151330254Y-97506761D01*
X151330254Y-97506761D02*
X151241990Y-97542535D01*
X151241990Y-97542535D02*
X151127481Y-97640328D01*
X151127481Y-97640328D02*
X151101236Y-97702347D01*
X150696861Y-98225914D02*
X150767238Y-98146008D01*
X150767238Y-98146008D02*
X150793483Y-98083989D01*
X150793483Y-98083989D02*
X150801841Y-97977838D01*
X150801841Y-97977838D02*
X150783954Y-97933707D01*
X150783954Y-97933707D02*
X150704048Y-97863330D01*
X150704048Y-97863330D02*
X150642029Y-97837085D01*
X150642029Y-97837085D02*
X150535878Y-97828726D01*
X150535878Y-97828726D02*
X150359350Y-97900274D01*
X150359350Y-97900274D02*
X150288973Y-97980180D01*
X150288973Y-97980180D02*
X150262728Y-98042199D01*
X150262728Y-98042199D02*
X150254370Y-98148350D01*
X150254370Y-98148350D02*
X150272257Y-98192482D01*
X150272257Y-98192482D02*
X150352163Y-98262859D01*
X150352163Y-98262859D02*
X150414182Y-98289104D01*
X150414182Y-98289104D02*
X150520333Y-98297462D01*
X150520333Y-98297462D02*
X150696861Y-98225914D01*
X150696861Y-98225914D02*
X150803012Y-98234272D01*
X150803012Y-98234272D02*
X150865030Y-98260517D01*
X150865030Y-98260517D02*
X150944936Y-98330894D01*
X150944936Y-98330894D02*
X151016484Y-98507422D01*
X151016484Y-98507422D02*
X151008126Y-98613573D01*
X151008126Y-98613573D02*
X150981881Y-98675592D01*
X150981881Y-98675592D02*
X150911504Y-98755498D01*
X150911504Y-98755498D02*
X150734976Y-98827046D01*
X150734976Y-98827046D02*
X150628825Y-98818688D01*
X150628825Y-98818688D02*
X150566806Y-98792442D01*
X150566806Y-98792442D02*
X150486900Y-98722065D01*
X150486900Y-98722065D02*
X150415353Y-98545538D01*
X150415353Y-98545538D02*
X150423711Y-98439387D01*
X150423711Y-98439387D02*
X150449956Y-98377368D01*
X150449956Y-98377368D02*
X150520333Y-98297462D01*
%TO.C,MK6*%
X124713443Y-63728362D02*
X125117211Y-62813501D01*
X125117211Y-62813501D02*
X124523851Y-63332383D01*
X124523851Y-63332383D02*
X124507304Y-62544321D01*
X124507304Y-62544321D02*
X124103535Y-63459182D01*
X123667887Y-63266911D02*
X124071656Y-62352050D01*
X123145110Y-63036186D02*
X123767918Y-62686452D01*
X123548878Y-62121325D02*
X123840931Y-62874828D01*
X122764712Y-61775238D02*
X122938971Y-61852146D01*
X122938971Y-61852146D02*
X123006874Y-61934165D01*
X123006874Y-61934165D02*
X123031211Y-61996957D01*
X123031211Y-61996957D02*
X123060660Y-62166106D01*
X123060660Y-62166106D02*
X123027316Y-62359592D01*
X123027316Y-62359592D02*
X122873499Y-62708110D01*
X122873499Y-62708110D02*
X122791480Y-62776013D01*
X122791480Y-62776013D02*
X122728689Y-62800351D01*
X122728689Y-62800351D02*
X122622332Y-62805461D01*
X122622332Y-62805461D02*
X122448073Y-62728553D01*
X122448073Y-62728553D02*
X122380170Y-62646534D01*
X122380170Y-62646534D02*
X122355832Y-62583742D01*
X122355832Y-62583742D02*
X122350722Y-62477385D01*
X122350722Y-62477385D02*
X122446857Y-62259561D01*
X122446857Y-62259561D02*
X122528876Y-62191659D01*
X122528876Y-62191659D02*
X122591668Y-62167321D01*
X122591668Y-62167321D02*
X122698025Y-62162210D01*
X122698025Y-62162210D02*
X122872284Y-62239119D01*
X122872284Y-62239119D02*
X122940186Y-62321138D01*
X122940186Y-62321138D02*
X122964524Y-62383930D01*
X122964524Y-62383930D02*
X122969635Y-62490286D01*
%TO.C,C2*%
X51382872Y-99344661D02*
X51409117Y-99406680D01*
X51409117Y-99406680D02*
X51523626Y-99504473D01*
X51523626Y-99504473D02*
X51611890Y-99540246D01*
X51611890Y-99540246D02*
X51762173Y-99549775D01*
X51762173Y-99549775D02*
X51886211Y-99497285D01*
X51886211Y-99497285D02*
X51966117Y-99426908D01*
X51966117Y-99426908D02*
X52081796Y-99268267D01*
X52081796Y-99268267D02*
X52135457Y-99135871D01*
X52135457Y-99135871D02*
X52162873Y-98941457D01*
X52162873Y-98941457D02*
X52154515Y-98835306D01*
X52154515Y-98835306D02*
X52102025Y-98711268D01*
X52102025Y-98711268D02*
X51987516Y-98613475D01*
X51987516Y-98613475D02*
X51899252Y-98577701D01*
X51899252Y-98577701D02*
X51748969Y-98568172D01*
X51748969Y-98568172D02*
X51686950Y-98594417D01*
X51333894Y-98451322D02*
X51307649Y-98389303D01*
X51307649Y-98389303D02*
X51237272Y-98309397D01*
X51237272Y-98309397D02*
X51016613Y-98219962D01*
X51016613Y-98219962D02*
X50910462Y-98228320D01*
X50910462Y-98228320D02*
X50848443Y-98254565D01*
X50848443Y-98254565D02*
X50768537Y-98324942D01*
X50768537Y-98324942D02*
X50732763Y-98413206D01*
X50732763Y-98413206D02*
X50723234Y-98563489D01*
X50723234Y-98563489D02*
X51038174Y-99307716D01*
X51038174Y-99307716D02*
X50464459Y-99075186D01*
%TO.C,C1*%
X47199166Y-119457380D02*
X47246785Y-119505000D01*
X47246785Y-119505000D02*
X47389642Y-119552619D01*
X47389642Y-119552619D02*
X47484880Y-119552619D01*
X47484880Y-119552619D02*
X47627737Y-119505000D01*
X47627737Y-119505000D02*
X47722975Y-119409761D01*
X47722975Y-119409761D02*
X47770594Y-119314523D01*
X47770594Y-119314523D02*
X47818213Y-119124047D01*
X47818213Y-119124047D02*
X47818213Y-118981190D01*
X47818213Y-118981190D02*
X47770594Y-118790714D01*
X47770594Y-118790714D02*
X47722975Y-118695476D01*
X47722975Y-118695476D02*
X47627737Y-118600238D01*
X47627737Y-118600238D02*
X47484880Y-118552619D01*
X47484880Y-118552619D02*
X47389642Y-118552619D01*
X47389642Y-118552619D02*
X47246785Y-118600238D01*
X47246785Y-118600238D02*
X47199166Y-118647857D01*
X46246785Y-119552619D02*
X46818213Y-119552619D01*
X46532499Y-119552619D02*
X46532499Y-118552619D01*
X46532499Y-118552619D02*
X46627737Y-118695476D01*
X46627737Y-118695476D02*
X46722975Y-118790714D01*
X46722975Y-118790714D02*
X46818213Y-118838333D01*
%TO.C,C4*%
X80370550Y-70975097D02*
X80346212Y-71037889D01*
X80346212Y-71037889D02*
X80360328Y-71187810D01*
X80360328Y-71187810D02*
X80398783Y-71274940D01*
X80398783Y-71274940D02*
X80500029Y-71386407D01*
X80500029Y-71386407D02*
X80625612Y-71435083D01*
X80625612Y-71435083D02*
X80731969Y-71440193D01*
X80731969Y-71440193D02*
X80925455Y-71406850D01*
X80925455Y-71406850D02*
X81056150Y-71349169D01*
X81056150Y-71349169D02*
X81211182Y-71228695D01*
X81211182Y-71228695D02*
X81279085Y-71146676D01*
X81279085Y-71146676D02*
X81327760Y-71021093D01*
X81327760Y-71021093D02*
X81313644Y-70871171D01*
X81313644Y-70871171D02*
X81275189Y-70784041D01*
X81275189Y-70784041D02*
X81173943Y-70672574D01*
X81173943Y-70672574D02*
X81111151Y-70648236D01*
X80547240Y-69960205D02*
X79937332Y-70229384D01*
X80991894Y-70024213D02*
X80434557Y-70530443D01*
X80434557Y-70530443D02*
X80184605Y-69964100D01*
%TO.C,C3*%
X63099323Y-82232112D02*
X63100351Y-82299448D01*
X63100351Y-82299448D02*
X63169744Y-82433091D01*
X63169744Y-82433091D02*
X63238108Y-82499398D01*
X63238108Y-82499398D02*
X63373808Y-82564677D01*
X63373808Y-82564677D02*
X63508479Y-82562620D01*
X63508479Y-82562620D02*
X63608968Y-82527410D01*
X63608968Y-82527410D02*
X63775765Y-82423835D01*
X63775765Y-82423835D02*
X63875226Y-82321289D01*
X63875226Y-82321289D02*
X63973658Y-82151407D01*
X63973658Y-82151407D02*
X64005783Y-82049890D01*
X64005783Y-82049890D02*
X64003727Y-81915218D01*
X64003727Y-81915218D02*
X63934334Y-81781575D01*
X63934334Y-81781575D02*
X63865970Y-81715268D01*
X63865970Y-81715268D02*
X63730270Y-81649989D01*
X63730270Y-81649989D02*
X63662935Y-81651018D01*
X63489968Y-81350578D02*
X63045601Y-80919581D01*
X63045601Y-80919581D02*
X63019647Y-81425113D01*
X63019647Y-81425113D02*
X62917100Y-81325652D01*
X62917100Y-81325652D02*
X62815583Y-81293527D01*
X62815583Y-81293527D02*
X62748247Y-81294555D01*
X62748247Y-81294555D02*
X62647758Y-81329766D01*
X62647758Y-81329766D02*
X62481990Y-81500676D01*
X62481990Y-81500676D02*
X62449865Y-81602193D01*
X62449865Y-81602193D02*
X62450893Y-81669529D01*
X62450893Y-81669529D02*
X62486103Y-81770018D01*
X62486103Y-81770018D02*
X62691196Y-81968940D01*
X62691196Y-81968940D02*
X62792713Y-82001065D01*
X62792713Y-82001065D02*
X62860049Y-82000037D01*
%TO.C,C5*%
X101220233Y-66852270D02*
X101268676Y-66805490D01*
X101268676Y-66805490D02*
X101318781Y-66663485D01*
X101318781Y-66663485D02*
X101320443Y-66568262D01*
X101320443Y-66568262D02*
X101275325Y-66424595D01*
X101275325Y-66424595D02*
X101181763Y-66327710D01*
X101181763Y-66327710D02*
X101087371Y-66278436D01*
X101087371Y-66278436D02*
X100897755Y-66227500D01*
X100897755Y-66227500D02*
X100754919Y-66225006D01*
X100754919Y-66225006D02*
X100563641Y-66269294D01*
X100563641Y-66269294D02*
X100467586Y-66315244D01*
X100467586Y-66315244D02*
X100370701Y-66408805D01*
X100370701Y-66408805D02*
X100320596Y-66550809D01*
X100320596Y-66550809D02*
X100318933Y-66646033D01*
X100318933Y-66646033D02*
X100364052Y-66789699D01*
X100364052Y-66789699D02*
X100410833Y-66838142D01*
X100299819Y-67741104D02*
X100308130Y-67264986D01*
X100308130Y-67264986D02*
X100785079Y-67225685D01*
X100785079Y-67225685D02*
X100736636Y-67272466D01*
X100736636Y-67272466D02*
X100687362Y-67366858D01*
X100687362Y-67366858D02*
X100683206Y-67604917D01*
X100683206Y-67604917D02*
X100729156Y-67700972D01*
X100729156Y-67700972D02*
X100775937Y-67749415D01*
X100775937Y-67749415D02*
X100870329Y-67798689D01*
X100870329Y-67798689D02*
X101108388Y-67802844D01*
X101108388Y-67802844D02*
X101204443Y-67756894D01*
X101204443Y-67756894D02*
X101252886Y-67710114D01*
X101252886Y-67710114D02*
X101302160Y-67615721D01*
X101302160Y-67615721D02*
X101306315Y-67377662D01*
X101306315Y-67377662D02*
X101260365Y-67281608D01*
X101260365Y-67281608D02*
X101213585Y-67233165D01*
D12*
%TO.C,MK1*%
X38751000Y-121587500D02*
X42701000Y-121587500D01*
X42701000Y-121587500D02*
X42701000Y-118387500D01*
X38751000Y-118387500D02*
X38751000Y-121587500D01*
X42701000Y-118387500D02*
X38751000Y-118387500D01*
D10*
X42921711Y-121737500D02*
G75*
G03*
X42921711Y-121737500I-70711J0D01*
G01*
D12*
%TO.C,C6*%
X122450637Y-69047108D02*
X122332521Y-69314736D01*
X121517479Y-68635264D02*
X121399363Y-68902892D01*
%TO.C,MK2*%
X42807527Y-98046608D02*
X46468274Y-99530330D01*
X46468274Y-99530330D02*
X47670276Y-96564661D01*
X44009529Y-95080939D02*
X42807527Y-98046608D01*
X47670276Y-96564661D02*
X44009529Y-95080939D01*
D10*
X46621657Y-99725689D02*
G75*
G03*
X46621657Y-99725689I-70711J0D01*
G01*
D12*
%TO.C,C7*%
X140285069Y-81539255D02*
X140075082Y-81742924D01*
X139574918Y-80807076D02*
X139364931Y-81010745D01*
%TO.C,MK3*%
X55554106Y-77858913D02*
X58389505Y-80609006D01*
X58389505Y-80609006D02*
X60617429Y-78311974D01*
X57782029Y-75561881D02*
X55554106Y-77858913D01*
X60617429Y-78311974D02*
X57782029Y-75561881D01*
D10*
X58463456Y-80821113D02*
G75*
G03*
X58463456Y-80821113I-70711J0D01*
G01*
D12*
%TO.C,MK9*%
X161250000Y-118400000D02*
X157300000Y-118400000D01*
X157300000Y-118400000D02*
X157300000Y-121600000D01*
X161250000Y-121600000D02*
X161250000Y-118400000D01*
X157300000Y-121600000D02*
X161250000Y-121600000D01*
D10*
X157220711Y-118250000D02*
G75*
G03*
X157220711Y-118250000I-70711J0D01*
G01*
D12*
%TO.C,MK4*%
X75021452Y-64057147D02*
X76616339Y-67670848D01*
X76616339Y-67670848D02*
X79543895Y-66378787D01*
X77949008Y-62765086D02*
X75021452Y-64057147D01*
X79543895Y-66378787D02*
X77949008Y-62765086D01*
D10*
X76610386Y-67868642D02*
G75*
G03*
X76610386Y-67868642I-70710J0D01*
G01*
D13*
%TO.C,J1*%
X92280000Y-78267500D02*
X92280000Y-85057500D01*
X92280000Y-85057500D02*
X107720000Y-85057500D01*
X93650000Y-85057500D02*
X93650000Y-91807500D01*
X96190000Y-85057500D02*
X96190000Y-91807500D01*
X98730000Y-85057500D02*
X98730000Y-91807500D01*
X101270000Y-85057500D02*
X101270000Y-91807500D01*
X103810000Y-85057500D02*
X103810000Y-91807500D01*
X106350000Y-85057500D02*
X106350000Y-91807500D01*
X107720000Y-85057500D02*
X107720000Y-82557500D01*
D12*
%TO.C,MK7*%
X142208308Y-75558347D02*
X139372908Y-78308440D01*
X139372908Y-78308440D02*
X141600832Y-80605472D01*
X144436231Y-77855379D02*
X142208308Y-75558347D01*
X141600832Y-80605472D02*
X144436231Y-77855379D01*
D10*
X139231512Y-78305200D02*
G75*
G03*
X139231512Y-78305200I-70711J0D01*
G01*
D12*
%TO.C,C9*%
X155696267Y-121360000D02*
X155403733Y-121360000D01*
X155696267Y-120340000D02*
X155403733Y-120340000D01*
%TO.C,MK8*%
X155993468Y-95096463D02*
X152332721Y-96580185D01*
X152332721Y-96580185D02*
X153534723Y-99545854D01*
X157195470Y-98062132D02*
X155993468Y-95096463D01*
X153534723Y-99545854D02*
X157195470Y-98062132D01*
D10*
X152208072Y-96497513D02*
G75*
G03*
X152208072Y-96497513I-70711J0D01*
G01*
D12*
%TO.C,MK5*%
X98412500Y-58748000D02*
X98412500Y-62698000D01*
X98412500Y-62698000D02*
X101612500Y-62698000D01*
X101612500Y-58748000D02*
X98412500Y-58748000D01*
X101612500Y-62698000D02*
X101612500Y-58748000D01*
D10*
X98333211Y-62848000D02*
G75*
G03*
X98333211Y-62848000I-70711J0D01*
G01*
D12*
%TO.C,C8*%
X151977125Y-99917712D02*
X151706013Y-100027595D01*
X151593987Y-98972405D02*
X151322875Y-99082288D01*
%TO.C,MK6*%
X121989296Y-62772972D02*
X120394409Y-66386673D01*
X120394409Y-66386673D02*
X123321965Y-67678734D01*
X124916852Y-64065033D02*
X121989296Y-62772972D01*
X123321965Y-67678734D02*
X124916852Y-64065033D01*
D10*
X120267326Y-66463337D02*
G75*
G03*
X120267326Y-66463337I-70711J0D01*
G01*
D12*
%TO.C,C2*%
X49056013Y-97397405D02*
X49327125Y-97507288D01*
X48672875Y-98342712D02*
X48943987Y-98452595D01*
%TO.C,C1*%
X44303733Y-118640000D02*
X44596267Y-118640000D01*
X44303733Y-119660000D02*
X44596267Y-119660000D01*
%TO.C,C4*%
X79957521Y-67935264D02*
X80075637Y-68202892D01*
X79024363Y-68347108D02*
X79142479Y-68614736D01*
%TO.C,C3*%
X61600082Y-79607076D02*
X61810069Y-79810745D01*
X60889931Y-80339255D02*
X61099918Y-80542924D01*
%TO.C,C5*%
X101360000Y-64303733D02*
X101360000Y-64596267D01*
X100340000Y-64303733D02*
X100340000Y-64596267D01*
%TD*%
M02*
