%TF.GenerationSoftware,KiCad,Pcbnew,7.0.1*%
%TF.CreationDate,2023-05-12T16:10:07+02:00*%
%TF.ProjectId,SenseU_Microphoneboard,53656e73-6555-45f4-9d69-63726f70686f,rev?*%
%TF.SameCoordinates,Original*%
%TF.FileFunction,Soldermask,Bot*%
%TF.FilePolarity,Negative*%
%FSLAX46Y46*%
G04 Gerber Fmt 4.6, Leading zero omitted, Abs format (unit mm)*
G04 Created by KiCad (PCBNEW 7.0.1) date 2023-05-12 16:10:07*
%MOMM*%
%LPD*%
G01*
G04 APERTURE LIST*
G04 Aperture macros list*
%AMRoundRect*
0 Rectangle with rounded corners*
0 $1 Rounding radius*
0 $2 $3 $4 $5 $6 $7 $8 $9 X,Y pos of 4 corners*
0 Add a 4 corners polygon primitive as box body*
4,1,4,$2,$3,$4,$5,$6,$7,$8,$9,$2,$3,0*
0 Add four circle primitives for the rounded corners*
1,1,$1+$1,$2,$3*
1,1,$1+$1,$4,$5*
1,1,$1+$1,$6,$7*
1,1,$1+$1,$8,$9*
0 Add four rect primitives between the rounded corners*
20,1,$1+$1,$2,$3,$4,$5,0*
20,1,$1+$1,$4,$5,$6,$7,0*
20,1,$1+$1,$6,$7,$8,$9,0*
20,1,$1+$1,$8,$9,$2,$3,0*%
%AMRotRect*
0 Rectangle, with rotation*
0 The origin of the aperture is its center*
0 $1 length*
0 $2 width*
0 $3 Rotation angle, in degrees counterclockwise*
0 Add horizontal line*
21,1,$1,$2,0,0,$3*%
%AMFreePoly0*
4,1,53,0.830798,0.792129,1.002531,0.732037,1.156585,0.635238,1.285238,0.506585,1.382037,0.352531,1.442129,0.180798,1.462500,0.000000,1.442129,-0.180798,1.382037,-0.352531,1.285238,-0.506585,1.156585,-0.635238,1.002531,-0.732037,0.830798,-0.792129,0.650000,-0.812500,0.469202,-0.792129,0.297469,-0.732037,0.143415,-0.635238,0.014762,-0.506585,-0.082037,-0.352531,-0.142129,-0.180798,
-0.162500,0.000000,0.132230,0.000000,0.153203,-0.145873,0.214424,-0.279928,0.310933,-0.391304,0.434911,-0.470980,0.576314,-0.512500,0.723686,-0.512500,0.865089,-0.470980,0.989067,-0.391304,1.085576,-0.279928,1.146797,-0.145873,1.167770,0.000000,1.146797,0.145873,1.085576,0.279928,0.989067,0.391304,0.865089,0.470980,0.723686,0.512500,0.576314,0.512500,0.434911,0.470980,
0.310933,0.391304,0.214424,0.279928,0.153203,0.145873,0.132230,0.000000,-0.162500,0.000000,-0.142129,0.180798,-0.082037,0.352531,0.014762,0.506585,0.143415,0.635238,0.297469,0.732037,0.469202,0.792129,0.650000,0.812500,0.830798,0.792129,0.830798,0.792129,$1*%
G04 Aperture macros list end*
%ADD10C,3.200000*%
%ADD11C,0.350000*%
%ADD12R,0.522000X0.725000*%
%ADD13FreePoly0,0.000000*%
%ADD14RoundRect,0.237500X-0.096149X0.370353X-0.338410X-0.178563X0.096149X-0.370353X0.338410X0.178563X0*%
%ADD15RotRect,0.725000X0.522000X247.937000*%
%ADD16FreePoly0,337.937000*%
%ADD17RoundRect,0.237500X0.049993X0.379351X-0.380700X-0.038385X-0.049993X-0.379351X0.380700X0.038385X0*%
%ADD18RotRect,0.725000X0.522000X225.875000*%
%ADD19FreePoly0,315.875000*%
%ADD20FreePoly0,180.000000*%
%ADD21RotRect,0.725000X0.522000X203.814000*%
%ADD22FreePoly0,293.814000*%
%ADD23R,1.650000X1.650000*%
%ADD24C,1.650000*%
%ADD25RotRect,0.725000X0.522000X134.125000*%
%ADD26FreePoly0,224.125000*%
%ADD27RoundRect,0.237500X0.300000X0.237500X-0.300000X0.237500X-0.300000X-0.237500X0.300000X-0.237500X0*%
%ADD28RotRect,0.725000X0.522000X112.063000*%
%ADD29FreePoly0,202.063000*%
%ADD30R,0.725000X0.522000*%
%ADD31FreePoly0,270.000000*%
%ADD32RoundRect,0.237500X0.188820X0.332796X-0.367243X0.107420X-0.188820X-0.332796X0.367243X-0.107420X0*%
%ADD33RotRect,0.725000X0.522000X156.186000*%
%ADD34FreePoly0,246.186000*%
%ADD35RoundRect,0.237500X-0.367243X-0.107420X0.188820X-0.332796X0.367243X0.107420X-0.188820X0.332796X0*%
%ADD36RoundRect,0.237500X-0.300000X-0.237500X0.300000X-0.237500X0.300000X0.237500X-0.300000X0.237500X0*%
%ADD37RoundRect,0.237500X-0.338410X0.178563X-0.096149X-0.370353X0.338410X-0.178563X0.096149X0.370353X0*%
%ADD38RoundRect,0.237500X-0.380700X0.038385X0.049993X-0.379351X0.380700X-0.038385X-0.049993X0.379351X0*%
%ADD39RoundRect,0.237500X-0.237500X0.300000X-0.237500X-0.300000X0.237500X-0.300000X0.237500X0.300000X0*%
G04 APERTURE END LIST*
D10*
%TO.C,REF\u002A\u002A*%
X138000000Y-119000000D03*
%TD*%
%TO.C,REF\u002A\u002A*%
X112000000Y-84000000D03*
%TD*%
%TO.C,REF\u002A\u002A*%
X88000000Y-84000000D03*
%TD*%
%TO.C,REF\u002A\u002A*%
X62000000Y-119000000D03*
%TD*%
D11*
%TO.C,MK1*%
X40001000Y-119987500D03*
D12*
X42075000Y-120825000D03*
X41253000Y-120825000D03*
D13*
X39351000Y-119987500D03*
D12*
X41253000Y-119150000D03*
X42075000Y-119150000D03*
%TD*%
D14*
%TO.C,C6*%
X122273251Y-68185932D03*
X121576749Y-69764068D03*
%TD*%
D11*
%TO.C,MK2*%
X44566992Y-97033306D03*
D15*
X46174530Y-98588525D03*
X45412723Y-98279760D03*
D16*
X43964591Y-96789149D03*
D15*
X46041897Y-96727418D03*
X46803703Y-97036183D03*
%TD*%
D17*
%TO.C,C7*%
X140444122Y-80674505D03*
X139205878Y-81875495D03*
%TD*%
D11*
%TO.C,MK3*%
X57565346Y-77580679D03*
D18*
X58471021Y-79625829D03*
X57880971Y-79053531D03*
D19*
X57098761Y-77128133D03*
D18*
X59047149Y-77851178D03*
X59637199Y-78423476D03*
%TD*%
D11*
%TO.C,MK9*%
X160000000Y-120000000D03*
D12*
X157926000Y-119162500D03*
X158748000Y-119162500D03*
D20*
X160650000Y-120000000D03*
D12*
X158748000Y-120837500D03*
X157926000Y-120837500D03*
%TD*%
D11*
%TO.C,MK4*%
X76989941Y-64554693D03*
D21*
X77061162Y-66790271D03*
X76729264Y-66038255D03*
D22*
X76727491Y-63960033D03*
D21*
X78261656Y-65361942D03*
X78593554Y-66113958D03*
%TD*%
D23*
%TO.C,J1*%
X93650000Y-78267500D03*
D24*
X93650000Y-80807500D03*
X96190000Y-78267500D03*
X96190000Y-80807500D03*
X98730000Y-78267500D03*
X98730000Y-80807500D03*
X101270000Y-78267500D03*
X101270000Y-80807500D03*
X103810000Y-78267500D03*
X103810000Y-80807500D03*
X106350000Y-78267500D03*
X106350000Y-80807500D03*
%TD*%
D11*
%TO.C,MK7*%
X142424991Y-77577145D03*
D25*
X140353138Y-78419942D03*
X140943188Y-77847644D03*
D26*
X142891576Y-77124599D03*
D25*
X142109366Y-79049997D03*
X141519316Y-79622295D03*
%TD*%
D27*
%TO.C,C9*%
X156412500Y-120850000D03*
X154687500Y-120850000D03*
%TD*%
D11*
%TO.C,MK8*%
X155436005Y-97048830D03*
D28*
X153199294Y-97051707D03*
X153961100Y-96742942D03*
D29*
X156038406Y-96804673D03*
D28*
X154590274Y-98295284D03*
X153828467Y-98604049D03*
%TD*%
D11*
%TO.C,MK5*%
X100012500Y-59998000D03*
D30*
X99175000Y-62072000D03*
X99175000Y-61250000D03*
D31*
X100012500Y-59348000D03*
D30*
X100850000Y-61250000D03*
X100850000Y-62072000D03*
%TD*%
D32*
%TO.C,C8*%
X152449340Y-99176023D03*
X150850660Y-99823977D03*
%TD*%
D11*
%TO.C,MK6*%
X122948363Y-64562579D03*
D33*
X121344750Y-66121844D03*
X121676648Y-65369828D03*
D34*
X123210813Y-63967919D03*
D33*
X123209040Y-66046141D03*
X122877142Y-66798157D03*
%TD*%
D35*
%TO.C,C2*%
X48200660Y-97601023D03*
X49799340Y-98248977D03*
%TD*%
D36*
%TO.C,C1*%
X43587500Y-119150000D03*
X45312500Y-119150000D03*
%TD*%
D37*
%TO.C,C4*%
X79201749Y-67485932D03*
X79898251Y-69064068D03*
%TD*%
D38*
%TO.C,C3*%
X60730878Y-79474505D03*
X61969122Y-80675495D03*
%TD*%
D39*
%TO.C,C5*%
X100850000Y-63587500D03*
X100850000Y-65312500D03*
%TD*%
M02*
