M48
; DRILL file {KiCad 7.0.1} date Fri May 12 16:25:07 2023
; FORMAT={-:-/ absolute / metric / decimal}
; #@! TF.CreationDate,2023-05-12T16:25:07+02:00
; #@! TF.GenerationSoftware,Kicad,Pcbnew,7.0.1
; #@! TF.FileFunction,Plated,1,2,PTH
FMAT,2
METRIC
; #@! TA.AperFunction,Plated,PTH,ViaDrill
T1C0.400
; #@! TA.AperFunction,Plated,PTH,ComponentDrill
T2C1.100
%
G90
G05
T1
X41.2Y-117.8
X43.5Y-117.75
X46.05Y-95.375
X48.75Y-96.25
X60.025Y-76.875
X61.75Y-78.5
X78.0Y-68.0
X79.3Y-64.325
X99.5Y-63.5
X102.075Y-61.25
X123.992Y-68.74
X124.775Y-66.05
X141.5Y-81.5
X143.05Y-79.975
X153.0Y-100.75
X155.55Y-99.25
X156.5Y-123.0
X158.8Y-122.2
T2
X93.65Y-78.267
X93.65Y-80.807
X96.19Y-78.267
X96.19Y-80.807
X98.73Y-78.267
X98.73Y-80.807
X101.27Y-78.267
X101.27Y-80.807
X103.81Y-78.267
X103.81Y-80.807
X106.35Y-78.267
X106.35Y-80.807
T0
M30
