%TF.GenerationSoftware,KiCad,Pcbnew,7.0.2*%
%TF.CreationDate,2023-06-20T04:38:37+02:00*%
%TF.ProjectId,SenseU_Mainboard,53656e73-6555-45f4-9d61-696e626f6172,rev?*%
%TF.SameCoordinates,Original*%
%TF.FileFunction,Copper,L2,Bot*%
%TF.FilePolarity,Positive*%
%FSLAX46Y46*%
G04 Gerber Fmt 4.6, Leading zero omitted, Abs format (unit mm)*
G04 Created by KiCad (PCBNEW 7.0.2) date 2023-06-20 04:38:37*
%MOMM*%
%LPD*%
G01*
G04 APERTURE LIST*
%TA.AperFunction,ComponentPad*%
%ADD10R,0.900000X0.500000*%
%TD*%
%TA.AperFunction,ComponentPad*%
%ADD11C,1.397000*%
%TD*%
%TA.AperFunction,ComponentPad*%
%ADD12O,1.050000X2.100000*%
%TD*%
%TA.AperFunction,ComponentPad*%
%ADD13O,1.000000X2.000000*%
%TD*%
%TA.AperFunction,ViaPad*%
%ADD14C,0.800000*%
%TD*%
%TA.AperFunction,Conductor*%
%ADD15C,0.200000*%
%TD*%
G04 APERTURE END LIST*
D10*
%TO.P,AE1,2*%
%TO.N,N/C*%
X99014000Y-138599000D03*
%TD*%
D11*
%TO.P,J3,A1,A1*%
%TO.N,VDD*%
X177495200Y-94970600D03*
%TO.P,J3,A2,A2*%
%TO.N,/MCU & Comms/FPGA/PDM-2*%
X174955200Y-94970600D03*
%TO.P,J3,A3,A3*%
%TO.N,/MCU & Comms/FPGA/PDM-4*%
X172415200Y-94970600D03*
%TO.P,J3,A4,A4*%
%TO.N,/MCU & Comms/FPGA/PDM-6*%
X169875200Y-94970600D03*
%TO.P,J3,A5,A5*%
%TO.N,/MCU & Comms/FPGA/PDM-8*%
X167335200Y-94970600D03*
%TO.P,J3,A6,A6*%
%TO.N,/MCU & Comms/FPGA/CLK*%
X164795200Y-94970600D03*
%TO.P,J3,B1,B1*%
%TO.N,/MCU & Comms/FPGA/PDM-9*%
X177495200Y-97510600D03*
%TO.P,J3,B2,B2*%
%TO.N,/MCU & Comms/FPGA/PDM-7*%
X174955200Y-97510600D03*
%TO.P,J3,B3,B3*%
%TO.N,/MCU & Comms/FPGA/PDM-5*%
X172415200Y-97510600D03*
%TO.P,J3,B4,B4*%
%TO.N,/MCU & Comms/FPGA/PDM-3*%
X169875200Y-97510600D03*
%TO.P,J3,B5,B5*%
%TO.N,/MCU & Comms/FPGA/PDM-1*%
X167335200Y-97510600D03*
%TO.P,J3,B6,B6*%
%TO.N,GND*%
X164795200Y-97510600D03*
%TD*%
D12*
%TO.P,J1,S1,SHIELD*%
%TO.N,GND*%
X150878000Y-100446000D03*
D13*
%TO.P,J1,S2*%
%TO.N,N/C*%
X150878000Y-96266000D03*
%TO.P,J1,S3*%
X142238000Y-96266000D03*
D12*
%TO.P,J1,S4*%
X142238000Y-100446000D03*
%TD*%
D14*
%TO.N,VBUS*%
X117285500Y-118618000D03*
X103120923Y-130303189D03*
X115062000Y-117094000D03*
X117348000Y-127699500D03*
X115570000Y-107696000D03*
X117602000Y-109474000D03*
%TO.N,GND*%
X152146000Y-136398000D03*
X140462000Y-131064000D03*
X99602231Y-114947390D03*
X161290000Y-118364000D03*
X167386000Y-118618000D03*
X157988000Y-101092000D03*
X177038000Y-118618000D03*
X178816000Y-114046000D03*
X182372000Y-114046000D03*
X128778000Y-97028000D03*
X101346000Y-108712000D03*
X151188872Y-109669128D03*
X175006000Y-118618000D03*
X165100000Y-136398000D03*
X104902000Y-108204000D03*
X127508000Y-136906000D03*
X136398000Y-97028000D03*
X112776000Y-109157500D03*
X167386000Y-114046000D03*
X110113517Y-122521839D03*
X103378000Y-122873500D03*
X175260000Y-114046000D03*
X107442000Y-105918000D03*
X137668000Y-103124000D03*
X120396000Y-105410000D03*
X140462000Y-143002000D03*
X102362000Y-110998000D03*
X107442000Y-103378000D03*
X147828000Y-104648000D03*
X110998000Y-114808000D03*
X175768000Y-131318000D03*
X108337107Y-114999500D03*
X178562000Y-109982000D03*
X156464000Y-118364000D03*
X165354000Y-143002000D03*
X108458000Y-112268000D03*
X112522000Y-106934000D03*
X98806000Y-125222000D03*
X109977766Y-104897881D03*
X140462000Y-136652000D03*
X176022000Y-136398000D03*
X125984000Y-106172000D03*
X182372000Y-118618000D03*
X169646256Y-109605002D03*
X107188000Y-100838000D03*
X127508000Y-143002000D03*
X130048000Y-105156000D03*
X182118000Y-109982000D03*
X180340000Y-109982000D03*
X115316000Y-119634000D03*
X115824000Y-123698000D03*
X158750000Y-109790500D03*
X132334000Y-97028000D03*
X144780000Y-110236000D03*
X115316000Y-129794000D03*
X152400000Y-143002000D03*
X152146000Y-131318000D03*
X132589964Y-106411222D03*
X176022000Y-143002000D03*
X161036000Y-114046000D03*
X174244000Y-109220000D03*
X156718000Y-114554000D03*
X176784000Y-109982000D03*
X127508000Y-130810000D03*
X138430000Y-111760000D03*
X178816000Y-118618000D03*
X113792000Y-120650000D03*
X164846000Y-131318000D03*
%TO.N,BATT+*%
X107891500Y-109474000D03*
X119126000Y-97536000D03*
X114300000Y-99060000D03*
%TO.N,Net-(U3-V3)*%
X134112000Y-104902000D03*
X132334000Y-105156000D03*
%TO.N,VDD*%
X107379500Y-125222000D03*
X109335307Y-119063500D03*
X99568000Y-126238000D03*
X123952000Y-106426000D03*
X152146000Y-102108000D03*
X104394000Y-125222000D03*
X106934000Y-118872000D03*
X117602000Y-107950000D03*
X114554000Y-103886000D03*
X109728000Y-123444000D03*
%TO.N,Net-(U4-DEC4)*%
X108966000Y-117664500D03*
X102616000Y-116586000D03*
%TO.N,Charge Fault*%
X114554000Y-115824000D03*
X98608717Y-120694247D03*
%TO.N,Charge Status*%
X112772923Y-118873189D03*
X99049562Y-122591651D03*
%TO.N,Net-(F2-Pad1)*%
X97536000Y-117856000D03*
X100073991Y-118116158D03*
%TO.N,Net-(U2-SW)*%
X107188000Y-113284000D03*
X108890500Y-116586000D03*
%TO.N,Net-(U4-DCC)*%
X100838000Y-111506000D03*
X101613246Y-117819000D03*
%TO.N,/MCU & Comms/MicroController/IO 3*%
X97790000Y-114554000D03*
X99822000Y-129286000D03*
X98610500Y-121693748D03*
%TO.N,/MCU & Comms/MicroController/RST*%
X102123465Y-128000535D03*
X100838000Y-132380500D03*
%TO.N,/MCU & Comms/MicroController/IO 5*%
X97790000Y-128270000D03*
X99028812Y-123693445D03*
%TO.N,/MCU & Comms/SDA*%
X98610500Y-118649743D03*
X130302000Y-113284000D03*
%TO.N,/MCU & Comms/SCL*%
X98551198Y-119647485D03*
X129540000Y-114046000D03*
%TO.N,DATA-*%
X134874000Y-110236000D03*
X138075036Y-104246403D03*
X147752500Y-102817582D03*
X146304000Y-102870000D03*
X101537500Y-125921500D03*
X134620000Y-106172000D03*
%TO.N,DATA+*%
X101854000Y-127000000D03*
X135890000Y-110744000D03*
X138738887Y-105123606D03*
X135636000Y-106172000D03*
X142494000Y-104648000D03*
%TO.N,/MCU & Comms/FPGA/PDM-6*%
X168656000Y-95312500D03*
X152654000Y-114300000D03*
%TO.N,/MCU & Comms/FPGA/PDM-8*%
X150876000Y-114300000D03*
X166116000Y-95504000D03*
%TO.N,/MCU & Comms/FPGA/CLK*%
X147828000Y-114554000D03*
X163322000Y-95504000D03*
%TO.N,/MCU & Comms/FPGA/PDM-5*%
X167245622Y-104761622D03*
X163830000Y-104710500D03*
%TO.N,/MCU & Comms/UART_TX*%
X138430000Y-110236000D03*
X137835500Y-106172000D03*
%TD*%
D15*
%TO.N,VBUS*%
X104140000Y-127508000D02*
X117156500Y-127508000D01*
X117602000Y-109474000D02*
X115824000Y-107696000D01*
X117156500Y-127508000D02*
X117348000Y-127699500D01*
X115824000Y-107696000D02*
X115570000Y-107696000D01*
X117285500Y-118618000D02*
X116586000Y-118618000D01*
X103120923Y-130303189D02*
X103120923Y-128527077D01*
X103120923Y-128527077D02*
X104140000Y-127508000D01*
X116586000Y-118618000D02*
X115062000Y-117094000D01*
%TO.N,GND*%
X110061356Y-122574000D02*
X103677500Y-122574000D01*
X102362000Y-109728000D02*
X102362000Y-110998000D01*
X108337107Y-113596393D02*
X112776000Y-109157500D01*
X101346000Y-108712000D02*
X102362000Y-109728000D01*
X115316000Y-123190000D02*
X115824000Y-123698000D01*
X103677500Y-122574000D02*
X103378000Y-122873500D01*
X110113517Y-122521839D02*
X110061356Y-122574000D01*
X158750000Y-112522000D02*
X156718000Y-114554000D01*
X169646256Y-109605002D02*
X173858998Y-109605002D01*
X158750000Y-109790500D02*
X158750000Y-112522000D01*
X108337107Y-114999500D02*
X108337107Y-113596393D01*
X111920161Y-122521839D02*
X110113517Y-122521839D01*
X151188872Y-109669128D02*
X151188872Y-108008872D01*
X151188872Y-108008872D02*
X147828000Y-104648000D01*
X98806000Y-125222000D02*
X101154500Y-122873500D01*
X112776000Y-109157500D02*
X109977766Y-106359266D01*
X109977766Y-106359266D02*
X109977766Y-104897881D01*
X113792000Y-120650000D02*
X111920161Y-122521839D01*
X115316000Y-119634000D02*
X115316000Y-123190000D01*
X173858998Y-109605002D02*
X174244000Y-109220000D01*
X101154500Y-122873500D02*
X103378000Y-122873500D01*
%TO.N,BATT+*%
X114300000Y-99060000D02*
X117602000Y-99060000D01*
X107891500Y-109474000D02*
X108712000Y-108653500D01*
X117602000Y-99060000D02*
X119126000Y-97536000D01*
X108712000Y-105156000D02*
X114300000Y-99568000D01*
X114300000Y-99568000D02*
X114300000Y-99060000D01*
X108712000Y-108653500D02*
X108712000Y-105156000D01*
%TO.N,Net-(U3-V3)*%
X132334000Y-105156000D02*
X133858000Y-105156000D01*
X133858000Y-105156000D02*
X134112000Y-104902000D01*
%TO.N,VDD*%
X109157500Y-123444000D02*
X107379500Y-125222000D01*
X107379500Y-125222000D02*
X104394000Y-125222000D01*
X117602000Y-107950000D02*
X117602000Y-106934000D01*
X100584000Y-125222000D02*
X104394000Y-125222000D01*
X107188000Y-119126000D02*
X106934000Y-118872000D01*
X109272807Y-119126000D02*
X107188000Y-119126000D01*
X128270000Y-102108000D02*
X123952000Y-106426000D01*
X117602000Y-106934000D02*
X114554000Y-103886000D01*
X152146000Y-102108000D02*
X128270000Y-102108000D01*
X109335307Y-119063500D02*
X109272807Y-119126000D01*
X99568000Y-126238000D02*
X100584000Y-125222000D01*
X109728000Y-123444000D02*
X109157500Y-123444000D01*
%TO.N,Net-(U4-DEC4)*%
X108966000Y-117664500D02*
X103694500Y-117664500D01*
X103694500Y-117664500D02*
X102616000Y-116586000D01*
%TO.N,Charge Fault*%
X98608717Y-120694247D02*
X99003042Y-121088572D01*
X109289428Y-121088572D02*
X114554000Y-115824000D01*
X99003042Y-121088572D02*
X109289428Y-121088572D01*
%TO.N,Charge Status*%
X99049562Y-122591651D02*
X99467213Y-122174000D01*
X109472112Y-122174000D02*
X112772923Y-118873189D01*
X99467213Y-122174000D02*
X109472112Y-122174000D01*
%TO.N,Net-(F2-Pad1)*%
X97629743Y-117949743D02*
X97536000Y-117856000D01*
X99907576Y-117949743D02*
X97629743Y-117949743D01*
X100073991Y-118116158D02*
X99907576Y-117949743D01*
%TO.N,Net-(U2-SW)*%
X108890500Y-116586000D02*
X107442000Y-116586000D01*
X107442000Y-116586000D02*
X107188000Y-116332000D01*
X107188000Y-116332000D02*
X107188000Y-113284000D01*
%TO.N,Net-(U4-DCC)*%
X101613246Y-117819000D02*
X101613246Y-112281246D01*
X101613246Y-112281246D02*
X100838000Y-111506000D01*
%TO.N,/MCU & Comms/MicroController/IO 3*%
X98610500Y-121693748D02*
X97028000Y-123276248D01*
X97790000Y-129286000D02*
X99822000Y-129286000D01*
X97028000Y-128524000D02*
X97028000Y-123276248D01*
X98610500Y-121693748D02*
X96774000Y-119857248D01*
X96774000Y-119857248D02*
X96774000Y-115570000D01*
X97790000Y-129286000D02*
X97028000Y-128524000D01*
X96774000Y-115570000D02*
X97790000Y-114554000D01*
%TO.N,/MCU & Comms/MicroController/RST*%
X102123465Y-128000535D02*
X100838000Y-129286000D01*
X100838000Y-129286000D02*
X100838000Y-132380500D01*
%TO.N,/MCU & Comms/MicroController/IO 5*%
X97428000Y-123806000D02*
X97428000Y-127908000D01*
X99028812Y-123693445D02*
X97540555Y-123693445D01*
X97428000Y-127908000D02*
X97790000Y-128270000D01*
X97540555Y-123693445D02*
X97428000Y-123806000D01*
%TO.N,/MCU & Comms/SDA*%
X107223950Y-118172000D02*
X107415950Y-118364000D01*
X98610500Y-118649743D02*
X98776915Y-118816158D01*
X98776915Y-118816158D02*
X100363941Y-118816158D01*
X115062000Y-113284000D02*
X130302000Y-113284000D01*
X109982000Y-118364000D02*
X115062000Y-113284000D01*
X107415950Y-118364000D02*
X109982000Y-118364000D01*
X105410000Y-118618000D02*
X105856000Y-118172000D01*
X100363941Y-118816158D02*
X100562099Y-118618000D01*
X100562099Y-118618000D02*
X105410000Y-118618000D01*
X105856000Y-118172000D02*
X107223950Y-118172000D01*
%TO.N,/MCU & Comms/SCL*%
X115316000Y-114046000D02*
X129540000Y-114046000D01*
X114264050Y-115124000D02*
X114264050Y-115097950D01*
X108738050Y-120650000D02*
X114264050Y-115124000D01*
X114264050Y-115097950D02*
X115316000Y-114046000D01*
X99553713Y-120650000D02*
X108738050Y-120650000D01*
X98551198Y-119647485D02*
X99553713Y-120650000D01*
%TO.N,DATA-*%
X134874000Y-122428000D02*
X134874000Y-110236000D01*
X122236500Y-125921500D02*
X122299000Y-125984000D01*
X146304000Y-102870000D02*
X147700082Y-102870000D01*
X138075036Y-104246403D02*
X139451439Y-102870000D01*
X131318000Y-125984000D02*
X134874000Y-122428000D01*
X122299000Y-125984000D02*
X131318000Y-125984000D01*
X138075036Y-104246403D02*
X136545597Y-104246403D01*
X101537500Y-125921500D02*
X122236500Y-125921500D01*
X136545597Y-104246403D02*
X134620000Y-106172000D01*
X139451439Y-102870000D02*
X146304000Y-102870000D01*
X147700082Y-102870000D02*
X147752500Y-102817582D01*
%TO.N,DATA+*%
X135382000Y-122936000D02*
X135382000Y-112268000D01*
X136684394Y-105123606D02*
X135636000Y-106172000D01*
X139214493Y-104648000D02*
X138738887Y-105123606D01*
X138738887Y-105123606D02*
X136684394Y-105123606D01*
X101854000Y-127000000D02*
X131318000Y-127000000D01*
X135382000Y-112268000D02*
X135382000Y-111252000D01*
X135382000Y-111252000D02*
X135890000Y-110744000D01*
X131318000Y-127000000D02*
X135382000Y-122936000D01*
X142494000Y-104648000D02*
X139214493Y-104648000D01*
%TO.N,/MCU & Comms/FPGA/PDM-6*%
X152654000Y-114300000D02*
X168656000Y-98298000D01*
X168656000Y-98298000D02*
X168656000Y-95312500D01*
%TO.N,/MCU & Comms/FPGA/PDM-8*%
X150876000Y-114300000D02*
X166116000Y-99060000D01*
X166116000Y-99060000D02*
X166116000Y-95504000D01*
%TO.N,/MCU & Comms/FPGA/CLK*%
X163322000Y-99060000D02*
X163322000Y-95504000D01*
X147828000Y-114554000D02*
X163322000Y-99060000D01*
%TO.N,/MCU & Comms/FPGA/PDM-5*%
X163830000Y-104710500D02*
X167194500Y-104710500D01*
X167194500Y-104710500D02*
X167245622Y-104761622D01*
%TO.N,/MCU & Comms/UART_TX*%
X137835500Y-109641500D02*
X137835500Y-106172000D01*
X138430000Y-110236000D02*
X137835500Y-109641500D01*
%TD*%
%TA.AperFunction,Conductor*%
%TO.N,GND*%
G36*
X190447257Y-92455583D02*
G01*
X190450375Y-92456500D01*
X190497129Y-92456500D01*
X190502855Y-92456632D01*
X190672804Y-92464489D01*
X190875892Y-92474466D01*
X190886874Y-92475499D01*
X191071445Y-92501246D01*
X191215413Y-92522602D01*
X191259376Y-92529124D01*
X191269553Y-92531072D01*
X191453898Y-92574429D01*
X191635909Y-92620020D01*
X191645170Y-92622729D01*
X191707866Y-92643742D01*
X191824977Y-92682994D01*
X191827134Y-92683741D01*
X192002082Y-92746339D01*
X192010315Y-92749624D01*
X192184299Y-92826446D01*
X192187100Y-92827726D01*
X192354483Y-92906892D01*
X192361793Y-92910652D01*
X192528203Y-93003342D01*
X192531547Y-93005274D01*
X192690026Y-93100262D01*
X192696292Y-93104281D01*
X192853642Y-93212068D01*
X192857419Y-93214762D01*
X193005593Y-93324657D01*
X193010943Y-93328856D01*
X193157704Y-93450724D01*
X193161760Y-93454244D01*
X193298406Y-93578092D01*
X193302814Y-93582289D01*
X193437709Y-93717184D01*
X193441906Y-93721592D01*
X193565754Y-93858238D01*
X193569274Y-93862294D01*
X193691142Y-94009055D01*
X193695341Y-94014405D01*
X193805236Y-94162579D01*
X193807939Y-94166369D01*
X193887965Y-94283193D01*
X193915700Y-94323680D01*
X193919747Y-94329990D01*
X193977483Y-94426317D01*
X194014700Y-94488410D01*
X194016670Y-94491819D01*
X194109343Y-94658199D01*
X194113109Y-94665521D01*
X194192250Y-94832850D01*
X194193584Y-94835771D01*
X194270363Y-95009656D01*
X194273673Y-95017951D01*
X194336215Y-95192743D01*
X194337036Y-95195112D01*
X194397268Y-95374823D01*
X194399980Y-95384099D01*
X194445582Y-95566151D01*
X194488924Y-95750433D01*
X194490874Y-95760619D01*
X194518755Y-95948572D01*
X194544495Y-96133093D01*
X194545535Y-96144138D01*
X194555511Y-96347213D01*
X194563368Y-96517156D01*
X194563500Y-96522855D01*
X194573324Y-142238885D01*
X194573192Y-142244638D01*
X194565685Y-142407042D01*
X194555284Y-142618200D01*
X194554245Y-142629229D01*
X194529427Y-142807160D01*
X194500559Y-143001772D01*
X194498609Y-143011964D01*
X194456249Y-143192074D01*
X194409599Y-143378315D01*
X194406889Y-143387583D01*
X194347692Y-143564206D01*
X194346872Y-143566575D01*
X194283218Y-143744480D01*
X194279901Y-143752791D01*
X194204211Y-143924216D01*
X194202871Y-143927147D01*
X194122564Y-144096946D01*
X194118798Y-144104268D01*
X194027318Y-144268508D01*
X194025348Y-144271918D01*
X193929089Y-144432519D01*
X193925030Y-144438847D01*
X193818583Y-144594243D01*
X193815881Y-144598033D01*
X193704566Y-144748125D01*
X193700366Y-144753476D01*
X193579880Y-144898573D01*
X193576361Y-144902629D01*
X193450985Y-145040962D01*
X193446788Y-145045369D01*
X193313412Y-145178748D01*
X193309004Y-145182946D01*
X193170662Y-145308333D01*
X193166606Y-145311852D01*
X193021517Y-145432334D01*
X193016167Y-145436534D01*
X192866095Y-145547837D01*
X192862305Y-145550539D01*
X192706877Y-145657011D01*
X192700548Y-145661070D01*
X192539979Y-145757312D01*
X192536570Y-145759283D01*
X192372315Y-145850774D01*
X192364993Y-145854539D01*
X192195175Y-145934859D01*
X192192244Y-145936199D01*
X192020847Y-146011879D01*
X192012535Y-146015196D01*
X191834615Y-146078858D01*
X191832247Y-146079679D01*
X191655657Y-146138867D01*
X191646381Y-146141578D01*
X191460098Y-146188242D01*
X191280008Y-146230600D01*
X191269821Y-146232550D01*
X191075191Y-146261422D01*
X190897321Y-146286234D01*
X190886278Y-146287274D01*
X190664396Y-146298177D01*
X190513802Y-146305140D01*
X190508124Y-146305272D01*
X100167023Y-146340998D01*
X100162927Y-146339797D01*
X100119090Y-146340939D01*
X100113017Y-146340948D01*
X99958872Y-146337410D01*
X99753510Y-146332042D01*
X99741264Y-146331113D01*
X99566832Y-146309156D01*
X99382668Y-146284179D01*
X99371372Y-146282109D01*
X99196093Y-146241533D01*
X99121469Y-146222997D01*
X99018962Y-146197535D01*
X99008713Y-146194514D01*
X98837983Y-146136081D01*
X98835369Y-146135154D01*
X98666449Y-146073086D01*
X98657296Y-146069301D01*
X98570715Y-146029381D01*
X98492640Y-145993382D01*
X98489488Y-145991874D01*
X98416510Y-145955646D01*
X98329026Y-145912215D01*
X98321019Y-145907866D01*
X98164606Y-145815317D01*
X98160894Y-145813032D01*
X98010439Y-145716712D01*
X98003586Y-145711993D01*
X97857213Y-145603792D01*
X97853149Y-145600655D01*
X97714212Y-145488737D01*
X97708515Y-145483855D01*
X97573833Y-145361166D01*
X97569537Y-145357059D01*
X97443687Y-145230864D01*
X97439061Y-145225967D01*
X97384479Y-145164939D01*
X97317570Y-145090127D01*
X97313217Y-145084985D01*
X97201798Y-144945888D01*
X97198195Y-144941163D01*
X97091238Y-144793675D01*
X97087005Y-144787448D01*
X96991230Y-144636936D01*
X96988556Y-144632533D01*
X96897321Y-144475077D01*
X96893393Y-144467742D01*
X96814374Y-144307466D01*
X96812538Y-144303569D01*
X96737941Y-144137814D01*
X96734523Y-144129406D01*
X96673188Y-143961057D01*
X96672045Y-143957775D01*
X96614894Y-143785675D01*
X96612153Y-143776165D01*
X96604375Y-143744480D01*
X96569247Y-143601386D01*
X96568644Y-143598806D01*
X96529525Y-143422506D01*
X96527667Y-143412009D01*
X96503641Y-143231144D01*
X96482789Y-143052319D01*
X96481996Y-143040953D01*
X96477647Y-142855183D01*
X96475216Y-142679312D01*
X96475653Y-142667089D01*
X96493071Y-142463270D01*
X96505907Y-142318529D01*
X96508945Y-142302837D01*
X96509661Y-142291347D01*
X96511112Y-142283365D01*
X96507983Y-142276163D01*
X96507027Y-142260827D01*
X96507022Y-142241272D01*
X96506149Y-138893578D01*
X98063500Y-138893578D01*
X98063501Y-138896872D01*
X98069909Y-138956483D01*
X98120204Y-139091331D01*
X98206454Y-139206546D01*
X98321669Y-139292796D01*
X98456517Y-139343091D01*
X98516127Y-139349500D01*
X99511872Y-139349499D01*
X99571483Y-139343091D01*
X99706331Y-139292796D01*
X99821546Y-139206546D01*
X99907796Y-139091331D01*
X99958091Y-138956483D01*
X99964500Y-138896873D01*
X99964499Y-138301128D01*
X99958091Y-138241517D01*
X99907796Y-138106669D01*
X99821546Y-137991454D01*
X99706331Y-137905204D01*
X99571483Y-137854909D01*
X99511873Y-137848500D01*
X99508550Y-137848500D01*
X98519439Y-137848500D01*
X98519420Y-137848500D01*
X98516128Y-137848501D01*
X98512848Y-137848853D01*
X98512840Y-137848854D01*
X98456515Y-137854909D01*
X98321669Y-137905204D01*
X98206454Y-137991454D01*
X98120204Y-138106668D01*
X98069910Y-138241515D01*
X98069909Y-138241517D01*
X98063500Y-138301127D01*
X98063500Y-138304448D01*
X98063500Y-138304449D01*
X98063500Y-138893560D01*
X98063500Y-138893578D01*
X96506149Y-138893578D01*
X96505101Y-134874000D01*
X112186551Y-134874000D01*
X112206317Y-135125149D01*
X112265126Y-135370110D01*
X112313330Y-135486484D01*
X112361534Y-135602859D01*
X112493164Y-135817659D01*
X112656776Y-136009224D01*
X112848341Y-136172836D01*
X113063141Y-136304466D01*
X113295889Y-136400873D01*
X113540852Y-136459683D01*
X113729118Y-136474500D01*
X113731563Y-136474500D01*
X113852437Y-136474500D01*
X113854882Y-136474500D01*
X114043148Y-136459683D01*
X114288111Y-136400873D01*
X114520859Y-136304466D01*
X114735659Y-136172836D01*
X114927224Y-136009224D01*
X115090836Y-135817659D01*
X115222466Y-135602859D01*
X115318873Y-135370111D01*
X115377683Y-135125148D01*
X115397449Y-134874000D01*
X115377683Y-134622852D01*
X115318873Y-134377889D01*
X115222466Y-134145141D01*
X115090836Y-133930341D01*
X114927224Y-133738776D01*
X114735659Y-133575164D01*
X114520859Y-133443534D01*
X114404484Y-133395330D01*
X114288110Y-133347126D01*
X114043149Y-133288317D01*
X113857316Y-133273691D01*
X113857301Y-133273690D01*
X113854882Y-133273500D01*
X113729118Y-133273500D01*
X113726699Y-133273690D01*
X113726683Y-133273691D01*
X113540850Y-133288317D01*
X113295889Y-133347126D01*
X113063139Y-133443535D01*
X112848342Y-133575163D01*
X112656776Y-133738776D01*
X112493163Y-133930342D01*
X112361535Y-134145139D01*
X112265126Y-134377889D01*
X112206317Y-134622850D01*
X112186551Y-134874000D01*
X96505101Y-134874000D01*
X96503609Y-129148235D01*
X96523276Y-129081194D01*
X96576068Y-129035425D01*
X96645224Y-129025464D01*
X96708787Y-129054472D01*
X96715290Y-129060525D01*
X97331799Y-129677034D01*
X97342494Y-129689229D01*
X97361717Y-129714282D01*
X97435598Y-129770972D01*
X97487159Y-129810536D01*
X97633238Y-129871044D01*
X97758698Y-129887561D01*
X97789999Y-129891682D01*
X97789999Y-129891681D01*
X97790000Y-129891682D01*
X97821302Y-129887560D01*
X97837487Y-129886500D01*
X99095741Y-129886500D01*
X99162780Y-129906185D01*
X99187890Y-129927527D01*
X99216128Y-129958888D01*
X99369269Y-130070151D01*
X99542197Y-130147144D01*
X99727352Y-130186500D01*
X99727354Y-130186500D01*
X99916648Y-130186500D01*
X100087719Y-130150138D01*
X100157386Y-130155454D01*
X100213120Y-130197591D01*
X100237225Y-130263171D01*
X100237500Y-130271428D01*
X100237500Y-131654047D01*
X100217815Y-131721086D01*
X100205650Y-131737019D01*
X100105466Y-131848283D01*
X100010820Y-132012215D01*
X99952326Y-132192242D01*
X99932540Y-132380500D01*
X99952326Y-132568757D01*
X100010820Y-132748784D01*
X100105466Y-132912716D01*
X100232129Y-133053389D01*
X100385269Y-133164651D01*
X100558197Y-133241644D01*
X100743352Y-133281000D01*
X100743354Y-133281000D01*
X100932648Y-133281000D01*
X101056083Y-133254762D01*
X101117803Y-133241644D01*
X101290730Y-133164651D01*
X101443871Y-133053388D01*
X101570533Y-132912716D01*
X101665179Y-132748784D01*
X101723674Y-132568756D01*
X101743460Y-132380500D01*
X101723674Y-132192244D01*
X101665179Y-132012216D01*
X101665179Y-132012215D01*
X101570533Y-131848283D01*
X101470350Y-131737019D01*
X101440120Y-131674028D01*
X101438500Y-131654047D01*
X101438500Y-129586096D01*
X101458185Y-129519057D01*
X101474814Y-129498420D01*
X102035880Y-128937354D01*
X102097204Y-128903869D01*
X102123562Y-128901035D01*
X102218113Y-128901035D01*
X102370642Y-128868614D01*
X102440309Y-128873930D01*
X102496043Y-128916067D01*
X102520148Y-128981647D01*
X102520423Y-128989904D01*
X102520423Y-129576736D01*
X102500738Y-129643775D01*
X102488573Y-129659708D01*
X102388389Y-129770972D01*
X102293743Y-129934904D01*
X102235249Y-130114931D01*
X102215463Y-130303188D01*
X102235249Y-130491446D01*
X102293743Y-130671473D01*
X102388389Y-130835405D01*
X102515052Y-130976078D01*
X102668192Y-131087340D01*
X102841120Y-131164333D01*
X103026275Y-131203689D01*
X103026277Y-131203689D01*
X103215571Y-131203689D01*
X103339007Y-131177451D01*
X103400726Y-131164333D01*
X103573653Y-131087340D01*
X103726794Y-130976077D01*
X103853456Y-130835405D01*
X103948102Y-130671473D01*
X104006597Y-130491445D01*
X104026383Y-130303189D01*
X104006597Y-130114933D01*
X103948102Y-129934905D01*
X103948102Y-129934904D01*
X103853456Y-129770972D01*
X103753273Y-129659708D01*
X103723043Y-129596717D01*
X103721423Y-129576736D01*
X103721423Y-128827173D01*
X103741108Y-128760134D01*
X103757742Y-128739492D01*
X104352416Y-128144819D01*
X104413739Y-128111334D01*
X104440097Y-128108500D01*
X116472737Y-128108500D01*
X116539776Y-128128185D01*
X116580123Y-128170499D01*
X116598145Y-128201715D01*
X116615467Y-128231717D01*
X116742129Y-128372389D01*
X116895269Y-128483651D01*
X117068197Y-128560644D01*
X117253352Y-128600000D01*
X117253354Y-128600000D01*
X117442648Y-128600000D01*
X117615020Y-128563361D01*
X117627803Y-128560644D01*
X117800730Y-128483651D01*
X117953871Y-128372388D01*
X118080533Y-128231716D01*
X118175179Y-128067784D01*
X118233674Y-127887756D01*
X118252194Y-127711536D01*
X118278778Y-127646924D01*
X118336076Y-127606939D01*
X118375515Y-127600500D01*
X131270513Y-127600500D01*
X131286697Y-127601560D01*
X131318000Y-127605682D01*
X131474762Y-127585044D01*
X131620841Y-127524536D01*
X131746282Y-127428282D01*
X131765509Y-127403223D01*
X131776190Y-127391043D01*
X135773043Y-123394190D01*
X135785223Y-123383509D01*
X135810282Y-123364282D01*
X135906536Y-123238841D01*
X135967044Y-123092762D01*
X135982500Y-122975361D01*
X135987682Y-122936000D01*
X135985505Y-122919464D01*
X135983561Y-122904696D01*
X135982500Y-122888511D01*
X135982500Y-114554000D01*
X146922540Y-114554000D01*
X146923902Y-114566961D01*
X146942326Y-114742257D01*
X147000820Y-114922284D01*
X147095466Y-115086216D01*
X147222129Y-115226889D01*
X147375269Y-115338151D01*
X147548197Y-115415144D01*
X147733352Y-115454500D01*
X147733354Y-115454500D01*
X147922648Y-115454500D01*
X148046083Y-115428262D01*
X148107803Y-115415144D01*
X148280730Y-115338151D01*
X148344550Y-115291783D01*
X148433870Y-115226889D01*
X148560533Y-115086216D01*
X148655179Y-114922284D01*
X148700357Y-114783241D01*
X148713674Y-114742256D01*
X148733460Y-114554000D01*
X148733459Y-114553998D01*
X148734822Y-114541038D01*
X148738056Y-114541377D01*
X148746858Y-114493222D01*
X148769931Y-114461302D01*
X163713043Y-99518190D01*
X163725223Y-99507509D01*
X163750282Y-99488282D01*
X163846536Y-99362841D01*
X163907044Y-99216762D01*
X163922500Y-99099361D01*
X163927682Y-99060000D01*
X163923558Y-99028680D01*
X163922500Y-99012526D01*
X163922500Y-98602505D01*
X163942184Y-98535470D01*
X163994988Y-98489715D01*
X164064146Y-98479771D01*
X164111776Y-98497082D01*
X164258690Y-98588047D01*
X164465810Y-98668285D01*
X164684145Y-98709100D01*
X164906255Y-98709100D01*
X165124589Y-98668285D01*
X165342420Y-98583898D01*
X165343500Y-98586686D01*
X165393565Y-98572888D01*
X165460267Y-98593687D01*
X165505136Y-98647246D01*
X165515499Y-98696869D01*
X165515500Y-98759901D01*
X165495817Y-98826941D01*
X165479181Y-98847584D01*
X150963584Y-113363181D01*
X150902261Y-113396666D01*
X150875903Y-113399500D01*
X150781352Y-113399500D01*
X150596197Y-113438855D01*
X150423269Y-113515848D01*
X150270129Y-113627110D01*
X150143466Y-113767783D01*
X150048820Y-113931715D01*
X149990326Y-114111742D01*
X149970540Y-114299999D01*
X149990326Y-114488257D01*
X150048820Y-114668284D01*
X150143466Y-114832216D01*
X150270129Y-114972889D01*
X150423269Y-115084151D01*
X150596197Y-115161144D01*
X150781352Y-115200500D01*
X150781354Y-115200500D01*
X150970648Y-115200500D01*
X151094084Y-115174262D01*
X151155803Y-115161144D01*
X151328730Y-115084151D01*
X151481871Y-114972888D01*
X151608533Y-114832216D01*
X151636809Y-114783241D01*
X151657613Y-114747207D01*
X151708179Y-114698992D01*
X151776786Y-114685768D01*
X151841651Y-114711736D01*
X151872387Y-114747207D01*
X151921466Y-114832216D01*
X152048129Y-114972889D01*
X152201269Y-115084151D01*
X152374197Y-115161144D01*
X152559352Y-115200500D01*
X152559354Y-115200500D01*
X152748648Y-115200500D01*
X152872083Y-115174262D01*
X152933803Y-115161144D01*
X153106730Y-115084151D01*
X153259871Y-114972888D01*
X153386533Y-114832216D01*
X153481179Y-114668284D01*
X153539674Y-114488256D01*
X153559460Y-114300000D01*
X153559459Y-114299998D01*
X153560822Y-114287038D01*
X153564056Y-114287377D01*
X153572858Y-114239222D01*
X153595931Y-114207302D01*
X155750335Y-112052898D01*
X186981746Y-112052898D01*
X186991746Y-112262830D01*
X187021020Y-112383500D01*
X187041297Y-112467080D01*
X187128602Y-112658252D01*
X187238845Y-112813066D01*
X187250514Y-112829452D01*
X187402622Y-112974486D01*
X187474964Y-113020978D01*
X187579425Y-113088112D01*
X187598484Y-113095742D01*
X187774543Y-113166225D01*
X187903233Y-113191028D01*
X187980914Y-113206000D01*
X187980915Y-113206000D01*
X188135471Y-113206000D01*
X188138425Y-113206000D01*
X188141376Y-113205718D01*
X188141380Y-113205718D01*
X188198644Y-113200249D01*
X188295218Y-113191028D01*
X188496875Y-113131816D01*
X188683682Y-113035511D01*
X188848886Y-112905592D01*
X188986519Y-112746756D01*
X189091604Y-112564744D01*
X189160344Y-112366133D01*
X189190254Y-112158102D01*
X189180254Y-111948170D01*
X189130704Y-111743924D01*
X189108022Y-111694257D01*
X189043397Y-111552747D01*
X188921487Y-111381550D01*
X188921486Y-111381548D01*
X188769378Y-111236514D01*
X188737257Y-111215871D01*
X188592574Y-111122887D01*
X188436609Y-111060449D01*
X188397457Y-111044775D01*
X188397456Y-111044774D01*
X188397454Y-111044774D01*
X188191086Y-111005000D01*
X188191085Y-111005000D01*
X188033575Y-111005000D01*
X188030645Y-111005279D01*
X188030619Y-111005281D01*
X187876784Y-111019971D01*
X187675126Y-111079183D01*
X187488315Y-111175490D01*
X187323115Y-111305406D01*
X187185479Y-111464245D01*
X187080396Y-111646254D01*
X187011655Y-111844866D01*
X186992456Y-111978405D01*
X186981746Y-112052898D01*
X155750335Y-112052898D01*
X162791473Y-105011760D01*
X162852794Y-104978277D01*
X162922486Y-104983261D01*
X162978419Y-105025133D01*
X162997083Y-105061125D01*
X163002820Y-105078784D01*
X163097466Y-105242716D01*
X163224129Y-105383389D01*
X163377269Y-105494651D01*
X163550197Y-105571644D01*
X163735352Y-105611000D01*
X163735354Y-105611000D01*
X163924648Y-105611000D01*
X164048084Y-105584762D01*
X164109803Y-105571644D01*
X164282730Y-105494651D01*
X164435871Y-105383388D01*
X164449353Y-105368415D01*
X164464110Y-105352027D01*
X164523597Y-105315379D01*
X164556259Y-105311000D01*
X166473334Y-105311000D01*
X166540373Y-105330685D01*
X166565484Y-105352028D01*
X166639751Y-105434511D01*
X166792891Y-105545773D01*
X166965819Y-105622766D01*
X167150974Y-105662122D01*
X167150976Y-105662122D01*
X167340270Y-105662122D01*
X167463706Y-105635884D01*
X167525425Y-105622766D01*
X167698352Y-105545773D01*
X167776245Y-105489181D01*
X167851492Y-105434511D01*
X167978155Y-105293838D01*
X168072801Y-105129906D01*
X168072801Y-105129905D01*
X168131296Y-104949878D01*
X168151082Y-104761622D01*
X168131296Y-104573366D01*
X168094377Y-104459742D01*
X168072801Y-104393337D01*
X167978155Y-104229405D01*
X167851492Y-104088732D01*
X167698352Y-103977470D01*
X167525424Y-103900477D01*
X167340270Y-103861122D01*
X167340268Y-103861122D01*
X167150976Y-103861122D01*
X167150974Y-103861122D01*
X166965819Y-103900477D01*
X166792891Y-103977470D01*
X166643075Y-104086318D01*
X166577269Y-104109798D01*
X166570190Y-104110000D01*
X164556259Y-104110000D01*
X164489220Y-104090315D01*
X164464110Y-104068973D01*
X164435871Y-104037611D01*
X164282730Y-103926348D01*
X164166735Y-103874703D01*
X164113498Y-103829453D01*
X164093177Y-103762604D01*
X164112222Y-103695380D01*
X164129486Y-103673747D01*
X169047043Y-98756190D01*
X169059223Y-98745509D01*
X169084282Y-98726282D01*
X169169540Y-98615171D01*
X169225967Y-98573969D01*
X169295713Y-98569814D01*
X169333196Y-98585233D01*
X169338470Y-98588499D01*
X169545672Y-98668770D01*
X169764096Y-98709600D01*
X169764098Y-98709600D01*
X169986302Y-98709600D01*
X169986304Y-98709600D01*
X170204728Y-98668770D01*
X170411930Y-98588499D01*
X170600855Y-98471522D01*
X170600854Y-98471522D01*
X170765067Y-98321823D01*
X170850351Y-98208889D01*
X170898978Y-98144496D01*
X170898978Y-98144494D01*
X170898980Y-98144493D01*
X170998024Y-97945584D01*
X171025934Y-97847493D01*
X171063213Y-97788399D01*
X171126523Y-97758842D01*
X171195762Y-97768204D01*
X171248949Y-97813514D01*
X171264466Y-97847493D01*
X171292375Y-97945584D01*
X171391419Y-98144493D01*
X171525332Y-98321823D01*
X171689544Y-98471522D01*
X171792825Y-98535470D01*
X171878470Y-98588499D01*
X172085672Y-98668770D01*
X172304096Y-98709600D01*
X172304098Y-98709600D01*
X172526302Y-98709600D01*
X172526304Y-98709600D01*
X172744728Y-98668770D01*
X172951930Y-98588499D01*
X173140855Y-98471522D01*
X173140855Y-98471521D01*
X173305067Y-98321823D01*
X173390351Y-98208889D01*
X173438978Y-98144496D01*
X173438978Y-98144494D01*
X173438980Y-98144493D01*
X173538024Y-97945584D01*
X173565934Y-97847493D01*
X173603213Y-97788399D01*
X173666523Y-97758842D01*
X173735762Y-97768204D01*
X173788949Y-97813514D01*
X173804466Y-97847493D01*
X173832375Y-97945584D01*
X173931419Y-98144493D01*
X174065332Y-98321823D01*
X174229544Y-98471522D01*
X174332825Y-98535470D01*
X174418470Y-98588499D01*
X174625672Y-98668770D01*
X174844096Y-98709600D01*
X174844098Y-98709600D01*
X175066302Y-98709600D01*
X175066304Y-98709600D01*
X175284728Y-98668770D01*
X175491930Y-98588499D01*
X175680855Y-98471522D01*
X175680854Y-98471521D01*
X175845067Y-98321823D01*
X175930351Y-98208889D01*
X175978978Y-98144496D01*
X175978978Y-98144494D01*
X175978980Y-98144493D01*
X176078024Y-97945584D01*
X176105934Y-97847493D01*
X176143213Y-97788399D01*
X176206523Y-97758842D01*
X176275762Y-97768204D01*
X176328949Y-97813514D01*
X176344466Y-97847493D01*
X176372375Y-97945584D01*
X176471419Y-98144493D01*
X176605332Y-98321823D01*
X176769544Y-98471522D01*
X176872825Y-98535470D01*
X176958470Y-98588499D01*
X177165672Y-98668770D01*
X177384096Y-98709600D01*
X177384098Y-98709600D01*
X177606302Y-98709600D01*
X177606304Y-98709600D01*
X177824728Y-98668770D01*
X178031930Y-98588499D01*
X178220855Y-98471522D01*
X178385067Y-98321823D01*
X178470351Y-98208889D01*
X178518978Y-98144496D01*
X178518978Y-98144494D01*
X178518980Y-98144493D01*
X178618024Y-97945584D01*
X178678834Y-97731862D01*
X178685935Y-97655224D01*
X178699337Y-97510600D01*
X178678834Y-97289340D01*
X178678834Y-97289337D01*
X178618024Y-97075615D01*
X178518980Y-96876706D01*
X178385067Y-96699376D01*
X178220855Y-96549677D01*
X178172925Y-96520000D01*
X188894551Y-96520000D01*
X188914317Y-96771149D01*
X188973126Y-97016110D01*
X189010193Y-97105596D01*
X189069534Y-97248859D01*
X189201164Y-97463659D01*
X189364776Y-97655224D01*
X189556341Y-97818836D01*
X189771141Y-97950466D01*
X190003889Y-98046873D01*
X190248852Y-98105683D01*
X190437118Y-98120500D01*
X190439563Y-98120500D01*
X190560437Y-98120500D01*
X190562882Y-98120500D01*
X190751148Y-98105683D01*
X190996111Y-98046873D01*
X191228859Y-97950466D01*
X191443659Y-97818836D01*
X191635224Y-97655224D01*
X191798836Y-97463659D01*
X191930466Y-97248859D01*
X192026873Y-97016111D01*
X192085683Y-96771148D01*
X192105449Y-96520000D01*
X192085683Y-96268852D01*
X192026873Y-96023889D01*
X191930466Y-95791141D01*
X191798836Y-95576341D01*
X191635224Y-95384776D01*
X191443659Y-95221164D01*
X191228859Y-95089534D01*
X191056042Y-95017951D01*
X190996110Y-94993126D01*
X190751149Y-94934317D01*
X190565316Y-94919691D01*
X190565301Y-94919690D01*
X190562882Y-94919500D01*
X190437118Y-94919500D01*
X190434699Y-94919690D01*
X190434683Y-94919691D01*
X190248850Y-94934317D01*
X190003889Y-94993126D01*
X189771139Y-95089535D01*
X189556342Y-95221163D01*
X189364776Y-95384776D01*
X189201163Y-95576342D01*
X189069535Y-95791139D01*
X188973126Y-96023889D01*
X188914317Y-96268850D01*
X188894551Y-96520000D01*
X178172925Y-96520000D01*
X178031932Y-96432702D01*
X178031930Y-96432701D01*
X177834524Y-96356225D01*
X177779125Y-96313654D01*
X177755535Y-96247887D01*
X177771246Y-96179807D01*
X177821270Y-96131028D01*
X177834515Y-96124978D01*
X178031930Y-96048499D01*
X178220855Y-95931522D01*
X178316916Y-95843951D01*
X178385067Y-95781823D01*
X178400905Y-95760850D01*
X178518978Y-95604496D01*
X178518978Y-95604494D01*
X178518980Y-95604493D01*
X178618024Y-95405584D01*
X178678834Y-95191862D01*
X178683437Y-95142189D01*
X178699337Y-94970600D01*
X178682828Y-94792443D01*
X178678834Y-94749337D01*
X178618024Y-94535615D01*
X178518980Y-94336706D01*
X178385067Y-94159376D01*
X178220855Y-94009677D01*
X178031932Y-93892702D01*
X178031930Y-93892701D01*
X177824728Y-93812430D01*
X177606304Y-93771600D01*
X177384096Y-93771600D01*
X177165672Y-93812430D01*
X176958467Y-93892702D01*
X176769544Y-94009677D01*
X176605332Y-94159376D01*
X176471419Y-94336706D01*
X176372376Y-94535614D01*
X176344466Y-94633707D01*
X176307187Y-94692800D01*
X176243877Y-94722357D01*
X176174637Y-94712995D01*
X176121451Y-94667685D01*
X176105934Y-94633707D01*
X176080950Y-94545901D01*
X176078024Y-94535616D01*
X176056216Y-94491819D01*
X175978980Y-94336706D01*
X175845067Y-94159376D01*
X175680855Y-94009677D01*
X175491932Y-93892702D01*
X175491930Y-93892701D01*
X175284728Y-93812430D01*
X175066304Y-93771600D01*
X174844096Y-93771600D01*
X174625671Y-93812430D01*
X174625672Y-93812430D01*
X174418467Y-93892702D01*
X174229544Y-94009677D01*
X174065332Y-94159376D01*
X173931419Y-94336706D01*
X173832376Y-94535614D01*
X173804466Y-94633707D01*
X173767187Y-94692800D01*
X173703877Y-94722357D01*
X173634637Y-94712995D01*
X173581451Y-94667685D01*
X173565934Y-94633707D01*
X173540950Y-94545901D01*
X173538024Y-94535616D01*
X173516216Y-94491819D01*
X173438980Y-94336706D01*
X173305067Y-94159376D01*
X173140855Y-94009677D01*
X172951932Y-93892702D01*
X172951930Y-93892701D01*
X172744728Y-93812430D01*
X172526304Y-93771600D01*
X172304096Y-93771600D01*
X172085671Y-93812430D01*
X172085672Y-93812430D01*
X171878467Y-93892702D01*
X171689544Y-94009677D01*
X171525332Y-94159376D01*
X171391419Y-94336706D01*
X171292376Y-94535614D01*
X171264466Y-94633707D01*
X171227187Y-94692800D01*
X171163877Y-94722357D01*
X171094637Y-94712995D01*
X171041451Y-94667685D01*
X171025934Y-94633707D01*
X171000950Y-94545901D01*
X170998024Y-94535616D01*
X170976216Y-94491819D01*
X170898980Y-94336706D01*
X170765067Y-94159376D01*
X170600855Y-94009677D01*
X170411932Y-93892702D01*
X170411930Y-93892701D01*
X170204728Y-93812430D01*
X169986304Y-93771600D01*
X169764096Y-93771600D01*
X169545671Y-93812430D01*
X169545672Y-93812430D01*
X169338467Y-93892702D01*
X169149544Y-94009677D01*
X168985330Y-94159378D01*
X168861257Y-94323680D01*
X168851422Y-94336704D01*
X168848149Y-94343275D01*
X168800648Y-94394509D01*
X168737152Y-94412000D01*
X168561354Y-94412000D01*
X168506212Y-94423720D01*
X168436545Y-94418403D01*
X168380812Y-94376265D01*
X168369432Y-94357699D01*
X168358978Y-94336703D01*
X168225067Y-94159376D01*
X168060855Y-94009677D01*
X167871932Y-93892702D01*
X167871930Y-93892701D01*
X167664728Y-93812430D01*
X167446304Y-93771600D01*
X167224096Y-93771600D01*
X167005671Y-93812430D01*
X167005672Y-93812430D01*
X166798467Y-93892702D01*
X166609544Y-94009677D01*
X166445332Y-94159376D01*
X166311419Y-94336706D01*
X166212796Y-94534771D01*
X166165293Y-94586009D01*
X166101796Y-94603500D01*
X166028604Y-94603500D01*
X165961565Y-94583815D01*
X165917604Y-94534771D01*
X165818980Y-94336706D01*
X165685067Y-94159376D01*
X165520855Y-94009677D01*
X165331932Y-93892702D01*
X165331930Y-93892701D01*
X165124728Y-93812430D01*
X164906304Y-93771600D01*
X164684096Y-93771600D01*
X164465672Y-93812430D01*
X164258467Y-93892702D01*
X164069544Y-94009677D01*
X163905332Y-94159376D01*
X163771419Y-94336706D01*
X163672373Y-94535618D01*
X163671285Y-94539445D01*
X163667412Y-94545582D01*
X163667254Y-94545901D01*
X163667221Y-94545884D01*
X163634002Y-94598537D01*
X163570691Y-94628090D01*
X163526241Y-94626794D01*
X163416649Y-94603500D01*
X163416646Y-94603500D01*
X163227354Y-94603500D01*
X163227352Y-94603500D01*
X163042197Y-94642855D01*
X162869269Y-94719848D01*
X162716129Y-94831110D01*
X162589466Y-94971783D01*
X162494820Y-95135715D01*
X162436326Y-95315742D01*
X162416540Y-95503999D01*
X162436326Y-95692257D01*
X162494820Y-95872284D01*
X162589464Y-96036213D01*
X162605731Y-96054279D01*
X162689650Y-96147480D01*
X162719880Y-96210471D01*
X162721500Y-96230452D01*
X162721500Y-98759902D01*
X162701815Y-98826941D01*
X162685181Y-98847583D01*
X147915584Y-113617181D01*
X147854261Y-113650666D01*
X147827903Y-113653500D01*
X147733352Y-113653500D01*
X147548197Y-113692855D01*
X147375269Y-113769848D01*
X147222129Y-113881110D01*
X147095466Y-114021783D01*
X147000820Y-114185715D01*
X146942326Y-114365742D01*
X146942325Y-114365744D01*
X146942326Y-114365744D01*
X146922540Y-114554000D01*
X135982500Y-114554000D01*
X135982500Y-111745369D01*
X136002185Y-111678330D01*
X136054989Y-111632575D01*
X136080711Y-111624080D01*
X136169803Y-111605144D01*
X136342730Y-111528151D01*
X136402950Y-111484399D01*
X136495870Y-111416889D01*
X136527690Y-111381550D01*
X136622533Y-111276216D01*
X136717179Y-111112284D01*
X136775674Y-110932256D01*
X136795460Y-110744000D01*
X136775674Y-110555744D01*
X136717179Y-110375716D01*
X136717179Y-110375715D01*
X136622533Y-110211783D01*
X136495870Y-110071110D01*
X136342730Y-109959848D01*
X136169802Y-109882855D01*
X135984648Y-109843500D01*
X135984646Y-109843500D01*
X135795354Y-109843500D01*
X135787139Y-109845245D01*
X135717474Y-109839929D01*
X135661741Y-109797791D01*
X135653973Y-109785954D01*
X135606532Y-109703782D01*
X135479870Y-109563110D01*
X135326730Y-109451848D01*
X135153802Y-109374855D01*
X134968648Y-109335500D01*
X134968646Y-109335500D01*
X134779354Y-109335500D01*
X134779352Y-109335500D01*
X134594197Y-109374855D01*
X134421269Y-109451848D01*
X134268129Y-109563110D01*
X134141466Y-109703783D01*
X134046820Y-109867715D01*
X133988326Y-110047742D01*
X133968540Y-110236000D01*
X133988326Y-110424257D01*
X134046820Y-110604284D01*
X134141464Y-110768213D01*
X134141467Y-110768216D01*
X134241651Y-110879481D01*
X134271880Y-110942471D01*
X134273500Y-110962452D01*
X134273500Y-122127903D01*
X134253815Y-122194942D01*
X134237181Y-122215584D01*
X131105584Y-125347181D01*
X131044261Y-125380666D01*
X131017903Y-125383500D01*
X122531501Y-125383500D01*
X122484049Y-125374061D01*
X122393262Y-125336456D01*
X122275861Y-125321000D01*
X122236500Y-125315817D01*
X122208663Y-125319482D01*
X122205197Y-125319939D01*
X122189013Y-125321000D01*
X108429096Y-125321000D01*
X108362057Y-125301315D01*
X108316302Y-125248511D01*
X108306358Y-125179353D01*
X108335383Y-125115797D01*
X108341415Y-125109319D01*
X108753271Y-124697463D01*
X109178553Y-124272180D01*
X109239874Y-124238697D01*
X109309565Y-124243681D01*
X109316667Y-124246583D01*
X109448199Y-124305145D01*
X109633352Y-124344500D01*
X109633354Y-124344500D01*
X109822648Y-124344500D01*
X109967879Y-124313630D01*
X110007803Y-124305144D01*
X110180730Y-124228151D01*
X110333871Y-124116888D01*
X110460533Y-123976216D01*
X110555179Y-123812284D01*
X110613674Y-123632256D01*
X110633460Y-123444000D01*
X110613674Y-123255744D01*
X110555179Y-123075716D01*
X110555179Y-123075715D01*
X110460533Y-122911783D01*
X110333870Y-122771110D01*
X110180734Y-122659850D01*
X110125049Y-122635058D01*
X110106673Y-122626876D01*
X110053437Y-122581626D01*
X110033116Y-122514777D01*
X110052161Y-122447553D01*
X110069424Y-122425921D01*
X112685338Y-119810008D01*
X112746662Y-119776523D01*
X112773020Y-119773689D01*
X112867571Y-119773689D01*
X112996966Y-119746185D01*
X113052726Y-119734333D01*
X113225653Y-119657340D01*
X113327277Y-119583506D01*
X113378793Y-119546078D01*
X113379865Y-119544888D01*
X113505456Y-119405405D01*
X113600102Y-119241473D01*
X113658597Y-119061445D01*
X113678383Y-118873189D01*
X113658597Y-118684933D01*
X113600102Y-118504905D01*
X113600102Y-118504904D01*
X113505456Y-118340972D01*
X113378793Y-118200299D01*
X113292456Y-118137572D01*
X113249790Y-118082242D01*
X113243811Y-118012629D01*
X113276417Y-117950834D01*
X113277590Y-117949643D01*
X113976510Y-117250723D01*
X114037831Y-117217240D01*
X114107523Y-117222224D01*
X114163456Y-117264096D01*
X114182120Y-117300088D01*
X114234820Y-117462284D01*
X114329466Y-117626216D01*
X114456129Y-117766889D01*
X114609269Y-117878151D01*
X114782197Y-117955144D01*
X114967352Y-117994500D01*
X114967354Y-117994500D01*
X115061903Y-117994500D01*
X115128942Y-118014185D01*
X115149583Y-118030818D01*
X115736763Y-118617999D01*
X116127802Y-119009038D01*
X116138497Y-119021233D01*
X116157718Y-119046282D01*
X116189212Y-119070448D01*
X116189214Y-119070450D01*
X116283159Y-119142536D01*
X116429238Y-119203044D01*
X116556392Y-119219784D01*
X116578214Y-119222657D01*
X116642111Y-119250923D01*
X116654178Y-119262623D01*
X116679629Y-119290888D01*
X116832769Y-119402151D01*
X117005697Y-119479144D01*
X117190852Y-119518500D01*
X117190854Y-119518500D01*
X117380148Y-119518500D01*
X117503584Y-119492262D01*
X117565303Y-119479144D01*
X117738230Y-119402151D01*
X117822819Y-119340694D01*
X117891370Y-119290889D01*
X117955394Y-119219784D01*
X118018033Y-119150216D01*
X118112679Y-118986284D01*
X118171174Y-118806256D01*
X118190960Y-118618000D01*
X118171174Y-118429744D01*
X118112679Y-118249716D01*
X118112679Y-118249715D01*
X118018033Y-118085783D01*
X117891370Y-117945110D01*
X117738230Y-117833848D01*
X117565302Y-117756855D01*
X117380148Y-117717500D01*
X117380146Y-117717500D01*
X117190854Y-117717500D01*
X117190852Y-117717500D01*
X117005697Y-117756855D01*
X116832771Y-117833847D01*
X116813216Y-117848055D01*
X116747409Y-117871533D01*
X116679356Y-117855706D01*
X116652652Y-117835416D01*
X116003934Y-117186699D01*
X115970449Y-117125376D01*
X115969437Y-117106897D01*
X115968822Y-117106962D01*
X115965536Y-117075696D01*
X115947674Y-116905744D01*
X115889179Y-116725716D01*
X115889179Y-116725715D01*
X115794533Y-116561783D01*
X115667870Y-116421111D01*
X115514731Y-116309850D01*
X115514730Y-116309849D01*
X115466680Y-116288455D01*
X115413445Y-116243205D01*
X115393124Y-116176356D01*
X115399186Y-116136864D01*
X115439674Y-116012256D01*
X115459460Y-115824000D01*
X115439674Y-115635744D01*
X115381179Y-115455716D01*
X115381179Y-115455715D01*
X115286533Y-115291783D01*
X115191348Y-115186071D01*
X115161117Y-115123079D01*
X115169742Y-115053744D01*
X115195811Y-115015422D01*
X115528418Y-114682816D01*
X115589739Y-114649334D01*
X115616097Y-114646500D01*
X128813741Y-114646500D01*
X128880780Y-114666185D01*
X128905890Y-114687527D01*
X128934128Y-114718888D01*
X129087269Y-114830151D01*
X129260197Y-114907144D01*
X129445352Y-114946500D01*
X129445354Y-114946500D01*
X129634648Y-114946500D01*
X129758084Y-114920262D01*
X129819803Y-114907144D01*
X129992730Y-114830151D01*
X130145871Y-114718888D01*
X130272533Y-114578216D01*
X130367179Y-114414284D01*
X130382951Y-114365742D01*
X130423071Y-114242268D01*
X130462509Y-114184592D01*
X130515219Y-114159296D01*
X130581803Y-114145144D01*
X130581804Y-114145143D01*
X130581806Y-114145143D01*
X130754730Y-114068151D01*
X130907870Y-113956889D01*
X131034533Y-113816216D01*
X131129179Y-113652284D01*
X131137358Y-113627112D01*
X131187674Y-113472256D01*
X131207460Y-113284000D01*
X131187674Y-113095744D01*
X131129179Y-112915716D01*
X131129179Y-112915715D01*
X131034533Y-112751783D01*
X130907870Y-112611110D01*
X130754730Y-112499848D01*
X130581802Y-112422855D01*
X130396648Y-112383500D01*
X130396646Y-112383500D01*
X130207354Y-112383500D01*
X130207352Y-112383500D01*
X130022197Y-112422855D01*
X129849269Y-112499848D01*
X129696128Y-112611111D01*
X129667890Y-112642473D01*
X129608403Y-112679121D01*
X129575741Y-112683500D01*
X122154114Y-112683500D01*
X122087075Y-112663815D01*
X122041320Y-112611011D01*
X122031376Y-112541853D01*
X122038921Y-112513603D01*
X122110330Y-112334378D01*
X122110330Y-112334377D01*
X122110331Y-112334375D01*
X122140260Y-112151817D01*
X122130245Y-111967093D01*
X122080754Y-111788841D01*
X121994100Y-111625396D01*
X121874337Y-111484400D01*
X121847824Y-111464245D01*
X121727063Y-111372444D01*
X121559169Y-111294768D01*
X121378497Y-111255000D01*
X121239887Y-111255000D01*
X121236552Y-111255362D01*
X121236546Y-111255363D01*
X121102091Y-111269985D01*
X120926779Y-111329056D01*
X120768262Y-111424431D01*
X120633960Y-111551649D01*
X120530140Y-111704772D01*
X120461669Y-111876621D01*
X120446837Y-111967093D01*
X120432771Y-112052898D01*
X120431740Y-112059185D01*
X120441754Y-112243907D01*
X120491245Y-112422159D01*
X120533266Y-112501417D01*
X120547277Y-112569868D01*
X120522056Y-112635027D01*
X120465611Y-112676206D01*
X120423711Y-112683500D01*
X115109487Y-112683500D01*
X115093302Y-112682439D01*
X115089376Y-112681922D01*
X115061999Y-112678317D01*
X115026741Y-112682959D01*
X115022639Y-112683500D01*
X114963938Y-112691228D01*
X114905237Y-112698956D01*
X114759161Y-112759462D01*
X114708982Y-112797965D01*
X114633718Y-112855718D01*
X114633716Y-112855719D01*
X114633715Y-112855721D01*
X114614490Y-112880774D01*
X114603798Y-112892965D01*
X110036163Y-117460600D01*
X109974840Y-117494085D01*
X109905148Y-117489101D01*
X109849215Y-117447229D01*
X109830551Y-117411236D01*
X109810408Y-117349243D01*
X109793179Y-117296216D01*
X109698533Y-117132284D01*
X109698532Y-117132283D01*
X109692517Y-117121864D01*
X109676044Y-117053964D01*
X109692517Y-116997865D01*
X109717679Y-116954284D01*
X109776174Y-116774256D01*
X109795960Y-116586000D01*
X109776174Y-116397744D01*
X109717679Y-116217716D01*
X109717679Y-116217715D01*
X109623033Y-116053783D01*
X109496370Y-115913110D01*
X109343230Y-115801848D01*
X109170302Y-115724855D01*
X108985148Y-115685500D01*
X108985146Y-115685500D01*
X108795854Y-115685500D01*
X108795852Y-115685500D01*
X108610697Y-115724855D01*
X108437769Y-115801848D01*
X108284628Y-115913111D01*
X108256390Y-115944473D01*
X108196903Y-115981121D01*
X108164241Y-115985500D01*
X107912500Y-115985500D01*
X107845461Y-115965815D01*
X107799706Y-115913011D01*
X107788500Y-115861500D01*
X107788500Y-114010452D01*
X107808185Y-113943413D01*
X107820344Y-113927486D01*
X107920533Y-113816216D01*
X108015179Y-113652284D01*
X108073674Y-113472256D01*
X108093460Y-113284000D01*
X108073674Y-113095744D01*
X108015179Y-112915716D01*
X108015179Y-112915715D01*
X107920533Y-112751783D01*
X107793870Y-112611110D01*
X107640730Y-112499848D01*
X107467802Y-112422855D01*
X107282648Y-112383500D01*
X107282646Y-112383500D01*
X107093354Y-112383500D01*
X107093352Y-112383500D01*
X106908197Y-112422855D01*
X106735269Y-112499848D01*
X106582129Y-112611110D01*
X106455466Y-112751783D01*
X106360820Y-112915715D01*
X106302326Y-113095742D01*
X106282540Y-113284000D01*
X106302326Y-113472257D01*
X106360820Y-113652284D01*
X106455464Y-113816213D01*
X106455467Y-113816216D01*
X106555651Y-113927481D01*
X106585880Y-113990471D01*
X106587500Y-114010452D01*
X106587500Y-116284511D01*
X106586439Y-116300696D01*
X106582317Y-116331999D01*
X106587500Y-116371360D01*
X106602956Y-116488762D01*
X106663463Y-116634840D01*
X106759716Y-116760281D01*
X106775207Y-116772167D01*
X106777929Y-116774256D01*
X106784768Y-116779503D01*
X106796964Y-116790199D01*
X106859084Y-116852319D01*
X106892569Y-116913642D01*
X106887585Y-116983334D01*
X106845713Y-117039267D01*
X106780249Y-117063684D01*
X106771403Y-117064000D01*
X103994597Y-117064000D01*
X103927558Y-117044315D01*
X103906916Y-117027681D01*
X103557934Y-116678699D01*
X103524449Y-116617376D01*
X103523437Y-116598897D01*
X103522822Y-116598962D01*
X103521460Y-116585999D01*
X103501674Y-116397744D01*
X103443179Y-116217716D01*
X103443179Y-116217715D01*
X103348533Y-116053783D01*
X103221870Y-115913110D01*
X103068730Y-115801848D01*
X102895802Y-115724855D01*
X102710648Y-115685500D01*
X102710646Y-115685500D01*
X102521354Y-115685500D01*
X102521351Y-115685500D01*
X102363526Y-115719046D01*
X102293859Y-115713730D01*
X102238126Y-115671593D01*
X102214021Y-115606013D01*
X102213746Y-115597756D01*
X102213746Y-112328733D01*
X102214807Y-112312547D01*
X102218928Y-112281246D01*
X102198290Y-112124484D01*
X102137782Y-111978405D01*
X102114581Y-111948169D01*
X102065696Y-111884460D01*
X102041528Y-111852964D01*
X102016475Y-111833740D01*
X102004281Y-111823046D01*
X101779934Y-111598699D01*
X101746449Y-111537376D01*
X101745437Y-111518897D01*
X101744822Y-111518962D01*
X101743460Y-111506000D01*
X101723674Y-111317744D01*
X101665179Y-111137716D01*
X101665179Y-111137715D01*
X101570533Y-110973783D01*
X101443870Y-110833110D01*
X101290730Y-110721848D01*
X101117802Y-110644855D01*
X100932648Y-110605500D01*
X100932646Y-110605500D01*
X100743354Y-110605500D01*
X100743352Y-110605500D01*
X100558197Y-110644855D01*
X100385269Y-110721848D01*
X100232129Y-110833110D01*
X100105466Y-110973783D01*
X100010820Y-111137715D01*
X99952326Y-111317742D01*
X99932540Y-111506000D01*
X99952326Y-111694257D01*
X100010820Y-111874284D01*
X100105466Y-112038216D01*
X100232129Y-112178889D01*
X100385269Y-112290151D01*
X100558197Y-112367144D01*
X100743352Y-112406500D01*
X100743354Y-112406500D01*
X100837903Y-112406500D01*
X100904942Y-112426185D01*
X100925584Y-112442819D01*
X100976427Y-112493662D01*
X101009912Y-112554985D01*
X101012746Y-112581343D01*
X101012746Y-117092547D01*
X100993061Y-117159586D01*
X100980896Y-117175519D01*
X100880712Y-117286784D01*
X100826568Y-117380564D01*
X100776001Y-117428780D01*
X100707394Y-117442002D01*
X100646296Y-117418882D01*
X100526721Y-117332006D01*
X100353793Y-117255013D01*
X100168639Y-117215658D01*
X100168637Y-117215658D01*
X99979345Y-117215658D01*
X99979343Y-117215658D01*
X99794188Y-117255013D01*
X99609355Y-117337308D01*
X99607690Y-117333569D01*
X99564324Y-117349041D01*
X99557248Y-117349243D01*
X98346664Y-117349243D01*
X98279625Y-117329558D01*
X98254516Y-117308217D01*
X98177088Y-117222224D01*
X98141870Y-117183110D01*
X97988730Y-117071848D01*
X97815802Y-116994855D01*
X97630648Y-116955500D01*
X97630646Y-116955500D01*
X97498500Y-116955500D01*
X97431461Y-116935815D01*
X97385706Y-116883011D01*
X97374500Y-116831500D01*
X97374500Y-115870096D01*
X97394185Y-115803057D01*
X97410819Y-115782415D01*
X97702416Y-115490819D01*
X97763739Y-115457334D01*
X97790097Y-115454500D01*
X97884648Y-115454500D01*
X98008083Y-115428262D01*
X98069803Y-115415144D01*
X98242730Y-115338151D01*
X98306550Y-115291783D01*
X98395870Y-115226889D01*
X98522533Y-115086216D01*
X98617179Y-114922284D01*
X98662357Y-114783241D01*
X98675674Y-114742256D01*
X98695460Y-114554000D01*
X98675674Y-114365744D01*
X98617179Y-114185716D01*
X98617179Y-114185715D01*
X98522533Y-114021783D01*
X98395870Y-113881110D01*
X98242730Y-113769848D01*
X98069802Y-113692855D01*
X97884648Y-113653500D01*
X97884646Y-113653500D01*
X97695354Y-113653500D01*
X97695352Y-113653500D01*
X97510197Y-113692855D01*
X97337269Y-113769848D01*
X97184129Y-113881110D01*
X97057466Y-114021783D01*
X96962820Y-114185715D01*
X96904326Y-114365742D01*
X96883178Y-114566961D01*
X96879944Y-114566621D01*
X96871132Y-114614792D01*
X96848065Y-114646698D01*
X96711522Y-114783241D01*
X96650199Y-114816726D01*
X96580507Y-114811742D01*
X96524574Y-114769870D01*
X96500157Y-114704406D01*
X96499842Y-114695619D01*
X96498481Y-109473999D01*
X106986040Y-109473999D01*
X107005826Y-109662257D01*
X107064320Y-109842284D01*
X107158966Y-110006216D01*
X107285629Y-110146889D01*
X107438769Y-110258151D01*
X107611697Y-110335144D01*
X107796852Y-110374500D01*
X107796854Y-110374500D01*
X107986148Y-110374500D01*
X108109584Y-110348262D01*
X108171303Y-110335144D01*
X108344230Y-110258151D01*
X108497371Y-110146888D01*
X108624033Y-110006216D01*
X108718679Y-109842284D01*
X108777174Y-109662256D01*
X108796960Y-109474000D01*
X108796959Y-109473998D01*
X108798322Y-109461038D01*
X108801556Y-109461377D01*
X108810358Y-109413222D01*
X108833431Y-109381302D01*
X109103043Y-109111690D01*
X109115223Y-109101009D01*
X109140282Y-109081782D01*
X109236536Y-108956341D01*
X109297044Y-108810262D01*
X109312500Y-108692861D01*
X109317682Y-108653500D01*
X109313561Y-108622196D01*
X109312500Y-108606011D01*
X109312500Y-105456096D01*
X109332185Y-105389057D01*
X109348814Y-105368420D01*
X110831234Y-103886000D01*
X113648540Y-103886000D01*
X113649902Y-103898962D01*
X113668326Y-104074257D01*
X113726820Y-104254284D01*
X113821466Y-104418216D01*
X113948129Y-104558889D01*
X114101269Y-104670151D01*
X114274197Y-104747144D01*
X114459352Y-104786500D01*
X114459354Y-104786500D01*
X114553903Y-104786500D01*
X114620942Y-104806185D01*
X114641584Y-104822819D01*
X115802509Y-105983744D01*
X116960183Y-107141417D01*
X116993668Y-107202740D01*
X116988684Y-107272432D01*
X116964652Y-107312070D01*
X116869466Y-107417783D01*
X116776607Y-107578623D01*
X116726041Y-107626838D01*
X116657434Y-107640062D01*
X116592569Y-107614094D01*
X116581539Y-107604304D01*
X116462619Y-107485384D01*
X116432369Y-107436020D01*
X116426444Y-107417786D01*
X116397179Y-107327716D01*
X116367963Y-107277112D01*
X116302533Y-107163783D01*
X116175870Y-107023110D01*
X116022730Y-106911848D01*
X115849802Y-106834855D01*
X115664648Y-106795500D01*
X115664646Y-106795500D01*
X115475354Y-106795500D01*
X115475352Y-106795500D01*
X115290197Y-106834855D01*
X115117269Y-106911848D01*
X114964129Y-107023110D01*
X114837466Y-107163783D01*
X114742820Y-107327715D01*
X114684326Y-107507742D01*
X114664540Y-107695999D01*
X114684326Y-107884257D01*
X114742820Y-108064284D01*
X114837466Y-108228216D01*
X114964129Y-108368889D01*
X115117269Y-108480151D01*
X115290197Y-108557144D01*
X115475352Y-108596500D01*
X115475354Y-108596500D01*
X115664646Y-108596500D01*
X115772488Y-108573577D01*
X115842156Y-108578893D01*
X115885951Y-108607186D01*
X116660065Y-109381300D01*
X116693550Y-109442623D01*
X116694563Y-109461103D01*
X116695178Y-109461039D01*
X116716326Y-109662257D01*
X116774820Y-109842284D01*
X116869466Y-110006216D01*
X116996129Y-110146889D01*
X117149269Y-110258151D01*
X117322197Y-110335144D01*
X117507352Y-110374500D01*
X117507354Y-110374500D01*
X117696648Y-110374500D01*
X117820084Y-110348262D01*
X117881803Y-110335144D01*
X118054730Y-110258151D01*
X118207871Y-110146888D01*
X118334533Y-110006216D01*
X118429179Y-109842284D01*
X118487674Y-109662256D01*
X118507460Y-109474000D01*
X118487674Y-109285744D01*
X118431123Y-109111698D01*
X118429179Y-109105715D01*
X118334535Y-108941786D01*
X118318108Y-108923542D01*
X118207871Y-108801112D01*
X118207867Y-108801109D01*
X118202342Y-108794973D01*
X118172112Y-108731981D01*
X118180737Y-108662646D01*
X118202342Y-108629027D01*
X118207867Y-108622890D01*
X118207871Y-108622888D01*
X118334533Y-108482216D01*
X118429179Y-108318284D01*
X118487674Y-108138256D01*
X118507460Y-107950000D01*
X118487674Y-107761744D01*
X118443840Y-107626838D01*
X118429179Y-107581715D01*
X118334535Y-107417786D01*
X118319829Y-107401454D01*
X118234347Y-107306517D01*
X118204119Y-107243528D01*
X118202499Y-107223557D01*
X118202499Y-106981489D01*
X118203560Y-106965302D01*
X118204765Y-106956151D01*
X118207682Y-106934000D01*
X118187044Y-106777238D01*
X118126536Y-106631159D01*
X118113566Y-106614256D01*
X118054450Y-106537214D01*
X118030282Y-106505718D01*
X118005229Y-106486494D01*
X117993035Y-106475800D01*
X117943235Y-106426000D01*
X123046540Y-106426000D01*
X123056432Y-106520127D01*
X123066326Y-106614257D01*
X123124820Y-106794284D01*
X123219466Y-106958216D01*
X123346129Y-107098889D01*
X123499269Y-107210151D01*
X123672197Y-107287144D01*
X123857352Y-107326500D01*
X123857354Y-107326500D01*
X124046648Y-107326500D01*
X124170083Y-107300262D01*
X124231803Y-107287144D01*
X124404730Y-107210151D01*
X124414930Y-107202740D01*
X124557870Y-107098889D01*
X124684533Y-106958216D01*
X124779179Y-106794284D01*
X124808445Y-106704213D01*
X124837674Y-106614256D01*
X124857460Y-106426000D01*
X124857459Y-106425998D01*
X124858822Y-106413038D01*
X124862056Y-106413377D01*
X124870858Y-106365222D01*
X124893931Y-106333302D01*
X128482415Y-102744819D01*
X128543739Y-102711334D01*
X128570097Y-102708500D01*
X138464342Y-102708500D01*
X138531381Y-102728185D01*
X138577136Y-102780989D01*
X138587080Y-102850147D01*
X138558055Y-102913703D01*
X138552023Y-102920181D01*
X138162620Y-103309584D01*
X138101297Y-103343069D01*
X138074939Y-103345903D01*
X137980388Y-103345903D01*
X137795233Y-103385258D01*
X137622305Y-103462251D01*
X137469164Y-103573514D01*
X137440926Y-103604876D01*
X137381439Y-103641524D01*
X137348777Y-103645903D01*
X136593084Y-103645903D01*
X136576899Y-103644842D01*
X136572973Y-103644325D01*
X136545596Y-103640720D01*
X136388834Y-103661359D01*
X136242756Y-103721866D01*
X136117313Y-103818121D01*
X136098091Y-103843173D01*
X136087397Y-103855367D01*
X135197491Y-104745273D01*
X135136168Y-104778758D01*
X135066476Y-104773774D01*
X135010543Y-104731902D01*
X134991879Y-104695910D01*
X134983509Y-104670151D01*
X134952062Y-104573366D01*
X134939179Y-104533715D01*
X134844533Y-104369783D01*
X134717870Y-104229110D01*
X134564730Y-104117848D01*
X134391802Y-104040855D01*
X134206648Y-104001500D01*
X134206646Y-104001500D01*
X134017354Y-104001500D01*
X134017352Y-104001500D01*
X133832197Y-104040855D01*
X133659269Y-104117848D01*
X133506129Y-104229110D01*
X133379466Y-104369784D01*
X133308039Y-104493500D01*
X133257472Y-104541716D01*
X133200652Y-104555500D01*
X133060259Y-104555500D01*
X132993220Y-104535815D01*
X132968110Y-104514473D01*
X132939871Y-104483111D01*
X132786730Y-104371848D01*
X132613802Y-104294855D01*
X132428648Y-104255500D01*
X132428646Y-104255500D01*
X132239354Y-104255500D01*
X132239352Y-104255500D01*
X132054197Y-104294855D01*
X131881269Y-104371848D01*
X131728129Y-104483110D01*
X131601466Y-104623783D01*
X131506820Y-104787715D01*
X131448326Y-104967742D01*
X131428540Y-105155999D01*
X131448326Y-105344257D01*
X131506820Y-105524284D01*
X131601466Y-105688216D01*
X131728129Y-105828889D01*
X131881269Y-105940151D01*
X132054197Y-106017144D01*
X132239352Y-106056500D01*
X132239354Y-106056500D01*
X132428648Y-106056500D01*
X132581049Y-106024106D01*
X132613803Y-106017144D01*
X132786730Y-105940151D01*
X132939871Y-105828888D01*
X132939871Y-105828887D01*
X132968110Y-105797527D01*
X133027597Y-105760879D01*
X133060259Y-105756500D01*
X133637491Y-105756500D01*
X133704530Y-105776185D01*
X133750285Y-105828989D01*
X133760229Y-105898147D01*
X133755422Y-105918818D01*
X133734326Y-105983742D01*
X133714540Y-106171999D01*
X133734326Y-106360257D01*
X133792820Y-106540284D01*
X133887466Y-106704216D01*
X134014129Y-106844889D01*
X134167269Y-106956151D01*
X134340197Y-107033144D01*
X134525352Y-107072500D01*
X134525354Y-107072500D01*
X134714648Y-107072500D01*
X134838084Y-107046262D01*
X134899803Y-107033144D01*
X135068092Y-106958216D01*
X135077564Y-106953999D01*
X135146814Y-106944714D01*
X135178436Y-106953999D01*
X135356197Y-107033144D01*
X135541352Y-107072500D01*
X135541354Y-107072500D01*
X135730648Y-107072500D01*
X135854083Y-107046262D01*
X135915803Y-107033144D01*
X136088730Y-106956151D01*
X136195648Y-106878471D01*
X136241870Y-106844889D01*
X136302784Y-106777238D01*
X136368533Y-106704216D01*
X136463179Y-106540284D01*
X136521674Y-106360256D01*
X136541460Y-106172000D01*
X136541459Y-106171998D01*
X136542822Y-106159038D01*
X136546056Y-106159377D01*
X136554858Y-106111222D01*
X136577931Y-106079302D01*
X136734680Y-105922554D01*
X136796000Y-105889071D01*
X136865692Y-105894055D01*
X136921625Y-105935927D01*
X136946042Y-106001391D01*
X136945679Y-106023198D01*
X136930040Y-106171999D01*
X136949826Y-106360257D01*
X137008320Y-106540284D01*
X137102964Y-106704213D01*
X137102967Y-106704216D01*
X137203151Y-106815481D01*
X137233380Y-106878471D01*
X137235000Y-106898452D01*
X137235000Y-109594011D01*
X137233939Y-109610196D01*
X137229817Y-109641499D01*
X137235000Y-109680860D01*
X137250456Y-109798262D01*
X137310963Y-109944340D01*
X137407216Y-110069781D01*
X137432268Y-110089003D01*
X137444464Y-110099699D01*
X137488065Y-110143300D01*
X137521550Y-110204623D01*
X137522563Y-110223103D01*
X137523178Y-110223039D01*
X137544326Y-110424257D01*
X137602820Y-110604284D01*
X137697466Y-110768216D01*
X137824129Y-110908889D01*
X137977269Y-111020151D01*
X138150197Y-111097144D01*
X138335352Y-111136500D01*
X138335354Y-111136500D01*
X138524648Y-111136500D01*
X138648083Y-111110262D01*
X138709803Y-111097144D01*
X138882730Y-111020151D01*
X139003708Y-110932256D01*
X139035870Y-110908889D01*
X139162533Y-110768216D01*
X139257179Y-110604284D01*
X139272951Y-110555742D01*
X139315674Y-110424256D01*
X139335460Y-110236000D01*
X139315674Y-110047744D01*
X139282076Y-109944340D01*
X139257179Y-109867715D01*
X139162533Y-109703783D01*
X139035870Y-109563110D01*
X138882730Y-109451848D01*
X138709802Y-109374855D01*
X138534219Y-109337534D01*
X138472737Y-109304342D01*
X138438961Y-109243179D01*
X138436000Y-109216244D01*
X138436000Y-106898452D01*
X138455685Y-106831413D01*
X138467844Y-106815486D01*
X138568033Y-106704216D01*
X138610213Y-106631159D01*
X138662679Y-106540284D01*
X138663676Y-106537215D01*
X138721174Y-106360256D01*
X138740960Y-106172000D01*
X138739449Y-106157624D01*
X138752016Y-106088895D01*
X138799747Y-106037870D01*
X138836981Y-106023373D01*
X139018690Y-105984750D01*
X139018691Y-105984749D01*
X139018693Y-105984749D01*
X139191617Y-105907757D01*
X139344757Y-105796495D01*
X139471420Y-105655822D01*
X139566066Y-105491890D01*
X139617309Y-105334182D01*
X139656747Y-105276506D01*
X139721105Y-105249308D01*
X139735240Y-105248500D01*
X141767741Y-105248500D01*
X141834780Y-105268185D01*
X141859890Y-105289527D01*
X141888128Y-105320888D01*
X142041269Y-105432151D01*
X142214197Y-105509144D01*
X142399352Y-105548500D01*
X142399354Y-105548500D01*
X142588648Y-105548500D01*
X142712083Y-105522262D01*
X142773803Y-105509144D01*
X142946730Y-105432151D01*
X143006044Y-105389057D01*
X143099870Y-105320889D01*
X143226533Y-105180216D01*
X143321179Y-105016284D01*
X143342755Y-104949879D01*
X143379674Y-104836256D01*
X143399460Y-104648000D01*
X143379674Y-104459744D01*
X143349332Y-104366363D01*
X143321179Y-104279715D01*
X143226533Y-104115783D01*
X143099870Y-103975110D01*
X142946730Y-103863848D01*
X142773802Y-103786855D01*
X142588648Y-103747500D01*
X142588646Y-103747500D01*
X142399354Y-103747500D01*
X142399352Y-103747500D01*
X142214197Y-103786855D01*
X142041269Y-103863848D01*
X141888128Y-103975111D01*
X141859890Y-104006473D01*
X141800403Y-104043121D01*
X141767741Y-104047500D01*
X139422535Y-104047500D01*
X139355496Y-104027815D01*
X139309741Y-103975011D01*
X139299797Y-103905853D01*
X139328822Y-103842297D01*
X139334854Y-103835819D01*
X139408070Y-103762604D01*
X139663854Y-103506819D01*
X139725178Y-103473334D01*
X139751536Y-103470500D01*
X145577741Y-103470500D01*
X145644780Y-103490185D01*
X145669890Y-103511527D01*
X145698128Y-103542888D01*
X145851269Y-103654151D01*
X146024197Y-103731144D01*
X146209352Y-103770500D01*
X146209354Y-103770500D01*
X146398648Y-103770500D01*
X146522083Y-103744262D01*
X146583803Y-103731144D01*
X146756730Y-103654151D01*
X146909871Y-103542888D01*
X146909870Y-103542887D01*
X146938110Y-103511527D01*
X146997597Y-103474879D01*
X147030259Y-103470500D01*
X147078852Y-103470500D01*
X147145891Y-103490185D01*
X147151737Y-103494182D01*
X147299769Y-103601733D01*
X147472697Y-103678726D01*
X147657852Y-103718082D01*
X147657854Y-103718082D01*
X147847148Y-103718082D01*
X147970583Y-103691844D01*
X148032303Y-103678726D01*
X148205230Y-103601733D01*
X148320870Y-103517716D01*
X148358370Y-103490471D01*
X148383780Y-103462251D01*
X148485033Y-103349798D01*
X148579679Y-103185866D01*
X148638174Y-103005838D01*
X148657754Y-102819537D01*
X148684338Y-102754924D01*
X148741636Y-102714939D01*
X148781075Y-102708500D01*
X151419741Y-102708500D01*
X151486780Y-102728185D01*
X151511890Y-102749527D01*
X151540128Y-102780888D01*
X151693269Y-102892151D01*
X151866197Y-102969144D01*
X152051352Y-103008500D01*
X152051354Y-103008500D01*
X152240648Y-103008500D01*
X152364083Y-102982262D01*
X152425803Y-102969144D01*
X152598730Y-102892151D01*
X152751871Y-102780888D01*
X152878533Y-102640216D01*
X152973179Y-102476284D01*
X153031674Y-102296256D01*
X153051460Y-102108000D01*
X153031674Y-101919744D01*
X152973179Y-101739716D01*
X152973179Y-101739715D01*
X152878533Y-101575783D01*
X152751870Y-101435110D01*
X152598730Y-101323848D01*
X152425802Y-101246855D01*
X152240648Y-101207500D01*
X152240646Y-101207500D01*
X152051354Y-101207500D01*
X152051353Y-101207500D01*
X152046897Y-101208447D01*
X151977230Y-101203129D01*
X151921498Y-101160991D01*
X151897394Y-101095410D01*
X151897716Y-101075000D01*
X151902701Y-101024390D01*
X151903000Y-101018311D01*
X151903000Y-100696000D01*
X151178000Y-100696000D01*
X151178000Y-100196000D01*
X151903000Y-100196000D01*
X151903000Y-99873688D01*
X151902701Y-99867604D01*
X151888170Y-99720067D01*
X151829557Y-99526848D01*
X151734379Y-99348784D01*
X151606292Y-99192707D01*
X151450215Y-99064620D01*
X151272146Y-98969440D01*
X151128000Y-98925712D01*
X151128000Y-99729889D01*
X151103543Y-99690390D01*
X151014038Y-99622799D01*
X150906160Y-99592105D01*
X150794479Y-99602454D01*
X150694078Y-99652448D01*
X150628000Y-99724930D01*
X150628000Y-98925712D01*
X150483853Y-98969440D01*
X150305784Y-99064620D01*
X150149707Y-99192707D01*
X150021620Y-99348784D01*
X149972264Y-99441122D01*
X149923301Y-99490966D01*
X149855163Y-99506426D01*
X149789484Y-99482594D01*
X149787420Y-99481044D01*
X149738233Y-99443302D01*
X149731901Y-99440679D01*
X149598236Y-99385313D01*
X149539356Y-99377561D01*
X149489739Y-99371029D01*
X149489737Y-99371028D01*
X149485720Y-99370500D01*
X149410280Y-99370500D01*
X149406263Y-99371028D01*
X149406260Y-99371029D01*
X149297764Y-99385313D01*
X149157768Y-99443301D01*
X149037549Y-99535549D01*
X148945301Y-99655768D01*
X148887312Y-99795764D01*
X148867533Y-99945999D01*
X148887312Y-100096235D01*
X148942364Y-100229140D01*
X148945302Y-100236233D01*
X149037549Y-100356451D01*
X149157767Y-100448698D01*
X149297764Y-100506687D01*
X149410280Y-100521500D01*
X149414333Y-100521500D01*
X149481667Y-100521500D01*
X149485720Y-100521500D01*
X149598236Y-100506687D01*
X149681547Y-100472177D01*
X149751016Y-100464709D01*
X149813496Y-100495984D01*
X149849148Y-100556073D01*
X149853000Y-100586739D01*
X149853000Y-101018311D01*
X149853298Y-101024395D01*
X149867829Y-101171933D01*
X149921089Y-101347505D01*
X149921712Y-101417371D01*
X149884464Y-101476484D01*
X149821170Y-101506075D01*
X149802428Y-101507500D01*
X143314094Y-101507500D01*
X143247055Y-101487815D01*
X143201300Y-101435011D01*
X143191356Y-101365853D01*
X143195433Y-101347505D01*
X143202609Y-101323849D01*
X143248662Y-101172033D01*
X143263500Y-101021380D01*
X143263500Y-100586946D01*
X143283185Y-100519907D01*
X143335989Y-100474152D01*
X143405147Y-100464208D01*
X143434950Y-100472384D01*
X143517764Y-100506687D01*
X143630280Y-100521500D01*
X143634333Y-100521500D01*
X143701667Y-100521500D01*
X143705720Y-100521500D01*
X143818236Y-100506687D01*
X143958233Y-100448698D01*
X144078451Y-100356451D01*
X144170698Y-100236233D01*
X144228687Y-100096236D01*
X144248466Y-99946000D01*
X144228687Y-99795764D01*
X144170698Y-99655767D01*
X144078451Y-99535549D01*
X143958233Y-99443302D01*
X143818236Y-99385313D01*
X143759356Y-99377561D01*
X143709739Y-99371029D01*
X143709737Y-99371028D01*
X143705720Y-99370500D01*
X143630280Y-99370500D01*
X143626263Y-99371028D01*
X143626260Y-99371029D01*
X143517764Y-99385313D01*
X143377766Y-99443302D01*
X143328981Y-99480736D01*
X143263812Y-99505930D01*
X143195367Y-99491891D01*
X143145377Y-99443077D01*
X143144137Y-99440813D01*
X143094798Y-99348506D01*
X142986679Y-99216762D01*
X142966647Y-99192352D01*
X142871508Y-99114275D01*
X142810494Y-99064202D01*
X142632341Y-98968977D01*
X142489715Y-98925712D01*
X142439031Y-98910337D01*
X142259962Y-98892701D01*
X142238000Y-98890538D01*
X142237999Y-98890538D01*
X142036968Y-98910337D01*
X141843656Y-98968978D01*
X141665507Y-99064201D01*
X141509352Y-99192352D01*
X141381201Y-99348507D01*
X141285978Y-99526656D01*
X141227337Y-99719968D01*
X141212798Y-99867585D01*
X141212797Y-99867603D01*
X141212500Y-99870620D01*
X141212500Y-101021380D01*
X141212797Y-101024395D01*
X141212798Y-101024414D01*
X141227337Y-101172031D01*
X141250035Y-101246855D01*
X141273390Y-101323848D01*
X141280567Y-101347505D01*
X141281190Y-101417372D01*
X141243942Y-101476485D01*
X141180648Y-101506075D01*
X141161906Y-101507500D01*
X128317487Y-101507500D01*
X128301302Y-101506439D01*
X128297376Y-101505922D01*
X128269999Y-101502317D01*
X128234741Y-101506959D01*
X128230639Y-101507500D01*
X128171938Y-101515228D01*
X128113237Y-101522956D01*
X127967161Y-101583462D01*
X127916982Y-101621965D01*
X127841718Y-101679718D01*
X127841716Y-101679719D01*
X127841715Y-101679721D01*
X127822490Y-101704774D01*
X127811798Y-101716965D01*
X124039584Y-105489181D01*
X123978261Y-105522666D01*
X123951903Y-105525500D01*
X123857352Y-105525500D01*
X123672197Y-105564855D01*
X123499269Y-105641848D01*
X123346129Y-105753110D01*
X123219466Y-105893783D01*
X123124820Y-106057715D01*
X123066326Y-106237742D01*
X123066325Y-106237744D01*
X123066326Y-106237744D01*
X123046540Y-106426000D01*
X117943235Y-106426000D01*
X115495934Y-103978699D01*
X115462449Y-103917376D01*
X115461437Y-103898897D01*
X115460822Y-103898962D01*
X115459460Y-103885999D01*
X115439674Y-103697744D01*
X115381179Y-103517716D01*
X115381179Y-103517715D01*
X115286533Y-103353783D01*
X115159870Y-103213110D01*
X115006730Y-103101848D01*
X114833802Y-103024855D01*
X114648648Y-102985500D01*
X114648646Y-102985500D01*
X114459354Y-102985500D01*
X114459352Y-102985500D01*
X114274197Y-103024855D01*
X114101269Y-103101848D01*
X113948129Y-103213110D01*
X113821466Y-103353783D01*
X113726820Y-103517715D01*
X113668326Y-103697742D01*
X113651155Y-103861122D01*
X113648540Y-103886000D01*
X110831234Y-103886000D01*
X114691043Y-100026190D01*
X114703223Y-100015509D01*
X114728282Y-99996282D01*
X114824536Y-99870841D01*
X114855634Y-99795764D01*
X114857880Y-99790342D01*
X114899559Y-99737474D01*
X114902504Y-99735334D01*
X114905871Y-99732888D01*
X114918036Y-99719376D01*
X114934110Y-99701527D01*
X114993597Y-99664879D01*
X115026259Y-99660500D01*
X117554513Y-99660500D01*
X117570697Y-99661560D01*
X117602000Y-99665682D01*
X117758762Y-99645044D01*
X117904841Y-99584536D01*
X117968682Y-99535549D01*
X118030282Y-99488282D01*
X118049509Y-99463223D01*
X118060190Y-99451043D01*
X119038416Y-98472819D01*
X119099740Y-98439334D01*
X119126098Y-98436500D01*
X119220648Y-98436500D01*
X119344084Y-98410262D01*
X119405803Y-98397144D01*
X119578730Y-98320151D01*
X119731871Y-98208888D01*
X119858533Y-98068216D01*
X119953179Y-97904284D01*
X120011674Y-97724256D01*
X120031460Y-97536000D01*
X120011674Y-97347744D01*
X119953179Y-97167716D01*
X119953179Y-97167715D01*
X119858533Y-97003783D01*
X119731870Y-96863110D01*
X119668050Y-96816742D01*
X141237500Y-96816742D01*
X141237816Y-96819853D01*
X141237817Y-96819865D01*
X141252926Y-96968440D01*
X141286553Y-97075614D01*
X141313841Y-97162588D01*
X141412591Y-97340502D01*
X141545134Y-97494895D01*
X141706042Y-97619448D01*
X141888729Y-97709060D01*
X142085715Y-97760063D01*
X142288936Y-97770369D01*
X142288936Y-97770368D01*
X142288937Y-97770369D01*
X142490071Y-97739556D01*
X142501401Y-97735360D01*
X142680887Y-97668886D01*
X142853571Y-97561252D01*
X143001053Y-97421059D01*
X143117295Y-97254049D01*
X143197540Y-97067058D01*
X143238500Y-96867741D01*
X143238500Y-96816742D01*
X149877500Y-96816742D01*
X149877816Y-96819853D01*
X149877817Y-96819865D01*
X149892926Y-96968440D01*
X149926553Y-97075614D01*
X149953841Y-97162588D01*
X150052591Y-97340502D01*
X150185134Y-97494895D01*
X150346042Y-97619448D01*
X150528729Y-97709060D01*
X150725715Y-97760063D01*
X150928936Y-97770369D01*
X150928936Y-97770368D01*
X150928937Y-97770369D01*
X151130071Y-97739556D01*
X151141401Y-97735360D01*
X151320887Y-97668886D01*
X151493571Y-97561252D01*
X151641053Y-97421059D01*
X151757295Y-97254049D01*
X151837540Y-97067058D01*
X151878500Y-96867741D01*
X151878500Y-95715258D01*
X151863074Y-95563562D01*
X151802159Y-95369412D01*
X151703409Y-95191498D01*
X151570866Y-95037105D01*
X151409958Y-94912552D01*
X151409957Y-94912551D01*
X151227272Y-94822940D01*
X151161608Y-94805938D01*
X151030285Y-94771937D01*
X151009671Y-94770891D01*
X150827062Y-94761630D01*
X150625928Y-94792443D01*
X150435113Y-94863113D01*
X150262431Y-94970745D01*
X150192623Y-95037104D01*
X150114947Y-95110941D01*
X150097704Y-95135715D01*
X149998705Y-95277950D01*
X149918460Y-95464941D01*
X149907990Y-95515889D01*
X149877500Y-95664259D01*
X149877500Y-96816742D01*
X143238500Y-96816742D01*
X143238500Y-95715258D01*
X143223074Y-95563562D01*
X143162159Y-95369412D01*
X143063409Y-95191498D01*
X142930866Y-95037105D01*
X142769958Y-94912552D01*
X142769957Y-94912551D01*
X142587272Y-94822940D01*
X142521608Y-94805939D01*
X142390285Y-94771937D01*
X142369671Y-94770891D01*
X142187062Y-94761630D01*
X141985928Y-94792443D01*
X141795113Y-94863113D01*
X141622431Y-94970745D01*
X141552623Y-95037104D01*
X141474947Y-95110941D01*
X141457704Y-95135715D01*
X141358705Y-95277950D01*
X141278460Y-95464941D01*
X141267990Y-95515889D01*
X141237500Y-95664259D01*
X141237500Y-96816742D01*
X119668050Y-96816742D01*
X119578730Y-96751848D01*
X119405802Y-96674855D01*
X119220648Y-96635500D01*
X119220646Y-96635500D01*
X119031354Y-96635500D01*
X119031352Y-96635500D01*
X118846197Y-96674855D01*
X118673269Y-96751848D01*
X118520129Y-96863110D01*
X118393466Y-97003783D01*
X118298820Y-97167715D01*
X118240326Y-97347742D01*
X118219178Y-97548961D01*
X118215944Y-97548621D01*
X118207132Y-97596792D01*
X118184065Y-97628698D01*
X117389584Y-98423181D01*
X117328261Y-98456666D01*
X117301903Y-98459500D01*
X115026259Y-98459500D01*
X114959220Y-98439815D01*
X114934110Y-98418473D01*
X114905871Y-98387111D01*
X114752730Y-98275848D01*
X114579802Y-98198855D01*
X114394648Y-98159500D01*
X114394646Y-98159500D01*
X114205354Y-98159500D01*
X114205352Y-98159500D01*
X114020197Y-98198855D01*
X113847269Y-98275848D01*
X113694129Y-98387110D01*
X113567466Y-98527783D01*
X113472820Y-98691715D01*
X113414326Y-98871742D01*
X113394540Y-99060000D01*
X113414326Y-99248257D01*
X113476848Y-99440679D01*
X113473480Y-99441773D01*
X113484784Y-99488392D01*
X113461923Y-99554416D01*
X113448606Y-99570157D01*
X108320965Y-104697798D01*
X108308774Y-104708490D01*
X108283721Y-104727715D01*
X108283719Y-104727716D01*
X108283718Y-104727718D01*
X108204124Y-104831447D01*
X108193752Y-104844963D01*
X108187462Y-104853161D01*
X108126956Y-104999237D01*
X108106317Y-105155999D01*
X108110439Y-105187301D01*
X108111500Y-105203487D01*
X108111500Y-108353401D01*
X108091815Y-108420440D01*
X108075182Y-108441082D01*
X107979084Y-108537181D01*
X107917761Y-108570666D01*
X107891402Y-108573500D01*
X107796852Y-108573500D01*
X107611697Y-108612855D01*
X107438769Y-108689848D01*
X107285629Y-108801110D01*
X107158966Y-108941783D01*
X107064320Y-109105715D01*
X107005826Y-109285742D01*
X106986040Y-109473999D01*
X96498481Y-109473999D01*
X96495914Y-99629056D01*
X110551500Y-99629056D01*
X110555441Y-99645044D01*
X110592209Y-99794224D01*
X110633906Y-99873669D01*
X110671266Y-99944852D01*
X110738241Y-100020451D01*
X110784072Y-100072184D01*
X110854070Y-100120500D01*
X110924070Y-100168818D01*
X111083128Y-100229140D01*
X111209628Y-100244500D01*
X111213377Y-100244500D01*
X111290623Y-100244500D01*
X111294372Y-100244500D01*
X111420872Y-100229140D01*
X111579930Y-100168818D01*
X111719929Y-100072183D01*
X111832734Y-99944852D01*
X111911790Y-99794225D01*
X111952500Y-99629056D01*
X111952500Y-99458944D01*
X111911790Y-99293775D01*
X111832734Y-99143148D01*
X111719929Y-99015817D01*
X111719928Y-99015816D01*
X111719927Y-99015815D01*
X111579930Y-98919182D01*
X111420872Y-98858860D01*
X111298092Y-98843951D01*
X111298080Y-98843950D01*
X111294372Y-98843500D01*
X111209628Y-98843500D01*
X111205920Y-98843950D01*
X111205907Y-98843951D01*
X111083127Y-98858860D01*
X110924069Y-98919182D01*
X110784072Y-99015815D01*
X110671265Y-99143149D01*
X110592209Y-99293775D01*
X110569648Y-99385313D01*
X110551500Y-99458944D01*
X110551500Y-99629056D01*
X96495914Y-99629056D01*
X96494985Y-96063661D01*
X96495276Y-96062669D01*
X96494990Y-96014979D01*
X96495044Y-96012000D01*
X98470551Y-96012000D01*
X98478094Y-96107840D01*
X98490317Y-96263149D01*
X98549126Y-96508110D01*
X98597330Y-96624485D01*
X98645534Y-96740859D01*
X98777164Y-96955659D01*
X98940776Y-97147224D01*
X99132341Y-97310836D01*
X99347141Y-97442466D01*
X99579889Y-97538873D01*
X99824852Y-97597683D01*
X100013118Y-97612500D01*
X100015563Y-97612500D01*
X100136437Y-97612500D01*
X100138882Y-97612500D01*
X100327148Y-97597683D01*
X100572111Y-97538873D01*
X100804859Y-97442466D01*
X101019659Y-97310836D01*
X101211224Y-97147224D01*
X101374836Y-96955659D01*
X101506466Y-96740859D01*
X101552777Y-96629055D01*
X110551500Y-96629055D01*
X110592209Y-96794224D01*
X110635499Y-96876704D01*
X110671266Y-96944852D01*
X110723475Y-97003784D01*
X110784072Y-97072184D01*
X110796917Y-97081050D01*
X110924070Y-97168818D01*
X111083128Y-97229140D01*
X111209628Y-97244500D01*
X111213377Y-97244500D01*
X111290623Y-97244500D01*
X111294372Y-97244500D01*
X111420872Y-97229140D01*
X111579930Y-97168818D01*
X111719929Y-97072183D01*
X111832734Y-96944852D01*
X111911790Y-96794225D01*
X111952500Y-96629056D01*
X111952500Y-96458944D01*
X111911790Y-96293775D01*
X111832734Y-96143148D01*
X111719929Y-96015817D01*
X111719928Y-96015816D01*
X111719927Y-96015815D01*
X111579930Y-95919182D01*
X111420872Y-95858860D01*
X111298092Y-95843951D01*
X111298080Y-95843950D01*
X111294372Y-95843500D01*
X111209628Y-95843500D01*
X111205920Y-95843950D01*
X111205907Y-95843951D01*
X111083127Y-95858860D01*
X110924069Y-95919182D01*
X110784072Y-96015815D01*
X110671265Y-96143149D01*
X110592209Y-96293775D01*
X110551500Y-96458944D01*
X110551500Y-96629055D01*
X101552777Y-96629055D01*
X101602873Y-96508111D01*
X101661683Y-96263148D01*
X101681449Y-96012000D01*
X101661683Y-95760852D01*
X101602873Y-95515889D01*
X101506466Y-95283141D01*
X101374836Y-95068341D01*
X101211224Y-94876776D01*
X101019659Y-94713164D01*
X100804859Y-94581534D01*
X100688485Y-94533330D01*
X100572110Y-94485126D01*
X100327149Y-94426317D01*
X100141316Y-94411691D01*
X100141301Y-94411690D01*
X100138882Y-94411500D01*
X100013118Y-94411500D01*
X100010699Y-94411690D01*
X100010683Y-94411691D01*
X99824850Y-94426317D01*
X99579889Y-94485126D01*
X99347139Y-94581535D01*
X99132342Y-94713163D01*
X98940776Y-94876776D01*
X98777163Y-95068342D01*
X98666824Y-95248399D01*
X98645534Y-95283141D01*
X98635447Y-95307493D01*
X98549126Y-95515889D01*
X98490317Y-95760850D01*
X98482503Y-95860137D01*
X98470551Y-96012000D01*
X96495044Y-96012000D01*
X96495097Y-96009047D01*
X96501380Y-95860044D01*
X96502112Y-95843951D01*
X96510432Y-95660907D01*
X96511528Y-95649161D01*
X96535442Y-95480397D01*
X96551467Y-95374823D01*
X96562507Y-95302077D01*
X96564633Y-95291313D01*
X96606027Y-95121709D01*
X96650835Y-94950395D01*
X96653790Y-94940739D01*
X96711887Y-94775455D01*
X96712773Y-94773024D01*
X96774473Y-94609610D01*
X96778077Y-94601060D01*
X96852474Y-94441639D01*
X96854024Y-94438440D01*
X96932146Y-94283193D01*
X96936194Y-94275797D01*
X97026230Y-94123965D01*
X97028455Y-94120364D01*
X97122194Y-93974572D01*
X97126557Y-93968231D01*
X97231178Y-93825901D01*
X97234340Y-93821788D01*
X97342706Y-93686848D01*
X97347144Y-93681628D01*
X97465353Y-93550201D01*
X97469458Y-93545856D01*
X97591397Y-93423038D01*
X97595698Y-93418916D01*
X97726290Y-93299751D01*
X97731461Y-93295291D01*
X97865619Y-93185959D01*
X97869717Y-93182762D01*
X98011290Y-93077122D01*
X98017607Y-93072709D01*
X98162688Y-92977949D01*
X98166351Y-92975649D01*
X98317464Y-92884567D01*
X98324889Y-92880435D01*
X98479529Y-92801222D01*
X98482654Y-92799679D01*
X98641621Y-92724099D01*
X98650139Y-92720437D01*
X98813037Y-92657592D01*
X98815465Y-92656687D01*
X98980379Y-92597387D01*
X98990064Y-92594348D01*
X99160977Y-92548331D01*
X99330347Y-92505703D01*
X99341033Y-92503514D01*
X99519199Y-92475163D01*
X99687797Y-92450036D01*
X99699462Y-92448863D01*
X99898394Y-92438388D01*
X100047455Y-92431030D01*
X100053522Y-92430881D01*
X190447257Y-92455583D01*
G37*
%TD.AperFunction*%
%TA.AperFunction,Conductor*%
G36*
X108745327Y-122794185D02*
G01*
X108791082Y-122846989D01*
X108801026Y-122916147D01*
X108772001Y-122979703D01*
X108753776Y-122996873D01*
X108742831Y-123005272D01*
X108729216Y-123015719D01*
X108709990Y-123040774D01*
X108699298Y-123052965D01*
X107467084Y-124285181D01*
X107405761Y-124318666D01*
X107379403Y-124321500D01*
X107284852Y-124321500D01*
X107099697Y-124360855D01*
X106926769Y-124437848D01*
X106773628Y-124549111D01*
X106745390Y-124580473D01*
X106685903Y-124617121D01*
X106653241Y-124621500D01*
X105120259Y-124621500D01*
X105053220Y-124601815D01*
X105028110Y-124580473D01*
X104999871Y-124549111D01*
X104846730Y-124437848D01*
X104673802Y-124360855D01*
X104488648Y-124321500D01*
X104488646Y-124321500D01*
X104299354Y-124321500D01*
X104299352Y-124321500D01*
X104114197Y-124360855D01*
X103941269Y-124437848D01*
X103788128Y-124549111D01*
X103759890Y-124580473D01*
X103700403Y-124617121D01*
X103667741Y-124621500D01*
X100631487Y-124621500D01*
X100615302Y-124620439D01*
X100611376Y-124619922D01*
X100583999Y-124616317D01*
X100548741Y-124620959D01*
X100544639Y-124621500D01*
X100485938Y-124629228D01*
X100427237Y-124636956D01*
X100281159Y-124697463D01*
X100155716Y-124793718D01*
X100136494Y-124818770D01*
X100125800Y-124830964D01*
X99655584Y-125301181D01*
X99594261Y-125334666D01*
X99567903Y-125337500D01*
X99473352Y-125337500D01*
X99288197Y-125376855D01*
X99115269Y-125453848D01*
X98962129Y-125565110D01*
X98835466Y-125705783D01*
X98740820Y-125869715D01*
X98682326Y-126049742D01*
X98662540Y-126238000D01*
X98682326Y-126426257D01*
X98740820Y-126606284D01*
X98835466Y-126770216D01*
X98962129Y-126910889D01*
X99115269Y-127022151D01*
X99288197Y-127099144D01*
X99473352Y-127138500D01*
X99473354Y-127138500D01*
X99662648Y-127138500D01*
X99786083Y-127112262D01*
X99847803Y-127099144D01*
X100020730Y-127022151D01*
X100173871Y-126910888D01*
X100300533Y-126770216D01*
X100395179Y-126606284D01*
X100453674Y-126426256D01*
X100466261Y-126306494D01*
X100492844Y-126241882D01*
X100550141Y-126201897D01*
X100619960Y-126199237D01*
X100680134Y-126234746D01*
X100707512Y-126281140D01*
X100710320Y-126289784D01*
X100804966Y-126453716D01*
X100931626Y-126594386D01*
X100931629Y-126594388D01*
X100945567Y-126604515D01*
X100988233Y-126659844D01*
X100994212Y-126729458D01*
X100990613Y-126743150D01*
X100968326Y-126811740D01*
X100948540Y-127000000D01*
X100968326Y-127188257D01*
X101026820Y-127368284D01*
X101121466Y-127532216D01*
X101225909Y-127648211D01*
X101256139Y-127711202D01*
X101251691Y-127769497D01*
X101237791Y-127812279D01*
X101237791Y-127812280D01*
X101216643Y-128013496D01*
X101213409Y-128013156D01*
X101204597Y-128061327D01*
X101181530Y-128093233D01*
X100631032Y-128643731D01*
X100569709Y-128677216D01*
X100500017Y-128672232D01*
X100451202Y-128639023D01*
X100427871Y-128613112D01*
X100427869Y-128613111D01*
X100427867Y-128613108D01*
X100274730Y-128501848D01*
X100101802Y-128424855D01*
X99916648Y-128385500D01*
X99916646Y-128385500D01*
X99727354Y-128385500D01*
X99727352Y-128385500D01*
X99542197Y-128424855D01*
X99369269Y-128501848D01*
X99216128Y-128613111D01*
X99187890Y-128644473D01*
X99128403Y-128681121D01*
X99095741Y-128685500D01*
X98772509Y-128685500D01*
X98705470Y-128665815D01*
X98659715Y-128613011D01*
X98649771Y-128543853D01*
X98654578Y-128523182D01*
X98675674Y-128458256D01*
X98695460Y-128270000D01*
X98675674Y-128081744D01*
X98617179Y-127901716D01*
X98617179Y-127901715D01*
X98522533Y-127737783D01*
X98395870Y-127597110D01*
X98242730Y-127485848D01*
X98102064Y-127423219D01*
X98048827Y-127377969D01*
X98028506Y-127311120D01*
X98028500Y-127309940D01*
X98028500Y-124417945D01*
X98048185Y-124350906D01*
X98100989Y-124305151D01*
X98152500Y-124293945D01*
X98302553Y-124293945D01*
X98369592Y-124313630D01*
X98394702Y-124334972D01*
X98422940Y-124366333D01*
X98576081Y-124477596D01*
X98749009Y-124554589D01*
X98934164Y-124593945D01*
X98934166Y-124593945D01*
X99123460Y-124593945D01*
X99246896Y-124567707D01*
X99308615Y-124554589D01*
X99481542Y-124477596D01*
X99634683Y-124366333D01*
X99761345Y-124225661D01*
X99855991Y-124061729D01*
X99914486Y-123881701D01*
X99934272Y-123693445D01*
X99914486Y-123505189D01*
X99855991Y-123325161D01*
X99855991Y-123325160D01*
X99796730Y-123222517D01*
X99780257Y-123154617D01*
X99796728Y-123098520D01*
X99876741Y-122959935D01*
X99909152Y-122860182D01*
X99948590Y-122802506D01*
X100012949Y-122775308D01*
X100027084Y-122774500D01*
X108678288Y-122774500D01*
X108745327Y-122794185D01*
G37*
%TD.AperFunction*%
%TD*%
M02*
