%TF.GenerationSoftware,KiCad,Pcbnew,7.0.2*%
%TF.CreationDate,2023-06-20T04:38:37+02:00*%
%TF.ProjectId,SenseU_Mainboard,53656e73-6555-45f4-9d61-696e626f6172,rev?*%
%TF.SameCoordinates,Original*%
%TF.FileFunction,Legend,Top*%
%TF.FilePolarity,Positive*%
%FSLAX46Y46*%
G04 Gerber Fmt 4.6, Leading zero omitted, Abs format (unit mm)*
G04 Created by KiCad (PCBNEW 7.0.2) date 2023-06-20 04:38:37*
%MOMM*%
%LPD*%
G01*
G04 APERTURE LIST*
%ADD10C,0.150000*%
%ADD11C,0.120000*%
%ADD12C,0.127000*%
%ADD13C,0.200000*%
%ADD14C,0.152400*%
%ADD15C,0.508000*%
G04 APERTURE END LIST*
D10*
X163576000Y-102108000D02*
X178562000Y-102108000D01*
X173736000Y-99822000D02*
X173736000Y-104902000D01*
X168656000Y-99822000D02*
X168656000Y-104902000D01*
X176276000Y-99822000D02*
X176276000Y-104902000D01*
X171196000Y-99822000D02*
X171196000Y-104902000D01*
X166116000Y-99822000D02*
X166116000Y-104902000D01*
X169560857Y-102509619D02*
X170179904Y-102509619D01*
X170179904Y-102509619D02*
X169846571Y-102890571D01*
X169846571Y-102890571D02*
X169989428Y-102890571D01*
X169989428Y-102890571D02*
X170084666Y-102938190D01*
X170084666Y-102938190D02*
X170132285Y-102985809D01*
X170132285Y-102985809D02*
X170179904Y-103081047D01*
X170179904Y-103081047D02*
X170179904Y-103319142D01*
X170179904Y-103319142D02*
X170132285Y-103414380D01*
X170132285Y-103414380D02*
X170084666Y-103462000D01*
X170084666Y-103462000D02*
X169989428Y-103509619D01*
X169989428Y-103509619D02*
X169703714Y-103509619D01*
X169703714Y-103509619D02*
X169608476Y-103462000D01*
X169608476Y-103462000D02*
X169560857Y-103414380D01*
X170084666Y-99969619D02*
X169894190Y-99969619D01*
X169894190Y-99969619D02*
X169798952Y-100017238D01*
X169798952Y-100017238D02*
X169751333Y-100064857D01*
X169751333Y-100064857D02*
X169656095Y-100207714D01*
X169656095Y-100207714D02*
X169608476Y-100398190D01*
X169608476Y-100398190D02*
X169608476Y-100779142D01*
X169608476Y-100779142D02*
X169656095Y-100874380D01*
X169656095Y-100874380D02*
X169703714Y-100922000D01*
X169703714Y-100922000D02*
X169798952Y-100969619D01*
X169798952Y-100969619D02*
X169989428Y-100969619D01*
X169989428Y-100969619D02*
X170084666Y-100922000D01*
X170084666Y-100922000D02*
X170132285Y-100874380D01*
X170132285Y-100874380D02*
X170179904Y-100779142D01*
X170179904Y-100779142D02*
X170179904Y-100541047D01*
X170179904Y-100541047D02*
X170132285Y-100445809D01*
X170132285Y-100445809D02*
X170084666Y-100398190D01*
X170084666Y-100398190D02*
X169989428Y-100350571D01*
X169989428Y-100350571D02*
X169798952Y-100350571D01*
X169798952Y-100350571D02*
X169703714Y-100398190D01*
X169703714Y-100398190D02*
X169656095Y-100445809D01*
X169656095Y-100445809D02*
X169608476Y-100541047D01*
X177323714Y-103509619D02*
X177514190Y-103509619D01*
X177514190Y-103509619D02*
X177609428Y-103462000D01*
X177609428Y-103462000D02*
X177657047Y-103414380D01*
X177657047Y-103414380D02*
X177752285Y-103271523D01*
X177752285Y-103271523D02*
X177799904Y-103081047D01*
X177799904Y-103081047D02*
X177799904Y-102700095D01*
X177799904Y-102700095D02*
X177752285Y-102604857D01*
X177752285Y-102604857D02*
X177704666Y-102557238D01*
X177704666Y-102557238D02*
X177609428Y-102509619D01*
X177609428Y-102509619D02*
X177418952Y-102509619D01*
X177418952Y-102509619D02*
X177323714Y-102557238D01*
X177323714Y-102557238D02*
X177276095Y-102604857D01*
X177276095Y-102604857D02*
X177228476Y-102700095D01*
X177228476Y-102700095D02*
X177228476Y-102938190D01*
X177228476Y-102938190D02*
X177276095Y-103033428D01*
X177276095Y-103033428D02*
X177323714Y-103081047D01*
X177323714Y-103081047D02*
X177418952Y-103128666D01*
X177418952Y-103128666D02*
X177609428Y-103128666D01*
X177609428Y-103128666D02*
X177704666Y-103081047D01*
X177704666Y-103081047D02*
X177752285Y-103033428D01*
X177752285Y-103033428D02*
X177799904Y-102938190D01*
X163988666Y-102842952D02*
X163988666Y-103652476D01*
X163988666Y-103652476D02*
X163941047Y-103747714D01*
X163941047Y-103747714D02*
X163893428Y-103795333D01*
X163893428Y-103795333D02*
X163798190Y-103842952D01*
X163798190Y-103842952D02*
X163655333Y-103842952D01*
X163655333Y-103842952D02*
X163560095Y-103795333D01*
X163988666Y-103462000D02*
X163893428Y-103509619D01*
X163893428Y-103509619D02*
X163702952Y-103509619D01*
X163702952Y-103509619D02*
X163607714Y-103462000D01*
X163607714Y-103462000D02*
X163560095Y-103414380D01*
X163560095Y-103414380D02*
X163512476Y-103319142D01*
X163512476Y-103319142D02*
X163512476Y-103033428D01*
X163512476Y-103033428D02*
X163560095Y-102938190D01*
X163560095Y-102938190D02*
X163607714Y-102890571D01*
X163607714Y-102890571D02*
X163702952Y-102842952D01*
X163702952Y-102842952D02*
X163893428Y-102842952D01*
X163893428Y-102842952D02*
X163988666Y-102890571D01*
X164464857Y-102842952D02*
X164464857Y-103509619D01*
X164464857Y-102938190D02*
X164512476Y-102890571D01*
X164512476Y-102890571D02*
X164607714Y-102842952D01*
X164607714Y-102842952D02*
X164750571Y-102842952D01*
X164750571Y-102842952D02*
X164845809Y-102890571D01*
X164845809Y-102890571D02*
X164893428Y-102985809D01*
X164893428Y-102985809D02*
X164893428Y-103509619D01*
X165798190Y-103509619D02*
X165798190Y-102509619D01*
X165798190Y-103462000D02*
X165702952Y-103509619D01*
X165702952Y-103509619D02*
X165512476Y-103509619D01*
X165512476Y-103509619D02*
X165417238Y-103462000D01*
X165417238Y-103462000D02*
X165369619Y-103414380D01*
X165369619Y-103414380D02*
X165322000Y-103319142D01*
X165322000Y-103319142D02*
X165322000Y-103033428D01*
X165322000Y-103033428D02*
X165369619Y-102938190D01*
X165369619Y-102938190D02*
X165417238Y-102890571D01*
X165417238Y-102890571D02*
X165512476Y-102842952D01*
X165512476Y-102842952D02*
X165702952Y-102842952D01*
X165702952Y-102842952D02*
X165798190Y-102890571D01*
X177133238Y-99969619D02*
X177466571Y-100969619D01*
X177466571Y-100969619D02*
X177799904Y-99969619D01*
X178133238Y-100969619D02*
X178133238Y-99969619D01*
X178133238Y-99969619D02*
X178371333Y-99969619D01*
X178371333Y-99969619D02*
X178514190Y-100017238D01*
X178514190Y-100017238D02*
X178609428Y-100112476D01*
X178609428Y-100112476D02*
X178657047Y-100207714D01*
X178657047Y-100207714D02*
X178704666Y-100398190D01*
X178704666Y-100398190D02*
X178704666Y-100541047D01*
X178704666Y-100541047D02*
X178657047Y-100731523D01*
X178657047Y-100731523D02*
X178609428Y-100826761D01*
X178609428Y-100826761D02*
X178514190Y-100922000D01*
X178514190Y-100922000D02*
X178371333Y-100969619D01*
X178371333Y-100969619D02*
X178133238Y-100969619D01*
X179133238Y-100969619D02*
X179133238Y-99969619D01*
X179133238Y-99969619D02*
X179371333Y-99969619D01*
X179371333Y-99969619D02*
X179514190Y-100017238D01*
X179514190Y-100017238D02*
X179609428Y-100112476D01*
X179609428Y-100112476D02*
X179657047Y-100207714D01*
X179657047Y-100207714D02*
X179704666Y-100398190D01*
X179704666Y-100398190D02*
X179704666Y-100541047D01*
X179704666Y-100541047D02*
X179657047Y-100731523D01*
X179657047Y-100731523D02*
X179609428Y-100826761D01*
X179609428Y-100826761D02*
X179514190Y-100922000D01*
X179514190Y-100922000D02*
X179371333Y-100969619D01*
X179371333Y-100969619D02*
X179133238Y-100969619D01*
X164496666Y-101176000D02*
X164401428Y-101223619D01*
X164401428Y-101223619D02*
X164210952Y-101223619D01*
X164210952Y-101223619D02*
X164115714Y-101176000D01*
X164115714Y-101176000D02*
X164068095Y-101128380D01*
X164068095Y-101128380D02*
X164020476Y-101033142D01*
X164020476Y-101033142D02*
X164020476Y-100747428D01*
X164020476Y-100747428D02*
X164068095Y-100652190D01*
X164068095Y-100652190D02*
X164115714Y-100604571D01*
X164115714Y-100604571D02*
X164210952Y-100556952D01*
X164210952Y-100556952D02*
X164401428Y-100556952D01*
X164401428Y-100556952D02*
X164496666Y-100604571D01*
X165068095Y-101223619D02*
X164972857Y-101176000D01*
X164972857Y-101176000D02*
X164925238Y-101080761D01*
X164925238Y-101080761D02*
X164925238Y-100223619D01*
X165449048Y-101223619D02*
X165449048Y-100223619D01*
X165544286Y-100842666D02*
X165830000Y-101223619D01*
X165830000Y-100556952D02*
X165449048Y-100937904D01*
X167893904Y-103509619D02*
X167322476Y-103509619D01*
X167608190Y-103509619D02*
X167608190Y-102509619D01*
X167608190Y-102509619D02*
X167512952Y-102652476D01*
X167512952Y-102652476D02*
X167417714Y-102747714D01*
X167417714Y-102747714D02*
X167322476Y-102795333D01*
X172926285Y-102509619D02*
X172450095Y-102509619D01*
X172450095Y-102509619D02*
X172402476Y-102985809D01*
X172402476Y-102985809D02*
X172450095Y-102938190D01*
X172450095Y-102938190D02*
X172545333Y-102890571D01*
X172545333Y-102890571D02*
X172783428Y-102890571D01*
X172783428Y-102890571D02*
X172878666Y-102938190D01*
X172878666Y-102938190D02*
X172926285Y-102985809D01*
X172926285Y-102985809D02*
X172973904Y-103081047D01*
X172973904Y-103081047D02*
X172973904Y-103319142D01*
X172973904Y-103319142D02*
X172926285Y-103414380D01*
X172926285Y-103414380D02*
X172878666Y-103462000D01*
X172878666Y-103462000D02*
X172783428Y-103509619D01*
X172783428Y-103509619D02*
X172545333Y-103509619D01*
X172545333Y-103509619D02*
X172450095Y-103462000D01*
X172450095Y-103462000D02*
X172402476Y-103414380D01*
X174688476Y-100064857D02*
X174736095Y-100017238D01*
X174736095Y-100017238D02*
X174831333Y-99969619D01*
X174831333Y-99969619D02*
X175069428Y-99969619D01*
X175069428Y-99969619D02*
X175164666Y-100017238D01*
X175164666Y-100017238D02*
X175212285Y-100064857D01*
X175212285Y-100064857D02*
X175259904Y-100160095D01*
X175259904Y-100160095D02*
X175259904Y-100255333D01*
X175259904Y-100255333D02*
X175212285Y-100398190D01*
X175212285Y-100398190D02*
X174640857Y-100969619D01*
X174640857Y-100969619D02*
X175259904Y-100969619D01*
X174640857Y-102509619D02*
X175307523Y-102509619D01*
X175307523Y-102509619D02*
X174878952Y-103509619D01*
X172624666Y-100302952D02*
X172624666Y-100969619D01*
X172386571Y-99922000D02*
X172148476Y-100636285D01*
X172148476Y-100636285D02*
X172767523Y-100636285D01*
X167512952Y-100398190D02*
X167417714Y-100350571D01*
X167417714Y-100350571D02*
X167370095Y-100302952D01*
X167370095Y-100302952D02*
X167322476Y-100207714D01*
X167322476Y-100207714D02*
X167322476Y-100160095D01*
X167322476Y-100160095D02*
X167370095Y-100064857D01*
X167370095Y-100064857D02*
X167417714Y-100017238D01*
X167417714Y-100017238D02*
X167512952Y-99969619D01*
X167512952Y-99969619D02*
X167703428Y-99969619D01*
X167703428Y-99969619D02*
X167798666Y-100017238D01*
X167798666Y-100017238D02*
X167846285Y-100064857D01*
X167846285Y-100064857D02*
X167893904Y-100160095D01*
X167893904Y-100160095D02*
X167893904Y-100207714D01*
X167893904Y-100207714D02*
X167846285Y-100302952D01*
X167846285Y-100302952D02*
X167798666Y-100350571D01*
X167798666Y-100350571D02*
X167703428Y-100398190D01*
X167703428Y-100398190D02*
X167512952Y-100398190D01*
X167512952Y-100398190D02*
X167417714Y-100445809D01*
X167417714Y-100445809D02*
X167370095Y-100493428D01*
X167370095Y-100493428D02*
X167322476Y-100588666D01*
X167322476Y-100588666D02*
X167322476Y-100779142D01*
X167322476Y-100779142D02*
X167370095Y-100874380D01*
X167370095Y-100874380D02*
X167417714Y-100922000D01*
X167417714Y-100922000D02*
X167512952Y-100969619D01*
X167512952Y-100969619D02*
X167703428Y-100969619D01*
X167703428Y-100969619D02*
X167798666Y-100922000D01*
X167798666Y-100922000D02*
X167846285Y-100874380D01*
X167846285Y-100874380D02*
X167893904Y-100779142D01*
X167893904Y-100779142D02*
X167893904Y-100588666D01*
X167893904Y-100588666D02*
X167846285Y-100493428D01*
X167846285Y-100493428D02*
X167798666Y-100445809D01*
X167798666Y-100445809D02*
X167703428Y-100398190D01*
%TO.C,C5*%
X132701380Y-101258666D02*
X132749000Y-101306285D01*
X132749000Y-101306285D02*
X132796619Y-101449142D01*
X132796619Y-101449142D02*
X132796619Y-101544380D01*
X132796619Y-101544380D02*
X132749000Y-101687237D01*
X132749000Y-101687237D02*
X132653761Y-101782475D01*
X132653761Y-101782475D02*
X132558523Y-101830094D01*
X132558523Y-101830094D02*
X132368047Y-101877713D01*
X132368047Y-101877713D02*
X132225190Y-101877713D01*
X132225190Y-101877713D02*
X132034714Y-101830094D01*
X132034714Y-101830094D02*
X131939476Y-101782475D01*
X131939476Y-101782475D02*
X131844238Y-101687237D01*
X131844238Y-101687237D02*
X131796619Y-101544380D01*
X131796619Y-101544380D02*
X131796619Y-101449142D01*
X131796619Y-101449142D02*
X131844238Y-101306285D01*
X131844238Y-101306285D02*
X131891857Y-101258666D01*
X131796619Y-100353904D02*
X131796619Y-100830094D01*
X131796619Y-100830094D02*
X132272809Y-100877713D01*
X132272809Y-100877713D02*
X132225190Y-100830094D01*
X132225190Y-100830094D02*
X132177571Y-100734856D01*
X132177571Y-100734856D02*
X132177571Y-100496761D01*
X132177571Y-100496761D02*
X132225190Y-100401523D01*
X132225190Y-100401523D02*
X132272809Y-100353904D01*
X132272809Y-100353904D02*
X132368047Y-100306285D01*
X132368047Y-100306285D02*
X132606142Y-100306285D01*
X132606142Y-100306285D02*
X132701380Y-100353904D01*
X132701380Y-100353904D02*
X132749000Y-100401523D01*
X132749000Y-100401523D02*
X132796619Y-100496761D01*
X132796619Y-100496761D02*
X132796619Y-100734856D01*
X132796619Y-100734856D02*
X132749000Y-100830094D01*
X132749000Y-100830094D02*
X132701380Y-100877713D01*
%TO.C,D4*%
X111206619Y-120118094D02*
X110206619Y-120118094D01*
X110206619Y-120118094D02*
X110206619Y-119879999D01*
X110206619Y-119879999D02*
X110254238Y-119737142D01*
X110254238Y-119737142D02*
X110349476Y-119641904D01*
X110349476Y-119641904D02*
X110444714Y-119594285D01*
X110444714Y-119594285D02*
X110635190Y-119546666D01*
X110635190Y-119546666D02*
X110778047Y-119546666D01*
X110778047Y-119546666D02*
X110968523Y-119594285D01*
X110968523Y-119594285D02*
X111063761Y-119641904D01*
X111063761Y-119641904D02*
X111159000Y-119737142D01*
X111159000Y-119737142D02*
X111206619Y-119879999D01*
X111206619Y-119879999D02*
X111206619Y-120118094D01*
X110539952Y-118689523D02*
X111206619Y-118689523D01*
X110159000Y-118927618D02*
X110873285Y-119165713D01*
X110873285Y-119165713D02*
X110873285Y-118546666D01*
%TO.C,AE1*%
X104497333Y-145185904D02*
X104973523Y-145185904D01*
X104402095Y-145471619D02*
X104735428Y-144471619D01*
X104735428Y-144471619D02*
X105068761Y-145471619D01*
X105402095Y-144947809D02*
X105735428Y-144947809D01*
X105878285Y-145471619D02*
X105402095Y-145471619D01*
X105402095Y-145471619D02*
X105402095Y-144471619D01*
X105402095Y-144471619D02*
X105878285Y-144471619D01*
X106830666Y-145471619D02*
X106259238Y-145471619D01*
X106544952Y-145471619D02*
X106544952Y-144471619D01*
X106544952Y-144471619D02*
X106449714Y-144614476D01*
X106449714Y-144614476D02*
X106354476Y-144709714D01*
X106354476Y-144709714D02*
X106259238Y-144757333D01*
%TO.C,C6*%
X138263333Y-101205380D02*
X138215714Y-101253000D01*
X138215714Y-101253000D02*
X138072857Y-101300619D01*
X138072857Y-101300619D02*
X137977619Y-101300619D01*
X137977619Y-101300619D02*
X137834762Y-101253000D01*
X137834762Y-101253000D02*
X137739524Y-101157761D01*
X137739524Y-101157761D02*
X137691905Y-101062523D01*
X137691905Y-101062523D02*
X137644286Y-100872047D01*
X137644286Y-100872047D02*
X137644286Y-100729190D01*
X137644286Y-100729190D02*
X137691905Y-100538714D01*
X137691905Y-100538714D02*
X137739524Y-100443476D01*
X137739524Y-100443476D02*
X137834762Y-100348238D01*
X137834762Y-100348238D02*
X137977619Y-100300619D01*
X137977619Y-100300619D02*
X138072857Y-100300619D01*
X138072857Y-100300619D02*
X138215714Y-100348238D01*
X138215714Y-100348238D02*
X138263333Y-100395857D01*
X139120476Y-100300619D02*
X138930000Y-100300619D01*
X138930000Y-100300619D02*
X138834762Y-100348238D01*
X138834762Y-100348238D02*
X138787143Y-100395857D01*
X138787143Y-100395857D02*
X138691905Y-100538714D01*
X138691905Y-100538714D02*
X138644286Y-100729190D01*
X138644286Y-100729190D02*
X138644286Y-101110142D01*
X138644286Y-101110142D02*
X138691905Y-101205380D01*
X138691905Y-101205380D02*
X138739524Y-101253000D01*
X138739524Y-101253000D02*
X138834762Y-101300619D01*
X138834762Y-101300619D02*
X139025238Y-101300619D01*
X139025238Y-101300619D02*
X139120476Y-101253000D01*
X139120476Y-101253000D02*
X139168095Y-101205380D01*
X139168095Y-101205380D02*
X139215714Y-101110142D01*
X139215714Y-101110142D02*
X139215714Y-100872047D01*
X139215714Y-100872047D02*
X139168095Y-100776809D01*
X139168095Y-100776809D02*
X139120476Y-100729190D01*
X139120476Y-100729190D02*
X139025238Y-100681571D01*
X139025238Y-100681571D02*
X138834762Y-100681571D01*
X138834762Y-100681571D02*
X138739524Y-100729190D01*
X138739524Y-100729190D02*
X138691905Y-100776809D01*
X138691905Y-100776809D02*
X138644286Y-100872047D01*
%TO.C,R5*%
X111847333Y-124922619D02*
X111514000Y-124446428D01*
X111275905Y-124922619D02*
X111275905Y-123922619D01*
X111275905Y-123922619D02*
X111656857Y-123922619D01*
X111656857Y-123922619D02*
X111752095Y-123970238D01*
X111752095Y-123970238D02*
X111799714Y-124017857D01*
X111799714Y-124017857D02*
X111847333Y-124113095D01*
X111847333Y-124113095D02*
X111847333Y-124255952D01*
X111847333Y-124255952D02*
X111799714Y-124351190D01*
X111799714Y-124351190D02*
X111752095Y-124398809D01*
X111752095Y-124398809D02*
X111656857Y-124446428D01*
X111656857Y-124446428D02*
X111275905Y-124446428D01*
X112752095Y-123922619D02*
X112275905Y-123922619D01*
X112275905Y-123922619D02*
X112228286Y-124398809D01*
X112228286Y-124398809D02*
X112275905Y-124351190D01*
X112275905Y-124351190D02*
X112371143Y-124303571D01*
X112371143Y-124303571D02*
X112609238Y-124303571D01*
X112609238Y-124303571D02*
X112704476Y-124351190D01*
X112704476Y-124351190D02*
X112752095Y-124398809D01*
X112752095Y-124398809D02*
X112799714Y-124494047D01*
X112799714Y-124494047D02*
X112799714Y-124732142D01*
X112799714Y-124732142D02*
X112752095Y-124827380D01*
X112752095Y-124827380D02*
X112704476Y-124875000D01*
X112704476Y-124875000D02*
X112609238Y-124922619D01*
X112609238Y-124922619D02*
X112371143Y-124922619D01*
X112371143Y-124922619D02*
X112275905Y-124875000D01*
X112275905Y-124875000D02*
X112228286Y-124827380D01*
%TO.C,C11*%
X104761380Y-128404857D02*
X104809000Y-128452476D01*
X104809000Y-128452476D02*
X104856619Y-128595333D01*
X104856619Y-128595333D02*
X104856619Y-128690571D01*
X104856619Y-128690571D02*
X104809000Y-128833428D01*
X104809000Y-128833428D02*
X104713761Y-128928666D01*
X104713761Y-128928666D02*
X104618523Y-128976285D01*
X104618523Y-128976285D02*
X104428047Y-129023904D01*
X104428047Y-129023904D02*
X104285190Y-129023904D01*
X104285190Y-129023904D02*
X104094714Y-128976285D01*
X104094714Y-128976285D02*
X103999476Y-128928666D01*
X103999476Y-128928666D02*
X103904238Y-128833428D01*
X103904238Y-128833428D02*
X103856619Y-128690571D01*
X103856619Y-128690571D02*
X103856619Y-128595333D01*
X103856619Y-128595333D02*
X103904238Y-128452476D01*
X103904238Y-128452476D02*
X103951857Y-128404857D01*
X104856619Y-127452476D02*
X104856619Y-128023904D01*
X104856619Y-127738190D02*
X103856619Y-127738190D01*
X103856619Y-127738190D02*
X103999476Y-127833428D01*
X103999476Y-127833428D02*
X104094714Y-127928666D01*
X104094714Y-127928666D02*
X104142333Y-128023904D01*
X104856619Y-126500095D02*
X104856619Y-127071523D01*
X104856619Y-126785809D02*
X103856619Y-126785809D01*
X103856619Y-126785809D02*
X103999476Y-126881047D01*
X103999476Y-126881047D02*
X104094714Y-126976285D01*
X104094714Y-126976285D02*
X104142333Y-127071523D01*
%TO.C,S1*%
X107857000Y-99821904D02*
X107904619Y-99679047D01*
X107904619Y-99679047D02*
X107904619Y-99440952D01*
X107904619Y-99440952D02*
X107857000Y-99345714D01*
X107857000Y-99345714D02*
X107809380Y-99298095D01*
X107809380Y-99298095D02*
X107714142Y-99250476D01*
X107714142Y-99250476D02*
X107618904Y-99250476D01*
X107618904Y-99250476D02*
X107523666Y-99298095D01*
X107523666Y-99298095D02*
X107476047Y-99345714D01*
X107476047Y-99345714D02*
X107428428Y-99440952D01*
X107428428Y-99440952D02*
X107380809Y-99631428D01*
X107380809Y-99631428D02*
X107333190Y-99726666D01*
X107333190Y-99726666D02*
X107285571Y-99774285D01*
X107285571Y-99774285D02*
X107190333Y-99821904D01*
X107190333Y-99821904D02*
X107095095Y-99821904D01*
X107095095Y-99821904D02*
X106999857Y-99774285D01*
X106999857Y-99774285D02*
X106952238Y-99726666D01*
X106952238Y-99726666D02*
X106904619Y-99631428D01*
X106904619Y-99631428D02*
X106904619Y-99393333D01*
X106904619Y-99393333D02*
X106952238Y-99250476D01*
X107904619Y-98298095D02*
X107904619Y-98869523D01*
X107904619Y-98583809D02*
X106904619Y-98583809D01*
X106904619Y-98583809D02*
X107047476Y-98679047D01*
X107047476Y-98679047D02*
X107142714Y-98774285D01*
X107142714Y-98774285D02*
X107190333Y-98869523D01*
%TO.C,RST1*%
X97744619Y-134627809D02*
X97268428Y-134961142D01*
X97744619Y-135199237D02*
X96744619Y-135199237D01*
X96744619Y-135199237D02*
X96744619Y-134818285D01*
X96744619Y-134818285D02*
X96792238Y-134723047D01*
X96792238Y-134723047D02*
X96839857Y-134675428D01*
X96839857Y-134675428D02*
X96935095Y-134627809D01*
X96935095Y-134627809D02*
X97077952Y-134627809D01*
X97077952Y-134627809D02*
X97173190Y-134675428D01*
X97173190Y-134675428D02*
X97220809Y-134723047D01*
X97220809Y-134723047D02*
X97268428Y-134818285D01*
X97268428Y-134818285D02*
X97268428Y-135199237D01*
X97697000Y-134246856D02*
X97744619Y-134103999D01*
X97744619Y-134103999D02*
X97744619Y-133865904D01*
X97744619Y-133865904D02*
X97697000Y-133770666D01*
X97697000Y-133770666D02*
X97649380Y-133723047D01*
X97649380Y-133723047D02*
X97554142Y-133675428D01*
X97554142Y-133675428D02*
X97458904Y-133675428D01*
X97458904Y-133675428D02*
X97363666Y-133723047D01*
X97363666Y-133723047D02*
X97316047Y-133770666D01*
X97316047Y-133770666D02*
X97268428Y-133865904D01*
X97268428Y-133865904D02*
X97220809Y-134056380D01*
X97220809Y-134056380D02*
X97173190Y-134151618D01*
X97173190Y-134151618D02*
X97125571Y-134199237D01*
X97125571Y-134199237D02*
X97030333Y-134246856D01*
X97030333Y-134246856D02*
X96935095Y-134246856D01*
X96935095Y-134246856D02*
X96839857Y-134199237D01*
X96839857Y-134199237D02*
X96792238Y-134151618D01*
X96792238Y-134151618D02*
X96744619Y-134056380D01*
X96744619Y-134056380D02*
X96744619Y-133818285D01*
X96744619Y-133818285D02*
X96792238Y-133675428D01*
X96744619Y-133389713D02*
X96744619Y-132818285D01*
X97744619Y-133103999D02*
X96744619Y-133103999D01*
X97744619Y-131961142D02*
X97744619Y-132532570D01*
X97744619Y-132246856D02*
X96744619Y-132246856D01*
X96744619Y-132246856D02*
X96887476Y-132342094D01*
X96887476Y-132342094D02*
X96982714Y-132437332D01*
X96982714Y-132437332D02*
X97030333Y-132532570D01*
%TO.C,C17*%
X108323142Y-119493380D02*
X108275523Y-119541000D01*
X108275523Y-119541000D02*
X108132666Y-119588619D01*
X108132666Y-119588619D02*
X108037428Y-119588619D01*
X108037428Y-119588619D02*
X107894571Y-119541000D01*
X107894571Y-119541000D02*
X107799333Y-119445761D01*
X107799333Y-119445761D02*
X107751714Y-119350523D01*
X107751714Y-119350523D02*
X107704095Y-119160047D01*
X107704095Y-119160047D02*
X107704095Y-119017190D01*
X107704095Y-119017190D02*
X107751714Y-118826714D01*
X107751714Y-118826714D02*
X107799333Y-118731476D01*
X107799333Y-118731476D02*
X107894571Y-118636238D01*
X107894571Y-118636238D02*
X108037428Y-118588619D01*
X108037428Y-118588619D02*
X108132666Y-118588619D01*
X108132666Y-118588619D02*
X108275523Y-118636238D01*
X108275523Y-118636238D02*
X108323142Y-118683857D01*
X109275523Y-119588619D02*
X108704095Y-119588619D01*
X108989809Y-119588619D02*
X108989809Y-118588619D01*
X108989809Y-118588619D02*
X108894571Y-118731476D01*
X108894571Y-118731476D02*
X108799333Y-118826714D01*
X108799333Y-118826714D02*
X108704095Y-118874333D01*
X109608857Y-118588619D02*
X110275523Y-118588619D01*
X110275523Y-118588619D02*
X109846952Y-119588619D01*
%TO.C,Q1*%
X100633857Y-104743238D02*
X100586238Y-104838476D01*
X100586238Y-104838476D02*
X100491000Y-104933714D01*
X100491000Y-104933714D02*
X100348142Y-105076571D01*
X100348142Y-105076571D02*
X100300523Y-105171809D01*
X100300523Y-105171809D02*
X100300523Y-105267047D01*
X100538619Y-105219428D02*
X100491000Y-105314666D01*
X100491000Y-105314666D02*
X100395761Y-105409904D01*
X100395761Y-105409904D02*
X100205285Y-105457523D01*
X100205285Y-105457523D02*
X99871952Y-105457523D01*
X99871952Y-105457523D02*
X99681476Y-105409904D01*
X99681476Y-105409904D02*
X99586238Y-105314666D01*
X99586238Y-105314666D02*
X99538619Y-105219428D01*
X99538619Y-105219428D02*
X99538619Y-105028952D01*
X99538619Y-105028952D02*
X99586238Y-104933714D01*
X99586238Y-104933714D02*
X99681476Y-104838476D01*
X99681476Y-104838476D02*
X99871952Y-104790857D01*
X99871952Y-104790857D02*
X100205285Y-104790857D01*
X100205285Y-104790857D02*
X100395761Y-104838476D01*
X100395761Y-104838476D02*
X100491000Y-104933714D01*
X100491000Y-104933714D02*
X100538619Y-105028952D01*
X100538619Y-105028952D02*
X100538619Y-105219428D01*
X100538619Y-103838476D02*
X100538619Y-104409904D01*
X100538619Y-104124190D02*
X99538619Y-104124190D01*
X99538619Y-104124190D02*
X99681476Y-104219428D01*
X99681476Y-104219428D02*
X99776714Y-104314666D01*
X99776714Y-104314666D02*
X99824333Y-104409904D01*
%TO.C,F1*%
X115254809Y-94313333D02*
X115254809Y-94646666D01*
X115778619Y-94646666D02*
X114778619Y-94646666D01*
X114778619Y-94646666D02*
X114778619Y-94170476D01*
X115778619Y-93265714D02*
X115778619Y-93837142D01*
X115778619Y-93551428D02*
X114778619Y-93551428D01*
X114778619Y-93551428D02*
X114921476Y-93646666D01*
X114921476Y-93646666D02*
X115016714Y-93741904D01*
X115016714Y-93741904D02*
X115064333Y-93837142D01*
%TO.C,R2*%
X146258619Y-103798666D02*
X145782428Y-104131999D01*
X146258619Y-104370094D02*
X145258619Y-104370094D01*
X145258619Y-104370094D02*
X145258619Y-103989142D01*
X145258619Y-103989142D02*
X145306238Y-103893904D01*
X145306238Y-103893904D02*
X145353857Y-103846285D01*
X145353857Y-103846285D02*
X145449095Y-103798666D01*
X145449095Y-103798666D02*
X145591952Y-103798666D01*
X145591952Y-103798666D02*
X145687190Y-103846285D01*
X145687190Y-103846285D02*
X145734809Y-103893904D01*
X145734809Y-103893904D02*
X145782428Y-103989142D01*
X145782428Y-103989142D02*
X145782428Y-104370094D01*
X145353857Y-103417713D02*
X145306238Y-103370094D01*
X145306238Y-103370094D02*
X145258619Y-103274856D01*
X145258619Y-103274856D02*
X145258619Y-103036761D01*
X145258619Y-103036761D02*
X145306238Y-102941523D01*
X145306238Y-102941523D02*
X145353857Y-102893904D01*
X145353857Y-102893904D02*
X145449095Y-102846285D01*
X145449095Y-102846285D02*
X145544333Y-102846285D01*
X145544333Y-102846285D02*
X145687190Y-102893904D01*
X145687190Y-102893904D02*
X146258619Y-103465332D01*
X146258619Y-103465332D02*
X146258619Y-102846285D01*
%TO.C,C19*%
X108323142Y-136257380D02*
X108275523Y-136305000D01*
X108275523Y-136305000D02*
X108132666Y-136352619D01*
X108132666Y-136352619D02*
X108037428Y-136352619D01*
X108037428Y-136352619D02*
X107894571Y-136305000D01*
X107894571Y-136305000D02*
X107799333Y-136209761D01*
X107799333Y-136209761D02*
X107751714Y-136114523D01*
X107751714Y-136114523D02*
X107704095Y-135924047D01*
X107704095Y-135924047D02*
X107704095Y-135781190D01*
X107704095Y-135781190D02*
X107751714Y-135590714D01*
X107751714Y-135590714D02*
X107799333Y-135495476D01*
X107799333Y-135495476D02*
X107894571Y-135400238D01*
X107894571Y-135400238D02*
X108037428Y-135352619D01*
X108037428Y-135352619D02*
X108132666Y-135352619D01*
X108132666Y-135352619D02*
X108275523Y-135400238D01*
X108275523Y-135400238D02*
X108323142Y-135447857D01*
X109275523Y-136352619D02*
X108704095Y-136352619D01*
X108989809Y-136352619D02*
X108989809Y-135352619D01*
X108989809Y-135352619D02*
X108894571Y-135495476D01*
X108894571Y-135495476D02*
X108799333Y-135590714D01*
X108799333Y-135590714D02*
X108704095Y-135638333D01*
X109751714Y-136352619D02*
X109942190Y-136352619D01*
X109942190Y-136352619D02*
X110037428Y-136305000D01*
X110037428Y-136305000D02*
X110085047Y-136257380D01*
X110085047Y-136257380D02*
X110180285Y-136114523D01*
X110180285Y-136114523D02*
X110227904Y-135924047D01*
X110227904Y-135924047D02*
X110227904Y-135543095D01*
X110227904Y-135543095D02*
X110180285Y-135447857D01*
X110180285Y-135447857D02*
X110132666Y-135400238D01*
X110132666Y-135400238D02*
X110037428Y-135352619D01*
X110037428Y-135352619D02*
X109846952Y-135352619D01*
X109846952Y-135352619D02*
X109751714Y-135400238D01*
X109751714Y-135400238D02*
X109704095Y-135447857D01*
X109704095Y-135447857D02*
X109656476Y-135543095D01*
X109656476Y-135543095D02*
X109656476Y-135781190D01*
X109656476Y-135781190D02*
X109704095Y-135876428D01*
X109704095Y-135876428D02*
X109751714Y-135924047D01*
X109751714Y-135924047D02*
X109846952Y-135971666D01*
X109846952Y-135971666D02*
X110037428Y-135971666D01*
X110037428Y-135971666D02*
X110132666Y-135924047D01*
X110132666Y-135924047D02*
X110180285Y-135876428D01*
X110180285Y-135876428D02*
X110227904Y-135781190D01*
%TO.C,R3*%
X105364619Y-101766666D02*
X104888428Y-102099999D01*
X105364619Y-102338094D02*
X104364619Y-102338094D01*
X104364619Y-102338094D02*
X104364619Y-101957142D01*
X104364619Y-101957142D02*
X104412238Y-101861904D01*
X104412238Y-101861904D02*
X104459857Y-101814285D01*
X104459857Y-101814285D02*
X104555095Y-101766666D01*
X104555095Y-101766666D02*
X104697952Y-101766666D01*
X104697952Y-101766666D02*
X104793190Y-101814285D01*
X104793190Y-101814285D02*
X104840809Y-101861904D01*
X104840809Y-101861904D02*
X104888428Y-101957142D01*
X104888428Y-101957142D02*
X104888428Y-102338094D01*
X104364619Y-101433332D02*
X104364619Y-100814285D01*
X104364619Y-100814285D02*
X104745571Y-101147618D01*
X104745571Y-101147618D02*
X104745571Y-101004761D01*
X104745571Y-101004761D02*
X104793190Y-100909523D01*
X104793190Y-100909523D02*
X104840809Y-100861904D01*
X104840809Y-100861904D02*
X104936047Y-100814285D01*
X104936047Y-100814285D02*
X105174142Y-100814285D01*
X105174142Y-100814285D02*
X105269380Y-100861904D01*
X105269380Y-100861904D02*
X105317000Y-100909523D01*
X105317000Y-100909523D02*
X105364619Y-101004761D01*
X105364619Y-101004761D02*
X105364619Y-101290475D01*
X105364619Y-101290475D02*
X105317000Y-101385713D01*
X105317000Y-101385713D02*
X105269380Y-101433332D01*
%TO.C,L3*%
X101046619Y-110910666D02*
X101046619Y-111386856D01*
X101046619Y-111386856D02*
X100046619Y-111386856D01*
X100046619Y-110672570D02*
X100046619Y-110053523D01*
X100046619Y-110053523D02*
X100427571Y-110386856D01*
X100427571Y-110386856D02*
X100427571Y-110243999D01*
X100427571Y-110243999D02*
X100475190Y-110148761D01*
X100475190Y-110148761D02*
X100522809Y-110101142D01*
X100522809Y-110101142D02*
X100618047Y-110053523D01*
X100618047Y-110053523D02*
X100856142Y-110053523D01*
X100856142Y-110053523D02*
X100951380Y-110101142D01*
X100951380Y-110101142D02*
X100999000Y-110148761D01*
X100999000Y-110148761D02*
X101046619Y-110243999D01*
X101046619Y-110243999D02*
X101046619Y-110529713D01*
X101046619Y-110529713D02*
X100999000Y-110624951D01*
X100999000Y-110624951D02*
X100951380Y-110672570D01*
%TO.C,C8*%
X111339333Y-127367380D02*
X111291714Y-127415000D01*
X111291714Y-127415000D02*
X111148857Y-127462619D01*
X111148857Y-127462619D02*
X111053619Y-127462619D01*
X111053619Y-127462619D02*
X110910762Y-127415000D01*
X110910762Y-127415000D02*
X110815524Y-127319761D01*
X110815524Y-127319761D02*
X110767905Y-127224523D01*
X110767905Y-127224523D02*
X110720286Y-127034047D01*
X110720286Y-127034047D02*
X110720286Y-126891190D01*
X110720286Y-126891190D02*
X110767905Y-126700714D01*
X110767905Y-126700714D02*
X110815524Y-126605476D01*
X110815524Y-126605476D02*
X110910762Y-126510238D01*
X110910762Y-126510238D02*
X111053619Y-126462619D01*
X111053619Y-126462619D02*
X111148857Y-126462619D01*
X111148857Y-126462619D02*
X111291714Y-126510238D01*
X111291714Y-126510238D02*
X111339333Y-126557857D01*
X111910762Y-126891190D02*
X111815524Y-126843571D01*
X111815524Y-126843571D02*
X111767905Y-126795952D01*
X111767905Y-126795952D02*
X111720286Y-126700714D01*
X111720286Y-126700714D02*
X111720286Y-126653095D01*
X111720286Y-126653095D02*
X111767905Y-126557857D01*
X111767905Y-126557857D02*
X111815524Y-126510238D01*
X111815524Y-126510238D02*
X111910762Y-126462619D01*
X111910762Y-126462619D02*
X112101238Y-126462619D01*
X112101238Y-126462619D02*
X112196476Y-126510238D01*
X112196476Y-126510238D02*
X112244095Y-126557857D01*
X112244095Y-126557857D02*
X112291714Y-126653095D01*
X112291714Y-126653095D02*
X112291714Y-126700714D01*
X112291714Y-126700714D02*
X112244095Y-126795952D01*
X112244095Y-126795952D02*
X112196476Y-126843571D01*
X112196476Y-126843571D02*
X112101238Y-126891190D01*
X112101238Y-126891190D02*
X111910762Y-126891190D01*
X111910762Y-126891190D02*
X111815524Y-126938809D01*
X111815524Y-126938809D02*
X111767905Y-126986428D01*
X111767905Y-126986428D02*
X111720286Y-127081666D01*
X111720286Y-127081666D02*
X111720286Y-127272142D01*
X111720286Y-127272142D02*
X111767905Y-127367380D01*
X111767905Y-127367380D02*
X111815524Y-127415000D01*
X111815524Y-127415000D02*
X111910762Y-127462619D01*
X111910762Y-127462619D02*
X112101238Y-127462619D01*
X112101238Y-127462619D02*
X112196476Y-127415000D01*
X112196476Y-127415000D02*
X112244095Y-127367380D01*
X112244095Y-127367380D02*
X112291714Y-127272142D01*
X112291714Y-127272142D02*
X112291714Y-127081666D01*
X112291714Y-127081666D02*
X112244095Y-126986428D01*
X112244095Y-126986428D02*
X112196476Y-126938809D01*
X112196476Y-126938809D02*
X112101238Y-126891190D01*
%TO.C,H2*%
X103632095Y-93934619D02*
X103632095Y-92934619D01*
X103632095Y-93410809D02*
X104203523Y-93410809D01*
X104203523Y-93934619D02*
X104203523Y-92934619D01*
X104632095Y-93029857D02*
X104679714Y-92982238D01*
X104679714Y-92982238D02*
X104774952Y-92934619D01*
X104774952Y-92934619D02*
X105013047Y-92934619D01*
X105013047Y-92934619D02*
X105108285Y-92982238D01*
X105108285Y-92982238D02*
X105155904Y-93029857D01*
X105155904Y-93029857D02*
X105203523Y-93125095D01*
X105203523Y-93125095D02*
X105203523Y-93220333D01*
X105203523Y-93220333D02*
X105155904Y-93363190D01*
X105155904Y-93363190D02*
X104584476Y-93934619D01*
X104584476Y-93934619D02*
X105203523Y-93934619D01*
%TO.C,C10*%
X111371142Y-126097380D02*
X111323523Y-126145000D01*
X111323523Y-126145000D02*
X111180666Y-126192619D01*
X111180666Y-126192619D02*
X111085428Y-126192619D01*
X111085428Y-126192619D02*
X110942571Y-126145000D01*
X110942571Y-126145000D02*
X110847333Y-126049761D01*
X110847333Y-126049761D02*
X110799714Y-125954523D01*
X110799714Y-125954523D02*
X110752095Y-125764047D01*
X110752095Y-125764047D02*
X110752095Y-125621190D01*
X110752095Y-125621190D02*
X110799714Y-125430714D01*
X110799714Y-125430714D02*
X110847333Y-125335476D01*
X110847333Y-125335476D02*
X110942571Y-125240238D01*
X110942571Y-125240238D02*
X111085428Y-125192619D01*
X111085428Y-125192619D02*
X111180666Y-125192619D01*
X111180666Y-125192619D02*
X111323523Y-125240238D01*
X111323523Y-125240238D02*
X111371142Y-125287857D01*
X112323523Y-126192619D02*
X111752095Y-126192619D01*
X112037809Y-126192619D02*
X112037809Y-125192619D01*
X112037809Y-125192619D02*
X111942571Y-125335476D01*
X111942571Y-125335476D02*
X111847333Y-125430714D01*
X111847333Y-125430714D02*
X111752095Y-125478333D01*
X112942571Y-125192619D02*
X113037809Y-125192619D01*
X113037809Y-125192619D02*
X113133047Y-125240238D01*
X113133047Y-125240238D02*
X113180666Y-125287857D01*
X113180666Y-125287857D02*
X113228285Y-125383095D01*
X113228285Y-125383095D02*
X113275904Y-125573571D01*
X113275904Y-125573571D02*
X113275904Y-125811666D01*
X113275904Y-125811666D02*
X113228285Y-126002142D01*
X113228285Y-126002142D02*
X113180666Y-126097380D01*
X113180666Y-126097380D02*
X113133047Y-126145000D01*
X113133047Y-126145000D02*
X113037809Y-126192619D01*
X113037809Y-126192619D02*
X112942571Y-126192619D01*
X112942571Y-126192619D02*
X112847333Y-126145000D01*
X112847333Y-126145000D02*
X112799714Y-126097380D01*
X112799714Y-126097380D02*
X112752095Y-126002142D01*
X112752095Y-126002142D02*
X112704476Y-125811666D01*
X112704476Y-125811666D02*
X112704476Y-125573571D01*
X112704476Y-125573571D02*
X112752095Y-125383095D01*
X112752095Y-125383095D02*
X112799714Y-125287857D01*
X112799714Y-125287857D02*
X112847333Y-125240238D01*
X112847333Y-125240238D02*
X112942571Y-125192619D01*
%TO.C,L2*%
X102570619Y-115736666D02*
X102570619Y-116212856D01*
X102570619Y-116212856D02*
X101570619Y-116212856D01*
X101665857Y-115450951D02*
X101618238Y-115403332D01*
X101618238Y-115403332D02*
X101570619Y-115308094D01*
X101570619Y-115308094D02*
X101570619Y-115069999D01*
X101570619Y-115069999D02*
X101618238Y-114974761D01*
X101618238Y-114974761D02*
X101665857Y-114927142D01*
X101665857Y-114927142D02*
X101761095Y-114879523D01*
X101761095Y-114879523D02*
X101856333Y-114879523D01*
X101856333Y-114879523D02*
X101999190Y-114927142D01*
X101999190Y-114927142D02*
X102570619Y-115498570D01*
X102570619Y-115498570D02*
X102570619Y-114879523D01*
%TO.C,C7*%
X97743380Y-116498666D02*
X97791000Y-116546285D01*
X97791000Y-116546285D02*
X97838619Y-116689142D01*
X97838619Y-116689142D02*
X97838619Y-116784380D01*
X97838619Y-116784380D02*
X97791000Y-116927237D01*
X97791000Y-116927237D02*
X97695761Y-117022475D01*
X97695761Y-117022475D02*
X97600523Y-117070094D01*
X97600523Y-117070094D02*
X97410047Y-117117713D01*
X97410047Y-117117713D02*
X97267190Y-117117713D01*
X97267190Y-117117713D02*
X97076714Y-117070094D01*
X97076714Y-117070094D02*
X96981476Y-117022475D01*
X96981476Y-117022475D02*
X96886238Y-116927237D01*
X96886238Y-116927237D02*
X96838619Y-116784380D01*
X96838619Y-116784380D02*
X96838619Y-116689142D01*
X96838619Y-116689142D02*
X96886238Y-116546285D01*
X96886238Y-116546285D02*
X96933857Y-116498666D01*
X96838619Y-116165332D02*
X96838619Y-115498666D01*
X96838619Y-115498666D02*
X97838619Y-115927237D01*
%TO.C,C1*%
X115683380Y-119292666D02*
X115731000Y-119340285D01*
X115731000Y-119340285D02*
X115778619Y-119483142D01*
X115778619Y-119483142D02*
X115778619Y-119578380D01*
X115778619Y-119578380D02*
X115731000Y-119721237D01*
X115731000Y-119721237D02*
X115635761Y-119816475D01*
X115635761Y-119816475D02*
X115540523Y-119864094D01*
X115540523Y-119864094D02*
X115350047Y-119911713D01*
X115350047Y-119911713D02*
X115207190Y-119911713D01*
X115207190Y-119911713D02*
X115016714Y-119864094D01*
X115016714Y-119864094D02*
X114921476Y-119816475D01*
X114921476Y-119816475D02*
X114826238Y-119721237D01*
X114826238Y-119721237D02*
X114778619Y-119578380D01*
X114778619Y-119578380D02*
X114778619Y-119483142D01*
X114778619Y-119483142D02*
X114826238Y-119340285D01*
X114826238Y-119340285D02*
X114873857Y-119292666D01*
X115778619Y-118340285D02*
X115778619Y-118911713D01*
X115778619Y-118625999D02*
X114778619Y-118625999D01*
X114778619Y-118625999D02*
X114921476Y-118721237D01*
X114921476Y-118721237D02*
X115016714Y-118816475D01*
X115016714Y-118816475D02*
X115064333Y-118911713D01*
%TO.C,C16*%
X102729380Y-111132857D02*
X102777000Y-111180476D01*
X102777000Y-111180476D02*
X102824619Y-111323333D01*
X102824619Y-111323333D02*
X102824619Y-111418571D01*
X102824619Y-111418571D02*
X102777000Y-111561428D01*
X102777000Y-111561428D02*
X102681761Y-111656666D01*
X102681761Y-111656666D02*
X102586523Y-111704285D01*
X102586523Y-111704285D02*
X102396047Y-111751904D01*
X102396047Y-111751904D02*
X102253190Y-111751904D01*
X102253190Y-111751904D02*
X102062714Y-111704285D01*
X102062714Y-111704285D02*
X101967476Y-111656666D01*
X101967476Y-111656666D02*
X101872238Y-111561428D01*
X101872238Y-111561428D02*
X101824619Y-111418571D01*
X101824619Y-111418571D02*
X101824619Y-111323333D01*
X101824619Y-111323333D02*
X101872238Y-111180476D01*
X101872238Y-111180476D02*
X101919857Y-111132857D01*
X102824619Y-110180476D02*
X102824619Y-110751904D01*
X102824619Y-110466190D02*
X101824619Y-110466190D01*
X101824619Y-110466190D02*
X101967476Y-110561428D01*
X101967476Y-110561428D02*
X102062714Y-110656666D01*
X102062714Y-110656666D02*
X102110333Y-110751904D01*
X101824619Y-109323333D02*
X101824619Y-109513809D01*
X101824619Y-109513809D02*
X101872238Y-109609047D01*
X101872238Y-109609047D02*
X101919857Y-109656666D01*
X101919857Y-109656666D02*
X102062714Y-109751904D01*
X102062714Y-109751904D02*
X102253190Y-109799523D01*
X102253190Y-109799523D02*
X102634142Y-109799523D01*
X102634142Y-109799523D02*
X102729380Y-109751904D01*
X102729380Y-109751904D02*
X102777000Y-109704285D01*
X102777000Y-109704285D02*
X102824619Y-109609047D01*
X102824619Y-109609047D02*
X102824619Y-109418571D01*
X102824619Y-109418571D02*
X102777000Y-109323333D01*
X102777000Y-109323333D02*
X102729380Y-109275714D01*
X102729380Y-109275714D02*
X102634142Y-109228095D01*
X102634142Y-109228095D02*
X102396047Y-109228095D01*
X102396047Y-109228095D02*
X102300809Y-109275714D01*
X102300809Y-109275714D02*
X102253190Y-109323333D01*
X102253190Y-109323333D02*
X102205571Y-109418571D01*
X102205571Y-109418571D02*
X102205571Y-109609047D01*
X102205571Y-109609047D02*
X102253190Y-109704285D01*
X102253190Y-109704285D02*
X102300809Y-109751904D01*
X102300809Y-109751904D02*
X102396047Y-109799523D01*
%TO.C,R1*%
X150990619Y-103798666D02*
X150514428Y-104131999D01*
X150990619Y-104370094D02*
X149990619Y-104370094D01*
X149990619Y-104370094D02*
X149990619Y-103989142D01*
X149990619Y-103989142D02*
X150038238Y-103893904D01*
X150038238Y-103893904D02*
X150085857Y-103846285D01*
X150085857Y-103846285D02*
X150181095Y-103798666D01*
X150181095Y-103798666D02*
X150323952Y-103798666D01*
X150323952Y-103798666D02*
X150419190Y-103846285D01*
X150419190Y-103846285D02*
X150466809Y-103893904D01*
X150466809Y-103893904D02*
X150514428Y-103989142D01*
X150514428Y-103989142D02*
X150514428Y-104370094D01*
X150990619Y-102846285D02*
X150990619Y-103417713D01*
X150990619Y-103131999D02*
X149990619Y-103131999D01*
X149990619Y-103131999D02*
X150133476Y-103227237D01*
X150133476Y-103227237D02*
X150228714Y-103322475D01*
X150228714Y-103322475D02*
X150276333Y-103417713D01*
%TO.C,U1*%
X114808095Y-103856619D02*
X114808095Y-104666142D01*
X114808095Y-104666142D02*
X114855714Y-104761380D01*
X114855714Y-104761380D02*
X114903333Y-104809000D01*
X114903333Y-104809000D02*
X114998571Y-104856619D01*
X114998571Y-104856619D02*
X115189047Y-104856619D01*
X115189047Y-104856619D02*
X115284285Y-104809000D01*
X115284285Y-104809000D02*
X115331904Y-104761380D01*
X115331904Y-104761380D02*
X115379523Y-104666142D01*
X115379523Y-104666142D02*
X115379523Y-103856619D01*
X116379523Y-104856619D02*
X115808095Y-104856619D01*
X116093809Y-104856619D02*
X116093809Y-103856619D01*
X116093809Y-103856619D02*
X115998571Y-103999476D01*
X115998571Y-103999476D02*
X115903333Y-104094714D01*
X115903333Y-104094714D02*
X115808095Y-104142333D01*
%TO.C,D1*%
X104928619Y-108180094D02*
X103928619Y-108180094D01*
X103928619Y-108180094D02*
X103928619Y-107941999D01*
X103928619Y-107941999D02*
X103976238Y-107799142D01*
X103976238Y-107799142D02*
X104071476Y-107703904D01*
X104071476Y-107703904D02*
X104166714Y-107656285D01*
X104166714Y-107656285D02*
X104357190Y-107608666D01*
X104357190Y-107608666D02*
X104500047Y-107608666D01*
X104500047Y-107608666D02*
X104690523Y-107656285D01*
X104690523Y-107656285D02*
X104785761Y-107703904D01*
X104785761Y-107703904D02*
X104881000Y-107799142D01*
X104881000Y-107799142D02*
X104928619Y-107941999D01*
X104928619Y-107941999D02*
X104928619Y-108180094D01*
X104928619Y-106656285D02*
X104928619Y-107227713D01*
X104928619Y-106941999D02*
X103928619Y-106941999D01*
X103928619Y-106941999D02*
X104071476Y-107037237D01*
X104071476Y-107037237D02*
X104166714Y-107132475D01*
X104166714Y-107132475D02*
X104214333Y-107227713D01*
%TO.C,H1*%
X114046095Y-131526619D02*
X114046095Y-130526619D01*
X114046095Y-131002809D02*
X114617523Y-131002809D01*
X114617523Y-131526619D02*
X114617523Y-130526619D01*
X115617523Y-131526619D02*
X115046095Y-131526619D01*
X115331809Y-131526619D02*
X115331809Y-130526619D01*
X115331809Y-130526619D02*
X115236571Y-130669476D01*
X115236571Y-130669476D02*
X115141333Y-130764714D01*
X115141333Y-130764714D02*
X115046095Y-130812333D01*
%TO.C,U3*%
X136891095Y-105729619D02*
X136891095Y-106539142D01*
X136891095Y-106539142D02*
X136938714Y-106634380D01*
X136938714Y-106634380D02*
X136986333Y-106682000D01*
X136986333Y-106682000D02*
X137081571Y-106729619D01*
X137081571Y-106729619D02*
X137272047Y-106729619D01*
X137272047Y-106729619D02*
X137367285Y-106682000D01*
X137367285Y-106682000D02*
X137414904Y-106634380D01*
X137414904Y-106634380D02*
X137462523Y-106539142D01*
X137462523Y-106539142D02*
X137462523Y-105729619D01*
X137843476Y-105729619D02*
X138462523Y-105729619D01*
X138462523Y-105729619D02*
X138129190Y-106110571D01*
X138129190Y-106110571D02*
X138272047Y-106110571D01*
X138272047Y-106110571D02*
X138367285Y-106158190D01*
X138367285Y-106158190D02*
X138414904Y-106205809D01*
X138414904Y-106205809D02*
X138462523Y-106301047D01*
X138462523Y-106301047D02*
X138462523Y-106539142D01*
X138462523Y-106539142D02*
X138414904Y-106634380D01*
X138414904Y-106634380D02*
X138367285Y-106682000D01*
X138367285Y-106682000D02*
X138272047Y-106729619D01*
X138272047Y-106729619D02*
X137986333Y-106729619D01*
X137986333Y-106729619D02*
X137891095Y-106682000D01*
X137891095Y-106682000D02*
X137843476Y-106634380D01*
%TO.C,R6*%
X113968619Y-107894666D02*
X113492428Y-108227999D01*
X113968619Y-108466094D02*
X112968619Y-108466094D01*
X112968619Y-108466094D02*
X112968619Y-108085142D01*
X112968619Y-108085142D02*
X113016238Y-107989904D01*
X113016238Y-107989904D02*
X113063857Y-107942285D01*
X113063857Y-107942285D02*
X113159095Y-107894666D01*
X113159095Y-107894666D02*
X113301952Y-107894666D01*
X113301952Y-107894666D02*
X113397190Y-107942285D01*
X113397190Y-107942285D02*
X113444809Y-107989904D01*
X113444809Y-107989904D02*
X113492428Y-108085142D01*
X113492428Y-108085142D02*
X113492428Y-108466094D01*
X112968619Y-107037523D02*
X112968619Y-107227999D01*
X112968619Y-107227999D02*
X113016238Y-107323237D01*
X113016238Y-107323237D02*
X113063857Y-107370856D01*
X113063857Y-107370856D02*
X113206714Y-107466094D01*
X113206714Y-107466094D02*
X113397190Y-107513713D01*
X113397190Y-107513713D02*
X113778142Y-107513713D01*
X113778142Y-107513713D02*
X113873380Y-107466094D01*
X113873380Y-107466094D02*
X113921000Y-107418475D01*
X113921000Y-107418475D02*
X113968619Y-107323237D01*
X113968619Y-107323237D02*
X113968619Y-107132761D01*
X113968619Y-107132761D02*
X113921000Y-107037523D01*
X113921000Y-107037523D02*
X113873380Y-106989904D01*
X113873380Y-106989904D02*
X113778142Y-106942285D01*
X113778142Y-106942285D02*
X113540047Y-106942285D01*
X113540047Y-106942285D02*
X113444809Y-106989904D01*
X113444809Y-106989904D02*
X113397190Y-107037523D01*
X113397190Y-107037523D02*
X113349571Y-107132761D01*
X113349571Y-107132761D02*
X113349571Y-107323237D01*
X113349571Y-107323237D02*
X113397190Y-107418475D01*
X113397190Y-107418475D02*
X113444809Y-107466094D01*
X113444809Y-107466094D02*
X113540047Y-107513713D01*
%TO.C,C2*%
X110857380Y-107862666D02*
X110905000Y-107910285D01*
X110905000Y-107910285D02*
X110952619Y-108053142D01*
X110952619Y-108053142D02*
X110952619Y-108148380D01*
X110952619Y-108148380D02*
X110905000Y-108291237D01*
X110905000Y-108291237D02*
X110809761Y-108386475D01*
X110809761Y-108386475D02*
X110714523Y-108434094D01*
X110714523Y-108434094D02*
X110524047Y-108481713D01*
X110524047Y-108481713D02*
X110381190Y-108481713D01*
X110381190Y-108481713D02*
X110190714Y-108434094D01*
X110190714Y-108434094D02*
X110095476Y-108386475D01*
X110095476Y-108386475D02*
X110000238Y-108291237D01*
X110000238Y-108291237D02*
X109952619Y-108148380D01*
X109952619Y-108148380D02*
X109952619Y-108053142D01*
X109952619Y-108053142D02*
X110000238Y-107910285D01*
X110000238Y-107910285D02*
X110047857Y-107862666D01*
X110047857Y-107481713D02*
X110000238Y-107434094D01*
X110000238Y-107434094D02*
X109952619Y-107338856D01*
X109952619Y-107338856D02*
X109952619Y-107100761D01*
X109952619Y-107100761D02*
X110000238Y-107005523D01*
X110000238Y-107005523D02*
X110047857Y-106957904D01*
X110047857Y-106957904D02*
X110143095Y-106910285D01*
X110143095Y-106910285D02*
X110238333Y-106910285D01*
X110238333Y-106910285D02*
X110381190Y-106957904D01*
X110381190Y-106957904D02*
X110952619Y-107529332D01*
X110952619Y-107529332D02*
X110952619Y-106910285D01*
%TO.C,J3*%
X171478533Y-96777980D02*
X171478533Y-96063695D01*
X171478533Y-96063695D02*
X171526152Y-95920838D01*
X171526152Y-95920838D02*
X171621390Y-95825600D01*
X171621390Y-95825600D02*
X171764247Y-95777980D01*
X171764247Y-95777980D02*
X171859485Y-95777980D01*
X171097580Y-96777980D02*
X170478533Y-96777980D01*
X170478533Y-96777980D02*
X170811866Y-96397028D01*
X170811866Y-96397028D02*
X170669009Y-96397028D01*
X170669009Y-96397028D02*
X170573771Y-96349409D01*
X170573771Y-96349409D02*
X170526152Y-96301790D01*
X170526152Y-96301790D02*
X170478533Y-96206552D01*
X170478533Y-96206552D02*
X170478533Y-95968457D01*
X170478533Y-95968457D02*
X170526152Y-95873219D01*
X170526152Y-95873219D02*
X170573771Y-95825600D01*
X170573771Y-95825600D02*
X170669009Y-95777980D01*
X170669009Y-95777980D02*
X170954723Y-95777980D01*
X170954723Y-95777980D02*
X171049961Y-95825600D01*
X171049961Y-95825600D02*
X171097580Y-95873219D01*
X179606485Y-94793695D02*
X179130295Y-94793695D01*
X179701723Y-94507980D02*
X179368390Y-95507980D01*
X179368390Y-95507980D02*
X179035057Y-94507980D01*
X178177914Y-94507980D02*
X178749342Y-94507980D01*
X178463628Y-94507980D02*
X178463628Y-95507980D01*
X178463628Y-95507980D02*
X178558866Y-95365123D01*
X178558866Y-95365123D02*
X178654104Y-95269885D01*
X178654104Y-95269885D02*
X178749342Y-95222266D01*
X164112485Y-94793695D02*
X163636295Y-94793695D01*
X164207723Y-94507980D02*
X163874390Y-95507980D01*
X163874390Y-95507980D02*
X163541057Y-94507980D01*
X162779152Y-95507980D02*
X162969628Y-95507980D01*
X162969628Y-95507980D02*
X163064866Y-95460361D01*
X163064866Y-95460361D02*
X163112485Y-95412742D01*
X163112485Y-95412742D02*
X163207723Y-95269885D01*
X163207723Y-95269885D02*
X163255342Y-95079409D01*
X163255342Y-95079409D02*
X163255342Y-94698457D01*
X163255342Y-94698457D02*
X163207723Y-94603219D01*
X163207723Y-94603219D02*
X163160104Y-94555600D01*
X163160104Y-94555600D02*
X163064866Y-94507980D01*
X163064866Y-94507980D02*
X162874390Y-94507980D01*
X162874390Y-94507980D02*
X162779152Y-94555600D01*
X162779152Y-94555600D02*
X162731533Y-94603219D01*
X162731533Y-94603219D02*
X162683914Y-94698457D01*
X162683914Y-94698457D02*
X162683914Y-94936552D01*
X162683914Y-94936552D02*
X162731533Y-95031790D01*
X162731533Y-95031790D02*
X162779152Y-95079409D01*
X162779152Y-95079409D02*
X162874390Y-95127028D01*
X162874390Y-95127028D02*
X163064866Y-95127028D01*
X163064866Y-95127028D02*
X163160104Y-95079409D01*
X163160104Y-95079409D02*
X163207723Y-95031790D01*
X163207723Y-95031790D02*
X163255342Y-94936552D01*
X179296961Y-97571790D02*
X179154104Y-97524171D01*
X179154104Y-97524171D02*
X179106485Y-97476552D01*
X179106485Y-97476552D02*
X179058866Y-97381314D01*
X179058866Y-97381314D02*
X179058866Y-97238457D01*
X179058866Y-97238457D02*
X179106485Y-97143219D01*
X179106485Y-97143219D02*
X179154104Y-97095600D01*
X179154104Y-97095600D02*
X179249342Y-97047980D01*
X179249342Y-97047980D02*
X179630294Y-97047980D01*
X179630294Y-97047980D02*
X179630294Y-98047980D01*
X179630294Y-98047980D02*
X179296961Y-98047980D01*
X179296961Y-98047980D02*
X179201723Y-98000361D01*
X179201723Y-98000361D02*
X179154104Y-97952742D01*
X179154104Y-97952742D02*
X179106485Y-97857504D01*
X179106485Y-97857504D02*
X179106485Y-97762266D01*
X179106485Y-97762266D02*
X179154104Y-97667028D01*
X179154104Y-97667028D02*
X179201723Y-97619409D01*
X179201723Y-97619409D02*
X179296961Y-97571790D01*
X179296961Y-97571790D02*
X179630294Y-97571790D01*
X178106485Y-97047980D02*
X178677913Y-97047980D01*
X178392199Y-97047980D02*
X178392199Y-98047980D01*
X178392199Y-98047980D02*
X178487437Y-97905123D01*
X178487437Y-97905123D02*
X178582675Y-97809885D01*
X178582675Y-97809885D02*
X178677913Y-97762266D01*
X163802961Y-97571790D02*
X163660104Y-97524171D01*
X163660104Y-97524171D02*
X163612485Y-97476552D01*
X163612485Y-97476552D02*
X163564866Y-97381314D01*
X163564866Y-97381314D02*
X163564866Y-97238457D01*
X163564866Y-97238457D02*
X163612485Y-97143219D01*
X163612485Y-97143219D02*
X163660104Y-97095600D01*
X163660104Y-97095600D02*
X163755342Y-97047980D01*
X163755342Y-97047980D02*
X164136294Y-97047980D01*
X164136294Y-97047980D02*
X164136294Y-98047980D01*
X164136294Y-98047980D02*
X163802961Y-98047980D01*
X163802961Y-98047980D02*
X163707723Y-98000361D01*
X163707723Y-98000361D02*
X163660104Y-97952742D01*
X163660104Y-97952742D02*
X163612485Y-97857504D01*
X163612485Y-97857504D02*
X163612485Y-97762266D01*
X163612485Y-97762266D02*
X163660104Y-97667028D01*
X163660104Y-97667028D02*
X163707723Y-97619409D01*
X163707723Y-97619409D02*
X163802961Y-97571790D01*
X163802961Y-97571790D02*
X164136294Y-97571790D01*
X162707723Y-98047980D02*
X162898199Y-98047980D01*
X162898199Y-98047980D02*
X162993437Y-98000361D01*
X162993437Y-98000361D02*
X163041056Y-97952742D01*
X163041056Y-97952742D02*
X163136294Y-97809885D01*
X163136294Y-97809885D02*
X163183913Y-97619409D01*
X163183913Y-97619409D02*
X163183913Y-97238457D01*
X163183913Y-97238457D02*
X163136294Y-97143219D01*
X163136294Y-97143219D02*
X163088675Y-97095600D01*
X163088675Y-97095600D02*
X162993437Y-97047980D01*
X162993437Y-97047980D02*
X162802961Y-97047980D01*
X162802961Y-97047980D02*
X162707723Y-97095600D01*
X162707723Y-97095600D02*
X162660104Y-97143219D01*
X162660104Y-97143219D02*
X162612485Y-97238457D01*
X162612485Y-97238457D02*
X162612485Y-97476552D01*
X162612485Y-97476552D02*
X162660104Y-97571790D01*
X162660104Y-97571790D02*
X162707723Y-97619409D01*
X162707723Y-97619409D02*
X162802961Y-97667028D01*
X162802961Y-97667028D02*
X162993437Y-97667028D01*
X162993437Y-97667028D02*
X163088675Y-97619409D01*
X163088675Y-97619409D02*
X163136294Y-97571790D01*
X163136294Y-97571790D02*
X163183913Y-97476552D01*
%TO.C,C14*%
X111371142Y-132701380D02*
X111323523Y-132749000D01*
X111323523Y-132749000D02*
X111180666Y-132796619D01*
X111180666Y-132796619D02*
X111085428Y-132796619D01*
X111085428Y-132796619D02*
X110942571Y-132749000D01*
X110942571Y-132749000D02*
X110847333Y-132653761D01*
X110847333Y-132653761D02*
X110799714Y-132558523D01*
X110799714Y-132558523D02*
X110752095Y-132368047D01*
X110752095Y-132368047D02*
X110752095Y-132225190D01*
X110752095Y-132225190D02*
X110799714Y-132034714D01*
X110799714Y-132034714D02*
X110847333Y-131939476D01*
X110847333Y-131939476D02*
X110942571Y-131844238D01*
X110942571Y-131844238D02*
X111085428Y-131796619D01*
X111085428Y-131796619D02*
X111180666Y-131796619D01*
X111180666Y-131796619D02*
X111323523Y-131844238D01*
X111323523Y-131844238D02*
X111371142Y-131891857D01*
X112323523Y-132796619D02*
X111752095Y-132796619D01*
X112037809Y-132796619D02*
X112037809Y-131796619D01*
X112037809Y-131796619D02*
X111942571Y-131939476D01*
X111942571Y-131939476D02*
X111847333Y-132034714D01*
X111847333Y-132034714D02*
X111752095Y-132082333D01*
X113180666Y-132129952D02*
X113180666Y-132796619D01*
X112942571Y-131749000D02*
X112704476Y-132463285D01*
X112704476Y-132463285D02*
X113323523Y-132463285D01*
%TO.C,C20*%
X106285380Y-128404857D02*
X106333000Y-128452476D01*
X106333000Y-128452476D02*
X106380619Y-128595333D01*
X106380619Y-128595333D02*
X106380619Y-128690571D01*
X106380619Y-128690571D02*
X106333000Y-128833428D01*
X106333000Y-128833428D02*
X106237761Y-128928666D01*
X106237761Y-128928666D02*
X106142523Y-128976285D01*
X106142523Y-128976285D02*
X105952047Y-129023904D01*
X105952047Y-129023904D02*
X105809190Y-129023904D01*
X105809190Y-129023904D02*
X105618714Y-128976285D01*
X105618714Y-128976285D02*
X105523476Y-128928666D01*
X105523476Y-128928666D02*
X105428238Y-128833428D01*
X105428238Y-128833428D02*
X105380619Y-128690571D01*
X105380619Y-128690571D02*
X105380619Y-128595333D01*
X105380619Y-128595333D02*
X105428238Y-128452476D01*
X105428238Y-128452476D02*
X105475857Y-128404857D01*
X105475857Y-128023904D02*
X105428238Y-127976285D01*
X105428238Y-127976285D02*
X105380619Y-127881047D01*
X105380619Y-127881047D02*
X105380619Y-127642952D01*
X105380619Y-127642952D02*
X105428238Y-127547714D01*
X105428238Y-127547714D02*
X105475857Y-127500095D01*
X105475857Y-127500095D02*
X105571095Y-127452476D01*
X105571095Y-127452476D02*
X105666333Y-127452476D01*
X105666333Y-127452476D02*
X105809190Y-127500095D01*
X105809190Y-127500095D02*
X106380619Y-128071523D01*
X106380619Y-128071523D02*
X106380619Y-127452476D01*
X105380619Y-126833428D02*
X105380619Y-126738190D01*
X105380619Y-126738190D02*
X105428238Y-126642952D01*
X105428238Y-126642952D02*
X105475857Y-126595333D01*
X105475857Y-126595333D02*
X105571095Y-126547714D01*
X105571095Y-126547714D02*
X105761571Y-126500095D01*
X105761571Y-126500095D02*
X105999666Y-126500095D01*
X105999666Y-126500095D02*
X106190142Y-126547714D01*
X106190142Y-126547714D02*
X106285380Y-126595333D01*
X106285380Y-126595333D02*
X106333000Y-126642952D01*
X106333000Y-126642952D02*
X106380619Y-126738190D01*
X106380619Y-126738190D02*
X106380619Y-126833428D01*
X106380619Y-126833428D02*
X106333000Y-126928666D01*
X106333000Y-126928666D02*
X106285380Y-126976285D01*
X106285380Y-126976285D02*
X106190142Y-127023904D01*
X106190142Y-127023904D02*
X105999666Y-127071523D01*
X105999666Y-127071523D02*
X105761571Y-127071523D01*
X105761571Y-127071523D02*
X105571095Y-127023904D01*
X105571095Y-127023904D02*
X105475857Y-126976285D01*
X105475857Y-126976285D02*
X105428238Y-126928666D01*
X105428238Y-126928666D02*
X105380619Y-126833428D01*
%TO.C,X1*%
X104600476Y-113762619D02*
X105267142Y-114762619D01*
X105267142Y-113762619D02*
X104600476Y-114762619D01*
X106171904Y-114762619D02*
X105600476Y-114762619D01*
X105886190Y-114762619D02*
X105886190Y-113762619D01*
X105886190Y-113762619D02*
X105790952Y-113905476D01*
X105790952Y-113905476D02*
X105695714Y-114000714D01*
X105695714Y-114000714D02*
X105600476Y-114048333D01*
%TO.C,J1*%
X146224666Y-95728619D02*
X146224666Y-96442904D01*
X146224666Y-96442904D02*
X146177047Y-96585761D01*
X146177047Y-96585761D02*
X146081809Y-96681000D01*
X146081809Y-96681000D02*
X145938952Y-96728619D01*
X145938952Y-96728619D02*
X145843714Y-96728619D01*
X147224666Y-96728619D02*
X146653238Y-96728619D01*
X146938952Y-96728619D02*
X146938952Y-95728619D01*
X146938952Y-95728619D02*
X146843714Y-95871476D01*
X146843714Y-95871476D02*
X146748476Y-95966714D01*
X146748476Y-95966714D02*
X146653238Y-96014333D01*
%TO.C,C12*%
X111371142Y-130923380D02*
X111323523Y-130971000D01*
X111323523Y-130971000D02*
X111180666Y-131018619D01*
X111180666Y-131018619D02*
X111085428Y-131018619D01*
X111085428Y-131018619D02*
X110942571Y-130971000D01*
X110942571Y-130971000D02*
X110847333Y-130875761D01*
X110847333Y-130875761D02*
X110799714Y-130780523D01*
X110799714Y-130780523D02*
X110752095Y-130590047D01*
X110752095Y-130590047D02*
X110752095Y-130447190D01*
X110752095Y-130447190D02*
X110799714Y-130256714D01*
X110799714Y-130256714D02*
X110847333Y-130161476D01*
X110847333Y-130161476D02*
X110942571Y-130066238D01*
X110942571Y-130066238D02*
X111085428Y-130018619D01*
X111085428Y-130018619D02*
X111180666Y-130018619D01*
X111180666Y-130018619D02*
X111323523Y-130066238D01*
X111323523Y-130066238D02*
X111371142Y-130113857D01*
X112323523Y-131018619D02*
X111752095Y-131018619D01*
X112037809Y-131018619D02*
X112037809Y-130018619D01*
X112037809Y-130018619D02*
X111942571Y-130161476D01*
X111942571Y-130161476D02*
X111847333Y-130256714D01*
X111847333Y-130256714D02*
X111752095Y-130304333D01*
X112704476Y-130113857D02*
X112752095Y-130066238D01*
X112752095Y-130066238D02*
X112847333Y-130018619D01*
X112847333Y-130018619D02*
X113085428Y-130018619D01*
X113085428Y-130018619D02*
X113180666Y-130066238D01*
X113180666Y-130066238D02*
X113228285Y-130113857D01*
X113228285Y-130113857D02*
X113275904Y-130209095D01*
X113275904Y-130209095D02*
X113275904Y-130304333D01*
X113275904Y-130304333D02*
X113228285Y-130447190D01*
X113228285Y-130447190D02*
X112656857Y-131018619D01*
X112656857Y-131018619D02*
X113275904Y-131018619D01*
%TO.C,R4*%
X115524619Y-107862666D02*
X115048428Y-108195999D01*
X115524619Y-108434094D02*
X114524619Y-108434094D01*
X114524619Y-108434094D02*
X114524619Y-108053142D01*
X114524619Y-108053142D02*
X114572238Y-107957904D01*
X114572238Y-107957904D02*
X114619857Y-107910285D01*
X114619857Y-107910285D02*
X114715095Y-107862666D01*
X114715095Y-107862666D02*
X114857952Y-107862666D01*
X114857952Y-107862666D02*
X114953190Y-107910285D01*
X114953190Y-107910285D02*
X115000809Y-107957904D01*
X115000809Y-107957904D02*
X115048428Y-108053142D01*
X115048428Y-108053142D02*
X115048428Y-108434094D01*
X114857952Y-107005523D02*
X115524619Y-107005523D01*
X114477000Y-107243618D02*
X115191285Y-107481713D01*
X115191285Y-107481713D02*
X115191285Y-106862666D01*
%TO.C,L4*%
X106380619Y-133770666D02*
X106380619Y-134246856D01*
X106380619Y-134246856D02*
X105380619Y-134246856D01*
X105713952Y-133008761D02*
X106380619Y-133008761D01*
X105333000Y-133246856D02*
X106047285Y-133484951D01*
X106047285Y-133484951D02*
X106047285Y-132865904D01*
%TO.C,C3*%
X112381380Y-107862666D02*
X112429000Y-107910285D01*
X112429000Y-107910285D02*
X112476619Y-108053142D01*
X112476619Y-108053142D02*
X112476619Y-108148380D01*
X112476619Y-108148380D02*
X112429000Y-108291237D01*
X112429000Y-108291237D02*
X112333761Y-108386475D01*
X112333761Y-108386475D02*
X112238523Y-108434094D01*
X112238523Y-108434094D02*
X112048047Y-108481713D01*
X112048047Y-108481713D02*
X111905190Y-108481713D01*
X111905190Y-108481713D02*
X111714714Y-108434094D01*
X111714714Y-108434094D02*
X111619476Y-108386475D01*
X111619476Y-108386475D02*
X111524238Y-108291237D01*
X111524238Y-108291237D02*
X111476619Y-108148380D01*
X111476619Y-108148380D02*
X111476619Y-108053142D01*
X111476619Y-108053142D02*
X111524238Y-107910285D01*
X111524238Y-107910285D02*
X111571857Y-107862666D01*
X111476619Y-107529332D02*
X111476619Y-106910285D01*
X111476619Y-106910285D02*
X111857571Y-107243618D01*
X111857571Y-107243618D02*
X111857571Y-107100761D01*
X111857571Y-107100761D02*
X111905190Y-107005523D01*
X111905190Y-107005523D02*
X111952809Y-106957904D01*
X111952809Y-106957904D02*
X112048047Y-106910285D01*
X112048047Y-106910285D02*
X112286142Y-106910285D01*
X112286142Y-106910285D02*
X112381380Y-106957904D01*
X112381380Y-106957904D02*
X112429000Y-107005523D01*
X112429000Y-107005523D02*
X112476619Y-107100761D01*
X112476619Y-107100761D02*
X112476619Y-107386475D01*
X112476619Y-107386475D02*
X112429000Y-107481713D01*
X112429000Y-107481713D02*
X112381380Y-107529332D01*
%TO.C,TP1*%
X96782095Y-125734619D02*
X97353523Y-125734619D01*
X97067809Y-126734619D02*
X97067809Y-125734619D01*
X97686857Y-126734619D02*
X97686857Y-125734619D01*
X97686857Y-125734619D02*
X98067809Y-125734619D01*
X98067809Y-125734619D02*
X98163047Y-125782238D01*
X98163047Y-125782238D02*
X98210666Y-125829857D01*
X98210666Y-125829857D02*
X98258285Y-125925095D01*
X98258285Y-125925095D02*
X98258285Y-126067952D01*
X98258285Y-126067952D02*
X98210666Y-126163190D01*
X98210666Y-126163190D02*
X98163047Y-126210809D01*
X98163047Y-126210809D02*
X98067809Y-126258428D01*
X98067809Y-126258428D02*
X97686857Y-126258428D01*
X99210666Y-126734619D02*
X98639238Y-126734619D01*
X98924952Y-126734619D02*
X98924952Y-125734619D01*
X98924952Y-125734619D02*
X98829714Y-125877476D01*
X98829714Y-125877476D02*
X98734476Y-125972714D01*
X98734476Y-125972714D02*
X98639238Y-126020333D01*
%TO.C,U2*%
X106934095Y-115032619D02*
X106934095Y-115842142D01*
X106934095Y-115842142D02*
X106981714Y-115937380D01*
X106981714Y-115937380D02*
X107029333Y-115985000D01*
X107029333Y-115985000D02*
X107124571Y-116032619D01*
X107124571Y-116032619D02*
X107315047Y-116032619D01*
X107315047Y-116032619D02*
X107410285Y-115985000D01*
X107410285Y-115985000D02*
X107457904Y-115937380D01*
X107457904Y-115937380D02*
X107505523Y-115842142D01*
X107505523Y-115842142D02*
X107505523Y-115032619D01*
X107934095Y-115127857D02*
X107981714Y-115080238D01*
X107981714Y-115080238D02*
X108076952Y-115032619D01*
X108076952Y-115032619D02*
X108315047Y-115032619D01*
X108315047Y-115032619D02*
X108410285Y-115080238D01*
X108410285Y-115080238D02*
X108457904Y-115127857D01*
X108457904Y-115127857D02*
X108505523Y-115223095D01*
X108505523Y-115223095D02*
X108505523Y-115318333D01*
X108505523Y-115318333D02*
X108457904Y-115461190D01*
X108457904Y-115461190D02*
X107886476Y-116032619D01*
X107886476Y-116032619D02*
X108505523Y-116032619D01*
%TO.C,R7*%
X99268619Y-110910666D02*
X98792428Y-111243999D01*
X99268619Y-111482094D02*
X98268619Y-111482094D01*
X98268619Y-111482094D02*
X98268619Y-111101142D01*
X98268619Y-111101142D02*
X98316238Y-111005904D01*
X98316238Y-111005904D02*
X98363857Y-110958285D01*
X98363857Y-110958285D02*
X98459095Y-110910666D01*
X98459095Y-110910666D02*
X98601952Y-110910666D01*
X98601952Y-110910666D02*
X98697190Y-110958285D01*
X98697190Y-110958285D02*
X98744809Y-111005904D01*
X98744809Y-111005904D02*
X98792428Y-111101142D01*
X98792428Y-111101142D02*
X98792428Y-111482094D01*
X98268619Y-110577332D02*
X98268619Y-109910666D01*
X98268619Y-109910666D02*
X99268619Y-110339237D01*
%TO.C,J2*%
X119046666Y-103602619D02*
X119046666Y-104316904D01*
X119046666Y-104316904D02*
X118999047Y-104459761D01*
X118999047Y-104459761D02*
X118903809Y-104555000D01*
X118903809Y-104555000D02*
X118760952Y-104602619D01*
X118760952Y-104602619D02*
X118665714Y-104602619D01*
X119475238Y-103697857D02*
X119522857Y-103650238D01*
X119522857Y-103650238D02*
X119618095Y-103602619D01*
X119618095Y-103602619D02*
X119856190Y-103602619D01*
X119856190Y-103602619D02*
X119951428Y-103650238D01*
X119951428Y-103650238D02*
X119999047Y-103697857D01*
X119999047Y-103697857D02*
X120046666Y-103793095D01*
X120046666Y-103793095D02*
X120046666Y-103888333D01*
X120046666Y-103888333D02*
X119999047Y-104031190D01*
X119999047Y-104031190D02*
X119427619Y-104602619D01*
X119427619Y-104602619D02*
X120046666Y-104602619D01*
%TO.C,L1*%
X105529333Y-114470619D02*
X105053143Y-114470619D01*
X105053143Y-114470619D02*
X105053143Y-113470619D01*
X106386476Y-114470619D02*
X105815048Y-114470619D01*
X106100762Y-114470619D02*
X106100762Y-113470619D01*
X106100762Y-113470619D02*
X106005524Y-113613476D01*
X106005524Y-113613476D02*
X105910286Y-113708714D01*
X105910286Y-113708714D02*
X105815048Y-113756333D01*
%TO.C,D3*%
X115628619Y-116660594D02*
X114628619Y-116660594D01*
X114628619Y-116660594D02*
X114628619Y-116422499D01*
X114628619Y-116422499D02*
X114676238Y-116279642D01*
X114676238Y-116279642D02*
X114771476Y-116184404D01*
X114771476Y-116184404D02*
X114866714Y-116136785D01*
X114866714Y-116136785D02*
X115057190Y-116089166D01*
X115057190Y-116089166D02*
X115200047Y-116089166D01*
X115200047Y-116089166D02*
X115390523Y-116136785D01*
X115390523Y-116136785D02*
X115485761Y-116184404D01*
X115485761Y-116184404D02*
X115581000Y-116279642D01*
X115581000Y-116279642D02*
X115628619Y-116422499D01*
X115628619Y-116422499D02*
X115628619Y-116660594D01*
X114628619Y-115755832D02*
X114628619Y-115136785D01*
X114628619Y-115136785D02*
X115009571Y-115470118D01*
X115009571Y-115470118D02*
X115009571Y-115327261D01*
X115009571Y-115327261D02*
X115057190Y-115232023D01*
X115057190Y-115232023D02*
X115104809Y-115184404D01*
X115104809Y-115184404D02*
X115200047Y-115136785D01*
X115200047Y-115136785D02*
X115438142Y-115136785D01*
X115438142Y-115136785D02*
X115533380Y-115184404D01*
X115533380Y-115184404D02*
X115581000Y-115232023D01*
X115581000Y-115232023D02*
X115628619Y-115327261D01*
X115628619Y-115327261D02*
X115628619Y-115612975D01*
X115628619Y-115612975D02*
X115581000Y-115708213D01*
X115581000Y-115708213D02*
X115533380Y-115755832D01*
%TO.C,F2*%
X98998809Y-119967333D02*
X98998809Y-120300666D01*
X99522619Y-120300666D02*
X98522619Y-120300666D01*
X98522619Y-120300666D02*
X98522619Y-119824476D01*
X98617857Y-119491142D02*
X98570238Y-119443523D01*
X98570238Y-119443523D02*
X98522619Y-119348285D01*
X98522619Y-119348285D02*
X98522619Y-119110190D01*
X98522619Y-119110190D02*
X98570238Y-119014952D01*
X98570238Y-119014952D02*
X98617857Y-118967333D01*
X98617857Y-118967333D02*
X98713095Y-118919714D01*
X98713095Y-118919714D02*
X98808333Y-118919714D01*
X98808333Y-118919714D02*
X98951190Y-118967333D01*
X98951190Y-118967333D02*
X99522619Y-119538761D01*
X99522619Y-119538761D02*
X99522619Y-118919714D01*
%TO.C,L5*%
X104602619Y-133770666D02*
X104602619Y-134246856D01*
X104602619Y-134246856D02*
X103602619Y-134246856D01*
X103602619Y-132961142D02*
X103602619Y-133437332D01*
X103602619Y-133437332D02*
X104078809Y-133484951D01*
X104078809Y-133484951D02*
X104031190Y-133437332D01*
X104031190Y-133437332D02*
X103983571Y-133342094D01*
X103983571Y-133342094D02*
X103983571Y-133103999D01*
X103983571Y-133103999D02*
X104031190Y-133008761D01*
X104031190Y-133008761D02*
X104078809Y-132961142D01*
X104078809Y-132961142D02*
X104174047Y-132913523D01*
X104174047Y-132913523D02*
X104412142Y-132913523D01*
X104412142Y-132913523D02*
X104507380Y-132961142D01*
X104507380Y-132961142D02*
X104555000Y-133008761D01*
X104555000Y-133008761D02*
X104602619Y-133103999D01*
X104602619Y-133103999D02*
X104602619Y-133342094D01*
X104602619Y-133342094D02*
X104555000Y-133437332D01*
X104555000Y-133437332D02*
X104507380Y-133484951D01*
%TO.C,C18*%
X108323142Y-123811380D02*
X108275523Y-123859000D01*
X108275523Y-123859000D02*
X108132666Y-123906619D01*
X108132666Y-123906619D02*
X108037428Y-123906619D01*
X108037428Y-123906619D02*
X107894571Y-123859000D01*
X107894571Y-123859000D02*
X107799333Y-123763761D01*
X107799333Y-123763761D02*
X107751714Y-123668523D01*
X107751714Y-123668523D02*
X107704095Y-123478047D01*
X107704095Y-123478047D02*
X107704095Y-123335190D01*
X107704095Y-123335190D02*
X107751714Y-123144714D01*
X107751714Y-123144714D02*
X107799333Y-123049476D01*
X107799333Y-123049476D02*
X107894571Y-122954238D01*
X107894571Y-122954238D02*
X108037428Y-122906619D01*
X108037428Y-122906619D02*
X108132666Y-122906619D01*
X108132666Y-122906619D02*
X108275523Y-122954238D01*
X108275523Y-122954238D02*
X108323142Y-123001857D01*
X109275523Y-123906619D02*
X108704095Y-123906619D01*
X108989809Y-123906619D02*
X108989809Y-122906619D01*
X108989809Y-122906619D02*
X108894571Y-123049476D01*
X108894571Y-123049476D02*
X108799333Y-123144714D01*
X108799333Y-123144714D02*
X108704095Y-123192333D01*
X109846952Y-123335190D02*
X109751714Y-123287571D01*
X109751714Y-123287571D02*
X109704095Y-123239952D01*
X109704095Y-123239952D02*
X109656476Y-123144714D01*
X109656476Y-123144714D02*
X109656476Y-123097095D01*
X109656476Y-123097095D02*
X109704095Y-123001857D01*
X109704095Y-123001857D02*
X109751714Y-122954238D01*
X109751714Y-122954238D02*
X109846952Y-122906619D01*
X109846952Y-122906619D02*
X110037428Y-122906619D01*
X110037428Y-122906619D02*
X110132666Y-122954238D01*
X110132666Y-122954238D02*
X110180285Y-123001857D01*
X110180285Y-123001857D02*
X110227904Y-123097095D01*
X110227904Y-123097095D02*
X110227904Y-123144714D01*
X110227904Y-123144714D02*
X110180285Y-123239952D01*
X110180285Y-123239952D02*
X110132666Y-123287571D01*
X110132666Y-123287571D02*
X110037428Y-123335190D01*
X110037428Y-123335190D02*
X109846952Y-123335190D01*
X109846952Y-123335190D02*
X109751714Y-123382809D01*
X109751714Y-123382809D02*
X109704095Y-123430428D01*
X109704095Y-123430428D02*
X109656476Y-123525666D01*
X109656476Y-123525666D02*
X109656476Y-123716142D01*
X109656476Y-123716142D02*
X109704095Y-123811380D01*
X109704095Y-123811380D02*
X109751714Y-123859000D01*
X109751714Y-123859000D02*
X109846952Y-123906619D01*
X109846952Y-123906619D02*
X110037428Y-123906619D01*
X110037428Y-123906619D02*
X110132666Y-123859000D01*
X110132666Y-123859000D02*
X110180285Y-123811380D01*
X110180285Y-123811380D02*
X110227904Y-123716142D01*
X110227904Y-123716142D02*
X110227904Y-123525666D01*
X110227904Y-123525666D02*
X110180285Y-123430428D01*
X110180285Y-123430428D02*
X110132666Y-123382809D01*
X110132666Y-123382809D02*
X110037428Y-123335190D01*
%TO.C,C4*%
X109333380Y-107849666D02*
X109381000Y-107897285D01*
X109381000Y-107897285D02*
X109428619Y-108040142D01*
X109428619Y-108040142D02*
X109428619Y-108135380D01*
X109428619Y-108135380D02*
X109381000Y-108278237D01*
X109381000Y-108278237D02*
X109285761Y-108373475D01*
X109285761Y-108373475D02*
X109190523Y-108421094D01*
X109190523Y-108421094D02*
X109000047Y-108468713D01*
X109000047Y-108468713D02*
X108857190Y-108468713D01*
X108857190Y-108468713D02*
X108666714Y-108421094D01*
X108666714Y-108421094D02*
X108571476Y-108373475D01*
X108571476Y-108373475D02*
X108476238Y-108278237D01*
X108476238Y-108278237D02*
X108428619Y-108135380D01*
X108428619Y-108135380D02*
X108428619Y-108040142D01*
X108428619Y-108040142D02*
X108476238Y-107897285D01*
X108476238Y-107897285D02*
X108523857Y-107849666D01*
X108761952Y-106992523D02*
X109428619Y-106992523D01*
X108381000Y-107230618D02*
X109095285Y-107468713D01*
X109095285Y-107468713D02*
X109095285Y-106849666D01*
%TO.C,H3*%
X186690095Y-93934619D02*
X186690095Y-92934619D01*
X186690095Y-93410809D02*
X187261523Y-93410809D01*
X187261523Y-93934619D02*
X187261523Y-92934619D01*
X187642476Y-92934619D02*
X188261523Y-92934619D01*
X188261523Y-92934619D02*
X187928190Y-93315571D01*
X187928190Y-93315571D02*
X188071047Y-93315571D01*
X188071047Y-93315571D02*
X188166285Y-93363190D01*
X188166285Y-93363190D02*
X188213904Y-93410809D01*
X188213904Y-93410809D02*
X188261523Y-93506047D01*
X188261523Y-93506047D02*
X188261523Y-93744142D01*
X188261523Y-93744142D02*
X188213904Y-93839380D01*
X188213904Y-93839380D02*
X188166285Y-93887000D01*
X188166285Y-93887000D02*
X188071047Y-93934619D01*
X188071047Y-93934619D02*
X187785333Y-93934619D01*
X187785333Y-93934619D02*
X187690095Y-93887000D01*
X187690095Y-93887000D02*
X187642476Y-93839380D01*
%TO.C,C13*%
X111371142Y-129145380D02*
X111323523Y-129193000D01*
X111323523Y-129193000D02*
X111180666Y-129240619D01*
X111180666Y-129240619D02*
X111085428Y-129240619D01*
X111085428Y-129240619D02*
X110942571Y-129193000D01*
X110942571Y-129193000D02*
X110847333Y-129097761D01*
X110847333Y-129097761D02*
X110799714Y-129002523D01*
X110799714Y-129002523D02*
X110752095Y-128812047D01*
X110752095Y-128812047D02*
X110752095Y-128669190D01*
X110752095Y-128669190D02*
X110799714Y-128478714D01*
X110799714Y-128478714D02*
X110847333Y-128383476D01*
X110847333Y-128383476D02*
X110942571Y-128288238D01*
X110942571Y-128288238D02*
X111085428Y-128240619D01*
X111085428Y-128240619D02*
X111180666Y-128240619D01*
X111180666Y-128240619D02*
X111323523Y-128288238D01*
X111323523Y-128288238D02*
X111371142Y-128335857D01*
X112323523Y-129240619D02*
X111752095Y-129240619D01*
X112037809Y-129240619D02*
X112037809Y-128240619D01*
X112037809Y-128240619D02*
X111942571Y-128383476D01*
X111942571Y-128383476D02*
X111847333Y-128478714D01*
X111847333Y-128478714D02*
X111752095Y-128526333D01*
X112656857Y-128240619D02*
X113275904Y-128240619D01*
X113275904Y-128240619D02*
X112942571Y-128621571D01*
X112942571Y-128621571D02*
X113085428Y-128621571D01*
X113085428Y-128621571D02*
X113180666Y-128669190D01*
X113180666Y-128669190D02*
X113228285Y-128716809D01*
X113228285Y-128716809D02*
X113275904Y-128812047D01*
X113275904Y-128812047D02*
X113275904Y-129050142D01*
X113275904Y-129050142D02*
X113228285Y-129145380D01*
X113228285Y-129145380D02*
X113180666Y-129193000D01*
X113180666Y-129193000D02*
X113085428Y-129240619D01*
X113085428Y-129240619D02*
X112799714Y-129240619D01*
X112799714Y-129240619D02*
X112704476Y-129193000D01*
X112704476Y-129193000D02*
X112656857Y-129145380D01*
%TO.C,C9*%
X102729380Y-128182666D02*
X102777000Y-128230285D01*
X102777000Y-128230285D02*
X102824619Y-128373142D01*
X102824619Y-128373142D02*
X102824619Y-128468380D01*
X102824619Y-128468380D02*
X102777000Y-128611237D01*
X102777000Y-128611237D02*
X102681761Y-128706475D01*
X102681761Y-128706475D02*
X102586523Y-128754094D01*
X102586523Y-128754094D02*
X102396047Y-128801713D01*
X102396047Y-128801713D02*
X102253190Y-128801713D01*
X102253190Y-128801713D02*
X102062714Y-128754094D01*
X102062714Y-128754094D02*
X101967476Y-128706475D01*
X101967476Y-128706475D02*
X101872238Y-128611237D01*
X101872238Y-128611237D02*
X101824619Y-128468380D01*
X101824619Y-128468380D02*
X101824619Y-128373142D01*
X101824619Y-128373142D02*
X101872238Y-128230285D01*
X101872238Y-128230285D02*
X101919857Y-128182666D01*
X102824619Y-127706475D02*
X102824619Y-127515999D01*
X102824619Y-127515999D02*
X102777000Y-127420761D01*
X102777000Y-127420761D02*
X102729380Y-127373142D01*
X102729380Y-127373142D02*
X102586523Y-127277904D01*
X102586523Y-127277904D02*
X102396047Y-127230285D01*
X102396047Y-127230285D02*
X102015095Y-127230285D01*
X102015095Y-127230285D02*
X101919857Y-127277904D01*
X101919857Y-127277904D02*
X101872238Y-127325523D01*
X101872238Y-127325523D02*
X101824619Y-127420761D01*
X101824619Y-127420761D02*
X101824619Y-127611237D01*
X101824619Y-127611237D02*
X101872238Y-127706475D01*
X101872238Y-127706475D02*
X101919857Y-127754094D01*
X101919857Y-127754094D02*
X102015095Y-127801713D01*
X102015095Y-127801713D02*
X102253190Y-127801713D01*
X102253190Y-127801713D02*
X102348428Y-127754094D01*
X102348428Y-127754094D02*
X102396047Y-127706475D01*
X102396047Y-127706475D02*
X102443666Y-127611237D01*
X102443666Y-127611237D02*
X102443666Y-127420761D01*
X102443666Y-127420761D02*
X102396047Y-127325523D01*
X102396047Y-127325523D02*
X102348428Y-127277904D01*
X102348428Y-127277904D02*
X102253190Y-127230285D01*
%TO.C,J4*%
X154606666Y-111476619D02*
X154606666Y-112190904D01*
X154606666Y-112190904D02*
X154559047Y-112333761D01*
X154559047Y-112333761D02*
X154463809Y-112429000D01*
X154463809Y-112429000D02*
X154320952Y-112476619D01*
X154320952Y-112476619D02*
X154225714Y-112476619D01*
X155511428Y-111809952D02*
X155511428Y-112476619D01*
X155273333Y-111429000D02*
X155035238Y-112143285D01*
X155035238Y-112143285D02*
X155654285Y-112143285D01*
%TO.C,U4*%
X102108095Y-117064619D02*
X102108095Y-117874142D01*
X102108095Y-117874142D02*
X102155714Y-117969380D01*
X102155714Y-117969380D02*
X102203333Y-118017000D01*
X102203333Y-118017000D02*
X102298571Y-118064619D01*
X102298571Y-118064619D02*
X102489047Y-118064619D01*
X102489047Y-118064619D02*
X102584285Y-118017000D01*
X102584285Y-118017000D02*
X102631904Y-117969380D01*
X102631904Y-117969380D02*
X102679523Y-117874142D01*
X102679523Y-117874142D02*
X102679523Y-117064619D01*
X103584285Y-117397952D02*
X103584285Y-118064619D01*
X103346190Y-117017000D02*
X103108095Y-117731285D01*
X103108095Y-117731285D02*
X103727142Y-117731285D01*
%TO.C,R8*%
X101046619Y-128182666D02*
X100570428Y-128515999D01*
X101046619Y-128754094D02*
X100046619Y-128754094D01*
X100046619Y-128754094D02*
X100046619Y-128373142D01*
X100046619Y-128373142D02*
X100094238Y-128277904D01*
X100094238Y-128277904D02*
X100141857Y-128230285D01*
X100141857Y-128230285D02*
X100237095Y-128182666D01*
X100237095Y-128182666D02*
X100379952Y-128182666D01*
X100379952Y-128182666D02*
X100475190Y-128230285D01*
X100475190Y-128230285D02*
X100522809Y-128277904D01*
X100522809Y-128277904D02*
X100570428Y-128373142D01*
X100570428Y-128373142D02*
X100570428Y-128754094D01*
X100475190Y-127611237D02*
X100427571Y-127706475D01*
X100427571Y-127706475D02*
X100379952Y-127754094D01*
X100379952Y-127754094D02*
X100284714Y-127801713D01*
X100284714Y-127801713D02*
X100237095Y-127801713D01*
X100237095Y-127801713D02*
X100141857Y-127754094D01*
X100141857Y-127754094D02*
X100094238Y-127706475D01*
X100094238Y-127706475D02*
X100046619Y-127611237D01*
X100046619Y-127611237D02*
X100046619Y-127420761D01*
X100046619Y-127420761D02*
X100094238Y-127325523D01*
X100094238Y-127325523D02*
X100141857Y-127277904D01*
X100141857Y-127277904D02*
X100237095Y-127230285D01*
X100237095Y-127230285D02*
X100284714Y-127230285D01*
X100284714Y-127230285D02*
X100379952Y-127277904D01*
X100379952Y-127277904D02*
X100427571Y-127325523D01*
X100427571Y-127325523D02*
X100475190Y-127420761D01*
X100475190Y-127420761D02*
X100475190Y-127611237D01*
X100475190Y-127611237D02*
X100522809Y-127706475D01*
X100522809Y-127706475D02*
X100570428Y-127754094D01*
X100570428Y-127754094D02*
X100665666Y-127801713D01*
X100665666Y-127801713D02*
X100856142Y-127801713D01*
X100856142Y-127801713D02*
X100951380Y-127754094D01*
X100951380Y-127754094D02*
X100999000Y-127706475D01*
X100999000Y-127706475D02*
X101046619Y-127611237D01*
X101046619Y-127611237D02*
X101046619Y-127420761D01*
X101046619Y-127420761D02*
X100999000Y-127325523D01*
X100999000Y-127325523D02*
X100951380Y-127277904D01*
X100951380Y-127277904D02*
X100856142Y-127230285D01*
X100856142Y-127230285D02*
X100665666Y-127230285D01*
X100665666Y-127230285D02*
X100570428Y-127277904D01*
X100570428Y-127277904D02*
X100522809Y-127325523D01*
X100522809Y-127325523D02*
X100475190Y-127420761D01*
%TO.C,D2*%
X103078619Y-102084094D02*
X102078619Y-102084094D01*
X102078619Y-102084094D02*
X102078619Y-101845999D01*
X102078619Y-101845999D02*
X102126238Y-101703142D01*
X102126238Y-101703142D02*
X102221476Y-101607904D01*
X102221476Y-101607904D02*
X102316714Y-101560285D01*
X102316714Y-101560285D02*
X102507190Y-101512666D01*
X102507190Y-101512666D02*
X102650047Y-101512666D01*
X102650047Y-101512666D02*
X102840523Y-101560285D01*
X102840523Y-101560285D02*
X102935761Y-101607904D01*
X102935761Y-101607904D02*
X103031000Y-101703142D01*
X103031000Y-101703142D02*
X103078619Y-101845999D01*
X103078619Y-101845999D02*
X103078619Y-102084094D01*
X102173857Y-101131713D02*
X102126238Y-101084094D01*
X102126238Y-101084094D02*
X102078619Y-100988856D01*
X102078619Y-100988856D02*
X102078619Y-100750761D01*
X102078619Y-100750761D02*
X102126238Y-100655523D01*
X102126238Y-100655523D02*
X102173857Y-100607904D01*
X102173857Y-100607904D02*
X102269095Y-100560285D01*
X102269095Y-100560285D02*
X102364333Y-100560285D01*
X102364333Y-100560285D02*
X102507190Y-100607904D01*
X102507190Y-100607904D02*
X103078619Y-101179332D01*
X103078619Y-101179332D02*
X103078619Y-100560285D01*
%TO.C,C15*%
X99333380Y-123324857D02*
X99381000Y-123372476D01*
X99381000Y-123372476D02*
X99428619Y-123515333D01*
X99428619Y-123515333D02*
X99428619Y-123610571D01*
X99428619Y-123610571D02*
X99381000Y-123753428D01*
X99381000Y-123753428D02*
X99285761Y-123848666D01*
X99285761Y-123848666D02*
X99190523Y-123896285D01*
X99190523Y-123896285D02*
X99000047Y-123943904D01*
X99000047Y-123943904D02*
X98857190Y-123943904D01*
X98857190Y-123943904D02*
X98666714Y-123896285D01*
X98666714Y-123896285D02*
X98571476Y-123848666D01*
X98571476Y-123848666D02*
X98476238Y-123753428D01*
X98476238Y-123753428D02*
X98428619Y-123610571D01*
X98428619Y-123610571D02*
X98428619Y-123515333D01*
X98428619Y-123515333D02*
X98476238Y-123372476D01*
X98476238Y-123372476D02*
X98523857Y-123324857D01*
X99428619Y-122372476D02*
X99428619Y-122943904D01*
X99428619Y-122658190D02*
X98428619Y-122658190D01*
X98428619Y-122658190D02*
X98571476Y-122753428D01*
X98571476Y-122753428D02*
X98666714Y-122848666D01*
X98666714Y-122848666D02*
X98714333Y-122943904D01*
X98428619Y-121467714D02*
X98428619Y-121943904D01*
X98428619Y-121943904D02*
X98904809Y-121991523D01*
X98904809Y-121991523D02*
X98857190Y-121943904D01*
X98857190Y-121943904D02*
X98809571Y-121848666D01*
X98809571Y-121848666D02*
X98809571Y-121610571D01*
X98809571Y-121610571D02*
X98857190Y-121515333D01*
X98857190Y-121515333D02*
X98904809Y-121467714D01*
X98904809Y-121467714D02*
X99000047Y-121420095D01*
X99000047Y-121420095D02*
X99238142Y-121420095D01*
X99238142Y-121420095D02*
X99333380Y-121467714D01*
X99333380Y-121467714D02*
X99381000Y-121515333D01*
X99381000Y-121515333D02*
X99428619Y-121610571D01*
X99428619Y-121610571D02*
X99428619Y-121848666D01*
X99428619Y-121848666D02*
X99381000Y-121943904D01*
X99381000Y-121943904D02*
X99333380Y-121991523D01*
D11*
%TO.C,C5*%
X131824000Y-103772580D02*
X131824000Y-103491420D01*
X132844000Y-103772580D02*
X132844000Y-103491420D01*
%TO.C,D4*%
X111279000Y-120611000D02*
X112749000Y-120611000D01*
X112749000Y-120611000D02*
X112749000Y-118326000D01*
X111279000Y-118326000D02*
X111279000Y-120611000D01*
%TO.C,C6*%
X136030580Y-101348000D02*
X135749420Y-101348000D01*
X136030580Y-100328000D02*
X135749420Y-100328000D01*
%TO.C,R5*%
X112536500Y-122190742D02*
X112536500Y-122665258D01*
X111491500Y-122190742D02*
X111491500Y-122665258D01*
%TO.C,kibuzzard-648E5C55*%
G36*
X130738562Y-144000537D02*
G01*
X130794125Y-144118012D01*
X130673475Y-144219612D01*
X130273425Y-144219612D01*
X130375025Y-144040225D01*
X130579812Y-143956087D01*
X130738562Y-144000537D01*
G37*
G36*
X128879600Y-143468725D02*
G01*
X128971675Y-143679862D01*
X128879600Y-143889412D01*
X128695450Y-143959262D01*
X128289050Y-143959262D01*
X128289050Y-143397287D01*
X128689100Y-143397287D01*
X128879600Y-143468725D01*
G37*
G36*
X136078383Y-145865321D02*
G01*
X135416925Y-145865321D01*
X135134350Y-145865321D01*
X132440363Y-145865321D01*
X130584575Y-145865321D01*
X129195513Y-145865321D01*
X127727075Y-145865321D01*
X127065617Y-145865321D01*
X127065617Y-144876837D01*
X127727075Y-144876837D01*
X127746125Y-145041938D01*
X127830263Y-145130044D01*
X128006475Y-145159412D01*
X128169987Y-145137981D01*
X128254125Y-145073688D01*
X128284287Y-144989550D01*
X128289050Y-144880013D01*
X128289050Y-144521238D01*
X128689100Y-144521238D01*
X128787525Y-144514887D01*
X128910997Y-144807340D01*
X128993547Y-144998899D01*
X129035175Y-145089563D01*
X129093912Y-145151475D01*
X129195513Y-145181637D01*
X129359025Y-145137188D01*
X129506662Y-145045113D01*
X129555875Y-144933987D01*
X129508250Y-144768888D01*
X129419350Y-144566746D01*
X129347383Y-144400587D01*
X129319196Y-144333913D01*
X129682875Y-144333913D01*
X129705100Y-144538876D01*
X129771775Y-144730435D01*
X129882900Y-144908587D01*
X130004741Y-145028841D01*
X130167062Y-145122900D01*
X130362722Y-145183622D01*
X130584575Y-145203863D01*
X130880445Y-145186202D01*
X131091781Y-145133219D01*
X131218583Y-145044914D01*
X131260850Y-144921287D01*
X131219575Y-144775237D01*
X131044950Y-144632363D01*
X130917950Y-144667287D01*
X130883025Y-144679988D01*
X130758406Y-144708563D01*
X130594100Y-144718088D01*
X130384550Y-144657763D01*
X130279775Y-144508538D01*
X131032250Y-144508538D01*
X131246562Y-144414875D01*
X131319191Y-144295812D01*
X131343400Y-144125950D01*
X131316412Y-143938228D01*
X131235450Y-143765587D01*
X131213456Y-143740187D01*
X131470400Y-143740187D01*
X131533900Y-143911637D01*
X132194300Y-145041938D01*
X132222875Y-145076863D01*
X132310187Y-145145125D01*
X132440363Y-145178463D01*
X132578475Y-145135600D01*
X132680075Y-145038763D01*
X133337300Y-143911637D01*
X133400800Y-143737012D01*
X133359525Y-143629063D01*
X133297612Y-143578262D01*
X134299325Y-143578262D01*
X134399338Y-143775112D01*
X134591425Y-143886237D01*
X134813675Y-143787812D01*
X134854950Y-143749712D01*
X134854950Y-144883187D01*
X134859713Y-144999075D01*
X134889875Y-145086387D01*
X134974806Y-145148300D01*
X135134350Y-145168937D01*
X135297863Y-145147506D01*
X135382000Y-145083212D01*
X135412163Y-144999075D01*
X135416925Y-144889537D01*
X135416925Y-143121062D01*
X135401050Y-142952787D01*
X135356600Y-142884525D01*
X135274050Y-142848012D01*
X135123238Y-142832137D01*
X134943850Y-142914687D01*
X134934325Y-142921037D01*
X134413625Y-143390937D01*
X134299325Y-143578262D01*
X133297612Y-143578262D01*
X133235700Y-143527462D01*
X133061075Y-143460787D01*
X132959475Y-143487775D01*
X132903912Y-143541750D01*
X132851525Y-143629062D01*
X132435600Y-144429162D01*
X132019675Y-143629062D01*
X131935537Y-143500475D01*
X131826000Y-143457612D01*
X131635500Y-143527462D01*
X131511675Y-143629856D01*
X131470400Y-143740187D01*
X131213456Y-143740187D01*
X131117578Y-143629459D01*
X130970338Y-143532225D01*
X130793728Y-143473884D01*
X130587750Y-143454437D01*
X130343804Y-143481072D01*
X130128433Y-143560976D01*
X129941637Y-143694150D01*
X129797881Y-143871774D01*
X129711626Y-144085028D01*
X129682875Y-144333913D01*
X129319196Y-144333913D01*
X129292350Y-144270412D01*
X129424642Y-144101785D01*
X129504017Y-143904935D01*
X129530475Y-143679862D01*
X129509837Y-143483012D01*
X129447925Y-143305212D01*
X129354262Y-143154400D01*
X129238375Y-143038512D01*
X129060928Y-142925624D01*
X128879953Y-142857890D01*
X128695450Y-142835312D01*
X128009650Y-142835312D01*
X127846137Y-142856744D01*
X127762000Y-142921037D01*
X127731837Y-143005175D01*
X127727075Y-143114712D01*
X127727075Y-144876837D01*
X127065617Y-144876837D01*
X127065617Y-142170679D01*
X127727075Y-142170679D01*
X135416925Y-142170679D01*
X136078383Y-142170679D01*
X136078383Y-145865321D01*
G37*
%TO.C,C11*%
X104650000Y-130415420D02*
X104650000Y-130696580D01*
X103630000Y-130415420D02*
X103630000Y-130696580D01*
D12*
%TO.C,S1*%
X111506000Y-94694000D02*
X110998000Y-94694000D01*
X109952000Y-95214000D02*
X109952000Y-100874000D01*
X112552000Y-96544000D02*
X112552000Y-98044000D01*
X111506000Y-101394000D02*
X110998000Y-101394000D01*
D13*
X114423000Y-95715000D02*
G75*
G03*
X114423000Y-95715000I-100000J0D01*
G01*
D11*
%TO.C,RST1*%
X98168000Y-136270000D02*
X98168000Y-132970000D01*
X98468000Y-136270000D02*
X98168000Y-136270000D01*
X100668000Y-136270000D02*
X100968000Y-136270000D01*
X100968000Y-136270000D02*
X100968000Y-132970000D01*
X98168000Y-132970000D02*
X98468000Y-132970000D01*
X100968000Y-132970000D02*
X100668000Y-132970000D01*
%TO.C,C17*%
X108825420Y-119886000D02*
X109106580Y-119886000D01*
X108825420Y-120906000D02*
X109106580Y-120906000D01*
%TO.C,Q1*%
X101382000Y-107696000D02*
X101382000Y-106021000D01*
X101382000Y-107696000D02*
X101382000Y-108346000D01*
X98262000Y-107696000D02*
X98262000Y-107046000D01*
X98262000Y-107696000D02*
X98262000Y-108346000D01*
%TO.C,F1*%
X116080000Y-96103221D02*
X116080000Y-96428779D01*
X115060000Y-96103221D02*
X115060000Y-96428779D01*
%TO.C,R2*%
X145048500Y-103394742D02*
X145048500Y-103869258D01*
X144003500Y-103394742D02*
X144003500Y-103869258D01*
%TO.C,C19*%
X108825420Y-133602000D02*
X109106580Y-133602000D01*
X108825420Y-134622000D02*
X109106580Y-134622000D01*
%TO.C,R3*%
X104379500Y-104377258D02*
X104379500Y-103902742D01*
X105424500Y-104377258D02*
X105424500Y-103902742D01*
%TO.C,L3*%
X100074000Y-113446779D02*
X100074000Y-113121221D01*
X101094000Y-113446779D02*
X101094000Y-113121221D01*
%TO.C,C8*%
X108825420Y-126490000D02*
X109106580Y-126490000D01*
X108825420Y-127510000D02*
X109106580Y-127510000D01*
%TO.C,kibuzzard-648E5C2D*%
G36*
X135350250Y-133043612D02*
G01*
X135405812Y-133161087D01*
X135285162Y-133262687D01*
X134885112Y-133262687D01*
X134986712Y-133083300D01*
X135191500Y-132999162D01*
X135350250Y-133043612D01*
G37*
G36*
X140966825Y-133043612D02*
G01*
X141022387Y-133161087D01*
X140901737Y-133262687D01*
X140501687Y-133262687D01*
X140603287Y-133083300D01*
X140808075Y-132999162D01*
X140966825Y-133043612D01*
G37*
G36*
X150050500Y-133043612D02*
G01*
X150106062Y-133161087D01*
X149985412Y-133262687D01*
X149585362Y-133262687D01*
X149686962Y-133083300D01*
X149891750Y-132999162D01*
X150050500Y-133043612D01*
G37*
G36*
X157845125Y-133043612D02*
G01*
X157900687Y-133161087D01*
X157780037Y-133262687D01*
X157379987Y-133262687D01*
X157481587Y-133083300D01*
X157686375Y-132999162D01*
X157845125Y-133043612D01*
G37*
G36*
X133503987Y-133178550D02*
G01*
X133580187Y-133370637D01*
X133497637Y-133561138D01*
X133297612Y-133646863D01*
X133102350Y-133561138D01*
X133024562Y-133372225D01*
X133099175Y-133180138D01*
X133300787Y-133091238D01*
X133503987Y-133178550D01*
G37*
G36*
X137166350Y-133180138D02*
G01*
X137240962Y-133372225D01*
X137163175Y-133561138D01*
X136967912Y-133646863D01*
X136767887Y-133561138D01*
X136685337Y-133370637D01*
X136761537Y-133178550D01*
X136964737Y-133091238D01*
X137166350Y-133180138D01*
G37*
G36*
X139065000Y-133180138D02*
G01*
X139139612Y-133372225D01*
X139061825Y-133561138D01*
X138866562Y-133646863D01*
X138666537Y-133561138D01*
X138583987Y-133370637D01*
X138660187Y-133178550D01*
X138863387Y-133091238D01*
X139065000Y-133180138D01*
G37*
G36*
X142782925Y-133180138D02*
G01*
X142857537Y-133372225D01*
X142779750Y-133561138D01*
X142584487Y-133646863D01*
X142384462Y-133561138D01*
X142301912Y-133370637D01*
X142378112Y-133178550D01*
X142581312Y-133091238D01*
X142782925Y-133180138D01*
G37*
G36*
X154505025Y-133176963D02*
G01*
X154579637Y-133369050D01*
X154501850Y-133557962D01*
X154306587Y-133643687D01*
X154106562Y-133559550D01*
X154024012Y-133370637D01*
X154101800Y-133176963D01*
X154305000Y-133088062D01*
X154505025Y-133176963D01*
G37*
G36*
X145643600Y-132468937D02*
G01*
X145695987Y-132580062D01*
X145686462Y-132694362D01*
X145534062Y-132761037D01*
X145338800Y-132805487D01*
X145280062Y-132988050D01*
X145337212Y-133170613D01*
X145508662Y-133215063D01*
X145686462Y-133240463D01*
X145745200Y-133303963D01*
X145762662Y-133424613D01*
X145712656Y-133586538D01*
X145562637Y-133640513D01*
X145041937Y-133640513D01*
X145041937Y-132437187D01*
X145486437Y-132437187D01*
X145643600Y-132468937D01*
G37*
G36*
X162486446Y-135616421D02*
G01*
X161824988Y-135616421D01*
X160748663Y-135616421D01*
X159542162Y-135616421D01*
X157691137Y-135616421D01*
X155897262Y-135616421D01*
X154905075Y-135616421D01*
X152461912Y-135616421D01*
X149896512Y-135616421D01*
X148578887Y-135616421D01*
X146807237Y-135616421D01*
X145594387Y-135616421D01*
X143119475Y-135616421D01*
X140812837Y-135616421D01*
X139401550Y-135616421D01*
X137502900Y-135616421D01*
X135196262Y-135616421D01*
X132738812Y-135616421D01*
X131929187Y-135616421D01*
X129271712Y-135616421D01*
X127735012Y-135616421D01*
X127073554Y-135616421D01*
X127073554Y-133923088D01*
X127735012Y-133923088D01*
X127754062Y-134085013D01*
X127838200Y-134175500D01*
X128014412Y-134205663D01*
X129271712Y-134205663D01*
X129436812Y-134186613D01*
X129524919Y-134102475D01*
X129554287Y-133926262D01*
X129760662Y-133926262D01*
X129765425Y-134037388D01*
X129792412Y-134119938D01*
X129875756Y-134184231D01*
X130036887Y-134205663D01*
X130198812Y-134185025D01*
X130284537Y-134123113D01*
X130314700Y-134038975D01*
X130319462Y-133929437D01*
X130319462Y-133367463D01*
X130367087Y-133160294D01*
X130509962Y-133091238D01*
X130657600Y-133160294D01*
X130706812Y-133367463D01*
X130706812Y-133923088D01*
X130711575Y-134032625D01*
X130738562Y-134116762D01*
X130821906Y-134183438D01*
X130983037Y-134205663D01*
X131146550Y-134184231D01*
X131230687Y-134119938D01*
X131260850Y-134037388D01*
X131265612Y-133926262D01*
X131265612Y-133370637D01*
X131305300Y-133164262D01*
X131456112Y-133091238D01*
X131603750Y-133160294D01*
X131652962Y-133367463D01*
X131652962Y-133923088D01*
X131657725Y-134032625D01*
X131684712Y-134116762D01*
X131768056Y-134183438D01*
X131929187Y-134205663D01*
X132091906Y-134184231D01*
X132173662Y-134119938D01*
X132203825Y-134035800D01*
X132208587Y-133926262D01*
X132208587Y-133923088D01*
X132462587Y-133923088D01*
X132467350Y-134032625D01*
X132494337Y-134116762D01*
X132577681Y-134181056D01*
X132738812Y-134202487D01*
X132930900Y-134163594D01*
X133011862Y-134046913D01*
X133165056Y-134161213D01*
X133396037Y-134199313D01*
X133572074Y-134171619D01*
X133740349Y-134088540D01*
X133900862Y-133950075D01*
X134031390Y-133774744D01*
X134109707Y-133581069D01*
X134134835Y-133376988D01*
X134294562Y-133376988D01*
X134316787Y-133581951D01*
X134383462Y-133773510D01*
X134494587Y-133951662D01*
X134616428Y-134071916D01*
X134778750Y-134165975D01*
X134974409Y-134226697D01*
X135196262Y-134246938D01*
X135492133Y-134229277D01*
X135703469Y-134176294D01*
X135830270Y-134087989D01*
X135872537Y-133964362D01*
X135831262Y-133818312D01*
X135656637Y-133675438D01*
X135529637Y-133710363D01*
X135494712Y-133723063D01*
X135370094Y-133751638D01*
X135205787Y-133761163D01*
X134996237Y-133700838D01*
X134891462Y-133551613D01*
X135643937Y-133551613D01*
X135858250Y-133457950D01*
X135912479Y-133369050D01*
X136129712Y-133369050D01*
X136155818Y-133581069D01*
X136234135Y-133774744D01*
X136364662Y-133950075D01*
X136526940Y-134088540D01*
X136700507Y-134171619D01*
X136885362Y-134199313D01*
X137097294Y-134161213D01*
X137256837Y-134046913D01*
X137331053Y-134163594D01*
X137502900Y-134202487D01*
X137680303Y-134181056D01*
X137771187Y-134116762D01*
X137801350Y-134035800D01*
X137806112Y-133926262D01*
X137806112Y-133369050D01*
X138028362Y-133369050D01*
X138054468Y-133581069D01*
X138132785Y-133774744D01*
X138263312Y-133950075D01*
X138425590Y-134088540D01*
X138599157Y-134171619D01*
X138784012Y-134199313D01*
X138995944Y-134161213D01*
X139155487Y-134046913D01*
X139229703Y-134163594D01*
X139401550Y-134202487D01*
X139578953Y-134181056D01*
X139669837Y-134116762D01*
X139700000Y-134035800D01*
X139704762Y-133926262D01*
X139704762Y-133376988D01*
X139911137Y-133376988D01*
X139933362Y-133581951D01*
X140000037Y-133773510D01*
X140111162Y-133951662D01*
X140233003Y-134071916D01*
X140395325Y-134165975D01*
X140590984Y-134226697D01*
X140812837Y-134246938D01*
X141108708Y-134229277D01*
X141320044Y-134176294D01*
X141446845Y-134087989D01*
X141489112Y-133964362D01*
X141447837Y-133818312D01*
X141273212Y-133675438D01*
X141146212Y-133710363D01*
X141111287Y-133723063D01*
X140986669Y-133751638D01*
X140822362Y-133761163D01*
X140612812Y-133700838D01*
X140508037Y-133551613D01*
X141260512Y-133551613D01*
X141474825Y-133457950D01*
X141529054Y-133369050D01*
X141746287Y-133369050D01*
X141772393Y-133581069D01*
X141850710Y-133774744D01*
X141981237Y-133950075D01*
X142143515Y-134088540D01*
X142317082Y-134171619D01*
X142501937Y-134199313D01*
X142713869Y-134161213D01*
X142873412Y-134046913D01*
X142947628Y-134163594D01*
X143119475Y-134202487D01*
X143296878Y-134181056D01*
X143387762Y-134116762D01*
X143417925Y-134035800D01*
X143422687Y-133926262D01*
X143422687Y-133916737D01*
X144479962Y-133916737D01*
X144499012Y-134081838D01*
X144583150Y-134172325D01*
X144759362Y-134202487D01*
X145594387Y-134202487D01*
X145785417Y-134178675D01*
X145956337Y-134107238D01*
X146107150Y-133988175D01*
X146154487Y-133926262D01*
X146531012Y-133926262D01*
X146535775Y-134037388D01*
X146562762Y-134119938D01*
X146646106Y-134184231D01*
X146807237Y-134205663D01*
X146969956Y-134185025D01*
X147051712Y-134123113D01*
X147081875Y-134038975D01*
X147086637Y-133929437D01*
X147086637Y-133926262D01*
X147340637Y-133926262D01*
X147345400Y-134035800D01*
X147372387Y-134119938D01*
X147455731Y-134184231D01*
X147616862Y-134205663D01*
X147779581Y-134185025D01*
X147861337Y-134123113D01*
X147891500Y-134038975D01*
X147896262Y-133929437D01*
X147896262Y-133684963D01*
X147993894Y-133770291D01*
X148128037Y-133899275D01*
X148260594Y-134027466D01*
X148353462Y-134110413D01*
X148385212Y-134132638D01*
X148578887Y-134224712D01*
X148769387Y-134091362D01*
X148867812Y-133884988D01*
X148847175Y-133818312D01*
X148747162Y-133716712D01*
X148336404Y-133376988D01*
X148994812Y-133376988D01*
X149017037Y-133581951D01*
X149083712Y-133773510D01*
X149194837Y-133951662D01*
X149316678Y-134071916D01*
X149479000Y-134165975D01*
X149674659Y-134226697D01*
X149896512Y-134246938D01*
X150192383Y-134229277D01*
X150403719Y-134176294D01*
X150530520Y-134087989D01*
X150572787Y-133964362D01*
X150531512Y-133818312D01*
X150382110Y-133696075D01*
X151617362Y-133696075D01*
X151699912Y-133878637D01*
X151728487Y-133913563D01*
X151820562Y-134010400D01*
X151963437Y-134110413D01*
X152179337Y-134200900D01*
X152316656Y-134228284D01*
X152461912Y-134237412D01*
X152652765Y-134218715D01*
X152835857Y-134162624D01*
X153011187Y-134069138D01*
X153131837Y-133965553D01*
X153227087Y-133826250D01*
X153289000Y-133656784D01*
X153309637Y-133462713D01*
X153299327Y-133365875D01*
X153468387Y-133365875D01*
X153494493Y-133578071D01*
X153572810Y-133772275D01*
X153703337Y-133948488D01*
X153864381Y-134087835D01*
X154034243Y-134171443D01*
X154212925Y-134199313D01*
X154448272Y-134157244D01*
X154605037Y-134031038D01*
X154673300Y-134156450D01*
X154905075Y-134199313D01*
X155045966Y-134178675D01*
X155122562Y-134116762D01*
X155149550Y-134032625D01*
X155154312Y-133923088D01*
X155154312Y-132815012D01*
X155328937Y-132815012D01*
X155389262Y-133046787D01*
X155506737Y-133084887D01*
X155621037Y-133084887D01*
X155621037Y-133926262D01*
X155625800Y-134037388D01*
X155655962Y-134121525D01*
X155740100Y-134188200D01*
X155897262Y-134208838D01*
X156057600Y-134189787D01*
X156149675Y-134112000D01*
X156179837Y-133932613D01*
X156179837Y-133376988D01*
X156789437Y-133376988D01*
X156811662Y-133581951D01*
X156878337Y-133773510D01*
X156989462Y-133951662D01*
X157111303Y-134071916D01*
X157273625Y-134165975D01*
X157469284Y-134226697D01*
X157691137Y-134246938D01*
X157987008Y-134229277D01*
X158198344Y-134176294D01*
X158325145Y-134087989D01*
X158367412Y-133964362D01*
X158326137Y-133818312D01*
X158151513Y-133675438D01*
X158024512Y-133710363D01*
X157989587Y-133723063D01*
X157864969Y-133751638D01*
X157700662Y-133761163D01*
X157491112Y-133700838D01*
X157386337Y-133551613D01*
X158138813Y-133551613D01*
X158353125Y-133457950D01*
X158425753Y-133338888D01*
X158449962Y-133169025D01*
X158422975Y-132981303D01*
X158362858Y-132853112D01*
X158576963Y-132853112D01*
X158623000Y-133037262D01*
X158738888Y-133091238D01*
X158869063Y-133081712D01*
X158869063Y-133551613D01*
X158888113Y-133765749D01*
X158945262Y-133934024D01*
X159040512Y-134056437D01*
X159172451Y-134139340D01*
X159339668Y-134189082D01*
X159542162Y-134205663D01*
X159648525Y-134200900D01*
X159732662Y-134173913D01*
X159799338Y-134090569D01*
X159821563Y-133929437D01*
X159748538Y-133716712D01*
X159664400Y-133686550D01*
X159550100Y-133681787D01*
X159448500Y-133643687D01*
X159421513Y-133519862D01*
X159421513Y-133081712D01*
X159627887Y-133094412D01*
X159737425Y-133089650D01*
X159821563Y-133062662D01*
X159885856Y-132979319D01*
X159907287Y-132818188D01*
X159900441Y-132764212D01*
X160002538Y-132764212D01*
X160066038Y-132919787D01*
X160697863Y-133983413D01*
X160564513Y-134272933D01*
X160469263Y-134490619D01*
X160412113Y-134636470D01*
X160393063Y-134710487D01*
X160439894Y-134816850D01*
X160580388Y-134907338D01*
X160748663Y-134954963D01*
X160843913Y-134926388D01*
X160899475Y-134866063D01*
X160942338Y-134773988D01*
X161774188Y-132913437D01*
X161799588Y-132859462D01*
X161824988Y-132751512D01*
X161778156Y-132642769D01*
X161637663Y-132551487D01*
X161461450Y-132507037D01*
X161345562Y-132561012D01*
X161309050Y-132614987D01*
X161261822Y-132716984D01*
X161142363Y-132978525D01*
X161021713Y-133247209D01*
X160970913Y-133370637D01*
X160874075Y-133212064D01*
X160774063Y-133045376D01*
X160670875Y-132870575D01*
X160548638Y-132662612D01*
X160496250Y-132575300D01*
X160440688Y-132522912D01*
X160342263Y-132497512D01*
X160173988Y-132561012D01*
X160045400Y-132662612D01*
X160002538Y-132764212D01*
X159900441Y-132764212D01*
X159886650Y-132655469D01*
X159824737Y-132573712D01*
X159740600Y-132543550D01*
X159632650Y-132538787D01*
X159421513Y-132551487D01*
X159421513Y-132240337D01*
X159405637Y-132078412D01*
X159320706Y-131990306D01*
X159148463Y-131960937D01*
X158985744Y-131980781D01*
X158903987Y-132040312D01*
X158873825Y-132116512D01*
X158869063Y-132224462D01*
X158869063Y-132551487D01*
X158764288Y-132538787D01*
X158637287Y-132580062D01*
X158592837Y-132664200D01*
X158576963Y-132853112D01*
X158362858Y-132853112D01*
X158342013Y-132808662D01*
X158224141Y-132672534D01*
X158076900Y-132575300D01*
X157900291Y-132516959D01*
X157694312Y-132497512D01*
X157450367Y-132524147D01*
X157234996Y-132604051D01*
X157048200Y-132737225D01*
X156904443Y-132914849D01*
X156818189Y-133128103D01*
X156789437Y-133376988D01*
X156179837Y-133376988D01*
X156179837Y-133081712D01*
X156383037Y-133094412D01*
X156576712Y-133056312D01*
X156641800Y-132972175D01*
X156662437Y-132815012D01*
X156643387Y-132656262D01*
X156560044Y-132565775D01*
X156386212Y-132535612D01*
X156179837Y-132554662D01*
X156179837Y-132380037D01*
X156297312Y-132300662D01*
X156386212Y-132300662D01*
X156525912Y-132243512D01*
X156579887Y-132024437D01*
X156558456Y-131861719D01*
X156494162Y-131779962D01*
X156410025Y-131749800D01*
X156300487Y-131745037D01*
X156097640Y-131767086D01*
X155929365Y-131833232D01*
X155795662Y-131943475D01*
X155664694Y-132153422D01*
X155621037Y-132386387D01*
X155621037Y-132554662D01*
X155516262Y-132554662D01*
X155375769Y-132619750D01*
X155328937Y-132815012D01*
X155154312Y-132815012D01*
X155154312Y-132811837D01*
X155149550Y-132702300D01*
X155120975Y-132618162D01*
X155036837Y-132551487D01*
X154852687Y-132532437D01*
X154674094Y-132576887D01*
X154601862Y-132710237D01*
X154544712Y-132645150D01*
X154420887Y-132573712D01*
X154224037Y-132535612D01*
X154040769Y-132563306D01*
X153867732Y-132646385D01*
X153704925Y-132784850D01*
X153573515Y-132960181D01*
X153494669Y-133153856D01*
X153468387Y-133365875D01*
X153299327Y-133365875D01*
X153289397Y-133272609D01*
X153228675Y-133115050D01*
X153137791Y-132994797D01*
X153027062Y-132916612D01*
X152900856Y-132863828D01*
X152763537Y-132819775D01*
X152626219Y-132785247D01*
X152500012Y-132761037D01*
X152298400Y-132688012D01*
X152217437Y-132546725D01*
X152285700Y-132410200D01*
X152457150Y-132360987D01*
X152627012Y-132402262D01*
X152676225Y-132443537D01*
X152712737Y-132475287D01*
X152877837Y-132538787D01*
X152990550Y-132499100D01*
X153100087Y-132380037D01*
X153176287Y-132205412D01*
X153077862Y-132049837D01*
X152998487Y-131989513D01*
X152781000Y-131889500D01*
X152615503Y-131852591D01*
X152433337Y-131840288D01*
X152210911Y-131863394D01*
X152021999Y-131932715D01*
X151866600Y-132048250D01*
X151751065Y-132194829D01*
X151681744Y-132357283D01*
X151658637Y-132535612D01*
X151678878Y-132724128D01*
X151739600Y-132883275D01*
X151830484Y-133008291D01*
X151941212Y-133094412D01*
X152066625Y-133156722D01*
X152201562Y-133210300D01*
X152336500Y-133252766D01*
X152461912Y-133281737D01*
X152663525Y-133353175D01*
X152744487Y-133475413D01*
X152711679Y-133609468D01*
X152613254Y-133689901D01*
X152449212Y-133716712D01*
X152296812Y-133667500D01*
X152169812Y-133564313D01*
X152028525Y-133445250D01*
X151922162Y-133405562D01*
X151753887Y-133481762D01*
X151651494Y-133602016D01*
X151617362Y-133696075D01*
X150382110Y-133696075D01*
X150356887Y-133675438D01*
X150229887Y-133710363D01*
X150194962Y-133723063D01*
X150070344Y-133751638D01*
X149906037Y-133761163D01*
X149696487Y-133700838D01*
X149591712Y-133551613D01*
X150344187Y-133551613D01*
X150558500Y-133457950D01*
X150631128Y-133338888D01*
X150655337Y-133169025D01*
X150628350Y-132981303D01*
X150547387Y-132808662D01*
X150429516Y-132672534D01*
X150282275Y-132575300D01*
X150105666Y-132516959D01*
X149899687Y-132497512D01*
X149655742Y-132524147D01*
X149440371Y-132604051D01*
X149253575Y-132737225D01*
X149109818Y-132914849D01*
X149023564Y-133128103D01*
X148994812Y-133376988D01*
X148336404Y-133376988D01*
X148324887Y-133367463D01*
X148639212Y-133100762D01*
X148756687Y-132929312D01*
X148653500Y-132727700D01*
X148470937Y-132599112D01*
X148280437Y-132684837D01*
X148242337Y-132710237D01*
X148069300Y-132872162D01*
X147896262Y-133034087D01*
X147896262Y-132027613D01*
X147893087Y-131938712D01*
X147835937Y-131799012D01*
X147620037Y-131745037D01*
X147456525Y-131766469D01*
X147372387Y-131830762D01*
X147345400Y-131914900D01*
X147340637Y-132024437D01*
X147340637Y-133926262D01*
X147086637Y-133926262D01*
X147086637Y-132818188D01*
X147083462Y-132726112D01*
X147026312Y-132589587D01*
X146810412Y-132535612D01*
X146808825Y-132535813D01*
X146646900Y-132556250D01*
X146562762Y-132618162D01*
X146535775Y-132702300D01*
X146531012Y-132811837D01*
X146531012Y-133926262D01*
X146154487Y-133926262D01*
X146225154Y-133833835D01*
X146297650Y-133656564D01*
X146324637Y-133456362D01*
X146303824Y-133278210D01*
X146241382Y-133112051D01*
X146137312Y-132957887D01*
X146227800Y-132774531D01*
X146257962Y-132573712D01*
X146235032Y-132390268D01*
X146166240Y-132225168D01*
X146051587Y-132078412D01*
X145987771Y-132027613D01*
X146531012Y-132027613D01*
X146535775Y-132137150D01*
X146564350Y-132221287D01*
X146648487Y-132287962D01*
X146808825Y-132307012D01*
X146969162Y-132287962D01*
X147053300Y-132222875D01*
X147081875Y-132140325D01*
X147086637Y-132030787D01*
X147081875Y-131921250D01*
X147051712Y-131837112D01*
X146970750Y-131772819D01*
X146810412Y-131751387D01*
X146646900Y-131772819D01*
X146562762Y-131837112D01*
X146535775Y-131918075D01*
X146531012Y-132027613D01*
X145987771Y-132027613D01*
X145909771Y-131965524D01*
X145746787Y-131897790D01*
X145562637Y-131875212D01*
X144762537Y-131875212D01*
X144599025Y-131896644D01*
X144514887Y-131960937D01*
X144484725Y-132043487D01*
X144479962Y-132154612D01*
X144479962Y-133916737D01*
X143422687Y-133916737D01*
X143422687Y-132030787D01*
X143417925Y-131921250D01*
X143389350Y-131837112D01*
X143305212Y-131770437D01*
X143144875Y-131751387D01*
X142984537Y-131770437D01*
X142900400Y-131835525D01*
X142871825Y-131918075D01*
X142867062Y-132027613D01*
X142867062Y-132694362D01*
X142710694Y-132575300D01*
X142501937Y-132535612D01*
X142318669Y-132563482D01*
X142145632Y-132647090D01*
X141982825Y-132786437D01*
X141851415Y-132962650D01*
X141772569Y-133156854D01*
X141746287Y-133369050D01*
X141529054Y-133369050D01*
X141547453Y-133338888D01*
X141571662Y-133169025D01*
X141544675Y-132981303D01*
X141463712Y-132808662D01*
X141345841Y-132672534D01*
X141198600Y-132575300D01*
X141021991Y-132516959D01*
X140816012Y-132497512D01*
X140572067Y-132524147D01*
X140356696Y-132604051D01*
X140169900Y-132737225D01*
X140026143Y-132914849D01*
X139939889Y-133128103D01*
X139911137Y-133376988D01*
X139704762Y-133376988D01*
X139704762Y-132030787D01*
X139700000Y-131921250D01*
X139671425Y-131837112D01*
X139587287Y-131770437D01*
X139426950Y-131751387D01*
X139266612Y-131770437D01*
X139182475Y-131835525D01*
X139153900Y-131918075D01*
X139149137Y-132027613D01*
X139149137Y-132694362D01*
X138992769Y-132575300D01*
X138784012Y-132535612D01*
X138600744Y-132563482D01*
X138427707Y-132647090D01*
X138264900Y-132786437D01*
X138133490Y-132962650D01*
X138054644Y-133156854D01*
X138028362Y-133369050D01*
X137806112Y-133369050D01*
X137806112Y-132030787D01*
X137801350Y-131921250D01*
X137772775Y-131837112D01*
X137688637Y-131770437D01*
X137528300Y-131751387D01*
X137367962Y-131770437D01*
X137283825Y-131835525D01*
X137255250Y-131918075D01*
X137250487Y-132027613D01*
X137250487Y-132694362D01*
X137094119Y-132575300D01*
X136885362Y-132535612D01*
X136702094Y-132563482D01*
X136529057Y-132647090D01*
X136366250Y-132786437D01*
X136234840Y-132962650D01*
X136155994Y-133156854D01*
X136129712Y-133369050D01*
X135912479Y-133369050D01*
X135930878Y-133338888D01*
X135955087Y-133169025D01*
X135928100Y-132981303D01*
X135847137Y-132808662D01*
X135729266Y-132672534D01*
X135582025Y-132575300D01*
X135405416Y-132516959D01*
X135199437Y-132497512D01*
X134955492Y-132524147D01*
X134740121Y-132604051D01*
X134553325Y-132737225D01*
X134409568Y-132914849D01*
X134323314Y-133128103D01*
X134294562Y-133376988D01*
X134134835Y-133376988D01*
X134135812Y-133369050D01*
X134109531Y-133156854D01*
X134030685Y-132962650D01*
X133899275Y-132786437D01*
X133736468Y-132647090D01*
X133563431Y-132563482D01*
X133380162Y-132535612D01*
X133172200Y-132574506D01*
X133018212Y-132691187D01*
X133018212Y-132030787D01*
X133013450Y-131921250D01*
X132983287Y-131837112D01*
X132902325Y-131772819D01*
X132741987Y-131751387D01*
X132578475Y-131772819D01*
X132494337Y-131837112D01*
X132467350Y-131918075D01*
X132462587Y-132027613D01*
X132462587Y-133923088D01*
X132208587Y-133923088D01*
X132208587Y-133370637D01*
X132189537Y-133098469D01*
X132132387Y-132883099D01*
X132037137Y-132724525D01*
X131845050Y-132578078D01*
X131611687Y-132529262D01*
X131389437Y-132591175D01*
X131232275Y-132705475D01*
X131148137Y-132805487D01*
X131023960Y-132652029D01*
X130863093Y-132559954D01*
X130665537Y-132529262D01*
X130471069Y-132585619D01*
X130306762Y-132754687D01*
X130252787Y-132589587D01*
X130021012Y-132532437D01*
X129875756Y-132553869D01*
X129795587Y-132618162D01*
X129765425Y-132699125D01*
X129760662Y-132808662D01*
X129760662Y-133926262D01*
X129554287Y-133926262D01*
X129532856Y-133762750D01*
X129468562Y-133678612D01*
X129384425Y-133648450D01*
X129274887Y-133643687D01*
X128296987Y-133643687D01*
X128296987Y-133323012D01*
X128919287Y-133323012D01*
X129084387Y-133303963D01*
X129174875Y-133219825D01*
X129205037Y-133043612D01*
X129183606Y-132880100D01*
X129119312Y-132795962D01*
X129035175Y-132765800D01*
X128925637Y-132761037D01*
X128296987Y-132761037D01*
X128296987Y-132440362D01*
X129271712Y-132440362D01*
X129436812Y-132421312D01*
X129524919Y-132337175D01*
X129554287Y-132160962D01*
X129532856Y-131997450D01*
X129468562Y-131913312D01*
X129384425Y-131883150D01*
X129274887Y-131878388D01*
X128023937Y-131878388D01*
X127795337Y-131937125D01*
X127735012Y-132157787D01*
X127735012Y-133923088D01*
X127073554Y-133923088D01*
X127073554Y-131083579D01*
X127735012Y-131083579D01*
X161824988Y-131083579D01*
X162486446Y-131083579D01*
X162486446Y-135616421D01*
G37*
%TO.C,C10*%
X108825420Y-124712000D02*
X109106580Y-124712000D01*
X108825420Y-125732000D02*
X109106580Y-125732000D01*
%TO.C,L2*%
X100074000Y-116494779D02*
X100074000Y-116169221D01*
X101094000Y-116494779D02*
X101094000Y-116169221D01*
%TO.C,C7*%
X98296000Y-116472580D02*
X98296000Y-116191420D01*
X99316000Y-116472580D02*
X99316000Y-116191420D01*
%TO.C,C1*%
X114302000Y-118985420D02*
X114302000Y-119266580D01*
X113282000Y-118985420D02*
X113282000Y-119266580D01*
%TO.C,C16*%
X101852000Y-113424580D02*
X101852000Y-113143420D01*
X102872000Y-113424580D02*
X102872000Y-113143420D01*
%TO.C,R1*%
X149620500Y-103394742D02*
X149620500Y-103869258D01*
X148575500Y-103394742D02*
X148575500Y-103869258D01*
%TO.C,U1*%
X112165000Y-103060500D02*
X110365000Y-103060500D01*
X112165000Y-103060500D02*
X112965000Y-103060500D01*
X112165000Y-106180500D02*
X111365000Y-106180500D01*
X112165000Y-106180500D02*
X112965000Y-106180500D01*
%TO.C,D1*%
X103466000Y-105832000D02*
X101766000Y-105832000D01*
X103466000Y-105832000D02*
X103466000Y-108492000D01*
X101766000Y-105832000D02*
X101766000Y-108492000D01*
D12*
%TO.C,U3*%
X139168000Y-105132000D02*
X136168000Y-105132000D01*
X139168000Y-105092000D02*
X139168000Y-105132000D01*
X139168000Y-102132000D02*
X139168000Y-102172000D01*
X136168000Y-105132000D02*
X136168000Y-105092000D01*
X136168000Y-102132000D02*
X139168000Y-102132000D01*
X136168000Y-102132000D02*
X136168000Y-102172000D01*
D13*
X141344000Y-104632000D02*
G75*
G03*
X141344000Y-104632000I-100000J0D01*
G01*
D11*
%TO.C,R6*%
X112983500Y-110505258D02*
X112983500Y-110030742D01*
X114028500Y-110505258D02*
X114028500Y-110030742D01*
%TO.C,C2*%
X111000000Y-110095420D02*
X111000000Y-110376580D01*
X109980000Y-110095420D02*
X109980000Y-110376580D01*
%TO.C,kibuzzard-648E5C45*%
G36*
X130724275Y-138684000D02*
G01*
X130779837Y-138801475D01*
X130659187Y-138903075D01*
X130259137Y-138903075D01*
X130360737Y-138723687D01*
X130565525Y-138639550D01*
X130724275Y-138684000D01*
G37*
G36*
X136020175Y-138684000D02*
G01*
X136075738Y-138801475D01*
X135955088Y-138903075D01*
X135555038Y-138903075D01*
X135656638Y-138723687D01*
X135861425Y-138639550D01*
X136020175Y-138684000D01*
G37*
G36*
X139543896Y-140548783D02*
G01*
X138882437Y-140548783D01*
X137852150Y-140548783D01*
X135866187Y-140548783D01*
X134061200Y-140548783D01*
X132926137Y-140548783D01*
X130570287Y-140548783D01*
X128662112Y-140548783D01*
X127817562Y-140548783D01*
X127156104Y-140548783D01*
X127156104Y-139336462D01*
X127817562Y-139336462D01*
X127900112Y-139519025D01*
X127928687Y-139553950D01*
X128020762Y-139650788D01*
X128163637Y-139750800D01*
X128379537Y-139841287D01*
X128516856Y-139868672D01*
X128662112Y-139877800D01*
X128852965Y-139859103D01*
X129036057Y-139803011D01*
X129211387Y-139709525D01*
X129332037Y-139605941D01*
X129427287Y-139466638D01*
X129489200Y-139297172D01*
X129509837Y-139103100D01*
X129500710Y-139017375D01*
X129668587Y-139017375D01*
X129690812Y-139222339D01*
X129757487Y-139413897D01*
X129868612Y-139592050D01*
X129990453Y-139712303D01*
X130152775Y-139806362D01*
X130348434Y-139867084D01*
X130570287Y-139887325D01*
X130866158Y-139869664D01*
X131077494Y-139816681D01*
X131204295Y-139728377D01*
X131246563Y-139604750D01*
X131234898Y-139563475D01*
X131535487Y-139563475D01*
X131540250Y-139673012D01*
X131567237Y-139757150D01*
X131650581Y-139821444D01*
X131811712Y-139842875D01*
X131974431Y-139821444D01*
X132056187Y-139757150D01*
X132086350Y-139676188D01*
X132091112Y-139566650D01*
X132091112Y-139004675D01*
X132168900Y-138804650D01*
X132372100Y-138728450D01*
X132572125Y-138801475D01*
X132646737Y-139004675D01*
X132646737Y-139563475D01*
X132665787Y-139725400D01*
X132748337Y-139813506D01*
X132926137Y-139842875D01*
X133089650Y-139821444D01*
X133173787Y-139757150D01*
X133200775Y-139676188D01*
X133205124Y-139576175D01*
X133411912Y-139576175D01*
X133472237Y-139696825D01*
X133663267Y-139795603D01*
X133859587Y-139854869D01*
X134061200Y-139874625D01*
X134253993Y-139863689D01*
X134423856Y-139830881D01*
X134570787Y-139776200D01*
X134743825Y-139603163D01*
X134790259Y-139474972D01*
X134805737Y-139322175D01*
X134790259Y-139170966D01*
X134743825Y-139047537D01*
X134713663Y-139017375D01*
X134964488Y-139017375D01*
X134986713Y-139222339D01*
X135053388Y-139413897D01*
X135164513Y-139592050D01*
X135286353Y-139712303D01*
X135448675Y-139806362D01*
X135644334Y-139867084D01*
X135866187Y-139887325D01*
X136162058Y-139869664D01*
X136373394Y-139816681D01*
X136500195Y-139728377D01*
X136542463Y-139604750D01*
X136501188Y-139458700D01*
X136326563Y-139315825D01*
X136199563Y-139350750D01*
X136164637Y-139363450D01*
X136040019Y-139392025D01*
X135875713Y-139401550D01*
X135666162Y-139341225D01*
X135561388Y-139192000D01*
X136313862Y-139192000D01*
X136528175Y-139098337D01*
X136600803Y-138979275D01*
X136625013Y-138809413D01*
X136617025Y-138753850D01*
X136831387Y-138753850D01*
X136847461Y-138961019D01*
X136895681Y-139157075D01*
X136976048Y-139342019D01*
X137088562Y-139515850D01*
X137231041Y-139665075D01*
X137410825Y-139782550D01*
X137620375Y-139858750D01*
X137852150Y-139884150D01*
X138084322Y-139859147D01*
X138295063Y-139784137D01*
X138476831Y-139668647D01*
X138622087Y-139522200D01*
X138735991Y-139345987D01*
X138817350Y-139160250D01*
X138866166Y-138964987D01*
X138882437Y-138760200D01*
X138882437Y-137801350D01*
X138863388Y-137636250D01*
X138822112Y-137569575D01*
X138739562Y-137531475D01*
X138595100Y-137515600D01*
X138444287Y-137534650D01*
X138352213Y-137604500D01*
X138320462Y-137779125D01*
X138320462Y-138750675D01*
X138291887Y-138962606D01*
X138206163Y-139147550D01*
X138062494Y-139276137D01*
X137860088Y-139319000D01*
X137634662Y-139265025D01*
X137491787Y-139122150D01*
X137420350Y-138942762D01*
X137396537Y-138753850D01*
X137396537Y-137801350D01*
X137358437Y-137601325D01*
X137275888Y-137534650D01*
X137113963Y-137515600D01*
X136952037Y-137534650D01*
X136866312Y-137601325D01*
X136836150Y-137685462D01*
X136831387Y-137798175D01*
X136831387Y-138753850D01*
X136617025Y-138753850D01*
X136598025Y-138621691D01*
X136517062Y-138449050D01*
X136399191Y-138312922D01*
X136251950Y-138215687D01*
X136075341Y-138157347D01*
X135869362Y-138137900D01*
X135625417Y-138164535D01*
X135410046Y-138244439D01*
X135223250Y-138377612D01*
X135079493Y-138555236D01*
X134993239Y-138768490D01*
X134964488Y-139017375D01*
X134713663Y-139017375D01*
X134589837Y-138893550D01*
X134389813Y-138814175D01*
X134183437Y-138772900D01*
X134021512Y-138727656D01*
X133967537Y-138649075D01*
X134154862Y-138579225D01*
X134378700Y-138626850D01*
X134519987Y-138674475D01*
X134662862Y-138563350D01*
X134732712Y-138376025D01*
X134621587Y-138249025D01*
X134386637Y-138168062D01*
X134158037Y-138141075D01*
X133910006Y-138161141D01*
X133717093Y-138221339D01*
X133579298Y-138321669D01*
X133496621Y-138462131D01*
X133469062Y-138642725D01*
X133484144Y-138799491D01*
X133529387Y-138933238D01*
X133681787Y-139112625D01*
X133879431Y-139210256D01*
X134078662Y-139261850D01*
X134238206Y-139298362D01*
X134291387Y-139350750D01*
X134242969Y-139407900D01*
X134097712Y-139426950D01*
X133856412Y-139349162D01*
X133645275Y-139271375D01*
X133532562Y-139325350D01*
X133442075Y-139472194D01*
X133411912Y-139576175D01*
X133205124Y-139576175D01*
X133205538Y-139566650D01*
X133205538Y-139007850D01*
X133182078Y-138786835D01*
X133111699Y-138589456D01*
X132994400Y-138415712D01*
X132841824Y-138280775D01*
X132665611Y-138199812D01*
X132465762Y-138172825D01*
X132227637Y-138245850D01*
X132141912Y-138312525D01*
X132084762Y-138376025D01*
X132053012Y-138245850D01*
X131971256Y-138191081D01*
X131814887Y-138172825D01*
X131653756Y-138192669D01*
X131570412Y-138252200D01*
X131540250Y-138333162D01*
X131535487Y-138439525D01*
X131535487Y-139563475D01*
X131234898Y-139563475D01*
X131205287Y-139458700D01*
X131030662Y-139315825D01*
X130903662Y-139350750D01*
X130868737Y-139363450D01*
X130744119Y-139392025D01*
X130579812Y-139401550D01*
X130370262Y-139341225D01*
X130265487Y-139192000D01*
X131017962Y-139192000D01*
X131232275Y-139098337D01*
X131304903Y-138979275D01*
X131329112Y-138809413D01*
X131302125Y-138621691D01*
X131221162Y-138449050D01*
X131103291Y-138312922D01*
X130956050Y-138215687D01*
X130779441Y-138157347D01*
X130573462Y-138137900D01*
X130329517Y-138164535D01*
X130114146Y-138244439D01*
X129927350Y-138377612D01*
X129783593Y-138555236D01*
X129697339Y-138768490D01*
X129668587Y-139017375D01*
X129500710Y-139017375D01*
X129489597Y-138912997D01*
X129428875Y-138755437D01*
X129337991Y-138635184D01*
X129227262Y-138557000D01*
X129101056Y-138504216D01*
X128963737Y-138460162D01*
X128826419Y-138425634D01*
X128700212Y-138401425D01*
X128498600Y-138328400D01*
X128417637Y-138187112D01*
X128485900Y-138050587D01*
X128657350Y-138001375D01*
X128827212Y-138042650D01*
X128876425Y-138083925D01*
X128912937Y-138115675D01*
X129078037Y-138179175D01*
X129190750Y-138139487D01*
X129300287Y-138020425D01*
X129376487Y-137845800D01*
X129278063Y-137690225D01*
X129198687Y-137629900D01*
X128981200Y-137529887D01*
X128815703Y-137492978D01*
X128633537Y-137480675D01*
X128411111Y-137503782D01*
X128222199Y-137573103D01*
X128066800Y-137688637D01*
X127951265Y-137835217D01*
X127881944Y-137997671D01*
X127858837Y-138176000D01*
X127879078Y-138364516D01*
X127939800Y-138523662D01*
X128030684Y-138648678D01*
X128141412Y-138734800D01*
X128266825Y-138797109D01*
X128401762Y-138850687D01*
X128536700Y-138893153D01*
X128662112Y-138922125D01*
X128863725Y-138993562D01*
X128944687Y-139115800D01*
X128911879Y-139249856D01*
X128813454Y-139330289D01*
X128649412Y-139357100D01*
X128497012Y-139307887D01*
X128370012Y-139204700D01*
X128228725Y-139085637D01*
X128122362Y-139045950D01*
X127954087Y-139122150D01*
X127851694Y-139242403D01*
X127817562Y-139336462D01*
X127156104Y-139336462D01*
X127156104Y-136819217D01*
X127817562Y-136819217D01*
X138882437Y-136819217D01*
X139543896Y-136819217D01*
X139543896Y-140548783D01*
G37*
D14*
%TO.C,J3*%
X178892200Y-98882200D02*
X178892200Y-93599000D01*
X178892200Y-93599000D02*
X163398200Y-93599000D01*
X163398200Y-98882200D02*
X178892200Y-98882200D01*
X163398200Y-93599000D02*
X163398200Y-98882200D01*
D15*
X179908200Y-94970600D02*
G75*
G03*
X179908200Y-94970600I-381000J0D01*
G01*
D11*
%TO.C,C14*%
X108825420Y-131824000D02*
X109106580Y-131824000D01*
X108825420Y-132844000D02*
X109106580Y-132844000D01*
%TO.C,C20*%
X106428000Y-130415420D02*
X106428000Y-130696580D01*
X105408000Y-130415420D02*
X105408000Y-130696580D01*
%TO.C,X1*%
X106356000Y-114932000D02*
X103956000Y-114932000D01*
X103956000Y-114932000D02*
X103956000Y-117732000D01*
D13*
%TO.C,J1*%
X151348000Y-98916000D02*
X151348000Y-97666000D01*
X151348000Y-94946000D02*
X151348000Y-93666000D01*
X151348000Y-93666000D02*
X141768000Y-93666000D01*
X141768000Y-98916000D02*
X141768000Y-97666000D01*
X141768000Y-93666000D02*
X141768000Y-94946000D01*
D11*
%TO.C,C12*%
X108825420Y-130046000D02*
X109106580Y-130046000D01*
X108825420Y-131066000D02*
X109106580Y-131066000D01*
%TO.C,R4*%
X114539500Y-110473258D02*
X114539500Y-109998742D01*
X115584500Y-110473258D02*
X115584500Y-109998742D01*
%TO.C,L4*%
X106428000Y-135981221D02*
X106428000Y-136306779D01*
X105408000Y-135981221D02*
X105408000Y-136306779D01*
%TO.C,C3*%
X112524000Y-110095420D02*
X112524000Y-110376580D01*
X111504000Y-110095420D02*
X111504000Y-110376580D01*
%TO.C,TP1*%
X98990000Y-128270000D02*
G75*
G03*
X98990000Y-128270000I-1200000J0D01*
G01*
%TO.C,U2*%
X109110000Y-116950000D02*
X109110000Y-116225000D01*
X109835000Y-112730000D02*
X109110000Y-112730000D01*
X109835000Y-116950000D02*
X109110000Y-116950000D01*
X112605000Y-112730000D02*
X113330000Y-112730000D01*
X112605000Y-116950000D02*
X113330000Y-116950000D01*
X113330000Y-112730000D02*
X113330000Y-113455000D01*
X113330000Y-116950000D02*
X113330000Y-116225000D01*
%TO.C,R7*%
X99328500Y-113046742D02*
X99328500Y-113521258D01*
X98283500Y-113046742D02*
X98283500Y-113521258D01*
%TO.C,J2*%
X117098000Y-94988000D02*
X118118000Y-94988000D01*
X117098000Y-99238000D02*
X117098000Y-94988000D01*
X118118000Y-94988000D02*
X118118000Y-96588000D01*
X118118000Y-96588000D02*
X119398000Y-96588000D01*
X118818000Y-102808000D02*
X123498000Y-102808000D01*
X119398000Y-96588000D02*
X119398000Y-93698000D01*
X124198000Y-94988000D02*
X124198000Y-96588000D01*
X124198000Y-96588000D02*
X122918000Y-96588000D01*
X125218000Y-94988000D02*
X124198000Y-94988000D01*
X125218000Y-99238000D02*
X125218000Y-94988000D01*
%TO.C,L1*%
X106298064Y-113088000D02*
X105093936Y-113088000D01*
X106298064Y-110368000D02*
X105093936Y-110368000D01*
%TO.C,D3*%
X115797000Y-112053000D02*
X114327000Y-112053000D01*
X114327000Y-112053000D02*
X114327000Y-114338000D01*
X115797000Y-114338000D02*
X115797000Y-112053000D01*
%TO.C,F2*%
X98046000Y-119471221D02*
X98046000Y-119796779D01*
X97026000Y-119471221D02*
X97026000Y-119796779D01*
%TO.C,L5*%
X104650000Y-135981221D02*
X104650000Y-136306779D01*
X103630000Y-135981221D02*
X103630000Y-136306779D01*
%TO.C,C18*%
X108825420Y-121410000D02*
X109106580Y-121410000D01*
X108825420Y-122430000D02*
X109106580Y-122430000D01*
%TO.C,kibuzzard-648E5B86*%
G36*
X116553615Y-114433350D02*
G01*
X116553615Y-114553365D01*
X116499799Y-114522885D01*
X116474557Y-114461449D01*
X116487892Y-114413824D01*
X116523135Y-114397155D01*
X116553615Y-114433350D01*
G37*
G36*
X116624100Y-112966738D02*
G01*
X116653627Y-112990313D01*
X116677440Y-113053177D01*
X116654104Y-113115090D01*
X116625052Y-113137950D01*
X116584571Y-113145570D01*
X116543971Y-113138188D01*
X116514562Y-113116043D01*
X116490750Y-113052225D01*
X116513610Y-112988408D01*
X116542423Y-112966262D01*
X116583142Y-112958880D01*
X116624100Y-112966738D01*
G37*
G36*
X117047327Y-113052225D02*
G01*
X117047327Y-113652300D01*
X117047327Y-114087593D01*
X117047327Y-114460020D01*
X117047327Y-114730530D01*
X117047327Y-114928968D01*
X116124672Y-114928968D01*
X116124672Y-114730530D01*
X116124672Y-114459068D01*
X116324062Y-114459068D01*
X116332053Y-114532251D01*
X116356024Y-114596863D01*
X116395976Y-114652901D01*
X116449263Y-114696028D01*
X116513240Y-114721905D01*
X116587905Y-114730530D01*
X116649394Y-114723863D01*
X116706862Y-114703860D01*
X116760307Y-114670523D01*
X116796383Y-114633970D01*
X116824601Y-114585274D01*
X116842818Y-114526576D01*
X116848890Y-114460020D01*
X116843592Y-114371259D01*
X116827697Y-114307858D01*
X116801205Y-114269818D01*
X116764117Y-114257138D01*
X116720302Y-114269520D01*
X116677440Y-114321908D01*
X116687917Y-114360008D01*
X116691727Y-114370485D01*
X116700300Y-114407871D01*
X116703157Y-114457163D01*
X116685060Y-114520028D01*
X116640292Y-114551460D01*
X116640292Y-114325718D01*
X116612194Y-114261424D01*
X116576475Y-114239635D01*
X116525516Y-114232373D01*
X116469200Y-114240469D01*
X116417407Y-114264758D01*
X116376569Y-114300119D01*
X116347399Y-114344291D01*
X116329897Y-114397274D01*
X116324062Y-114459068D01*
X116124672Y-114459068D01*
X116124672Y-113900426D01*
X116329777Y-113900426D01*
X116345970Y-113952338D01*
X116371687Y-113990914D01*
X116387880Y-114004725D01*
X116356447Y-114015203D01*
X116340017Y-114040206D01*
X116334540Y-114086640D01*
X116340969Y-114135694D01*
X116360257Y-114160935D01*
X116384546Y-114169031D01*
X116417407Y-114170460D01*
X116751735Y-114170460D01*
X116779357Y-114170460D01*
X116820315Y-114153315D01*
X116836507Y-114087593D01*
X116830316Y-114039015D01*
X116811742Y-114013298D01*
X116786501Y-114004249D01*
X116753640Y-114002820D01*
X116553615Y-114002820D01*
X116509800Y-113980436D01*
X116491702Y-113932335D01*
X116499322Y-113890901D01*
X116506942Y-113858040D01*
X116470747Y-113805653D01*
X116404072Y-113787555D01*
X116359781Y-113799461D01*
X116340255Y-113829465D01*
X116332159Y-113862803D01*
X116329777Y-113900426D01*
X116124672Y-113900426D01*
X116124672Y-113465134D01*
X116329777Y-113465134D01*
X116345970Y-113517045D01*
X116371687Y-113555621D01*
X116387880Y-113569433D01*
X116356447Y-113579910D01*
X116340017Y-113604913D01*
X116334540Y-113651348D01*
X116340969Y-113700401D01*
X116360257Y-113725643D01*
X116384546Y-113733739D01*
X116417407Y-113735168D01*
X116751735Y-113735168D01*
X116779357Y-113735168D01*
X116820315Y-113718023D01*
X116836507Y-113652300D01*
X116830316Y-113603723D01*
X116811742Y-113578005D01*
X116786501Y-113568956D01*
X116753640Y-113567528D01*
X116553615Y-113567528D01*
X116509800Y-113545144D01*
X116491702Y-113497043D01*
X116499322Y-113455609D01*
X116506942Y-113422748D01*
X116470747Y-113370360D01*
X116404072Y-113352262D01*
X116359781Y-113364169D01*
X116340255Y-113394173D01*
X116332159Y-113427510D01*
X116329777Y-113465134D01*
X116124672Y-113465134D01*
X116124672Y-113051272D01*
X116323110Y-113051272D01*
X116331365Y-113117312D01*
X116356130Y-113178272D01*
X116397405Y-113234153D01*
X116451380Y-113278602D01*
X116514245Y-113305273D01*
X116586000Y-113314162D01*
X116658271Y-113304042D01*
X116722684Y-113273681D01*
X116775786Y-113228557D01*
X116814124Y-113174145D01*
X116837341Y-113114137D01*
X116845080Y-113052225D01*
X116837817Y-112990432D01*
X116816029Y-112930781D01*
X116778881Y-112876608D01*
X116725541Y-112831245D01*
X116659700Y-112800527D01*
X116585047Y-112790288D01*
X116513345Y-112799072D01*
X116450639Y-112825424D01*
X116396929Y-112869345D01*
X116355918Y-112924696D01*
X116331312Y-112985338D01*
X116323110Y-113051272D01*
X116124672Y-113051272D01*
X116124672Y-112458341D01*
X116329777Y-112458341D01*
X116345970Y-112510252D01*
X116371687Y-112548829D01*
X116387880Y-112562640D01*
X116356447Y-112573118D01*
X116340017Y-112598121D01*
X116334540Y-112644555D01*
X116340969Y-112693609D01*
X116360257Y-112718850D01*
X116384546Y-112726946D01*
X116417407Y-112728375D01*
X116751735Y-112728375D01*
X116779357Y-112728375D01*
X116820315Y-112711230D01*
X116836507Y-112645507D01*
X116830316Y-112596930D01*
X116811742Y-112571212D01*
X116786501Y-112562164D01*
X116753640Y-112560735D01*
X116553615Y-112560735D01*
X116509800Y-112538351D01*
X116491702Y-112490250D01*
X116499322Y-112448816D01*
X116506942Y-112415955D01*
X116470747Y-112363567D01*
X116404072Y-112345470D01*
X116359781Y-112357376D01*
X116340255Y-112387380D01*
X116332159Y-112420718D01*
X116329777Y-112458341D01*
X116124672Y-112458341D01*
X116124672Y-112345470D01*
X116124672Y-112147032D01*
X117047327Y-112147032D01*
X117047327Y-112345470D01*
X117047327Y-112645507D01*
X117047327Y-113052225D01*
G37*
%TO.C,kibuzzard-648E5BB5*%
G36*
X113515140Y-120811449D02*
G01*
X113515140Y-120931464D01*
X113461324Y-120900984D01*
X113436082Y-120839548D01*
X113449417Y-120791923D01*
X113484660Y-120775254D01*
X113515140Y-120811449D01*
G37*
G36*
X113603722Y-122358785D02*
G01*
X113629440Y-122417364D01*
X113604199Y-122477371D01*
X113547525Y-122502136D01*
X113489422Y-122478800D01*
X113462752Y-122417840D01*
X113489422Y-122357833D01*
X113547049Y-122335449D01*
X113603722Y-122358785D01*
G37*
G36*
X113595626Y-121361994D02*
G01*
X113620868Y-121419620D01*
X113596102Y-121478675D01*
X113540381Y-121502964D01*
X113483707Y-121480104D01*
X113457990Y-121420096D01*
X113484184Y-121361041D01*
X113540381Y-121339134D01*
X113595626Y-121361994D01*
G37*
G36*
X114212688Y-121418191D02*
G01*
X114212688Y-122003979D01*
X114212688Y-122237818D01*
X114212688Y-122814556D01*
X114212688Y-123478449D01*
X114212688Y-123737529D01*
X114212688Y-123935966D01*
X112863312Y-123935966D01*
X112863312Y-123737529D01*
X112863312Y-123480354D01*
X113290350Y-123480354D01*
X113297335Y-123538880D01*
X113318290Y-123595077D01*
X113353215Y-123648946D01*
X113388577Y-123684427D01*
X113433701Y-123712764D01*
X113486565Y-123731338D01*
X113545144Y-123737529D01*
X113603961Y-123731338D01*
X113657539Y-123712764D01*
X113703378Y-123684427D01*
X113738978Y-123648946D01*
X113774432Y-123593595D01*
X113795704Y-123536763D01*
X113802795Y-123478449D01*
X113793270Y-123405583D01*
X113764695Y-123345099D01*
X113732072Y-123305808D01*
X113697067Y-123292711D01*
X113647537Y-123314619D01*
X113609676Y-123352481D01*
X113597055Y-123384151D01*
X113614676Y-123426538D01*
X113632297Y-123482735D01*
X113609914Y-123539409D01*
X113547049Y-123566079D01*
X113483707Y-123538456D01*
X113460847Y-123478925D01*
X113477040Y-123429871D01*
X113497995Y-123378436D01*
X113484898Y-123346289D01*
X113445607Y-123312714D01*
X113390839Y-123292711D01*
X113347500Y-123317476D01*
X113329402Y-123344146D01*
X113319877Y-123359386D01*
X113300351Y-123409869D01*
X113290350Y-123480354D01*
X112863312Y-123480354D01*
X112863312Y-123146979D01*
X113061750Y-123146979D01*
X113068179Y-123196033D01*
X113087467Y-123221274D01*
X113111756Y-123229370D01*
X113144618Y-123230799D01*
X113714212Y-123230799D01*
X113747550Y-123229370D01*
X113772315Y-123221274D01*
X113791603Y-123196271D01*
X113798033Y-123147931D01*
X113791841Y-123099116D01*
X113773268Y-123074589D01*
X113748026Y-123065540D01*
X113715165Y-123064111D01*
X113530380Y-123064111D01*
X113484184Y-123034584D01*
X113463705Y-122975053D01*
X113485612Y-122919331D01*
X113546573Y-122897424D01*
X113713260Y-122897424D01*
X113747550Y-122895995D01*
X113773268Y-122886946D01*
X113791841Y-122861705D01*
X113798033Y-122814556D01*
X113791841Y-122765741D01*
X113773268Y-122741214D01*
X113748026Y-122732165D01*
X113715165Y-122730736D01*
X113547525Y-122730736D01*
X113481273Y-122737774D01*
X113422218Y-122758888D01*
X113370360Y-122794078D01*
X113330143Y-122839850D01*
X113306013Y-122892714D01*
X113297970Y-122952669D01*
X113312496Y-123012438D01*
X113356072Y-123064111D01*
X113145570Y-123064111D01*
X113112709Y-123065540D01*
X113087467Y-123074589D01*
X113068179Y-123098878D01*
X113061750Y-123146979D01*
X112863312Y-123146979D01*
X112863312Y-122253534D01*
X113296065Y-122253534D01*
X113309400Y-122307112D01*
X113349405Y-122328781D01*
X113329879Y-122345926D01*
X113308447Y-122383074D01*
X113297017Y-122442129D01*
X113305325Y-122497109D01*
X113330249Y-122549020D01*
X113371789Y-122597863D01*
X113424388Y-122637285D01*
X113482490Y-122660939D01*
X113546096Y-122668824D01*
X113609755Y-122660992D01*
X113668016Y-122637497D01*
X113720880Y-122598339D01*
X113762684Y-122550026D01*
X113787767Y-122499067D01*
X113796128Y-122445463D01*
X113783507Y-122374858D01*
X113745645Y-122327829D01*
X113783269Y-122307350D01*
X113796128Y-122237818D01*
X113789936Y-122195550D01*
X113771362Y-122172571D01*
X113746121Y-122164475D01*
X113713260Y-122163046D01*
X113379885Y-122163046D01*
X113347024Y-122164475D01*
X113321782Y-122173048D01*
X113301780Y-122198289D01*
X113296065Y-122253534D01*
X112863312Y-122253534D01*
X112863312Y-121816813D01*
X113291302Y-121816813D01*
X113307495Y-121868724D01*
X113333212Y-121907300D01*
X113349405Y-121921111D01*
X113317972Y-121931589D01*
X113301542Y-121956592D01*
X113296065Y-122003026D01*
X113302494Y-122052080D01*
X113321782Y-122077321D01*
X113346071Y-122085418D01*
X113378932Y-122086846D01*
X113713260Y-122086846D01*
X113740882Y-122086846D01*
X113781840Y-122069701D01*
X113798033Y-122003979D01*
X113791841Y-121955401D01*
X113773268Y-121929684D01*
X113748026Y-121920635D01*
X113715165Y-121919206D01*
X113515140Y-121919206D01*
X113471325Y-121896823D01*
X113453227Y-121848721D01*
X113460847Y-121807288D01*
X113468467Y-121774426D01*
X113432272Y-121722039D01*
X113365597Y-121703941D01*
X113321306Y-121715848D01*
X113301780Y-121745851D01*
X113293684Y-121779189D01*
X113291302Y-121816813D01*
X112863312Y-121816813D01*
X112863312Y-121259124D01*
X113294160Y-121259124D01*
X113307971Y-121312940D01*
X113348452Y-121332466D01*
X113329879Y-121348183D01*
X113307971Y-121384854D01*
X113296065Y-121443909D01*
X113304214Y-121497672D01*
X113328662Y-121548472D01*
X113369407Y-121596309D01*
X113420948Y-121634938D01*
X113477781Y-121658115D01*
X113539905Y-121665841D01*
X113601976Y-121658168D01*
X113658650Y-121635150D01*
X113709926Y-121596785D01*
X113750408Y-121549636D01*
X113774696Y-121500265D01*
X113782792Y-121448671D01*
X113770886Y-121380329D01*
X113735168Y-121333419D01*
X113763742Y-121333419D01*
X113832323Y-121356279D01*
X113860897Y-121415334D01*
X113852087Y-121466769D01*
X113825655Y-121514394D01*
X113814225Y-121542016D01*
X113821845Y-121565353D01*
X113849467Y-121593451D01*
X113915190Y-121622026D01*
X113945432Y-121605596D01*
X113979008Y-121556304D01*
X114005439Y-121488914D01*
X114014250Y-121418191D01*
X114006789Y-121356808D01*
X113984405Y-121299658D01*
X113947099Y-121246741D01*
X113897622Y-121204408D01*
X113838725Y-121179008D01*
X113770410Y-121170541D01*
X113376075Y-121170541D01*
X113343690Y-121171970D01*
X113319401Y-121180543D01*
X113299875Y-121204831D01*
X113294160Y-121259124D01*
X112863312Y-121259124D01*
X112863312Y-120837166D01*
X113285587Y-120837166D01*
X113293578Y-120910350D01*
X113317549Y-120974961D01*
X113357501Y-121031000D01*
X113410788Y-121074127D01*
X113474765Y-121100003D01*
X113549430Y-121108629D01*
X113610919Y-121101961D01*
X113668387Y-121081959D01*
X113721832Y-121048621D01*
X113757908Y-121012069D01*
X113786126Y-120963372D01*
X113804343Y-120904675D01*
X113810415Y-120838119D01*
X113805117Y-120749358D01*
X113789222Y-120685957D01*
X113762730Y-120647916D01*
X113725642Y-120635236D01*
X113681827Y-120647619D01*
X113638965Y-120700006D01*
X113649443Y-120738106D01*
X113653253Y-120748584D01*
X113661825Y-120785969D01*
X113664683Y-120835261D01*
X113646585Y-120898126D01*
X113601818Y-120929559D01*
X113601818Y-120703816D01*
X113573719Y-120639522D01*
X113538000Y-120617734D01*
X113487041Y-120610471D01*
X113430725Y-120618567D01*
X113378932Y-120642856D01*
X113338094Y-120678218D01*
X113308924Y-120722390D01*
X113291422Y-120775373D01*
X113285587Y-120837166D01*
X112863312Y-120837166D01*
X112863312Y-120610471D01*
X112863312Y-120412034D01*
X114212688Y-120412034D01*
X114212688Y-120610471D01*
X114212688Y-120838119D01*
X114212688Y-121418191D01*
G37*
%TO.C,C4*%
X108456000Y-110376580D02*
X108456000Y-110095420D01*
X109476000Y-110376580D02*
X109476000Y-110095420D01*
%TO.C,C13*%
X108825420Y-128268000D02*
X109106580Y-128268000D01*
X108825420Y-129288000D02*
X109106580Y-129288000D01*
%TO.C,C9*%
X102872000Y-130415420D02*
X102872000Y-130696580D01*
X101852000Y-130415420D02*
X101852000Y-130696580D01*
D12*
%TO.C,J4*%
X118936000Y-121955500D02*
X118936000Y-133105500D01*
X118936000Y-133105500D02*
X123036000Y-133105500D01*
X119136000Y-107105500D02*
X119136000Y-113955500D01*
X119136000Y-113955500D02*
X119686000Y-113955500D01*
X119686000Y-113955500D02*
X119686000Y-120555500D01*
X119686000Y-113955500D02*
X122286000Y-113955500D01*
X119686000Y-120555500D02*
X118936000Y-121955500D01*
X122286000Y-113955500D02*
X122286000Y-115805500D01*
X122286000Y-115805500D02*
X122541000Y-115805500D01*
X122841000Y-107105500D02*
X119136000Y-107105500D01*
X123036000Y-133105500D02*
X123036000Y-126725500D01*
X186336000Y-133105500D02*
X186336000Y-126725500D01*
X186336000Y-133105500D02*
X190436000Y-133105500D01*
X186531000Y-115805500D02*
X187086000Y-115805500D01*
X187086000Y-115805500D02*
X187086000Y-113959900D01*
X189686000Y-113955500D02*
X189686000Y-120555500D01*
X189686000Y-120555500D02*
X190436000Y-121955500D01*
X190236000Y-107105500D02*
X186831000Y-107105500D01*
X190236000Y-113955500D02*
X187086000Y-113955500D01*
X190236000Y-113955500D02*
X190236000Y-107105500D01*
X190436000Y-133105500D02*
X190436000Y-121955500D01*
D13*
X186436000Y-106005500D02*
G75*
G03*
X186436000Y-106005500I-100000J0D01*
G01*
D11*
%TO.C,U4*%
X100768000Y-124022000D02*
X100768000Y-123572000D01*
X101218000Y-118802000D02*
X100768000Y-118802000D01*
X101218000Y-124022000D02*
X100768000Y-124022000D01*
X105538000Y-118802000D02*
X105988000Y-118802000D01*
X105538000Y-124022000D02*
X105988000Y-124022000D01*
X105988000Y-118802000D02*
X105988000Y-119252000D01*
X105988000Y-124022000D02*
X105988000Y-123572000D01*
%TO.C,R8*%
X101106500Y-130318742D02*
X101106500Y-130793258D01*
X100061500Y-130318742D02*
X100061500Y-130793258D01*
%TO.C,D2*%
X103466000Y-102530000D02*
X101766000Y-102530000D01*
X103466000Y-102530000D02*
X103466000Y-105190000D01*
X101766000Y-102530000D02*
X101766000Y-105190000D01*
%TO.C,C15*%
X98046000Y-122541420D02*
X98046000Y-122822580D01*
X97026000Y-122541420D02*
X97026000Y-122822580D01*
%TD*%
M02*
