%TF.GenerationSoftware,KiCad,Pcbnew,7.0.2*%
%TF.CreationDate,2023-06-20T04:38:37+02:00*%
%TF.ProjectId,SenseU_Mainboard,53656e73-6555-45f4-9d61-696e626f6172,rev?*%
%TF.SameCoordinates,Original*%
%TF.FileFunction,Legend,Bot*%
%TF.FilePolarity,Positive*%
%FSLAX46Y46*%
G04 Gerber Fmt 4.6, Leading zero omitted, Abs format (unit mm)*
G04 Created by KiCad (PCBNEW 7.0.2) date 2023-06-20 04:38:37*
%MOMM*%
%LPD*%
G01*
G04 APERTURE LIST*
%ADD10C,0.150000*%
%ADD11C,0.508000*%
G04 APERTURE END LIST*
D10*
%TO.C,J3*%
X163802961Y-97571790D02*
X163660104Y-97524171D01*
X163660104Y-97524171D02*
X163612485Y-97476552D01*
X163612485Y-97476552D02*
X163564866Y-97381314D01*
X163564866Y-97381314D02*
X163564866Y-97238457D01*
X163564866Y-97238457D02*
X163612485Y-97143219D01*
X163612485Y-97143219D02*
X163660104Y-97095600D01*
X163660104Y-97095600D02*
X163755342Y-97047980D01*
X163755342Y-97047980D02*
X164136294Y-97047980D01*
X164136294Y-97047980D02*
X164136294Y-98047980D01*
X164136294Y-98047980D02*
X163802961Y-98047980D01*
X163802961Y-98047980D02*
X163707723Y-98000361D01*
X163707723Y-98000361D02*
X163660104Y-97952742D01*
X163660104Y-97952742D02*
X163612485Y-97857504D01*
X163612485Y-97857504D02*
X163612485Y-97762266D01*
X163612485Y-97762266D02*
X163660104Y-97667028D01*
X163660104Y-97667028D02*
X163707723Y-97619409D01*
X163707723Y-97619409D02*
X163802961Y-97571790D01*
X163802961Y-97571790D02*
X164136294Y-97571790D01*
X162707723Y-98047980D02*
X162898199Y-98047980D01*
X162898199Y-98047980D02*
X162993437Y-98000361D01*
X162993437Y-98000361D02*
X163041056Y-97952742D01*
X163041056Y-97952742D02*
X163136294Y-97809885D01*
X163136294Y-97809885D02*
X163183913Y-97619409D01*
X163183913Y-97619409D02*
X163183913Y-97238457D01*
X163183913Y-97238457D02*
X163136294Y-97143219D01*
X163136294Y-97143219D02*
X163088675Y-97095600D01*
X163088675Y-97095600D02*
X162993437Y-97047980D01*
X162993437Y-97047980D02*
X162802961Y-97047980D01*
X162802961Y-97047980D02*
X162707723Y-97095600D01*
X162707723Y-97095600D02*
X162660104Y-97143219D01*
X162660104Y-97143219D02*
X162612485Y-97238457D01*
X162612485Y-97238457D02*
X162612485Y-97476552D01*
X162612485Y-97476552D02*
X162660104Y-97571790D01*
X162660104Y-97571790D02*
X162707723Y-97619409D01*
X162707723Y-97619409D02*
X162802961Y-97667028D01*
X162802961Y-97667028D02*
X162993437Y-97667028D01*
X162993437Y-97667028D02*
X163088675Y-97619409D01*
X163088675Y-97619409D02*
X163136294Y-97571790D01*
X163136294Y-97571790D02*
X163183913Y-97476552D01*
X164112485Y-94793695D02*
X163636295Y-94793695D01*
X164207723Y-94507980D02*
X163874390Y-95507980D01*
X163874390Y-95507980D02*
X163541057Y-94507980D01*
X162779152Y-95507980D02*
X162969628Y-95507980D01*
X162969628Y-95507980D02*
X163064866Y-95460361D01*
X163064866Y-95460361D02*
X163112485Y-95412742D01*
X163112485Y-95412742D02*
X163207723Y-95269885D01*
X163207723Y-95269885D02*
X163255342Y-95079409D01*
X163255342Y-95079409D02*
X163255342Y-94698457D01*
X163255342Y-94698457D02*
X163207723Y-94603219D01*
X163207723Y-94603219D02*
X163160104Y-94555600D01*
X163160104Y-94555600D02*
X163064866Y-94507980D01*
X163064866Y-94507980D02*
X162874390Y-94507980D01*
X162874390Y-94507980D02*
X162779152Y-94555600D01*
X162779152Y-94555600D02*
X162731533Y-94603219D01*
X162731533Y-94603219D02*
X162683914Y-94698457D01*
X162683914Y-94698457D02*
X162683914Y-94936552D01*
X162683914Y-94936552D02*
X162731533Y-95031790D01*
X162731533Y-95031790D02*
X162779152Y-95079409D01*
X162779152Y-95079409D02*
X162874390Y-95127028D01*
X162874390Y-95127028D02*
X163064866Y-95127028D01*
X163064866Y-95127028D02*
X163160104Y-95079409D01*
X163160104Y-95079409D02*
X163207723Y-95031790D01*
X163207723Y-95031790D02*
X163255342Y-94936552D01*
X180909190Y-97639238D02*
X180861571Y-97782095D01*
X180861571Y-97782095D02*
X180813952Y-97829714D01*
X180813952Y-97829714D02*
X180718714Y-97877333D01*
X180718714Y-97877333D02*
X180575857Y-97877333D01*
X180575857Y-97877333D02*
X180480619Y-97829714D01*
X180480619Y-97829714D02*
X180433000Y-97782095D01*
X180433000Y-97782095D02*
X180385380Y-97686857D01*
X180385380Y-97686857D02*
X180385380Y-97305905D01*
X180385380Y-97305905D02*
X181385380Y-97305905D01*
X181385380Y-97305905D02*
X181385380Y-97639238D01*
X181385380Y-97639238D02*
X181337761Y-97734476D01*
X181337761Y-97734476D02*
X181290142Y-97782095D01*
X181290142Y-97782095D02*
X181194904Y-97829714D01*
X181194904Y-97829714D02*
X181099666Y-97829714D01*
X181099666Y-97829714D02*
X181004428Y-97782095D01*
X181004428Y-97782095D02*
X180956809Y-97734476D01*
X180956809Y-97734476D02*
X180909190Y-97639238D01*
X180909190Y-97639238D02*
X180909190Y-97305905D01*
X180385380Y-98829714D02*
X180385380Y-98258286D01*
X180385380Y-98544000D02*
X181385380Y-98544000D01*
X181385380Y-98544000D02*
X181242523Y-98448762D01*
X181242523Y-98448762D02*
X181147285Y-98353524D01*
X181147285Y-98353524D02*
X181099666Y-98258286D01*
X180671095Y-94535714D02*
X180671095Y-95011904D01*
X180385380Y-94440476D02*
X181385380Y-94773809D01*
X181385380Y-94773809D02*
X180385380Y-95107142D01*
X180385380Y-95964285D02*
X180385380Y-95392857D01*
X180385380Y-95678571D02*
X181385380Y-95678571D01*
X181385380Y-95678571D02*
X181242523Y-95583333D01*
X181242523Y-95583333D02*
X181147285Y-95488095D01*
X181147285Y-95488095D02*
X181099666Y-95392857D01*
D11*
X179908200Y-94970600D02*
G75*
G03*
X179908200Y-94970600I-381000J0D01*
G01*
%TD*%
M02*
