M48
; DRILL file {KiCad 7.0.2} date Tue Jun 13 00:37:26 2023
; FORMAT={-:-/ absolute / inch / decimal}
; #@! TF.CreationDate,2023-06-13T00:37:26+02:00
; #@! TF.GenerationSoftware,Kicad,Pcbnew,7.0.2
; #@! TF.FileFunction,Plated,1,2,PTH
FMAT,2
INCH
; #@! TA.AperFunction,Plated,PTH,ViaDrill
T1C0.0118
; #@! TA.AperFunction,Plated,PTH,ComponentDrill
T2C0.0118
; #@! TA.AperFunction,Plated,PTH,ComponentDrill
T3C0.0236
%
G90
G05
T1
X-2.9291Y-9.3465
X-2.5591Y-9.185
X-2.4681Y-8.5972
X-2.4378Y-8.7232
X-2.4299Y-8.574
X-2.3823Y-8.5701
X-2.3732Y-8.7315
X-2.3472Y-8.5921
X-2.1339Y-8.4331
X-1.9783Y-9.0945
X-1.9764Y-8.5827
X-1.9705Y-8.6909
X-1.9665Y-8.5039
X-1.9252Y-8.685
X-1.8937Y-8.4016
X-1.8898Y-8.6791
X-1.8268Y-8.7402
X-1.7657Y-8.8839
X-1.7539Y-8.5571
X-1.7362Y-8.8602
X-1.7343Y-8.5236
X-1.685Y-8.5315
X-1.685Y-8.6988
X-1.6799Y-8.8319
X-1.6634Y-8.5571
X-1.6358Y-8.5413
X-1.6201Y-8.5217
X-1.6043Y-8.3425
X-1.5846Y-8.8268
X-1.537Y-8.9425
X-1.5354Y-8.75
X-1.5276Y-8.4528
X-1.5228Y-8.8606
X-1.4326Y-8.4972
X-1.4134Y-8.5374
X-1.4094Y-8.315
X-1.4094Y-8.5728
X-1.3858Y-9.1339
X-1.3386Y-9.0945
X-1.2559Y-8.626
X-1.1732Y-8.937
X-1.0531Y-9.1319
X-1.0531Y-9.2933
X-1.0492Y-8.374
X-1.0079Y-9.311
X-0.748Y-8.7106
X-0.6524Y-8.6214
X-0.4508Y-8.5492
T2
X-1.8954Y-9.161
T3
G00X-2.6601Y-8.3031
M15
G01X-2.6601Y-8.3504
M16
G05
G00X-2.6601Y-8.4606
M15
G01X-2.6601Y-8.4921
M16
G05
G00X-2.2211Y-8.3031
M15
G01X-2.2211Y-8.3504
M16
G05
G00X-2.2211Y-8.4606
M15
G01X-2.2211Y-8.4921
M16
G05
T0
M30
