%TF.GenerationSoftware,KiCad,Pcbnew,7.0.2*%
%TF.CreationDate,2023-06-13T00:37:22+02:00*%
%TF.ProjectId,DisplayU_Sisterboard,44697370-6c61-4795-955f-536973746572,rev?*%
%TF.SameCoordinates,Original*%
%TF.FileFunction,Copper,L2,Bot*%
%TF.FilePolarity,Positive*%
%FSLAX46Y46*%
G04 Gerber Fmt 4.6, Leading zero omitted, Abs format (unit mm)*
G04 Created by KiCad (PCBNEW 7.0.2) date 2023-06-13 00:37:22*
%MOMM*%
%LPD*%
G01*
G04 APERTURE LIST*
G04 Aperture macros list*
%AMFreePoly0*
4,1,17,0.307538,1.085355,0.485355,0.907538,0.500000,0.872183,0.500000,-0.872183,0.485355,-0.907538,0.307538,-1.085355,0.272183,-1.100000,-0.272183,-1.100000,-0.307538,-1.085355,-0.485355,-0.907538,-0.500000,-0.872182,-0.500000,0.872183,-0.485355,0.907538,-0.307538,1.085355,-0.272183,1.100000,0.272183,1.100000,0.307538,1.085355,0.307538,1.085355,$1*%
%AMFreePoly1*
4,1,17,0.307538,0.885355,0.485355,0.707538,0.500000,0.672183,0.500000,-0.672183,0.485355,-0.707538,0.307538,-0.885355,0.272183,-0.900000,-0.272183,-0.900000,-0.307538,-0.885355,-0.485355,-0.707538,-0.500000,-0.672183,-0.500000,0.672183,-0.485355,0.707538,-0.307538,0.885355,-0.272183,0.900000,0.272183,0.900000,0.307538,0.885355,0.307538,0.885355,$1*%
%AMFreePoly2*
4,1,13,0.435355,0.235355,0.450000,0.200000,0.450000,-0.200000,0.435355,-0.235355,0.400000,-0.250000,-0.400000,-0.250000,-0.435355,-0.235355,-0.450000,-0.200000,-0.450000,0.200000,-0.435355,0.235355,-0.400000,0.250000,0.400000,0.250000,0.435355,0.235355,0.435355,0.235355,$1*%
G04 Aperture macros list end*
%TA.AperFunction,ComponentPad*%
%ADD10FreePoly0,0.000000*%
%TD*%
%TA.AperFunction,ComponentPad*%
%ADD11FreePoly1,0.000000*%
%TD*%
%TA.AperFunction,ComponentPad*%
%ADD12FreePoly2,180.000000*%
%TD*%
%TA.AperFunction,ViaPad*%
%ADD13C,0.500000*%
%TD*%
%TA.AperFunction,Conductor*%
%ADD14C,0.125000*%
%TD*%
%TA.AperFunction,Conductor*%
%ADD15C,0.550000*%
%TD*%
%TA.AperFunction,Conductor*%
%ADD16C,0.300000*%
%TD*%
%TA.AperFunction,Conductor*%
%ADD17C,0.200000*%
%TD*%
G04 APERTURE END LIST*
D10*
%TO.P,J2,S1,SHIELD*%
%TO.N,GND*%
X-67566450Y-211500000D03*
D11*
X-67566450Y-215300000D03*
D10*
X-56415850Y-211500000D03*
D11*
X-56415550Y-215300000D03*
%TD*%
D12*
%TO.P,AE1,2*%
%TO.N,N/C*%
X-48142900Y-232690000D03*
%TD*%
D13*
%TO.N,VDD*%
X-40250000Y-224200000D03*
X-46400000Y-222000000D03*
X-35800000Y-217750000D03*
X-35800000Y-211200000D03*
X-44550000Y-217350000D03*
%TO.N,GND*%
X-11450000Y-217150000D03*
X-40750000Y-211900000D03*
X-44850000Y-225650000D03*
X-49950000Y-216000000D03*
X-35900000Y-216850000D03*
X-39000000Y-222250000D03*
X-31900000Y-219100000D03*
X-42800000Y-220950000D03*
X-26650000Y-212700000D03*
X-38800000Y-214700000D03*
X-48000000Y-220450000D03*
X-50050000Y-220750000D03*
%TO.N,Net-(U1-ANT_RF)*%
X-44100000Y-225050000D03*
X-39040000Y-227140000D03*
%TO.N,Net-(U1-DEC4)*%
X-42670000Y-224330000D03*
X-38680000Y-225060000D03*
%TO.N,Net-(D2-Pad2)*%
X-54200000Y-214200000D03*
X-65000000Y-233300000D03*
%TO.N,VBUS*%
X-60280000Y-221780000D03*
X-34000000Y-231000000D03*
X-59620000Y-218240000D03*
X-50250000Y-231000000D03*
X-19000000Y-221250000D03*
%TO.N,/MCU & Comms/MicroController/IO 5*%
X-44050000Y-216500000D03*
X-48100000Y-213400000D03*
%TO.N,/MCU & Comms/Left*%
X-36388131Y-215827891D03*
X-41150000Y-216450000D03*
%TO.N,Charge Fault*%
X-26750000Y-236050000D03*
X-26750000Y-231950000D03*
X-41550000Y-216950000D03*
%TO.N,Net-(D2-Pad1)*%
X-74400000Y-237400000D03*
X-35200000Y-232000000D03*
%TO.N,Charge Status*%
X-25600000Y-236500000D03*
X-29800000Y-227000000D03*
X-42800000Y-216700000D03*
%TO.N,CC1*%
X-60510000Y-217680000D03*
X-61920000Y-221570000D03*
%TO.N,DATA+*%
X-62690000Y-218370000D03*
X-61720000Y-217780000D03*
%TO.N,/MCU & Comms/MicroController/IO 3*%
X-16571932Y-218984229D03*
X-42250000Y-217350000D03*
%TO.N,/MCU & Comms/MicroController/RST*%
X-48900000Y-220600000D03*
X-50200000Y-218000000D03*
%TD*%
D14*
%TO.N,VDD*%
X-40632500Y-223817500D02*
X-40632500Y-223467500D01*
X-43537500Y-221312500D02*
X-43537500Y-218362500D01*
X-35200000Y-211800000D02*
X-35200000Y-217150000D01*
X-43450000Y-221400000D02*
X-45850000Y-221400000D01*
X-35200000Y-217150000D02*
X-35800000Y-217750000D01*
X-40632500Y-223467500D02*
X-42700000Y-221400000D01*
X-43450000Y-221400000D02*
X-43537500Y-221312500D01*
X-35800000Y-211200000D02*
X-35200000Y-211800000D01*
X-42700000Y-221400000D02*
X-43450000Y-221400000D01*
X-40250000Y-224200000D02*
X-40632500Y-223817500D01*
X-43537500Y-218362500D02*
X-44500000Y-217400000D01*
X-45850000Y-221400000D02*
X-46400000Y-221950000D01*
%TO.N,Net-(U1-ANT_RF)*%
X-39590000Y-225050000D02*
X-39030000Y-225610000D01*
X-44100000Y-225050000D02*
X-39590000Y-225050000D01*
X-39030000Y-225610000D02*
X-39030000Y-227150000D01*
%TO.N,Net-(U1-DEC4)*%
X-42275000Y-224725000D02*
X-42670000Y-224330000D01*
X-38680000Y-225060000D02*
X-39015000Y-224725000D01*
X-39015000Y-224725000D02*
X-42275000Y-224725000D01*
D15*
%TO.N,Net-(D2-Pad2)*%
X-54200000Y-222500000D02*
X-64900000Y-233200000D01*
X-54200000Y-214200000D02*
X-54200000Y-222500000D01*
D16*
%TO.N,VBUS*%
X-50250000Y-231000000D02*
X-34000000Y-231000000D01*
X-59620000Y-221180000D02*
X-60240000Y-221800000D01*
X-19000000Y-221250000D02*
X-19000000Y-231000000D01*
X-28750000Y-237500000D02*
X-34000000Y-232250000D01*
X-19000000Y-231000000D02*
X-25500000Y-237500000D01*
X-34000000Y-232250000D02*
X-34000000Y-231000000D01*
X-59620000Y-218240000D02*
X-59620000Y-221180000D01*
X-25500000Y-237500000D02*
X-28750000Y-237500000D01*
D14*
%TO.N,/MCU & Comms/MicroController/IO 5*%
X-44050000Y-216500000D02*
X-45000000Y-216500000D01*
X-45000000Y-216500000D02*
X-48100000Y-213400000D01*
%TO.N,/MCU & Comms/Left*%
X-40550000Y-215850000D02*
X-41150000Y-216450000D01*
X-36400000Y-215850000D02*
X-40550000Y-215850000D01*
%TO.N,Charge Fault*%
X-26750000Y-229325215D02*
X-26750000Y-231950000D01*
X-41550000Y-216950000D02*
X-35700000Y-222800000D01*
X-26750000Y-231950000D02*
X-26750000Y-236050000D01*
X-35700000Y-222800000D02*
X-33275215Y-222800000D01*
X-33275215Y-222800000D02*
X-26750000Y-229325215D01*
D15*
%TO.N,Net-(D2-Pad1)*%
X-58765000Y-231965000D02*
X-35235000Y-231965000D01*
X-64200000Y-237400000D02*
X-58765000Y-231965000D01*
X-74400000Y-237400000D02*
X-64200000Y-237400000D01*
D14*
%TO.N,Charge Status*%
X-27550000Y-229250000D02*
X-27550000Y-236400000D01*
X-29800000Y-227000000D02*
X-27700000Y-229100000D01*
X-27550000Y-236400000D02*
X-27200000Y-236750000D01*
X-39050000Y-224000000D02*
X-32800000Y-224000000D01*
X-27200000Y-236750000D02*
X-25850000Y-236750000D01*
X-25850000Y-236750000D02*
X-25600000Y-236500000D01*
X-42800000Y-216700000D02*
X-42800000Y-220250000D01*
X-27700000Y-229100000D02*
X-27550000Y-229250000D01*
X-32800000Y-224000000D02*
X-29800000Y-227000000D01*
X-42800000Y-220250000D02*
X-39050000Y-224000000D01*
%TO.N,CC1*%
X-60510000Y-220160000D02*
X-60510000Y-217680000D01*
X-61920000Y-221570000D02*
X-60510000Y-220160000D01*
D17*
%TO.N,DATA+*%
X-62100000Y-217780000D02*
X-62690000Y-218370000D01*
X-61720000Y-217780000D02*
X-62100000Y-217780000D01*
D14*
%TO.N,/MCU & Comms/MicroController/IO 3*%
X-31550000Y-210550000D02*
X-44600000Y-210550000D01*
X-45450000Y-214350000D02*
X-43900000Y-215900000D01*
X-44600000Y-210550000D02*
X-45450000Y-211400000D01*
X-43900000Y-215900000D02*
X-42650000Y-215900000D01*
X-23115771Y-218984229D02*
X-31550000Y-210550000D01*
X-42250000Y-216300000D02*
X-42250000Y-217350000D01*
X-42650000Y-215900000D02*
X-42250000Y-216300000D01*
X-45450000Y-211400000D02*
X-45450000Y-214350000D01*
X-16571932Y-218984229D02*
X-23115771Y-218984229D01*
%TO.N,/MCU & Comms/MicroController/RST*%
X-50200000Y-219300000D02*
X-50200000Y-218000000D01*
X-48900000Y-220600000D02*
X-50200000Y-219300000D01*
%TD*%
%TA.AperFunction,Conductor*%
%TO.N,GND*%
G36*
X-66704307Y-210020207D02*
G01*
X-66635066Y-210075426D01*
X-66596639Y-210155218D01*
X-66591650Y-210199500D01*
X-66591650Y-215760689D01*
X-66591758Y-215761242D01*
X-66591690Y-215799997D01*
X-66591691Y-215800000D01*
X-66591650Y-215800099D01*
X-66591533Y-215800383D01*
X-66591150Y-215800541D01*
X-66591148Y-215800540D01*
X-66551643Y-215800514D01*
X-66551642Y-215800533D01*
X-66551473Y-215800500D01*
X-57430827Y-215800500D01*
X-57430657Y-215800533D01*
X-57430657Y-215800514D01*
X-57391152Y-215800539D01*
X-57391150Y-215800541D01*
X-57390767Y-215800383D01*
X-57390766Y-215800382D01*
X-57390649Y-215800098D01*
X-57390609Y-215800002D01*
X-57390541Y-215761242D01*
X-57390649Y-215760689D01*
X-57390650Y-210199500D01*
X-57370943Y-210113157D01*
X-57315724Y-210043916D01*
X-57235932Y-210005489D01*
X-57191650Y-210000500D01*
X-53291249Y-210000500D01*
X-44907017Y-210000500D01*
X-44820674Y-210020207D01*
X-44751433Y-210075426D01*
X-44713006Y-210155218D01*
X-44713006Y-210243782D01*
X-44751433Y-210323574D01*
X-44786633Y-210355931D01*
X-44789610Y-210360386D01*
X-44789612Y-210360388D01*
X-44793398Y-210366054D01*
X-44818142Y-210396204D01*
X-45603794Y-211181856D01*
X-45633949Y-211206604D01*
X-45639612Y-211210388D01*
X-45643395Y-211216049D01*
X-45697740Y-211297383D01*
X-45718152Y-211399998D01*
X-45716824Y-211406675D01*
X-45713000Y-211445500D01*
X-45713000Y-214304499D01*
X-45716824Y-214343322D01*
X-45718152Y-214350000D01*
X-45713000Y-214375900D01*
X-45713000Y-214375901D01*
X-45697740Y-214452617D01*
X-45639612Y-214539612D01*
X-45633944Y-214543398D01*
X-45603797Y-214568139D01*
X-44323768Y-215848169D01*
X-44276651Y-215923156D01*
X-44266735Y-216011162D01*
X-44295986Y-216094755D01*
X-44323770Y-216129595D01*
X-44372889Y-216178714D01*
X-44447877Y-216225833D01*
X-44513603Y-216237000D01*
X-44808634Y-216237000D01*
X-44894977Y-216217293D01*
X-44949348Y-216178714D01*
X-47586214Y-213541848D01*
X-47633333Y-213466860D01*
X-47644500Y-213401134D01*
X-47644500Y-213316741D01*
X-47660143Y-213238098D01*
X-47674494Y-213203452D01*
X-47719043Y-213136782D01*
X-47836782Y-213019043D01*
X-47903452Y-212974494D01*
X-47938098Y-212960143D01*
X-48016742Y-212944500D01*
X-48183258Y-212944500D01*
X-48261901Y-212960143D01*
X-48296549Y-212974495D01*
X-48363216Y-213019042D01*
X-48480958Y-213136784D01*
X-48525505Y-213203451D01*
X-48539857Y-213238099D01*
X-48555500Y-213316742D01*
X-48555500Y-213483258D01*
X-48539857Y-213561901D01*
X-48525505Y-213596549D01*
X-48480958Y-213663216D01*
X-48363216Y-213780958D01*
X-48296549Y-213825505D01*
X-48261901Y-213839857D01*
X-48183258Y-213855500D01*
X-48098866Y-213855500D01*
X-48012523Y-213875207D01*
X-47958151Y-213913786D01*
X-45218139Y-216653797D01*
X-45193398Y-216683944D01*
X-45189612Y-216689612D01*
X-45102617Y-216747740D01*
X-45041789Y-216759839D01*
X-44960955Y-216796010D01*
X-44903816Y-216863675D01*
X-44881694Y-216949431D01*
X-44898971Y-217036293D01*
X-44921748Y-217069367D01*
X-44920069Y-217070489D01*
X-44930956Y-217086782D01*
X-44930958Y-217086784D01*
X-44975505Y-217153451D01*
X-44989857Y-217188099D01*
X-45005500Y-217266742D01*
X-45005500Y-217433258D01*
X-44989857Y-217511901D01*
X-44975505Y-217546549D01*
X-44930958Y-217613216D01*
X-44813216Y-217730958D01*
X-44746549Y-217775505D01*
X-44711901Y-217789857D01*
X-44633258Y-217805500D01*
X-44548866Y-217805500D01*
X-44462523Y-217825207D01*
X-44408152Y-217863786D01*
X-43858786Y-218413151D01*
X-43811667Y-218488139D01*
X-43800500Y-218553865D01*
X-43800500Y-220938000D01*
X-43820207Y-221024343D01*
X-43875426Y-221093584D01*
X-43955218Y-221132011D01*
X-43999500Y-221137000D01*
X-45804499Y-221137000D01*
X-45843324Y-221133176D01*
X-45849999Y-221131848D01*
X-45850000Y-221131848D01*
X-45856676Y-221133176D01*
X-45856677Y-221133176D01*
X-45952617Y-221152260D01*
X-45961300Y-221156901D01*
X-45968909Y-221163146D01*
X-46017655Y-221195716D01*
X-46017657Y-221195718D01*
X-46039612Y-221210388D01*
X-46043395Y-221216050D01*
X-46068135Y-221246196D01*
X-46308154Y-221486216D01*
X-46383140Y-221533333D01*
X-46448866Y-221544500D01*
X-46483258Y-221544500D01*
X-46561901Y-221560143D01*
X-46596549Y-221574495D01*
X-46663216Y-221619042D01*
X-46780958Y-221736784D01*
X-46825505Y-221803451D01*
X-46839857Y-221838099D01*
X-46855500Y-221916742D01*
X-46855500Y-222083258D01*
X-46839857Y-222161901D01*
X-46825505Y-222196549D01*
X-46780958Y-222263216D01*
X-46663216Y-222380958D01*
X-46596549Y-222425505D01*
X-46561901Y-222439857D01*
X-46483258Y-222455500D01*
X-46316742Y-222455500D01*
X-46238099Y-222439857D01*
X-46203451Y-222425505D01*
X-46136783Y-222380958D01*
X-46136782Y-222380957D01*
X-46136779Y-222380955D01*
X-46019040Y-222263215D01*
X-45974495Y-222196549D01*
X-45960143Y-222161900D01*
X-45944500Y-222083257D01*
X-45944500Y-221948867D01*
X-45924793Y-221862524D01*
X-45886213Y-221808152D01*
X-45799345Y-221721285D01*
X-45724356Y-221674167D01*
X-45658632Y-221663000D01*
X-43495500Y-221663000D01*
X-43456677Y-221666823D01*
X-43450000Y-221668152D01*
X-43443322Y-221666823D01*
X-43404500Y-221663000D01*
X-42891366Y-221663000D01*
X-42805023Y-221682707D01*
X-42750653Y-221721285D01*
X-40953783Y-223518153D01*
X-40906666Y-223593139D01*
X-40895499Y-223658861D01*
X-40895499Y-223706498D01*
X-40895499Y-223771996D01*
X-40899324Y-223810825D01*
X-40900652Y-223817501D01*
X-40895500Y-223843401D01*
X-40880240Y-223920117D01*
X-40822112Y-224007112D01*
X-40816457Y-224010890D01*
X-40786296Y-224035642D01*
X-40763786Y-224058152D01*
X-40716667Y-224133140D01*
X-40705500Y-224198866D01*
X-40705500Y-224263000D01*
X-40725207Y-224349343D01*
X-40780426Y-224418584D01*
X-40860218Y-224457011D01*
X-40904500Y-224462000D01*
X-42015500Y-224462000D01*
X-42101843Y-224442293D01*
X-42171084Y-224387074D01*
X-42209511Y-224307282D01*
X-42214500Y-224263000D01*
X-42214500Y-224246741D01*
X-42230143Y-224168098D01*
X-42244494Y-224133452D01*
X-42289043Y-224066782D01*
X-42406782Y-223949043D01*
X-42473452Y-223904494D01*
X-42508098Y-223890143D01*
X-42586742Y-223874500D01*
X-42753258Y-223874500D01*
X-42831901Y-223890143D01*
X-42866549Y-223904495D01*
X-42933216Y-223949042D01*
X-43050958Y-224066784D01*
X-43095505Y-224133451D01*
X-43109857Y-224168099D01*
X-43125500Y-224246742D01*
X-43125500Y-224413258D01*
X-43109857Y-224491901D01*
X-43109855Y-224491903D01*
X-43109856Y-224491903D01*
X-43101596Y-224511845D01*
X-43086760Y-224599156D01*
X-43111277Y-224684259D01*
X-43170290Y-224750296D01*
X-43252112Y-224784188D01*
X-43285447Y-224787000D01*
X-43636398Y-224787000D01*
X-43722741Y-224767293D01*
X-43777112Y-224728714D01*
X-43836782Y-224669043D01*
X-43903452Y-224624494D01*
X-43938098Y-224610143D01*
X-44016742Y-224594500D01*
X-44183258Y-224594500D01*
X-44261901Y-224610143D01*
X-44296549Y-224624495D01*
X-44363216Y-224669042D01*
X-44480958Y-224786784D01*
X-44525505Y-224853451D01*
X-44539857Y-224888099D01*
X-44555500Y-224966742D01*
X-44555500Y-225133258D01*
X-44539857Y-225211901D01*
X-44525505Y-225246549D01*
X-44480958Y-225313216D01*
X-44363216Y-225430958D01*
X-44296549Y-225475505D01*
X-44261901Y-225489857D01*
X-44183258Y-225505500D01*
X-44016742Y-225505500D01*
X-43938099Y-225489857D01*
X-43903451Y-225475505D01*
X-43836784Y-225430958D01*
X-43777112Y-225371286D01*
X-43702124Y-225324167D01*
X-43636398Y-225313000D01*
X-39781366Y-225313000D01*
X-39695023Y-225332707D01*
X-39640652Y-225371286D01*
X-39351286Y-225660652D01*
X-39304167Y-225735640D01*
X-39293000Y-225801366D01*
X-39293000Y-226666398D01*
X-39312707Y-226752741D01*
X-39351286Y-226807112D01*
X-39420958Y-226876784D01*
X-39465504Y-226943449D01*
X-39479856Y-226978096D01*
X-39495500Y-227056741D01*
X-39495500Y-227223258D01*
X-39479857Y-227301901D01*
X-39465505Y-227336549D01*
X-39420958Y-227403216D01*
X-39303216Y-227520958D01*
X-39236549Y-227565505D01*
X-39201901Y-227579857D01*
X-39123258Y-227595500D01*
X-38956742Y-227595500D01*
X-38878099Y-227579857D01*
X-38843451Y-227565505D01*
X-38776784Y-227520958D01*
X-38659042Y-227403216D01*
X-38614495Y-227336549D01*
X-38600143Y-227301901D01*
X-38584500Y-227223258D01*
X-38584500Y-227056741D01*
X-38600142Y-226978101D01*
X-38600143Y-226978098D01*
X-38600143Y-226978096D01*
X-38614491Y-226943455D01*
X-38659042Y-226876781D01*
X-38708715Y-226827108D01*
X-38755833Y-226752119D01*
X-38767000Y-226686395D01*
X-38767000Y-225712681D01*
X-38747293Y-225626338D01*
X-38692074Y-225557097D01*
X-38612282Y-225518670D01*
X-38606823Y-225517505D01*
X-38596744Y-225515500D01*
X-38596742Y-225515500D01*
X-38518099Y-225499857D01*
X-38483451Y-225485505D01*
X-38416784Y-225440958D01*
X-38299042Y-225323216D01*
X-38254495Y-225256549D01*
X-38240143Y-225221901D01*
X-38224500Y-225143258D01*
X-38224500Y-224976742D01*
X-38240143Y-224898099D01*
X-38244285Y-224888099D01*
X-38254494Y-224863452D01*
X-38299043Y-224796782D01*
X-38416781Y-224679044D01*
X-38431750Y-224669042D01*
X-38483451Y-224634495D01*
X-38483453Y-224634493D01*
X-38493979Y-224627461D01*
X-38554821Y-224563104D01*
X-38581714Y-224478723D01*
X-38569333Y-224391030D01*
X-38520128Y-224317393D01*
X-38443847Y-224272397D01*
X-38383418Y-224263000D01*
X-32991366Y-224263000D01*
X-32905023Y-224282707D01*
X-32850652Y-224321286D01*
X-30313786Y-226858152D01*
X-30266667Y-226933140D01*
X-30255500Y-226998866D01*
X-30255500Y-227083258D01*
X-30239857Y-227161901D01*
X-30225505Y-227196549D01*
X-30180958Y-227263216D01*
X-30063216Y-227380958D01*
X-29996549Y-227425505D01*
X-29961901Y-227439857D01*
X-29883258Y-227455500D01*
X-29798866Y-227455500D01*
X-29712523Y-227475207D01*
X-29658152Y-227513785D01*
X-27871284Y-229300654D01*
X-27824167Y-229375640D01*
X-27813000Y-229441366D01*
X-27813000Y-236354499D01*
X-27816824Y-236393322D01*
X-27818152Y-236400000D01*
X-27816824Y-236406674D01*
X-27816824Y-236406678D01*
X-27814822Y-236416741D01*
X-27813000Y-236425900D01*
X-27813000Y-236425901D01*
X-27797740Y-236502617D01*
X-27739612Y-236589612D01*
X-27733944Y-236593398D01*
X-27703802Y-236618134D01*
X-27512148Y-236809788D01*
X-27465032Y-236884775D01*
X-27455116Y-236972781D01*
X-27484367Y-237056375D01*
X-27546991Y-237118998D01*
X-27630585Y-237148249D01*
X-27652865Y-237149500D01*
X-28522390Y-237149500D01*
X-28608733Y-237129793D01*
X-28663104Y-237091214D01*
X-33591214Y-232163104D01*
X-33638333Y-232088116D01*
X-33649500Y-232022390D01*
X-33649500Y-231369165D01*
X-33629793Y-231282822D01*
X-33615965Y-231258611D01*
X-33574495Y-231196549D01*
X-33560143Y-231161901D01*
X-33544500Y-231083258D01*
X-33544500Y-230916742D01*
X-33560143Y-230838099D01*
X-33560143Y-230838098D01*
X-33574494Y-230803452D01*
X-33619043Y-230736782D01*
X-33736782Y-230619043D01*
X-33803452Y-230574494D01*
X-33838098Y-230560143D01*
X-33916742Y-230544500D01*
X-34083258Y-230544500D01*
X-34161901Y-230560143D01*
X-34196549Y-230574495D01*
X-34258606Y-230615961D01*
X-34341343Y-230647546D01*
X-34369165Y-230649500D01*
X-49880835Y-230649500D01*
X-49967178Y-230629793D01*
X-49991388Y-230615965D01*
X-50053451Y-230574495D01*
X-50053449Y-230574495D01*
X-50053452Y-230574494D01*
X-50088098Y-230560143D01*
X-50166742Y-230544500D01*
X-50333258Y-230544500D01*
X-50411901Y-230560143D01*
X-50446549Y-230574495D01*
X-50513216Y-230619042D01*
X-50630958Y-230736784D01*
X-50675505Y-230803451D01*
X-50689857Y-230838099D01*
X-50705500Y-230916742D01*
X-50705500Y-231083258D01*
X-50689857Y-231161901D01*
X-50675505Y-231196549D01*
X-50675503Y-231196551D01*
X-50668133Y-231214345D01*
X-50653298Y-231301657D01*
X-50677815Y-231386759D01*
X-50736829Y-231452796D01*
X-50818650Y-231486688D01*
X-50851985Y-231489500D01*
X-58692477Y-231489500D01*
X-58728238Y-231485655D01*
X-58730728Y-231485833D01*
X-58730729Y-231485833D01*
X-58767267Y-231488446D01*
X-58774910Y-231488993D01*
X-58789106Y-231489500D01*
X-58799015Y-231489500D01*
X-58808817Y-231490909D01*
X-58822929Y-231492427D01*
X-58869607Y-231495766D01*
X-58898073Y-231503032D01*
X-58940607Y-231522456D01*
X-58953725Y-231527890D01*
X-58997556Y-231544239D01*
X-59022837Y-231559239D01*
X-59058184Y-231589867D01*
X-59069237Y-231598775D01*
X-59077181Y-231604722D01*
X-59084183Y-231611724D01*
X-59094580Y-231621405D01*
X-59129943Y-231652047D01*
X-59152510Y-231680051D01*
X-64338673Y-236866214D01*
X-64413661Y-236913333D01*
X-64479387Y-236924500D01*
X-74434011Y-236924500D01*
X-74535342Y-236939069D01*
X-74659718Y-236995870D01*
X-74763055Y-237085411D01*
X-74763056Y-237085413D01*
X-74836977Y-237200437D01*
X-74872727Y-237322190D01*
X-74875500Y-237331633D01*
X-74875500Y-237468367D01*
X-74836978Y-237599561D01*
X-74763055Y-237714589D01*
X-74659718Y-237804130D01*
X-74535342Y-237860931D01*
X-74434011Y-237875500D01*
X-64272523Y-237875500D01*
X-64236762Y-237879344D01*
X-64234274Y-237879166D01*
X-64234271Y-237879167D01*
X-64192162Y-237876154D01*
X-64190094Y-237876007D01*
X-64175897Y-237875500D01*
X-64165991Y-237875500D01*
X-64165989Y-237875500D01*
X-64156167Y-237874087D01*
X-64142050Y-237872570D01*
X-64097885Y-237869411D01*
X-64097883Y-237869410D01*
X-64095390Y-237869232D01*
X-64066929Y-237861968D01*
X-64064656Y-237860930D01*
X-64024382Y-237842537D01*
X-64011283Y-237837110D01*
X-63969774Y-237821629D01*
X-63969772Y-237821627D01*
X-63967435Y-237820756D01*
X-63942173Y-237805768D01*
X-63940283Y-237804130D01*
X-63940282Y-237804130D01*
X-63906808Y-237775124D01*
X-63895777Y-237766236D01*
X-63887820Y-237760279D01*
X-63880808Y-237753268D01*
X-63870411Y-237743587D01*
X-63869415Y-237742724D01*
X-63836945Y-237714589D01*
X-63836944Y-237714587D01*
X-63835060Y-237712955D01*
X-63812490Y-237684949D01*
X-61127541Y-235000000D01*
X-56605449Y-235000000D01*
X-56585683Y-235251148D01*
X-56526873Y-235496111D01*
X-56430466Y-235728859D01*
X-56298836Y-235943659D01*
X-56135224Y-236135224D01*
X-55943659Y-236298836D01*
X-55728859Y-236430466D01*
X-55496111Y-236526873D01*
X-55251148Y-236585683D01*
X-55062882Y-236600500D01*
X-55058972Y-236600500D01*
X-54941028Y-236600500D01*
X-54937118Y-236600500D01*
X-54748852Y-236585683D01*
X-54503889Y-236526873D01*
X-54271141Y-236430466D01*
X-54056341Y-236298836D01*
X-53864776Y-236135224D01*
X-53701164Y-235943659D01*
X-53569534Y-235728859D01*
X-53569533Y-235728857D01*
X-53473127Y-235496112D01*
X-53414317Y-235251149D01*
X-53394551Y-235000000D01*
X-53414317Y-234748850D01*
X-53473127Y-234503887D01*
X-53569533Y-234271142D01*
X-53701164Y-234056341D01*
X-53864776Y-233864776D01*
X-54056341Y-233701164D01*
X-54271142Y-233569533D01*
X-54503887Y-233473127D01*
X-54748850Y-233414317D01*
X-54933226Y-233399806D01*
X-54933233Y-233399805D01*
X-54937118Y-233399500D01*
X-55062882Y-233399500D01*
X-55066767Y-233399805D01*
X-55066773Y-233399806D01*
X-55251149Y-233414317D01*
X-55496112Y-233473127D01*
X-55728857Y-233569533D01*
X-55728859Y-233569534D01*
X-55943659Y-233701164D01*
X-56135224Y-233864776D01*
X-56298836Y-234056341D01*
X-56430466Y-234271141D01*
X-56526873Y-234503889D01*
X-56585683Y-234748852D01*
X-56605449Y-235000000D01*
X-61127541Y-235000000D01*
X-58626327Y-232498786D01*
X-58551339Y-232451667D01*
X-58485613Y-232440500D01*
X-49449000Y-232440500D01*
X-49362657Y-232460207D01*
X-49293416Y-232515426D01*
X-49254989Y-232595218D01*
X-49250000Y-232639500D01*
X-49250000Y-238179180D01*
X-49269707Y-238265523D01*
X-49324926Y-238334764D01*
X-49404718Y-238373191D01*
X-49449000Y-238378180D01*
X-76994793Y-238378180D01*
X-77005209Y-238377907D01*
X-77133382Y-238371189D01*
X-77310102Y-238361264D01*
X-77330070Y-238359127D01*
X-77475629Y-238336074D01*
X-77611233Y-238313034D01*
X-77631858Y-238309530D01*
X-77650011Y-238305564D01*
X-77796701Y-238266259D01*
X-77879139Y-238242509D01*
X-77946094Y-238223220D01*
X-77962263Y-238217797D01*
X-78103748Y-238163485D01*
X-78108587Y-238161555D01*
X-78249030Y-238103381D01*
X-78263219Y-238096839D01*
X-78398906Y-238027703D01*
X-78404821Y-238024563D01*
X-78537221Y-237951389D01*
X-78549345Y-237944114D01*
X-78677423Y-237860939D01*
X-78684196Y-237856340D01*
X-78807209Y-237769057D01*
X-78817287Y-237761414D01*
X-78936141Y-237665169D01*
X-78943510Y-237658899D01*
X-79055853Y-237558503D01*
X-79063964Y-237550834D01*
X-79172154Y-237442644D01*
X-79179823Y-237434533D01*
X-79280219Y-237322190D01*
X-79286489Y-237314821D01*
X-79382734Y-237195967D01*
X-79390377Y-237185889D01*
X-79477660Y-237062876D01*
X-79482259Y-237056103D01*
X-79565434Y-236928025D01*
X-79572709Y-236915901D01*
X-79645883Y-236783501D01*
X-79649023Y-236777586D01*
X-79718159Y-236641899D01*
X-79724701Y-236627710D01*
X-79782875Y-236487267D01*
X-79784805Y-236482428D01*
X-79839109Y-236340963D01*
X-79844549Y-236324738D01*
X-79887578Y-236175383D01*
X-79914614Y-236074489D01*
X-79926893Y-236028661D01*
X-79930847Y-236010550D01*
X-79957394Y-235854311D01*
X-79980450Y-235708743D01*
X-79982584Y-235688788D01*
X-79992509Y-235512062D01*
X-79999227Y-235383887D01*
X-79999500Y-235373473D01*
X-79999500Y-233383258D01*
X-65455500Y-233383258D01*
X-65439857Y-233461901D01*
X-65425505Y-233496549D01*
X-65380958Y-233563216D01*
X-65263216Y-233680958D01*
X-65196549Y-233725505D01*
X-65161901Y-233739857D01*
X-65083258Y-233755500D01*
X-64916742Y-233755500D01*
X-64838099Y-233739857D01*
X-64803451Y-233725505D01*
X-64736784Y-233680958D01*
X-64710392Y-233654566D01*
X-64688936Y-233635974D01*
X-64591745Y-233563217D01*
X-64587820Y-233560279D01*
X-53915051Y-222887510D01*
X-53887047Y-222864943D01*
X-53856405Y-222829580D01*
X-53846724Y-222819183D01*
X-53839722Y-222812181D01*
X-53833775Y-222804237D01*
X-53824867Y-222793184D01*
X-53794236Y-222757833D01*
X-53779242Y-222732563D01*
X-53762901Y-222688748D01*
X-53757463Y-222675620D01*
X-53738033Y-222633076D01*
X-53730766Y-222604604D01*
X-53727427Y-222557940D01*
X-53725912Y-222543841D01*
X-53724500Y-222534014D01*
X-53724500Y-222524102D01*
X-53723993Y-222509904D01*
X-53720655Y-222463238D01*
X-53724500Y-222427479D01*
X-53724500Y-218083258D01*
X-50655500Y-218083258D01*
X-50639857Y-218161901D01*
X-50625505Y-218196549D01*
X-50580958Y-218263216D01*
X-50521287Y-218322887D01*
X-50521286Y-218322888D01*
X-50474167Y-218397876D01*
X-50463000Y-218463602D01*
X-50463000Y-219254499D01*
X-50466824Y-219293322D01*
X-50468152Y-219300000D01*
X-50463000Y-219325900D01*
X-50463000Y-219325901D01*
X-50447740Y-219402617D01*
X-50389612Y-219489612D01*
X-50383944Y-219493398D01*
X-50353797Y-219518139D01*
X-49820875Y-220051062D01*
X-49413785Y-220458152D01*
X-49366666Y-220533141D01*
X-49355499Y-220598866D01*
X-49355499Y-220683258D01*
X-49339858Y-220761895D01*
X-49325507Y-220796543D01*
X-49280959Y-220863215D01*
X-49163217Y-220980958D01*
X-49096549Y-221025505D01*
X-49061901Y-221039857D01*
X-48983258Y-221055500D01*
X-48816742Y-221055500D01*
X-48738099Y-221039857D01*
X-48703451Y-221025505D01*
X-48636783Y-220980958D01*
X-48636782Y-220980957D01*
X-48636779Y-220980955D01*
X-48519040Y-220863215D01*
X-48474495Y-220796549D01*
X-48460143Y-220761900D01*
X-48444500Y-220683257D01*
X-48444500Y-220516741D01*
X-48460143Y-220438098D01*
X-48474494Y-220403452D01*
X-48519043Y-220336782D01*
X-48636782Y-220219043D01*
X-48703452Y-220174494D01*
X-48738098Y-220160143D01*
X-48816742Y-220144500D01*
X-48901134Y-220144500D01*
X-48987477Y-220124793D01*
X-49041848Y-220086214D01*
X-49878713Y-219249347D01*
X-49925832Y-219174358D01*
X-49936999Y-219108633D01*
X-49936999Y-218463601D01*
X-49917292Y-218377258D01*
X-49878713Y-218322887D01*
X-49819043Y-218263217D01*
X-49816815Y-218259883D01*
X-49774495Y-218196549D01*
X-49773789Y-218194846D01*
X-49760143Y-218161901D01*
X-49744500Y-218083258D01*
X-49744500Y-217916741D01*
X-49760143Y-217838098D01*
X-49774494Y-217803452D01*
X-49819043Y-217736782D01*
X-49936782Y-217619043D01*
X-50003452Y-217574494D01*
X-50038098Y-217560143D01*
X-50116742Y-217544500D01*
X-50283258Y-217544500D01*
X-50361901Y-217560143D01*
X-50396549Y-217574495D01*
X-50463216Y-217619042D01*
X-50580958Y-217736784D01*
X-50625505Y-217803451D01*
X-50639857Y-217838099D01*
X-50655500Y-217916742D01*
X-50655500Y-218083258D01*
X-53724500Y-218083258D01*
X-53724500Y-214165991D01*
X-53725558Y-214158634D01*
X-53739069Y-214064658D01*
X-53795870Y-213940282D01*
X-53885411Y-213836945D01*
X-53885411Y-213836944D01*
X-53885413Y-213836943D01*
X-54000437Y-213763022D01*
X-54131633Y-213724500D01*
X-54268367Y-213724500D01*
X-54399562Y-213763022D01*
X-54496788Y-213825505D01*
X-54514589Y-213836945D01*
X-54604130Y-213940282D01*
X-54660931Y-214064658D01*
X-54675500Y-214165989D01*
X-54675499Y-218235500D01*
X-54675499Y-222220613D01*
X-54695206Y-222306956D01*
X-54733784Y-222361326D01*
X-61479530Y-229107071D01*
X-65260278Y-232887819D01*
X-65335974Y-232988936D01*
X-65354566Y-233010392D01*
X-65380958Y-233036784D01*
X-65425505Y-233103451D01*
X-65439857Y-233138099D01*
X-65455500Y-233216742D01*
X-65455500Y-233383258D01*
X-79999500Y-233383258D01*
X-79999500Y-218453258D01*
X-63145500Y-218453258D01*
X-63129857Y-218531901D01*
X-63115505Y-218566549D01*
X-63070958Y-218633216D01*
X-62953216Y-218750958D01*
X-62886549Y-218795505D01*
X-62851901Y-218809857D01*
X-62773258Y-218825500D01*
X-62606742Y-218825500D01*
X-62528099Y-218809857D01*
X-62493451Y-218795505D01*
X-62426784Y-218750958D01*
X-62309042Y-218633216D01*
X-62264495Y-218566549D01*
X-62250143Y-218531901D01*
X-62238116Y-218471437D01*
X-62234499Y-218453256D01*
X-62234499Y-218421895D01*
X-62214790Y-218335553D01*
X-62176215Y-218281187D01*
X-62140670Y-218245641D01*
X-62065682Y-218198521D01*
X-61977676Y-218188604D01*
X-61923798Y-218202502D01*
X-61916550Y-218205503D01*
X-61916549Y-218205505D01*
X-61881901Y-218219857D01*
X-61803258Y-218235500D01*
X-61636742Y-218235500D01*
X-61558099Y-218219857D01*
X-61523451Y-218205505D01*
X-61456784Y-218160958D01*
X-61339042Y-218043216D01*
X-61294495Y-217976549D01*
X-61280143Y-217941901D01*
X-61280142Y-217941900D01*
X-61274018Y-217927114D01*
X-61222769Y-217854886D01*
X-61145255Y-217812047D01*
X-61056831Y-217807082D01*
X-60975010Y-217840975D01*
X-60924708Y-217892706D01*
X-60890958Y-217943216D01*
X-60831285Y-218002888D01*
X-60784168Y-218077874D01*
X-60773000Y-218143601D01*
X-60773000Y-219968633D01*
X-60792707Y-220054976D01*
X-60831286Y-220109347D01*
X-61778152Y-221056214D01*
X-61853140Y-221103333D01*
X-61918866Y-221114500D01*
X-62003258Y-221114500D01*
X-62081901Y-221130143D01*
X-62116549Y-221144495D01*
X-62183216Y-221189042D01*
X-62300958Y-221306784D01*
X-62345505Y-221373451D01*
X-62359857Y-221408099D01*
X-62375500Y-221486742D01*
X-62375500Y-221653258D01*
X-62359857Y-221731901D01*
X-62345505Y-221766549D01*
X-62300958Y-221833216D01*
X-62183216Y-221950958D01*
X-62116549Y-221995505D01*
X-62081901Y-222009857D01*
X-62003258Y-222025500D01*
X-61836742Y-222025500D01*
X-61758099Y-222009857D01*
X-61723451Y-221995505D01*
X-61656784Y-221950958D01*
X-61539042Y-221833216D01*
X-61494495Y-221766549D01*
X-61480143Y-221731901D01*
X-61464500Y-221653258D01*
X-61464500Y-221568866D01*
X-61444793Y-221482523D01*
X-61406214Y-221428152D01*
X-60356204Y-220378142D01*
X-60326049Y-220353394D01*
X-60320388Y-220349612D01*
X-60320387Y-220349611D01*
X-60291413Y-220330252D01*
X-60270608Y-220310582D01*
X-60186228Y-220283686D01*
X-60098534Y-220296066D01*
X-60024896Y-220345269D01*
X-59979898Y-220421549D01*
X-59970500Y-220481982D01*
X-59970500Y-220952390D01*
X-59990207Y-221038733D01*
X-60028786Y-221093104D01*
X-60201896Y-221266214D01*
X-60276884Y-221313333D01*
X-60342610Y-221324500D01*
X-60363258Y-221324500D01*
X-60441901Y-221340143D01*
X-60463587Y-221349126D01*
X-60476549Y-221354495D01*
X-60543216Y-221399042D01*
X-60660958Y-221516784D01*
X-60705505Y-221583451D01*
X-60719857Y-221618099D01*
X-60735500Y-221696742D01*
X-60735500Y-221863258D01*
X-60719857Y-221941901D01*
X-60705505Y-221976549D01*
X-60660958Y-222043216D01*
X-60543216Y-222160958D01*
X-60476549Y-222205505D01*
X-60441901Y-222219857D01*
X-60363258Y-222235500D01*
X-60196742Y-222235500D01*
X-60118099Y-222219857D01*
X-60083451Y-222205505D01*
X-60016784Y-222160958D01*
X-59899042Y-222043216D01*
X-59854495Y-221976549D01*
X-59840143Y-221941901D01*
X-59840142Y-221941900D01*
X-59832642Y-221923792D01*
X-59831780Y-221924148D01*
X-59804306Y-221862750D01*
X-59786017Y-221841699D01*
X-59412455Y-221468137D01*
X-59380585Y-221442256D01*
X-59379331Y-221441437D01*
X-59364356Y-221422198D01*
X-59353396Y-221409787D01*
X-59341338Y-221392900D01*
X-59336426Y-221386314D01*
X-59302894Y-221343231D01*
X-59287317Y-221290912D01*
X-59284809Y-221283082D01*
X-59267074Y-221231421D01*
X-59269330Y-221176879D01*
X-59269500Y-221168655D01*
X-59269500Y-218609165D01*
X-59249793Y-218522822D01*
X-59235965Y-218498611D01*
X-59194495Y-218436549D01*
X-59180143Y-218401901D01*
X-59164500Y-218323258D01*
X-59164500Y-218156742D01*
X-59174437Y-218106782D01*
X-59180143Y-218078098D01*
X-59194494Y-218043452D01*
X-59239043Y-217976782D01*
X-59356782Y-217859043D01*
X-59423452Y-217814494D01*
X-59458098Y-217800143D01*
X-59536742Y-217784500D01*
X-59703258Y-217784500D01*
X-59781901Y-217800143D01*
X-59781902Y-217800143D01*
X-59801124Y-217803967D01*
X-59801351Y-217802823D01*
X-59866656Y-217813920D01*
X-59951759Y-217789403D01*
X-60017796Y-217730390D01*
X-60051688Y-217648568D01*
X-60054500Y-217615233D01*
X-60054500Y-217596743D01*
X-60057144Y-217583451D01*
X-60063115Y-217553430D01*
X-60070142Y-217518098D01*
X-60084493Y-217483451D01*
X-60129040Y-217416784D01*
X-60246783Y-217299041D01*
X-60313450Y-217254495D01*
X-60348099Y-217240143D01*
X-60426742Y-217224500D01*
X-60593258Y-217224500D01*
X-60671901Y-217240143D01*
X-60702015Y-217252617D01*
X-60706549Y-217254495D01*
X-60773216Y-217299042D01*
X-60890958Y-217416784D01*
X-60935505Y-217483451D01*
X-60949857Y-217518099D01*
X-60949857Y-217518101D01*
X-60955980Y-217532883D01*
X-61007229Y-217605112D01*
X-61084742Y-217647952D01*
X-61173166Y-217652917D01*
X-61254988Y-217619025D01*
X-61305291Y-217567293D01*
X-61339042Y-217516783D01*
X-61456782Y-217399043D01*
X-61523452Y-217354494D01*
X-61558098Y-217340143D01*
X-61636742Y-217324500D01*
X-61803258Y-217324500D01*
X-61881901Y-217340143D01*
X-61916037Y-217354283D01*
X-61916549Y-217354495D01*
X-61983217Y-217399042D01*
X-61983218Y-217399043D01*
X-61983219Y-217399044D01*
X-62005389Y-217421214D01*
X-62080377Y-217468333D01*
X-62110237Y-217473406D01*
X-62109732Y-217476114D01*
X-62121147Y-217478247D01*
X-62148506Y-217481421D01*
X-62170801Y-217482452D01*
X-62209738Y-217494510D01*
X-62210430Y-217494938D01*
X-62210433Y-217494939D01*
X-62228723Y-217506263D01*
X-62253086Y-217519104D01*
X-62272765Y-217527794D01*
X-62273512Y-217528124D01*
X-62305460Y-217553430D01*
X-62305951Y-217554080D01*
X-62305952Y-217554081D01*
X-62315929Y-217567293D01*
X-62318908Y-217571238D01*
X-62337001Y-217592030D01*
X-62601185Y-217856214D01*
X-62676173Y-217903333D01*
X-62741899Y-217914500D01*
X-62773258Y-217914500D01*
X-62851901Y-217930143D01*
X-62883461Y-217943216D01*
X-62886549Y-217944495D01*
X-62953216Y-217989042D01*
X-63070958Y-218106784D01*
X-63115505Y-218173451D01*
X-63129857Y-218208099D01*
X-63145500Y-218286742D01*
X-63145500Y-218453258D01*
X-79999500Y-218453258D01*
X-79999500Y-214000000D01*
X-77605449Y-214000000D01*
X-77585683Y-214251148D01*
X-77526873Y-214496111D01*
X-77430466Y-214728859D01*
X-77298836Y-214943659D01*
X-77135224Y-215135224D01*
X-76943659Y-215298836D01*
X-76728859Y-215430466D01*
X-76496111Y-215526873D01*
X-76251148Y-215585683D01*
X-76062882Y-215600500D01*
X-76058972Y-215600500D01*
X-75941028Y-215600500D01*
X-75937118Y-215600500D01*
X-75748852Y-215585683D01*
X-75503889Y-215526873D01*
X-75271141Y-215430466D01*
X-75056341Y-215298836D01*
X-74864776Y-215135224D01*
X-74701164Y-214943659D01*
X-74569534Y-214728859D01*
X-74502964Y-214568144D01*
X-74473127Y-214496112D01*
X-74414317Y-214251149D01*
X-74394551Y-213999999D01*
X-74414317Y-213748850D01*
X-74473127Y-213503887D01*
X-74569533Y-213271142D01*
X-74701164Y-213056341D01*
X-74864776Y-212864776D01*
X-75056341Y-212701164D01*
X-75271142Y-212569533D01*
X-75503887Y-212473127D01*
X-75748850Y-212414317D01*
X-75933226Y-212399806D01*
X-75933233Y-212399805D01*
X-75937118Y-212399500D01*
X-76062882Y-212399500D01*
X-76066767Y-212399805D01*
X-76066773Y-212399806D01*
X-76251149Y-212414317D01*
X-76496112Y-212473127D01*
X-76728857Y-212569533D01*
X-76728859Y-212569534D01*
X-76943659Y-212701164D01*
X-77135224Y-212864776D01*
X-77298836Y-213056341D01*
X-77430466Y-213271141D01*
X-77526873Y-213503889D01*
X-77585683Y-213748852D01*
X-77605449Y-214000000D01*
X-79999500Y-214000000D01*
X-79999500Y-213005207D01*
X-79999227Y-212994791D01*
X-79992509Y-212866617D01*
X-79982584Y-212689896D01*
X-79980447Y-212669928D01*
X-79957394Y-212524370D01*
X-79938696Y-212414317D01*
X-79930848Y-212368130D01*
X-79926884Y-212349986D01*
X-79887579Y-212203297D01*
X-79878436Y-212171563D01*
X-79844538Y-212053898D01*
X-79839117Y-212037735D01*
X-79784805Y-211896250D01*
X-79782875Y-211891411D01*
X-79724701Y-211750968D01*
X-79718159Y-211736779D01*
X-79649023Y-211601092D01*
X-79645883Y-211595177D01*
X-79572709Y-211462777D01*
X-79565434Y-211450653D01*
X-79482259Y-211322575D01*
X-79477660Y-211315802D01*
X-79390377Y-211192789D01*
X-79382734Y-211182711D01*
X-79382042Y-211181856D01*
X-79286467Y-211063831D01*
X-79280219Y-211056488D01*
X-79179823Y-210944145D01*
X-79172154Y-210936034D01*
X-79063964Y-210827844D01*
X-79055853Y-210820175D01*
X-78943510Y-210719779D01*
X-78936175Y-210713538D01*
X-78817277Y-210617256D01*
X-78807209Y-210609621D01*
X-78684196Y-210522338D01*
X-78677423Y-210517739D01*
X-78549336Y-210434559D01*
X-78537221Y-210427289D01*
X-78404821Y-210354115D01*
X-78398906Y-210350975D01*
X-78263219Y-210281839D01*
X-78249042Y-210275302D01*
X-78108529Y-210217100D01*
X-78103780Y-210215206D01*
X-77962265Y-210160882D01*
X-77946079Y-210155455D01*
X-77796693Y-210112418D01*
X-77649956Y-210073099D01*
X-77631876Y-210069152D01*
X-77475647Y-210042608D01*
X-77330038Y-210019546D01*
X-77310125Y-210017415D01*
X-77133571Y-210007500D01*
X-77005209Y-210000773D01*
X-76994796Y-210000500D01*
X-70091249Y-210000500D01*
X-66790650Y-210000500D01*
X-66704307Y-210020207D01*
G37*
%TD.AperFunction*%
%TA.AperFunction,Conductor*%
G36*
X-2994790Y-210000773D02*
G01*
X-2866566Y-210007493D01*
X-2689883Y-210017415D01*
X-2669939Y-210019549D01*
X-2524284Y-210042618D01*
X-2368099Y-210069156D01*
X-2350017Y-210073106D01*
X-2203266Y-210112428D01*
X-2053842Y-210155478D01*
X-2037775Y-210160867D01*
X-1896165Y-210215226D01*
X-1891522Y-210217078D01*
X-1750938Y-210275310D01*
X-1736800Y-210281829D01*
X-1601059Y-210350992D01*
X-1595183Y-210354111D01*
X-1462754Y-210427302D01*
X-1450687Y-210434543D01*
X-1322520Y-210517776D01*
X-1315857Y-210522300D01*
X-1192767Y-210609637D01*
X-1182751Y-210617232D01*
X-1063782Y-210713572D01*
X-1056538Y-210719735D01*
X-944107Y-210820210D01*
X-936070Y-210827809D01*
X-827809Y-210936070D01*
X-820210Y-210944107D01*
X-719735Y-211056538D01*
X-713572Y-211063782D01*
X-617232Y-211182751D01*
X-609637Y-211192767D01*
X-522300Y-211315857D01*
X-517776Y-211322520D01*
X-434543Y-211450687D01*
X-427302Y-211462754D01*
X-361975Y-211580956D01*
X-354115Y-211595177D01*
X-350991Y-211601060D01*
X-281829Y-211736800D01*
X-275310Y-211750938D01*
X-217078Y-211891522D01*
X-215226Y-211896165D01*
X-160877Y-212037748D01*
X-155457Y-212053913D01*
X-112426Y-212203275D01*
X-73097Y-212350052D01*
X-69153Y-212368119D01*
X-42609Y-212524345D01*
X-19545Y-212669965D01*
X-17416Y-212689870D01*
X-7490Y-212866617D01*
X-7490Y-212866618D01*
X-773Y-212994790D01*
X-500Y-213005203D01*
X-500Y-235373475D01*
X-773Y-235383887D01*
X-7490Y-235512062D01*
X-17415Y-235688788D01*
X-19550Y-235708743D01*
X-41717Y-235848706D01*
X-42601Y-235854286D01*
X-69155Y-236010575D01*
X-73109Y-236028671D01*
X-112421Y-236175383D01*
X-155476Y-236324830D01*
X-160872Y-236340918D01*
X-215193Y-236482428D01*
X-217100Y-236487209D01*
X-275302Y-236627722D01*
X-281839Y-236641899D01*
X-350975Y-236777586D01*
X-354115Y-236783501D01*
X-427289Y-236915901D01*
X-434559Y-236928016D01*
X-517739Y-237056103D01*
X-522338Y-237062876D01*
X-609621Y-237185889D01*
X-617256Y-237195957D01*
X-713538Y-237314855D01*
X-719779Y-237322190D01*
X-820175Y-237434533D01*
X-827844Y-237442644D01*
X-936034Y-237550834D01*
X-944145Y-237558503D01*
X-1056488Y-237658899D01*
X-1063831Y-237665147D01*
X-1182711Y-237761414D01*
X-1192789Y-237769057D01*
X-1315802Y-237856340D01*
X-1322575Y-237860939D01*
X-1450653Y-237944114D01*
X-1462777Y-237951389D01*
X-1595177Y-238024563D01*
X-1601092Y-238027703D01*
X-1736779Y-238096839D01*
X-1750968Y-238103381D01*
X-1891411Y-238161555D01*
X-1896250Y-238163485D01*
X-2037715Y-238217789D01*
X-2053940Y-238223229D01*
X-2203296Y-238266258D01*
X-2258004Y-238280918D01*
X-2350027Y-238305575D01*
X-2368128Y-238309527D01*
X-2524368Y-238336074D01*
X-2587287Y-238346039D01*
X-2669944Y-238359131D01*
X-2689890Y-238361264D01*
X-2866617Y-238371189D01*
X-2994793Y-238377907D01*
X-3005207Y-238378180D01*
X-33550382Y-238378180D01*
X-33636725Y-238358473D01*
X-33705966Y-238303254D01*
X-33744393Y-238223462D01*
X-33749375Y-238177464D01*
X-33748869Y-238118859D01*
X-33733543Y-236340963D01*
X-33709182Y-233515203D01*
X-33688731Y-233429034D01*
X-33632918Y-233360271D01*
X-33552797Y-233322534D01*
X-33464236Y-233323297D01*
X-33384778Y-233362410D01*
X-33369485Y-233376195D01*
X-29038135Y-237707545D01*
X-29012256Y-237739415D01*
X-29011437Y-237740669D01*
X-29004930Y-237745733D01*
X-28992216Y-237755629D01*
X-28979787Y-237766604D01*
X-28977308Y-237768373D01*
X-28977307Y-237768375D01*
X-28968697Y-237774521D01*
X-28962916Y-237778649D01*
X-28956326Y-237783561D01*
X-28919126Y-237812517D01*
X-28919124Y-237812517D01*
X-28913228Y-237817107D01*
X-28860913Y-237832681D01*
X-28853081Y-237835189D01*
X-28808488Y-237850500D01*
X-28808485Y-237850500D01*
X-28801422Y-237852925D01*
X-28793956Y-237852616D01*
X-28793954Y-237852617D01*
X-28746879Y-237850670D01*
X-28738656Y-237850500D01*
X-25556988Y-237850500D01*
X-25516157Y-237854734D01*
X-25514685Y-237855043D01*
X-25492802Y-237852315D01*
X-25490498Y-237852028D01*
X-25473963Y-237851001D01*
X-25470961Y-237850500D01*
X-25470960Y-237850500D01*
X-25464525Y-237849426D01*
X-25453521Y-237847590D01*
X-25445398Y-237846405D01*
X-25398607Y-237840573D01*
X-25398605Y-237840572D01*
X-25391190Y-237839648D01*
X-25382960Y-237835194D01*
X-25343149Y-237813649D01*
X-25335904Y-237809919D01*
X-25293516Y-237789198D01*
X-25293514Y-237789196D01*
X-25286802Y-237785915D01*
X-25249811Y-237745733D01*
X-25244117Y-237739799D01*
X-18792455Y-231288137D01*
X-18760585Y-231262256D01*
X-18759331Y-231261437D01*
X-18744356Y-231242198D01*
X-18733393Y-231229784D01*
X-18721343Y-231212907D01*
X-18716429Y-231206318D01*
X-18682892Y-231163229D01*
X-18667314Y-231110903D01*
X-18664805Y-231103073D01*
X-18647074Y-231051423D01*
X-18649330Y-230996877D01*
X-18649500Y-230988655D01*
X-18649500Y-221619165D01*
X-18629793Y-221532822D01*
X-18615965Y-221508611D01*
X-18574495Y-221446549D01*
X-18566874Y-221428152D01*
X-18560143Y-221411901D01*
X-18544500Y-221333258D01*
X-18544500Y-221166741D01*
X-18560143Y-221088098D01*
X-18574494Y-221053452D01*
X-18619043Y-220986782D01*
X-18736782Y-220869043D01*
X-18803452Y-220824494D01*
X-18838098Y-220810143D01*
X-18916742Y-220794500D01*
X-19083258Y-220794500D01*
X-19161901Y-220810143D01*
X-19196549Y-220824495D01*
X-19263216Y-220869042D01*
X-19380958Y-220986784D01*
X-19425505Y-221053451D01*
X-19439857Y-221088099D01*
X-19455500Y-221166742D01*
X-19455500Y-221333258D01*
X-19439857Y-221411901D01*
X-19425505Y-221446549D01*
X-19384038Y-221508606D01*
X-19352453Y-221591344D01*
X-19350499Y-221619165D01*
X-19350499Y-230772393D01*
X-19370206Y-230858732D01*
X-19408785Y-230913103D01*
X-24853958Y-236358276D01*
X-24928946Y-236405395D01*
X-25016953Y-236415311D01*
X-25100546Y-236386060D01*
X-25163170Y-236323436D01*
X-25170087Y-236310048D01*
X-25174488Y-236303461D01*
X-25174489Y-236303459D01*
X-25219038Y-236236787D01*
X-25219037Y-236236787D01*
X-25219040Y-236236784D01*
X-25336782Y-236119042D01*
X-25403460Y-236074489D01*
X-25438106Y-236060139D01*
X-25516741Y-236044500D01*
X-25516742Y-236044500D01*
X-25683258Y-236044500D01*
X-25761904Y-236060144D01*
X-25796549Y-236074495D01*
X-25796551Y-236074496D01*
X-25796550Y-236074496D01*
X-25863215Y-236119041D01*
X-25954788Y-236210613D01*
X-26029775Y-236257730D01*
X-26117782Y-236267646D01*
X-26201375Y-236238395D01*
X-26263999Y-236175771D01*
X-26293249Y-236092177D01*
X-26294500Y-236069897D01*
X-26294500Y-235966741D01*
X-26310143Y-235888098D01*
X-26324494Y-235853452D01*
X-26369044Y-235786781D01*
X-26428715Y-235727110D01*
X-26475833Y-235652121D01*
X-26487000Y-235586397D01*
X-26487000Y-232413602D01*
X-26467293Y-232327259D01*
X-26428714Y-232272888D01*
X-26369043Y-232213217D01*
X-26335557Y-232163104D01*
X-26324495Y-232146549D01*
X-26310143Y-232111901D01*
X-26294500Y-232033258D01*
X-26294500Y-231866742D01*
X-26300197Y-231838098D01*
X-26310143Y-231788098D01*
X-26324494Y-231753452D01*
X-26369043Y-231686782D01*
X-26428714Y-231627112D01*
X-26475833Y-231552124D01*
X-26487000Y-231486398D01*
X-26487000Y-229370715D01*
X-26483176Y-229331890D01*
X-26481847Y-229325213D01*
X-26502259Y-229222597D01*
X-26529317Y-229182102D01*
X-26529319Y-229182098D01*
X-26560390Y-229135599D01*
X-26566057Y-229131813D01*
X-26596204Y-229107071D01*
X-33057070Y-222646205D01*
X-33081814Y-222616056D01*
X-33085600Y-222610389D01*
X-33172598Y-222552259D01*
X-33249313Y-222537000D01*
X-33275213Y-222531847D01*
X-33279836Y-222532767D01*
X-33281892Y-222533176D01*
X-33320715Y-222537000D01*
X-35508633Y-222537000D01*
X-35594976Y-222517293D01*
X-35649347Y-222478714D01*
X-40961291Y-217166769D01*
X-41008410Y-217091781D01*
X-41018326Y-217003774D01*
X-40989075Y-216920181D01*
X-40931141Y-216860597D01*
X-40886784Y-216830958D01*
X-40769042Y-216713216D01*
X-40724495Y-216646549D01*
X-40710143Y-216611901D01*
X-40694500Y-216533258D01*
X-40694500Y-216448866D01*
X-40674793Y-216362523D01*
X-40636214Y-216308152D01*
X-40499348Y-216171286D01*
X-40424360Y-216124167D01*
X-40358634Y-216113000D01*
X-36829626Y-216113000D01*
X-36743283Y-216132707D01*
X-36688912Y-216171286D01*
X-36662815Y-216197382D01*
X-36651348Y-216208849D01*
X-36584680Y-216253396D01*
X-36550032Y-216267748D01*
X-36471389Y-216283391D01*
X-36304873Y-216283391D01*
X-36226230Y-216267748D01*
X-36191582Y-216253396D01*
X-36124914Y-216208849D01*
X-36124913Y-216208848D01*
X-36124910Y-216208846D01*
X-36007171Y-216091106D01*
X-35962626Y-216024440D01*
X-35948274Y-215989791D01*
X-35932631Y-215911148D01*
X-35932631Y-215744632D01*
X-35948274Y-215665989D01*
X-35962625Y-215631343D01*
X-36007174Y-215564673D01*
X-36124913Y-215446934D01*
X-36191583Y-215402385D01*
X-36226229Y-215388034D01*
X-36304873Y-215372391D01*
X-36471389Y-215372391D01*
X-36550032Y-215388034D01*
X-36584680Y-215402386D01*
X-36626704Y-215430466D01*
X-36651348Y-215446933D01*
X-36733128Y-215528714D01*
X-36808116Y-215575832D01*
X-36873843Y-215587000D01*
X-40504500Y-215587000D01*
X-40543322Y-215583176D01*
X-40544996Y-215582843D01*
X-40550001Y-215581847D01*
X-40652617Y-215602259D01*
X-40717654Y-215645716D01*
X-40720973Y-215647934D01*
X-40739612Y-215660388D01*
X-40743394Y-215666049D01*
X-40768142Y-215696204D01*
X-41008152Y-215936214D01*
X-41083140Y-215983333D01*
X-41148866Y-215994500D01*
X-41233258Y-215994500D01*
X-41311901Y-216010143D01*
X-41346416Y-216024440D01*
X-41346549Y-216024495D01*
X-41413216Y-216069042D01*
X-41530958Y-216186784D01*
X-41575505Y-216253451D01*
X-41589857Y-216288099D01*
X-41591859Y-216298166D01*
X-41628029Y-216379003D01*
X-41695693Y-216436143D01*
X-41781449Y-216458267D01*
X-41868311Y-216440991D01*
X-41939075Y-216387738D01*
X-41979726Y-216309055D01*
X-41982211Y-216298169D01*
X-42002259Y-216197382D01*
X-42045597Y-216132522D01*
X-42045598Y-216132521D01*
X-42045716Y-216132345D01*
X-42045718Y-216132342D01*
X-42056460Y-216116266D01*
X-42060391Y-216110383D01*
X-42066054Y-216106600D01*
X-42096201Y-216081858D01*
X-42431855Y-215746205D01*
X-42456599Y-215716056D01*
X-42460386Y-215710388D01*
X-42526834Y-215665990D01*
X-42547380Y-215652260D01*
X-42558207Y-215650106D01*
X-42569136Y-215647933D01*
X-42624099Y-215637000D01*
X-42649999Y-215631848D01*
X-42650000Y-215631848D01*
X-42656677Y-215633176D01*
X-42695500Y-215637000D01*
X-43708634Y-215637000D01*
X-43794977Y-215617293D01*
X-43849348Y-215578714D01*
X-45128714Y-214299348D01*
X-45175833Y-214224360D01*
X-45187000Y-214158634D01*
X-45187000Y-211591366D01*
X-45167293Y-211505023D01*
X-45128714Y-211450652D01*
X-44549348Y-210871286D01*
X-44474360Y-210824167D01*
X-44408634Y-210813000D01*
X-36437564Y-210813000D01*
X-36351221Y-210832707D01*
X-36281980Y-210887926D01*
X-36243553Y-210967718D01*
X-36242388Y-211050823D01*
X-36253986Y-211109133D01*
X-36255500Y-211116742D01*
X-36255500Y-211283258D01*
X-36239857Y-211361901D01*
X-36225505Y-211396549D01*
X-36180958Y-211463216D01*
X-36063216Y-211580958D01*
X-35996549Y-211625505D01*
X-35961901Y-211639857D01*
X-35883258Y-211655500D01*
X-35798866Y-211655500D01*
X-35712523Y-211675207D01*
X-35658152Y-211713786D01*
X-35521286Y-211850652D01*
X-35474167Y-211925640D01*
X-35463000Y-211991366D01*
X-35463000Y-216958634D01*
X-35482707Y-217044977D01*
X-35521286Y-217099348D01*
X-35658152Y-217236214D01*
X-35733140Y-217283333D01*
X-35798866Y-217294500D01*
X-35883258Y-217294500D01*
X-35961901Y-217310143D01*
X-35996549Y-217324495D01*
X-36063216Y-217369042D01*
X-36180958Y-217486784D01*
X-36225505Y-217553451D01*
X-36239857Y-217588099D01*
X-36255500Y-217666742D01*
X-36255500Y-217833258D01*
X-36239857Y-217911901D01*
X-36225505Y-217946549D01*
X-36180958Y-218013216D01*
X-36063216Y-218130958D01*
X-35996549Y-218175505D01*
X-35961901Y-218189857D01*
X-35883258Y-218205500D01*
X-35716742Y-218205500D01*
X-35638099Y-218189857D01*
X-35603451Y-218175505D01*
X-35536784Y-218130958D01*
X-35419042Y-218013216D01*
X-35374495Y-217946549D01*
X-35366444Y-217927114D01*
X-35360143Y-217911901D01*
X-35344500Y-217833258D01*
X-35344500Y-217748866D01*
X-35324793Y-217662523D01*
X-35286214Y-217608152D01*
X-35046204Y-217368142D01*
X-35016049Y-217343394D01*
X-35010388Y-217339612D01*
X-34995716Y-217317654D01*
X-34961697Y-217266742D01*
X-34952259Y-217252617D01*
X-34931847Y-217150000D01*
X-34933176Y-217143323D01*
X-34937000Y-217104499D01*
X-34937000Y-211845500D01*
X-34933176Y-211806674D01*
X-34931847Y-211799998D01*
X-34952259Y-211697380D01*
X-34979314Y-211656891D01*
X-35010390Y-211610384D01*
X-35016057Y-211606598D01*
X-35046204Y-211581857D01*
X-35165307Y-211462754D01*
X-35286214Y-211341847D01*
X-35333333Y-211266859D01*
X-35344500Y-211201133D01*
X-35344500Y-211116740D01*
X-35357612Y-211050823D01*
X-35355129Y-210962295D01*
X-35314480Y-210883611D01*
X-35243717Y-210830356D01*
X-35162436Y-210813000D01*
X-31741366Y-210813000D01*
X-31655023Y-210832707D01*
X-31600651Y-210871286D01*
X-23333910Y-219138026D01*
X-23309166Y-219168178D01*
X-23305383Y-219173841D01*
X-23283425Y-219188512D01*
X-23283425Y-219188513D01*
X-23218388Y-219231969D01*
X-23141672Y-219247229D01*
X-23115772Y-219252381D01*
X-23115771Y-219252380D01*
X-23115771Y-219252381D01*
X-23109093Y-219251052D01*
X-23070271Y-219247229D01*
X-17035535Y-219247229D01*
X-16949192Y-219266936D01*
X-16894820Y-219305516D01*
X-16893662Y-219306674D01*
X-16835149Y-219365187D01*
X-16768481Y-219409734D01*
X-16733833Y-219424086D01*
X-16655190Y-219439729D01*
X-16488674Y-219439729D01*
X-16410031Y-219424086D01*
X-16375383Y-219409734D01*
X-16308715Y-219365187D01*
X-16308714Y-219365186D01*
X-16308711Y-219365184D01*
X-16190972Y-219247444D01*
X-16146427Y-219180778D01*
X-16132075Y-219146129D01*
X-16116432Y-219067486D01*
X-16116432Y-218900970D01*
X-16132075Y-218822327D01*
X-16146426Y-218787681D01*
X-16190975Y-218721011D01*
X-16308714Y-218603272D01*
X-16375384Y-218558723D01*
X-16410030Y-218544372D01*
X-16488674Y-218528729D01*
X-16655190Y-218528729D01*
X-16733833Y-218544372D01*
X-16768481Y-218558724D01*
X-16835148Y-218603271D01*
X-16835149Y-218603272D01*
X-16894820Y-218662943D01*
X-16969808Y-218710062D01*
X-17035534Y-218721229D01*
X-22924405Y-218721229D01*
X-23010748Y-218701522D01*
X-23065119Y-218662943D01*
X-27728061Y-214000000D01*
X-20605449Y-214000000D01*
X-20585683Y-214251148D01*
X-20526873Y-214496111D01*
X-20430466Y-214728859D01*
X-20298836Y-214943659D01*
X-20135224Y-215135224D01*
X-19943659Y-215298836D01*
X-19728859Y-215430466D01*
X-19496111Y-215526873D01*
X-19251148Y-215585683D01*
X-19062882Y-215600500D01*
X-19058972Y-215600500D01*
X-18941028Y-215600500D01*
X-18937118Y-215600500D01*
X-18748852Y-215585683D01*
X-18503889Y-215526873D01*
X-18271141Y-215430466D01*
X-18056341Y-215298836D01*
X-17864776Y-215135224D01*
X-17701164Y-214943659D01*
X-17569534Y-214728859D01*
X-17502964Y-214568144D01*
X-17473127Y-214496112D01*
X-17414317Y-214251149D01*
X-17394551Y-214000000D01*
X-17414317Y-213748850D01*
X-17473127Y-213503887D01*
X-17569533Y-213271142D01*
X-17701164Y-213056341D01*
X-17864776Y-212864776D01*
X-18056341Y-212701164D01*
X-18271142Y-212569533D01*
X-18503887Y-212473127D01*
X-18748850Y-212414317D01*
X-18933226Y-212399806D01*
X-18933233Y-212399805D01*
X-18937118Y-212399500D01*
X-19062882Y-212399500D01*
X-19066767Y-212399805D01*
X-19066773Y-212399806D01*
X-19251149Y-212414317D01*
X-19496112Y-212473127D01*
X-19728857Y-212569533D01*
X-19728859Y-212569534D01*
X-19943659Y-212701164D01*
X-20135224Y-212864776D01*
X-20298836Y-213056341D01*
X-20430466Y-213271141D01*
X-20526873Y-213503889D01*
X-20585683Y-213748852D01*
X-20605449Y-214000000D01*
X-27728061Y-214000000D01*
X-31331855Y-210396205D01*
X-31356599Y-210366056D01*
X-31366462Y-210351295D01*
X-31414383Y-210300609D01*
X-31441279Y-210216228D01*
X-31428899Y-210128534D01*
X-31379697Y-210054896D01*
X-31303417Y-210009898D01*
X-31242983Y-210000500D01*
X-3005205Y-210000500D01*
X-2994790Y-210000773D01*
G37*
%TD.AperFunction*%
%TA.AperFunction,Conductor*%
G36*
X-41462523Y-217425207D02*
G01*
X-41408151Y-217463786D01*
X-35918137Y-222953800D01*
X-35893393Y-222983952D01*
X-35889612Y-222989612D01*
X-35889608Y-222989614D01*
X-35889609Y-222989614D01*
X-35867656Y-223004282D01*
X-35867655Y-223004284D01*
X-35802618Y-223047740D01*
X-35751309Y-223057946D01*
X-35700001Y-223068152D01*
X-35700000Y-223068151D01*
X-35700000Y-223068152D01*
X-35693322Y-223066823D01*
X-35654500Y-223063000D01*
X-33466581Y-223063000D01*
X-33380238Y-223082707D01*
X-33325867Y-223121286D01*
X-33049867Y-223397286D01*
X-33002748Y-223472274D01*
X-32992832Y-223560281D01*
X-33022083Y-223643874D01*
X-33084707Y-223706498D01*
X-33168300Y-223735749D01*
X-33190581Y-223737000D01*
X-38858634Y-223737000D01*
X-38944977Y-223717293D01*
X-38999348Y-223678714D01*
X-42478714Y-220199348D01*
X-42525833Y-220124360D01*
X-42537000Y-220058634D01*
X-42537000Y-218004500D01*
X-42517293Y-217918157D01*
X-42462074Y-217848916D01*
X-42382282Y-217810489D01*
X-42338000Y-217805500D01*
X-42166742Y-217805500D01*
X-42088099Y-217789857D01*
X-42053451Y-217775505D01*
X-41986784Y-217730958D01*
X-41869042Y-217613216D01*
X-41824495Y-217546549D01*
X-41816953Y-217528341D01*
X-41765704Y-217456115D01*
X-41688190Y-217413277D01*
X-41633103Y-217405500D01*
X-41548866Y-217405500D01*
X-41462523Y-217425207D01*
G37*
%TD.AperFunction*%
%TA.AperFunction,Conductor*%
G36*
X-42951426Y-220472281D02*
G01*
X-42934786Y-220487151D01*
X-42624651Y-220797286D01*
X-42577532Y-220872274D01*
X-42567616Y-220960281D01*
X-42596867Y-221043874D01*
X-42659491Y-221106498D01*
X-42743084Y-221135749D01*
X-42765365Y-221137000D01*
X-43075500Y-221137000D01*
X-43161843Y-221117293D01*
X-43231084Y-221062074D01*
X-43269511Y-220982282D01*
X-43274500Y-220938000D01*
X-43274500Y-220627865D01*
X-43254793Y-220541522D01*
X-43199574Y-220472281D01*
X-43119782Y-220433854D01*
X-43031218Y-220433854D01*
X-42951426Y-220472281D01*
G37*
%TD.AperFunction*%
%TD*%
%TA.AperFunction,Conductor*%
%TO.N,VBUS*%
G36*
X-33882094Y-230764352D02*
G01*
X-33764352Y-230882094D01*
X-33750000Y-230916742D01*
X-33750000Y-231083258D01*
X-33764352Y-231117906D01*
X-33965352Y-231318906D01*
X-34000000Y-231333258D01*
X-34034648Y-231318906D01*
X-34318906Y-231034648D01*
X-34333258Y-231000000D01*
X-34318906Y-230965352D01*
X-34117906Y-230764352D01*
X-34083258Y-230750000D01*
X-33916742Y-230750000D01*
X-33882094Y-230764352D01*
G37*
%TD.AperFunction*%
%TD*%
%TA.AperFunction,Conductor*%
%TO.N,VBUS*%
G36*
X-50132094Y-230764352D02*
G01*
X-49931094Y-230965352D01*
X-49916742Y-231000000D01*
X-49931094Y-231034648D01*
X-50132094Y-231235648D01*
X-50166742Y-231250000D01*
X-50333258Y-231250000D01*
X-50367906Y-231235648D01*
X-50485648Y-231117906D01*
X-50500000Y-231083258D01*
X-50500000Y-230916742D01*
X-50485648Y-230882094D01*
X-50367906Y-230764352D01*
X-50333258Y-230750000D01*
X-50166742Y-230750000D01*
X-50132094Y-230764352D01*
G37*
%TD.AperFunction*%
%TD*%
%TA.AperFunction,Conductor*%
%TO.N,Charge Status*%
G36*
X-42682094Y-216464352D02*
G01*
X-42564352Y-216582094D01*
X-42550000Y-216616742D01*
X-42550000Y-216783258D01*
X-42564352Y-216817906D01*
X-42765352Y-217018906D01*
X-42800000Y-217033258D01*
X-42834648Y-217018906D01*
X-43035648Y-216817906D01*
X-43050000Y-216783258D01*
X-43050000Y-216616742D01*
X-43035648Y-216582094D01*
X-42917906Y-216464352D01*
X-42883258Y-216450000D01*
X-42716742Y-216450000D01*
X-42682094Y-216464352D01*
G37*
%TD.AperFunction*%
%TD*%
%TA.AperFunction,Conductor*%
%TO.N,/MCU & Comms/MicroController/IO 3*%
G36*
X-42215352Y-217031094D02*
G01*
X-42014352Y-217232094D01*
X-42000000Y-217266742D01*
X-42000000Y-217433258D01*
X-42014352Y-217467906D01*
X-42132094Y-217585648D01*
X-42166742Y-217600000D01*
X-42333258Y-217600000D01*
X-42367906Y-217585648D01*
X-42485648Y-217467906D01*
X-42500000Y-217433258D01*
X-42500000Y-217266742D01*
X-42485648Y-217232094D01*
X-42284648Y-217031094D01*
X-42250000Y-217016742D01*
X-42215352Y-217031094D01*
G37*
%TD.AperFunction*%
%TD*%
%TA.AperFunction,Conductor*%
%TO.N,/MCU & Comms/MicroController/IO 3*%
G36*
X-16454026Y-218748581D02*
G01*
X-16336284Y-218866323D01*
X-16321932Y-218900971D01*
X-16321932Y-219067486D01*
X-16336284Y-219102134D01*
X-16454026Y-219219877D01*
X-16488674Y-219234229D01*
X-16655190Y-219234229D01*
X-16689838Y-219219877D01*
X-16890837Y-219018876D01*
X-16905189Y-218984228D01*
X-16890837Y-218949580D01*
X-16689838Y-218748581D01*
X-16655190Y-218734229D01*
X-16488674Y-218734229D01*
X-16454026Y-218748581D01*
G37*
%TD.AperFunction*%
%TD*%
%TA.AperFunction,Conductor*%
%TO.N,VDD*%
G36*
X-46164352Y-221764352D02*
G01*
X-46150000Y-221799000D01*
X-46150000Y-222083257D01*
X-46164352Y-222117905D01*
X-46282094Y-222235648D01*
X-46316742Y-222250000D01*
X-46483258Y-222250000D01*
X-46517906Y-222235648D01*
X-46635648Y-222117906D01*
X-46650000Y-222083258D01*
X-46650000Y-221916742D01*
X-46635648Y-221882094D01*
X-46517906Y-221764352D01*
X-46483258Y-221750000D01*
X-46199000Y-221750000D01*
X-46164352Y-221764352D01*
G37*
%TD.AperFunction*%
%TD*%
%TA.AperFunction,Conductor*%
%TO.N,Net-(D2-Pad1)*%
G36*
X-35082094Y-231764352D02*
G01*
X-34964352Y-231882094D01*
X-34950000Y-231916742D01*
X-34950000Y-232083258D01*
X-34964352Y-232117906D01*
X-35082094Y-232235648D01*
X-35116742Y-232250000D01*
X-35283258Y-232250000D01*
X-35317906Y-232235648D01*
X-35518906Y-232034648D01*
X-35533258Y-232000000D01*
X-35518906Y-231965352D01*
X-35450000Y-231896446D01*
X-35450000Y-231799000D01*
X-35435648Y-231764352D01*
X-35401000Y-231750000D01*
X-35116742Y-231750000D01*
X-35082094Y-231764352D01*
G37*
%TD.AperFunction*%
%TD*%
%TA.AperFunction,Conductor*%
%TO.N,/MCU & Comms/MicroController/IO 3*%
G36*
X-42215352Y-217031094D02*
G01*
X-42014352Y-217232094D01*
X-42000000Y-217266742D01*
X-42000000Y-217433258D01*
X-42014352Y-217467906D01*
X-42132094Y-217585648D01*
X-42166742Y-217600000D01*
X-42333258Y-217600000D01*
X-42367906Y-217585648D01*
X-42485648Y-217467906D01*
X-42500000Y-217433258D01*
X-42500000Y-217266742D01*
X-42485648Y-217232094D01*
X-42284648Y-217031094D01*
X-42250000Y-217016742D01*
X-42215352Y-217031094D01*
G37*
%TD.AperFunction*%
%TD*%
%TA.AperFunction,Conductor*%
%TO.N,Charge Fault*%
G36*
X-41517201Y-216714352D02*
G01*
X-41514817Y-216716912D01*
X-41448049Y-216793967D01*
X-41339069Y-216864004D01*
X-41335198Y-216865140D01*
X-41305996Y-216888669D01*
X-41300000Y-216912156D01*
X-41300000Y-217151000D01*
X-41314352Y-217185648D01*
X-41349000Y-217200000D01*
X-41633258Y-217200000D01*
X-41667906Y-217185648D01*
X-41785648Y-217067906D01*
X-41800000Y-217033258D01*
X-41800000Y-216866742D01*
X-41785648Y-216832094D01*
X-41667906Y-216714352D01*
X-41633258Y-216700000D01*
X-41551849Y-216700000D01*
X-41517201Y-216714352D01*
G37*
%TD.AperFunction*%
%TD*%
%TA.AperFunction,Conductor*%
%TO.N,Net-(U1-DEC4)*%
G36*
X-42552094Y-224094352D02*
G01*
X-42434352Y-224212094D01*
X-42420000Y-224246742D01*
X-42420000Y-224531000D01*
X-42434352Y-224565648D01*
X-42469000Y-224580000D01*
X-42753258Y-224580000D01*
X-42787906Y-224565648D01*
X-42905648Y-224447906D01*
X-42920000Y-224413258D01*
X-42920000Y-224246742D01*
X-42905648Y-224212094D01*
X-42787906Y-224094352D01*
X-42753258Y-224080000D01*
X-42586742Y-224080000D01*
X-42552094Y-224094352D01*
G37*
%TD.AperFunction*%
%TD*%
%TA.AperFunction,Conductor*%
%TO.N,VBUS*%
G36*
X-59502094Y-218004352D02*
G01*
X-59384352Y-218122094D01*
X-59370000Y-218156742D01*
X-59370000Y-218323258D01*
X-59384352Y-218357906D01*
X-59585352Y-218558906D01*
X-59620000Y-218573258D01*
X-59654648Y-218558906D01*
X-59855648Y-218357906D01*
X-59870000Y-218323258D01*
X-59870000Y-218156742D01*
X-59855648Y-218122094D01*
X-59737906Y-218004352D01*
X-59703258Y-217990000D01*
X-59536742Y-217990000D01*
X-59502094Y-218004352D01*
G37*
%TD.AperFunction*%
%TD*%
%TA.AperFunction,Conductor*%
%TO.N,Charge Status*%
G36*
X-29682801Y-226764351D02*
G01*
X-29564351Y-226882801D01*
X-29550000Y-226917448D01*
X-29550000Y-227201000D01*
X-29564352Y-227235648D01*
X-29599000Y-227250000D01*
X-29883258Y-227250000D01*
X-29917906Y-227235648D01*
X-30035648Y-227117906D01*
X-30050000Y-227083258D01*
X-30050000Y-226799000D01*
X-30035648Y-226764352D01*
X-30001000Y-226750000D01*
X-29717449Y-226750000D01*
X-29682801Y-226764351D01*
G37*
%TD.AperFunction*%
%TD*%
%TA.AperFunction,Conductor*%
%TO.N,VBUS*%
G36*
X-18882094Y-221014352D02*
G01*
X-18764352Y-221132094D01*
X-18750000Y-221166742D01*
X-18750000Y-221333258D01*
X-18764352Y-221367906D01*
X-18965352Y-221568906D01*
X-19000000Y-221583258D01*
X-19034648Y-221568906D01*
X-19235648Y-221367906D01*
X-19250000Y-221333258D01*
X-19250000Y-221166742D01*
X-19235648Y-221132094D01*
X-19117906Y-221014352D01*
X-19083258Y-221000000D01*
X-18916742Y-221000000D01*
X-18882094Y-221014352D01*
G37*
%TD.AperFunction*%
%TD*%
%TA.AperFunction,Conductor*%
%TO.N,VDD*%
G36*
X-44432094Y-217114352D02*
G01*
X-44314352Y-217232094D01*
X-44300000Y-217266742D01*
X-44300000Y-217551000D01*
X-44314352Y-217585648D01*
X-44349000Y-217600000D01*
X-44633258Y-217600000D01*
X-44667906Y-217585648D01*
X-44785648Y-217467906D01*
X-44800000Y-217433258D01*
X-44800000Y-217266742D01*
X-44785648Y-217232094D01*
X-44667906Y-217114352D01*
X-44633258Y-217100000D01*
X-44466742Y-217100000D01*
X-44432094Y-217114352D01*
G37*
%TD.AperFunction*%
%TD*%
%TA.AperFunction,Conductor*%
%TO.N,Net-(U1-DEC4)*%
G36*
X-38562094Y-224824352D02*
G01*
X-38444352Y-224942094D01*
X-38430000Y-224976742D01*
X-38430000Y-225143258D01*
X-38444352Y-225177906D01*
X-38562094Y-225295648D01*
X-38596742Y-225310000D01*
X-38763258Y-225310000D01*
X-38797906Y-225295648D01*
X-38915648Y-225177906D01*
X-38930000Y-225143258D01*
X-38930000Y-224859000D01*
X-38915648Y-224824352D01*
X-38881000Y-224810000D01*
X-38596742Y-224810000D01*
X-38562094Y-224824352D01*
G37*
%TD.AperFunction*%
%TD*%
%TA.AperFunction,Conductor*%
%TO.N,/MCU & Comms/Left*%
G36*
X-36270225Y-215592243D02*
G01*
X-36152483Y-215709985D01*
X-36138131Y-215744633D01*
X-36138131Y-215911148D01*
X-36152483Y-215945796D01*
X-36270225Y-216063539D01*
X-36304873Y-216077891D01*
X-36471389Y-216077891D01*
X-36506037Y-216063539D01*
X-36707036Y-215862539D01*
X-36721388Y-215827891D01*
X-36707036Y-215793243D01*
X-36506037Y-215592243D01*
X-36471389Y-215577891D01*
X-36304873Y-215577891D01*
X-36270225Y-215592243D01*
G37*
%TD.AperFunction*%
%TD*%
%TA.AperFunction,Conductor*%
%TO.N,Net-(U1-DEC4)*%
G36*
X-38562094Y-224824352D02*
G01*
X-38444352Y-224942094D01*
X-38430000Y-224976742D01*
X-38430000Y-225143258D01*
X-38444352Y-225177906D01*
X-38562094Y-225295648D01*
X-38596742Y-225310000D01*
X-38763258Y-225310000D01*
X-38797906Y-225295648D01*
X-38915648Y-225177906D01*
X-38930000Y-225143258D01*
X-38930000Y-224859000D01*
X-38915648Y-224824352D01*
X-38881000Y-224810000D01*
X-38596742Y-224810000D01*
X-38562094Y-224824352D01*
G37*
%TD.AperFunction*%
%TD*%
%TA.AperFunction,Conductor*%
%TO.N,/MCU & Comms/MicroController/RST*%
G36*
X-50082094Y-217764352D02*
G01*
X-49964352Y-217882094D01*
X-49950000Y-217916742D01*
X-49950000Y-218083258D01*
X-49964352Y-218117906D01*
X-50165352Y-218318906D01*
X-50200000Y-218333258D01*
X-50234648Y-218318906D01*
X-50435648Y-218117906D01*
X-50450000Y-218083258D01*
X-50450000Y-217916742D01*
X-50435648Y-217882094D01*
X-50317906Y-217764352D01*
X-50283258Y-217750000D01*
X-50116742Y-217750000D01*
X-50082094Y-217764352D01*
G37*
%TD.AperFunction*%
%TD*%
%TA.AperFunction,Conductor*%
%TO.N,Charge Status*%
G36*
X-29682801Y-226764351D02*
G01*
X-29564351Y-226882801D01*
X-29550000Y-226917448D01*
X-29550000Y-227201000D01*
X-29564352Y-227235648D01*
X-29599000Y-227250000D01*
X-29883258Y-227250000D01*
X-29917906Y-227235648D01*
X-30035648Y-227117906D01*
X-30050000Y-227083258D01*
X-30050000Y-226799000D01*
X-30035648Y-226764352D01*
X-30001000Y-226750000D01*
X-29717449Y-226750000D01*
X-29682801Y-226764351D01*
G37*
%TD.AperFunction*%
%TD*%
%TA.AperFunction,Conductor*%
%TO.N,Charge Status*%
G36*
X-42682094Y-216464352D02*
G01*
X-42564352Y-216582094D01*
X-42550000Y-216616742D01*
X-42550000Y-216783258D01*
X-42564352Y-216817906D01*
X-42765352Y-217018906D01*
X-42800000Y-217033258D01*
X-42834648Y-217018906D01*
X-43035648Y-216817906D01*
X-43050000Y-216783258D01*
X-43050000Y-216616742D01*
X-43035648Y-216582094D01*
X-42917906Y-216464352D01*
X-42883258Y-216450000D01*
X-42716742Y-216450000D01*
X-42682094Y-216464352D01*
G37*
%TD.AperFunction*%
%TD*%
%TA.AperFunction,Conductor*%
%TO.N,VBUS*%
G36*
X-33882094Y-230764352D02*
G01*
X-33764352Y-230882094D01*
X-33750000Y-230916742D01*
X-33750000Y-231083258D01*
X-33764352Y-231117906D01*
X-33965352Y-231318906D01*
X-34000000Y-231333258D01*
X-34034648Y-231318906D01*
X-34318906Y-231034648D01*
X-34333258Y-231000000D01*
X-34318906Y-230965352D01*
X-34117906Y-230764352D01*
X-34083258Y-230750000D01*
X-33916742Y-230750000D01*
X-33882094Y-230764352D01*
G37*
%TD.AperFunction*%
%TD*%
%TA.AperFunction,Conductor*%
%TO.N,Net-(D2-Pad1)*%
G36*
X-74164352Y-237164352D02*
G01*
X-74150000Y-237199000D01*
X-74150000Y-237296446D01*
X-74081090Y-237365355D01*
X-74066741Y-237399998D01*
X-74081091Y-237434645D01*
X-74081093Y-237434647D01*
X-74150000Y-237503554D01*
X-74150000Y-237601000D01*
X-74164352Y-237635648D01*
X-74199000Y-237650000D01*
X-74483258Y-237650000D01*
X-74517906Y-237635648D01*
X-74635648Y-237517905D01*
X-74650000Y-237483257D01*
X-74650000Y-237316742D01*
X-74635648Y-237282094D01*
X-74517906Y-237164352D01*
X-74483258Y-237150000D01*
X-74199000Y-237150000D01*
X-74164352Y-237164352D01*
G37*
%TD.AperFunction*%
%TD*%
%TA.AperFunction,Conductor*%
%TO.N,VBUS*%
G36*
X-60044352Y-221544352D02*
G01*
X-60030000Y-221579000D01*
X-60030000Y-221863258D01*
X-60044352Y-221897906D01*
X-60162094Y-222015648D01*
X-60196742Y-222030000D01*
X-60363258Y-222030000D01*
X-60397906Y-222015648D01*
X-60515648Y-221897906D01*
X-60530000Y-221863258D01*
X-60530000Y-221696742D01*
X-60515648Y-221662094D01*
X-60397906Y-221544352D01*
X-60363258Y-221530000D01*
X-60079000Y-221530000D01*
X-60044352Y-221544352D01*
G37*
%TD.AperFunction*%
%TD*%
%TA.AperFunction,Conductor*%
%TO.N,Charge Fault*%
G36*
X-26715352Y-231631094D02*
G01*
X-26514352Y-231832094D01*
X-26500000Y-231866742D01*
X-26500000Y-232033258D01*
X-26514352Y-232067906D01*
X-26715352Y-232268906D01*
X-26750000Y-232283258D01*
X-26784648Y-232268906D01*
X-26985648Y-232067906D01*
X-27000000Y-232033258D01*
X-27000000Y-231866742D01*
X-26985648Y-231832094D01*
X-26784648Y-231631094D01*
X-26750000Y-231616742D01*
X-26715352Y-231631094D01*
G37*
%TD.AperFunction*%
%TD*%
%TA.AperFunction,Conductor*%
%TO.N,VDD*%
G36*
X-35564352Y-217514352D02*
G01*
X-35550000Y-217549000D01*
X-35550000Y-217833258D01*
X-35564352Y-217867906D01*
X-35682094Y-217985648D01*
X-35716742Y-218000000D01*
X-35883258Y-218000000D01*
X-35917906Y-217985648D01*
X-36035648Y-217867906D01*
X-36050000Y-217833258D01*
X-36050000Y-217666742D01*
X-36035648Y-217632094D01*
X-35917906Y-217514352D01*
X-35883258Y-217500000D01*
X-35599000Y-217500000D01*
X-35564352Y-217514352D01*
G37*
%TD.AperFunction*%
%TD*%
%TA.AperFunction,Conductor*%
%TO.N,/MCU & Comms/Left*%
G36*
X-36270225Y-215592243D02*
G01*
X-36152483Y-215709985D01*
X-36138131Y-215744633D01*
X-36138131Y-215911148D01*
X-36152483Y-215945796D01*
X-36270225Y-216063539D01*
X-36304873Y-216077891D01*
X-36471389Y-216077891D01*
X-36506037Y-216063539D01*
X-36707036Y-215862539D01*
X-36721388Y-215827891D01*
X-36707036Y-215793243D01*
X-36506037Y-215592243D01*
X-36471389Y-215577891D01*
X-36304873Y-215577891D01*
X-36270225Y-215592243D01*
G37*
%TD.AperFunction*%
%TD*%
%TA.AperFunction,Conductor*%
%TO.N,Charge Fault*%
G36*
X-26715352Y-235731094D02*
G01*
X-26514352Y-235932094D01*
X-26500000Y-235966742D01*
X-26500000Y-236133257D01*
X-26514352Y-236167905D01*
X-26632094Y-236285648D01*
X-26666742Y-236300000D01*
X-26833258Y-236300000D01*
X-26867906Y-236285648D01*
X-26926777Y-236226776D01*
X-26985648Y-236167905D01*
X-26999999Y-236133257D01*
X-27000000Y-235966742D01*
X-26985648Y-235932094D01*
X-26784648Y-235731094D01*
X-26750000Y-235716742D01*
X-26715352Y-235731094D01*
G37*
%TD.AperFunction*%
%TD*%
%TA.AperFunction,Conductor*%
%TO.N,Net-(D2-Pad1)*%
G36*
X-35082094Y-231764352D02*
G01*
X-34964352Y-231882094D01*
X-34950000Y-231916742D01*
X-34950000Y-232083258D01*
X-34964352Y-232117906D01*
X-35082094Y-232235648D01*
X-35116742Y-232250000D01*
X-35283258Y-232250000D01*
X-35317906Y-232235648D01*
X-35518906Y-232034648D01*
X-35533258Y-232000000D01*
X-35518906Y-231965352D01*
X-35450000Y-231896446D01*
X-35450000Y-231799000D01*
X-35435648Y-231764352D01*
X-35401000Y-231750000D01*
X-35116742Y-231750000D01*
X-35082094Y-231764352D01*
G37*
%TD.AperFunction*%
%TD*%
%TA.AperFunction,Conductor*%
%TO.N,/MCU & Comms/MicroController/RST*%
G36*
X-48782094Y-220364352D02*
G01*
X-48664352Y-220482094D01*
X-48650000Y-220516742D01*
X-48650000Y-220683257D01*
X-48664352Y-220717905D01*
X-48782094Y-220835648D01*
X-48816742Y-220850000D01*
X-48983258Y-220850000D01*
X-49017906Y-220835648D01*
X-49076777Y-220776776D01*
X-49135648Y-220717905D01*
X-49149999Y-220683257D01*
X-49150000Y-220399000D01*
X-49135648Y-220364352D01*
X-49101000Y-220350000D01*
X-48816742Y-220350000D01*
X-48782094Y-220364352D01*
G37*
%TD.AperFunction*%
%TD*%
%TA.AperFunction,Conductor*%
%TO.N,Net-(D2-Pad2)*%
G36*
X-54082094Y-213964352D02*
G01*
X-53964352Y-214082094D01*
X-53950000Y-214116742D01*
X-53950000Y-214401000D01*
X-53964352Y-214435648D01*
X-53999000Y-214450000D01*
X-54096446Y-214450000D01*
X-54165352Y-214518906D01*
X-54200000Y-214533258D01*
X-54234648Y-214518906D01*
X-54303554Y-214450000D01*
X-54401000Y-214450000D01*
X-54435648Y-214435648D01*
X-54450000Y-214401000D01*
X-54450000Y-214116741D01*
X-54435648Y-214082094D01*
X-54317905Y-213964352D01*
X-54283258Y-213950000D01*
X-54116742Y-213950000D01*
X-54082094Y-213964352D01*
G37*
%TD.AperFunction*%
%TD*%
%TA.AperFunction,Conductor*%
%TO.N,DATA+*%
G36*
X-61602094Y-217544352D02*
G01*
X-61484352Y-217662094D01*
X-61470000Y-217696742D01*
X-61470000Y-217863258D01*
X-61484352Y-217897906D01*
X-61602094Y-218015648D01*
X-61636742Y-218030000D01*
X-61803258Y-218030000D01*
X-61837906Y-218015648D01*
X-62038905Y-217814648D01*
X-62053257Y-217780000D01*
X-62038905Y-217745352D01*
X-61837906Y-217544352D01*
X-61803258Y-217530000D01*
X-61636742Y-217530000D01*
X-61602094Y-217544352D01*
G37*
%TD.AperFunction*%
%TD*%
%TA.AperFunction,Conductor*%
%TO.N,/MCU & Comms/MicroController/RST*%
G36*
X-50082094Y-217764352D02*
G01*
X-49964352Y-217882094D01*
X-49950000Y-217916742D01*
X-49950000Y-218083258D01*
X-49964352Y-218117906D01*
X-50165352Y-218318906D01*
X-50200000Y-218333258D01*
X-50234648Y-218318906D01*
X-50435648Y-218117906D01*
X-50450000Y-218083258D01*
X-50450000Y-217916742D01*
X-50435648Y-217882094D01*
X-50317906Y-217764352D01*
X-50283258Y-217750000D01*
X-50116742Y-217750000D01*
X-50082094Y-217764352D01*
G37*
%TD.AperFunction*%
%TD*%
%TA.AperFunction,Conductor*%
%TO.N,Charge Status*%
G36*
X-25482095Y-236264350D02*
G01*
X-25364348Y-236382097D01*
X-25350000Y-236416738D01*
X-25350000Y-236583260D01*
X-25364350Y-236617904D01*
X-25447446Y-236701000D01*
X-25482094Y-236735648D01*
X-25516742Y-236750000D01*
X-25801000Y-236750000D01*
X-25835648Y-236735648D01*
X-25850000Y-236701000D01*
X-25850000Y-236416741D01*
X-25835648Y-236382094D01*
X-25717905Y-236264352D01*
X-25683258Y-236250000D01*
X-25516742Y-236250000D01*
X-25482095Y-236264350D01*
G37*
%TD.AperFunction*%
%TD*%
%TA.AperFunction,Conductor*%
%TO.N,Charge Fault*%
G36*
X-26715352Y-231631094D02*
G01*
X-26514352Y-231832094D01*
X-26500000Y-231866742D01*
X-26500000Y-232033258D01*
X-26514352Y-232067906D01*
X-26715352Y-232268906D01*
X-26750000Y-232283258D01*
X-26784648Y-232268906D01*
X-26985648Y-232067906D01*
X-27000000Y-232033258D01*
X-27000000Y-231866742D01*
X-26985648Y-231832094D01*
X-26784648Y-231631094D01*
X-26750000Y-231616742D01*
X-26715352Y-231631094D01*
G37*
%TD.AperFunction*%
%TD*%
%TA.AperFunction,Conductor*%
%TO.N,Net-(U1-ANT_RF)*%
G36*
X-43982094Y-224814352D02*
G01*
X-43781094Y-225015352D01*
X-43766742Y-225050000D01*
X-43781094Y-225084648D01*
X-43982094Y-225285648D01*
X-44016742Y-225300000D01*
X-44183258Y-225300000D01*
X-44217906Y-225285648D01*
X-44335648Y-225167906D01*
X-44350000Y-225133258D01*
X-44350000Y-224966742D01*
X-44335648Y-224932094D01*
X-44217906Y-224814352D01*
X-44183258Y-224800000D01*
X-44016742Y-224800000D01*
X-43982094Y-224814352D01*
G37*
%TD.AperFunction*%
%TD*%
%TA.AperFunction,Conductor*%
%TO.N,DATA+*%
G36*
X-62454352Y-218134352D02*
G01*
X-62440000Y-218169000D01*
X-62440000Y-218453258D01*
X-62454352Y-218487906D01*
X-62572094Y-218605648D01*
X-62606742Y-218620000D01*
X-62773258Y-218620000D01*
X-62807906Y-218605648D01*
X-62925648Y-218487906D01*
X-62940000Y-218453258D01*
X-62940000Y-218286742D01*
X-62925648Y-218252094D01*
X-62807906Y-218134352D01*
X-62773258Y-218120000D01*
X-62489000Y-218120000D01*
X-62454352Y-218134352D01*
G37*
%TD.AperFunction*%
%TD*%
%TA.AperFunction,Conductor*%
%TO.N,Net-(D2-Pad1)*%
G36*
X-74164352Y-237164352D02*
G01*
X-74150000Y-237199000D01*
X-74150000Y-237296446D01*
X-74081090Y-237365355D01*
X-74066741Y-237399998D01*
X-74081091Y-237434645D01*
X-74081093Y-237434647D01*
X-74150000Y-237503554D01*
X-74150000Y-237601000D01*
X-74164352Y-237635648D01*
X-74199000Y-237650000D01*
X-74483258Y-237650000D01*
X-74517906Y-237635648D01*
X-74635648Y-237517905D01*
X-74650000Y-237483257D01*
X-74650000Y-237316742D01*
X-74635648Y-237282094D01*
X-74517906Y-237164352D01*
X-74483258Y-237150000D01*
X-74199000Y-237150000D01*
X-74164352Y-237164352D01*
G37*
%TD.AperFunction*%
%TD*%
%TA.AperFunction,Conductor*%
%TO.N,/MCU & Comms/MicroController/IO 5*%
G36*
X-43932094Y-216264352D02*
G01*
X-43814352Y-216382094D01*
X-43800000Y-216416742D01*
X-43800000Y-216583258D01*
X-43814352Y-216617906D01*
X-43932094Y-216735648D01*
X-43966742Y-216750000D01*
X-44133258Y-216750000D01*
X-44167906Y-216735648D01*
X-44368905Y-216534648D01*
X-44383257Y-216500000D01*
X-44368905Y-216465352D01*
X-44167906Y-216264352D01*
X-44133258Y-216250000D01*
X-43966742Y-216250000D01*
X-43932094Y-216264352D01*
G37*
%TD.AperFunction*%
%TD*%
%TA.AperFunction,Conductor*%
%TO.N,VDD*%
G36*
X-35564352Y-217514352D02*
G01*
X-35550000Y-217549000D01*
X-35550000Y-217833258D01*
X-35564352Y-217867906D01*
X-35682094Y-217985648D01*
X-35716742Y-218000000D01*
X-35883258Y-218000000D01*
X-35917906Y-217985648D01*
X-36035648Y-217867906D01*
X-36050000Y-217833258D01*
X-36050000Y-217666742D01*
X-36035648Y-217632094D01*
X-35917906Y-217514352D01*
X-35883258Y-217500000D01*
X-35599000Y-217500000D01*
X-35564352Y-217514352D01*
G37*
%TD.AperFunction*%
%TD*%
%TA.AperFunction,Conductor*%
%TO.N,/MCU & Comms/MicroController/RST*%
G36*
X-48782094Y-220364352D02*
G01*
X-48664352Y-220482094D01*
X-48650000Y-220516742D01*
X-48650000Y-220683257D01*
X-48664352Y-220717905D01*
X-48782094Y-220835648D01*
X-48816742Y-220850000D01*
X-48983258Y-220850000D01*
X-49017906Y-220835648D01*
X-49076777Y-220776776D01*
X-49135648Y-220717905D01*
X-49149999Y-220683257D01*
X-49150000Y-220399000D01*
X-49135648Y-220364352D01*
X-49101000Y-220350000D01*
X-48816742Y-220350000D01*
X-48782094Y-220364352D01*
G37*
%TD.AperFunction*%
%TD*%
%TA.AperFunction,Conductor*%
%TO.N,Net-(U1-ANT_RF)*%
G36*
X-39005352Y-226821094D02*
G01*
X-38804351Y-227022094D01*
X-38790000Y-227056741D01*
X-38790000Y-227223258D01*
X-38804352Y-227257906D01*
X-38922094Y-227375648D01*
X-38956742Y-227390000D01*
X-39123258Y-227390000D01*
X-39157906Y-227375648D01*
X-39275648Y-227257906D01*
X-39290000Y-227223258D01*
X-39290000Y-227056741D01*
X-39275648Y-227022094D01*
X-39074648Y-226821094D01*
X-39040000Y-226806742D01*
X-39005352Y-226821094D01*
G37*
%TD.AperFunction*%
%TD*%
%TA.AperFunction,Conductor*%
%TO.N,Charge Status*%
G36*
X-25482095Y-236264350D02*
G01*
X-25364348Y-236382097D01*
X-25350000Y-236416738D01*
X-25350000Y-236583260D01*
X-25364350Y-236617904D01*
X-25447446Y-236701000D01*
X-25482094Y-236735648D01*
X-25516742Y-236750000D01*
X-25801000Y-236750000D01*
X-25835648Y-236735648D01*
X-25850000Y-236701000D01*
X-25850000Y-236416741D01*
X-25835648Y-236382094D01*
X-25717905Y-236264352D01*
X-25683258Y-236250000D01*
X-25516742Y-236250000D01*
X-25482095Y-236264350D01*
G37*
%TD.AperFunction*%
%TD*%
%TA.AperFunction,Conductor*%
%TO.N,VBUS*%
G36*
X-18882094Y-221014352D02*
G01*
X-18764352Y-221132094D01*
X-18750000Y-221166742D01*
X-18750000Y-221333258D01*
X-18764352Y-221367906D01*
X-18965352Y-221568906D01*
X-19000000Y-221583258D01*
X-19034648Y-221568906D01*
X-19235648Y-221367906D01*
X-19250000Y-221333258D01*
X-19250000Y-221166742D01*
X-19235648Y-221132094D01*
X-19117906Y-221014352D01*
X-19083258Y-221000000D01*
X-18916742Y-221000000D01*
X-18882094Y-221014352D01*
G37*
%TD.AperFunction*%
%TD*%
%TA.AperFunction,Conductor*%
%TO.N,CC1*%
G36*
X-61684352Y-221334352D02*
G01*
X-61670000Y-221369000D01*
X-61670000Y-221653258D01*
X-61684352Y-221687906D01*
X-61802094Y-221805648D01*
X-61836742Y-221820000D01*
X-62003258Y-221820000D01*
X-62037906Y-221805648D01*
X-62155648Y-221687906D01*
X-62170000Y-221653258D01*
X-62170000Y-221486742D01*
X-62155648Y-221452094D01*
X-62037906Y-221334352D01*
X-62003258Y-221320000D01*
X-61719000Y-221320000D01*
X-61684352Y-221334352D01*
G37*
%TD.AperFunction*%
%TD*%
%TA.AperFunction,Conductor*%
%TO.N,Net-(D2-Pad2)*%
G36*
X-64965352Y-232981093D02*
G01*
X-64896446Y-233050000D01*
X-64799000Y-233050000D01*
X-64764352Y-233064352D01*
X-64750000Y-233099000D01*
X-64750000Y-233196446D01*
X-64681093Y-233265352D01*
X-64681094Y-233265352D01*
X-64666742Y-233300000D01*
X-64681094Y-233334648D01*
X-64882094Y-233535648D01*
X-64916742Y-233550000D01*
X-65083258Y-233550000D01*
X-65117906Y-233535648D01*
X-65235648Y-233417906D01*
X-65250000Y-233383258D01*
X-65250000Y-233216742D01*
X-65235648Y-233182094D01*
X-65034648Y-232981094D01*
X-65000000Y-232966742D01*
X-64965352Y-232981093D01*
G37*
%TD.AperFunction*%
%TD*%
%TA.AperFunction,Conductor*%
%TO.N,DATA+*%
G36*
X-61602094Y-217544352D02*
G01*
X-61484352Y-217662094D01*
X-61470000Y-217696742D01*
X-61470000Y-217863258D01*
X-61484352Y-217897906D01*
X-61602094Y-218015648D01*
X-61636742Y-218030000D01*
X-61803258Y-218030000D01*
X-61837906Y-218015648D01*
X-62038905Y-217814648D01*
X-62053257Y-217780000D01*
X-62038905Y-217745352D01*
X-61837906Y-217544352D01*
X-61803258Y-217530000D01*
X-61636742Y-217530000D01*
X-61602094Y-217544352D01*
G37*
%TD.AperFunction*%
%TD*%
%TA.AperFunction,Conductor*%
%TO.N,DATA+*%
G36*
X-62454352Y-218134352D02*
G01*
X-62440000Y-218169000D01*
X-62440000Y-218453258D01*
X-62454352Y-218487906D01*
X-62572094Y-218605648D01*
X-62606742Y-218620000D01*
X-62773258Y-218620000D01*
X-62807906Y-218605648D01*
X-62925648Y-218487906D01*
X-62940000Y-218453258D01*
X-62940000Y-218286742D01*
X-62925648Y-218252094D01*
X-62807906Y-218134352D01*
X-62773258Y-218120000D01*
X-62489000Y-218120000D01*
X-62454352Y-218134352D01*
G37*
%TD.AperFunction*%
%TD*%
%TA.AperFunction,Conductor*%
%TO.N,Charge Fault*%
G36*
X-41517201Y-216714352D02*
G01*
X-41514817Y-216716912D01*
X-41448049Y-216793967D01*
X-41339069Y-216864004D01*
X-41335198Y-216865140D01*
X-41305996Y-216888669D01*
X-41300000Y-216912156D01*
X-41300000Y-217151000D01*
X-41314352Y-217185648D01*
X-41349000Y-217200000D01*
X-41633258Y-217200000D01*
X-41667906Y-217185648D01*
X-41785648Y-217067906D01*
X-41800000Y-217033258D01*
X-41800000Y-216866742D01*
X-41785648Y-216832094D01*
X-41667906Y-216714352D01*
X-41633258Y-216700000D01*
X-41551849Y-216700000D01*
X-41517201Y-216714352D01*
G37*
%TD.AperFunction*%
%TD*%
%TA.AperFunction,Conductor*%
%TO.N,/MCU & Comms/MicroController/IO 3*%
G36*
X-16454026Y-218748581D02*
G01*
X-16336284Y-218866323D01*
X-16321932Y-218900971D01*
X-16321932Y-219067486D01*
X-16336284Y-219102134D01*
X-16454026Y-219219877D01*
X-16488674Y-219234229D01*
X-16655190Y-219234229D01*
X-16689838Y-219219877D01*
X-16890837Y-219018876D01*
X-16905189Y-218984228D01*
X-16890837Y-218949580D01*
X-16689838Y-218748581D01*
X-16655190Y-218734229D01*
X-16488674Y-218734229D01*
X-16454026Y-218748581D01*
G37*
%TD.AperFunction*%
%TD*%
%TA.AperFunction,Conductor*%
%TO.N,VDD*%
G36*
X-46164352Y-221764352D02*
G01*
X-46150000Y-221799000D01*
X-46150000Y-222083257D01*
X-46164352Y-222117905D01*
X-46282094Y-222235648D01*
X-46316742Y-222250000D01*
X-46483258Y-222250000D01*
X-46517906Y-222235648D01*
X-46635648Y-222117906D01*
X-46650000Y-222083258D01*
X-46650000Y-221916742D01*
X-46635648Y-221882094D01*
X-46517906Y-221764352D01*
X-46483258Y-221750000D01*
X-46199000Y-221750000D01*
X-46164352Y-221764352D01*
G37*
%TD.AperFunction*%
%TD*%
%TA.AperFunction,Conductor*%
%TO.N,VBUS*%
G36*
X-50132094Y-230764352D02*
G01*
X-49931094Y-230965352D01*
X-49916742Y-231000000D01*
X-49931094Y-231034648D01*
X-50132094Y-231235648D01*
X-50166742Y-231250000D01*
X-50333258Y-231250000D01*
X-50367906Y-231235648D01*
X-50485648Y-231117906D01*
X-50500000Y-231083258D01*
X-50500000Y-230916742D01*
X-50485648Y-230882094D01*
X-50367906Y-230764352D01*
X-50333258Y-230750000D01*
X-50166742Y-230750000D01*
X-50132094Y-230764352D01*
G37*
%TD.AperFunction*%
%TD*%
%TA.AperFunction,Conductor*%
%TO.N,Net-(U1-DEC4)*%
G36*
X-42552094Y-224094352D02*
G01*
X-42434352Y-224212094D01*
X-42420000Y-224246742D01*
X-42420000Y-224531000D01*
X-42434352Y-224565648D01*
X-42469000Y-224580000D01*
X-42753258Y-224580000D01*
X-42787906Y-224565648D01*
X-42905648Y-224447906D01*
X-42920000Y-224413258D01*
X-42920000Y-224246742D01*
X-42905648Y-224212094D01*
X-42787906Y-224094352D01*
X-42753258Y-224080000D01*
X-42586742Y-224080000D01*
X-42552094Y-224094352D01*
G37*
%TD.AperFunction*%
%TD*%
%TA.AperFunction,Conductor*%
%TO.N,VBUS*%
G36*
X-59502094Y-218004352D02*
G01*
X-59384352Y-218122094D01*
X-59370000Y-218156742D01*
X-59370000Y-218323258D01*
X-59384352Y-218357906D01*
X-59585352Y-218558906D01*
X-59620000Y-218573258D01*
X-59654648Y-218558906D01*
X-59855648Y-218357906D01*
X-59870000Y-218323258D01*
X-59870000Y-218156742D01*
X-59855648Y-218122094D01*
X-59737906Y-218004352D01*
X-59703258Y-217990000D01*
X-59536742Y-217990000D01*
X-59502094Y-218004352D01*
G37*
%TD.AperFunction*%
%TD*%
%TA.AperFunction,Conductor*%
%TO.N,VDD*%
G36*
X-40132094Y-223964352D02*
G01*
X-40014352Y-224082094D01*
X-40000000Y-224116742D01*
X-40000000Y-224283258D01*
X-40014352Y-224317906D01*
X-40132094Y-224435648D01*
X-40166742Y-224450000D01*
X-40333258Y-224450000D01*
X-40367906Y-224435648D01*
X-40485648Y-224317906D01*
X-40500000Y-224283258D01*
X-40500000Y-223999000D01*
X-40485648Y-223964352D01*
X-40451000Y-223950000D01*
X-40166742Y-223950000D01*
X-40132094Y-223964352D01*
G37*
%TD.AperFunction*%
%TD*%
%TA.AperFunction,Conductor*%
%TO.N,/MCU & Comms/Left*%
G36*
X-40914352Y-216214352D02*
G01*
X-40900000Y-216249000D01*
X-40900000Y-216533258D01*
X-40914352Y-216567906D01*
X-41032094Y-216685648D01*
X-41066742Y-216700000D01*
X-41148151Y-216700000D01*
X-41182799Y-216685648D01*
X-41185183Y-216683088D01*
X-41251952Y-216606031D01*
X-41360931Y-216535995D01*
X-41364807Y-216534857D01*
X-41394007Y-216511324D01*
X-41400000Y-216487843D01*
X-41400000Y-216366742D01*
X-41385648Y-216332094D01*
X-41267906Y-216214352D01*
X-41233258Y-216200000D01*
X-40949000Y-216200000D01*
X-40914352Y-216214352D01*
G37*
%TD.AperFunction*%
%TD*%
%TA.AperFunction,Conductor*%
%TO.N,VDD*%
G36*
X-40132094Y-223964352D02*
G01*
X-40014352Y-224082094D01*
X-40000000Y-224116742D01*
X-40000000Y-224283258D01*
X-40014352Y-224317906D01*
X-40132094Y-224435648D01*
X-40166742Y-224450000D01*
X-40333258Y-224450000D01*
X-40367906Y-224435648D01*
X-40485648Y-224317906D01*
X-40500000Y-224283258D01*
X-40500000Y-223999000D01*
X-40485648Y-223964352D01*
X-40451000Y-223950000D01*
X-40166742Y-223950000D01*
X-40132094Y-223964352D01*
G37*
%TD.AperFunction*%
%TD*%
%TA.AperFunction,Conductor*%
%TO.N,CC1*%
G36*
X-60392093Y-217444352D02*
G01*
X-60274351Y-217562094D01*
X-60260000Y-217596741D01*
X-60260000Y-217763258D01*
X-60274352Y-217797906D01*
X-60475352Y-217998906D01*
X-60510000Y-218013258D01*
X-60544648Y-217998906D01*
X-60745648Y-217797906D01*
X-60760000Y-217763258D01*
X-60760000Y-217596742D01*
X-60745648Y-217562094D01*
X-60627906Y-217444352D01*
X-60593258Y-217430000D01*
X-60426742Y-217430000D01*
X-60392093Y-217444352D01*
G37*
%TD.AperFunction*%
%TD*%
%TA.AperFunction,Conductor*%
%TO.N,/MCU & Comms/MicroController/IO 5*%
G36*
X-47982094Y-213164352D02*
G01*
X-47864352Y-213282094D01*
X-47850000Y-213316742D01*
X-47850000Y-213601000D01*
X-47864352Y-213635648D01*
X-47899000Y-213650000D01*
X-48183258Y-213650000D01*
X-48217906Y-213635648D01*
X-48335648Y-213517906D01*
X-48350000Y-213483258D01*
X-48350000Y-213316742D01*
X-48335648Y-213282094D01*
X-48217906Y-213164352D01*
X-48183258Y-213150000D01*
X-48016742Y-213150000D01*
X-47982094Y-213164352D01*
G37*
%TD.AperFunction*%
%TD*%
%TA.AperFunction,Conductor*%
%TO.N,CC1*%
G36*
X-60392093Y-217444352D02*
G01*
X-60274351Y-217562094D01*
X-60260000Y-217596741D01*
X-60260000Y-217763258D01*
X-60274352Y-217797906D01*
X-60475352Y-217998906D01*
X-60510000Y-218013258D01*
X-60544648Y-217998906D01*
X-60745648Y-217797906D01*
X-60760000Y-217763258D01*
X-60760000Y-217596742D01*
X-60745648Y-217562094D01*
X-60627906Y-217444352D01*
X-60593258Y-217430000D01*
X-60426742Y-217430000D01*
X-60392093Y-217444352D01*
G37*
%TD.AperFunction*%
%TD*%
%TA.AperFunction,Conductor*%
%TO.N,/MCU & Comms/MicroController/IO 5*%
G36*
X-47982094Y-213164352D02*
G01*
X-47864352Y-213282094D01*
X-47850000Y-213316742D01*
X-47850000Y-213601000D01*
X-47864352Y-213635648D01*
X-47899000Y-213650000D01*
X-48183258Y-213650000D01*
X-48217906Y-213635648D01*
X-48335648Y-213517906D01*
X-48350000Y-213483258D01*
X-48350000Y-213316742D01*
X-48335648Y-213282094D01*
X-48217906Y-213164352D01*
X-48183258Y-213150000D01*
X-48016742Y-213150000D01*
X-47982094Y-213164352D01*
G37*
%TD.AperFunction*%
%TD*%
%TA.AperFunction,Conductor*%
%TO.N,VDD*%
G36*
X-44432094Y-217114352D02*
G01*
X-44314352Y-217232094D01*
X-44300000Y-217266742D01*
X-44300000Y-217551000D01*
X-44314352Y-217585648D01*
X-44349000Y-217600000D01*
X-44633258Y-217600000D01*
X-44667906Y-217585648D01*
X-44785648Y-217467906D01*
X-44800000Y-217433258D01*
X-44800000Y-217266742D01*
X-44785648Y-217232094D01*
X-44667906Y-217114352D01*
X-44633258Y-217100000D01*
X-44466742Y-217100000D01*
X-44432094Y-217114352D01*
G37*
%TD.AperFunction*%
%TD*%
%TA.AperFunction,Conductor*%
%TO.N,VBUS*%
G36*
X-60044352Y-221544352D02*
G01*
X-60030000Y-221579000D01*
X-60030000Y-221863258D01*
X-60044352Y-221897906D01*
X-60162094Y-222015648D01*
X-60196742Y-222030000D01*
X-60363258Y-222030000D01*
X-60397906Y-222015648D01*
X-60515648Y-221897906D01*
X-60530000Y-221863258D01*
X-60530000Y-221696742D01*
X-60515648Y-221662094D01*
X-60397906Y-221544352D01*
X-60363258Y-221530000D01*
X-60079000Y-221530000D01*
X-60044352Y-221544352D01*
G37*
%TD.AperFunction*%
%TD*%
%TA.AperFunction,Conductor*%
%TO.N,Net-(D2-Pad2)*%
G36*
X-64965352Y-232981093D02*
G01*
X-64896446Y-233050000D01*
X-64799000Y-233050000D01*
X-64764352Y-233064352D01*
X-64750000Y-233099000D01*
X-64750000Y-233196446D01*
X-64681093Y-233265352D01*
X-64681094Y-233265352D01*
X-64666742Y-233300000D01*
X-64681094Y-233334648D01*
X-64882094Y-233535648D01*
X-64916742Y-233550000D01*
X-65083258Y-233550000D01*
X-65117906Y-233535648D01*
X-65235648Y-233417906D01*
X-65250000Y-233383258D01*
X-65250000Y-233216742D01*
X-65235648Y-233182094D01*
X-65034648Y-232981094D01*
X-65000000Y-232966742D01*
X-64965352Y-232981093D01*
G37*
%TD.AperFunction*%
%TD*%
%TA.AperFunction,Conductor*%
%TO.N,VDD*%
G36*
X-35682094Y-210964352D02*
G01*
X-35564352Y-211082094D01*
X-35550000Y-211116742D01*
X-35550000Y-211401000D01*
X-35564352Y-211435648D01*
X-35599000Y-211450000D01*
X-35883258Y-211450000D01*
X-35917906Y-211435648D01*
X-36035648Y-211317906D01*
X-36050000Y-211283258D01*
X-36050000Y-211116742D01*
X-36035648Y-211082094D01*
X-35917906Y-210964352D01*
X-35883258Y-210950000D01*
X-35716742Y-210950000D01*
X-35682094Y-210964352D01*
G37*
%TD.AperFunction*%
%TD*%
%TA.AperFunction,Conductor*%
%TO.N,Net-(U1-ANT_RF)*%
G36*
X-43982094Y-224814352D02*
G01*
X-43781094Y-225015352D01*
X-43766742Y-225050000D01*
X-43781094Y-225084648D01*
X-43982094Y-225285648D01*
X-44016742Y-225300000D01*
X-44183258Y-225300000D01*
X-44217906Y-225285648D01*
X-44335648Y-225167906D01*
X-44350000Y-225133258D01*
X-44350000Y-224966742D01*
X-44335648Y-224932094D01*
X-44217906Y-224814352D01*
X-44183258Y-224800000D01*
X-44016742Y-224800000D01*
X-43982094Y-224814352D01*
G37*
%TD.AperFunction*%
%TD*%
%TA.AperFunction,Conductor*%
%TO.N,/MCU & Comms/Left*%
G36*
X-40914352Y-216214352D02*
G01*
X-40900000Y-216249000D01*
X-40900000Y-216533258D01*
X-40914352Y-216567906D01*
X-41032094Y-216685648D01*
X-41066742Y-216700000D01*
X-41148151Y-216700000D01*
X-41182799Y-216685648D01*
X-41185183Y-216683088D01*
X-41251952Y-216606031D01*
X-41360931Y-216535995D01*
X-41364807Y-216534857D01*
X-41394007Y-216511324D01*
X-41400000Y-216487843D01*
X-41400000Y-216366742D01*
X-41385648Y-216332094D01*
X-41267906Y-216214352D01*
X-41233258Y-216200000D01*
X-40949000Y-216200000D01*
X-40914352Y-216214352D01*
G37*
%TD.AperFunction*%
%TD*%
%TA.AperFunction,Conductor*%
%TO.N,CC1*%
G36*
X-61684352Y-221334352D02*
G01*
X-61670000Y-221369000D01*
X-61670000Y-221653258D01*
X-61684352Y-221687906D01*
X-61802094Y-221805648D01*
X-61836742Y-221820000D01*
X-62003258Y-221820000D01*
X-62037906Y-221805648D01*
X-62155648Y-221687906D01*
X-62170000Y-221653258D01*
X-62170000Y-221486742D01*
X-62155648Y-221452094D01*
X-62037906Y-221334352D01*
X-62003258Y-221320000D01*
X-61719000Y-221320000D01*
X-61684352Y-221334352D01*
G37*
%TD.AperFunction*%
%TD*%
%TA.AperFunction,Conductor*%
%TO.N,Net-(D2-Pad2)*%
G36*
X-54082094Y-213964352D02*
G01*
X-53964352Y-214082094D01*
X-53950000Y-214116742D01*
X-53950000Y-214401000D01*
X-53964352Y-214435648D01*
X-53999000Y-214450000D01*
X-54096446Y-214450000D01*
X-54165352Y-214518906D01*
X-54200000Y-214533258D01*
X-54234648Y-214518906D01*
X-54303554Y-214450000D01*
X-54401000Y-214450000D01*
X-54435648Y-214435648D01*
X-54450000Y-214401000D01*
X-54450000Y-214116741D01*
X-54435648Y-214082094D01*
X-54317905Y-213964352D01*
X-54283258Y-213950000D01*
X-54116742Y-213950000D01*
X-54082094Y-213964352D01*
G37*
%TD.AperFunction*%
%TD*%
%TA.AperFunction,Conductor*%
%TO.N,Net-(U1-ANT_RF)*%
G36*
X-39005352Y-226821094D02*
G01*
X-38804351Y-227022094D01*
X-38790000Y-227056741D01*
X-38790000Y-227223258D01*
X-38804352Y-227257906D01*
X-38922094Y-227375648D01*
X-38956742Y-227390000D01*
X-39123258Y-227390000D01*
X-39157906Y-227375648D01*
X-39275648Y-227257906D01*
X-39290000Y-227223258D01*
X-39290000Y-227056741D01*
X-39275648Y-227022094D01*
X-39074648Y-226821094D01*
X-39040000Y-226806742D01*
X-39005352Y-226821094D01*
G37*
%TD.AperFunction*%
%TD*%
%TA.AperFunction,Conductor*%
%TO.N,Charge Fault*%
G36*
X-26715352Y-235731094D02*
G01*
X-26514352Y-235932094D01*
X-26500000Y-235966742D01*
X-26500000Y-236133257D01*
X-26514352Y-236167905D01*
X-26632094Y-236285648D01*
X-26666742Y-236300000D01*
X-26833258Y-236300000D01*
X-26867906Y-236285648D01*
X-26926777Y-236226776D01*
X-26985648Y-236167905D01*
X-26999999Y-236133257D01*
X-27000000Y-235966742D01*
X-26985648Y-235932094D01*
X-26784648Y-235731094D01*
X-26750000Y-235716742D01*
X-26715352Y-235731094D01*
G37*
%TD.AperFunction*%
%TD*%
%TA.AperFunction,Conductor*%
%TO.N,VDD*%
G36*
X-35682094Y-210964352D02*
G01*
X-35564352Y-211082094D01*
X-35550000Y-211116742D01*
X-35550000Y-211401000D01*
X-35564352Y-211435648D01*
X-35599000Y-211450000D01*
X-35883258Y-211450000D01*
X-35917906Y-211435648D01*
X-36035648Y-211317906D01*
X-36050000Y-211283258D01*
X-36050000Y-211116742D01*
X-36035648Y-211082094D01*
X-35917906Y-210964352D01*
X-35883258Y-210950000D01*
X-35716742Y-210950000D01*
X-35682094Y-210964352D01*
G37*
%TD.AperFunction*%
%TD*%
%TA.AperFunction,Conductor*%
%TO.N,/MCU & Comms/MicroController/IO 5*%
G36*
X-43932094Y-216264352D02*
G01*
X-43814352Y-216382094D01*
X-43800000Y-216416742D01*
X-43800000Y-216583258D01*
X-43814352Y-216617906D01*
X-43932094Y-216735648D01*
X-43966742Y-216750000D01*
X-44133258Y-216750000D01*
X-44167906Y-216735648D01*
X-44368905Y-216534648D01*
X-44383257Y-216500000D01*
X-44368905Y-216465352D01*
X-44167906Y-216264352D01*
X-44133258Y-216250000D01*
X-43966742Y-216250000D01*
X-43932094Y-216264352D01*
G37*
%TD.AperFunction*%
%TD*%
M02*
