%TF.GenerationSoftware,KiCad,Pcbnew,7.0.2*%
%TF.CreationDate,2023-06-13T00:37:22+02:00*%
%TF.ProjectId,DisplayU_Sisterboard,44697370-6c61-4795-955f-536973746572,rev?*%
%TF.SameCoordinates,Original*%
%TF.FileFunction,Soldermask,Top*%
%TF.FilePolarity,Negative*%
%FSLAX46Y46*%
G04 Gerber Fmt 4.6, Leading zero omitted, Abs format (unit mm)*
G04 Created by KiCad (PCBNEW 7.0.2) date 2023-06-13 00:37:22*
%MOMM*%
%LPD*%
G01*
G04 APERTURE LIST*
G04 Aperture macros list*
%AMRoundRect*
0 Rectangle with rounded corners*
0 $1 Rounding radius*
0 $2 $3 $4 $5 $6 $7 $8 $9 X,Y pos of 4 corners*
0 Add a 4 corners polygon primitive as box body*
4,1,4,$2,$3,$4,$5,$6,$7,$8,$9,$2,$3,0*
0 Add four circle primitives for the rounded corners*
1,1,$1+$1,$2,$3*
1,1,$1+$1,$4,$5*
1,1,$1+$1,$6,$7*
1,1,$1+$1,$8,$9*
0 Add four rect primitives between the rounded corners*
20,1,$1+$1,$2,$3,$4,$5,0*
20,1,$1+$1,$4,$5,$6,$7,0*
20,1,$1+$1,$6,$7,$8,$9,0*
20,1,$1+$1,$8,$9,$2,$3,0*%
%AMFreePoly0*
4,1,17,0.307538,1.085355,0.485355,0.907538,0.500000,0.872183,0.500000,-0.872183,0.485355,-0.907538,0.307538,-1.085355,0.272183,-1.100000,-0.272183,-1.100000,-0.307538,-1.085355,-0.485355,-0.907538,-0.500000,-0.872182,-0.500000,0.872183,-0.485355,0.907538,-0.307538,1.085355,-0.272183,1.100000,0.272183,1.100000,0.307538,1.085355,0.307538,1.085355,$1*%
%AMFreePoly1*
4,1,17,0.307538,0.885355,0.485355,0.707538,0.500000,0.672183,0.500000,-0.672183,0.485355,-0.707538,0.307538,-0.885355,0.272183,-0.900000,-0.272183,-0.900000,-0.307538,-0.885355,-0.485355,-0.707538,-0.500000,-0.672183,-0.500000,0.672183,-0.485355,0.707538,-0.307538,0.885355,-0.272183,0.900000,0.272183,0.900000,0.307538,0.885355,0.307538,0.885355,$1*%
G04 Aperture macros list end*
%ADD10RoundRect,0.225000X0.250000X-0.225000X0.250000X0.225000X-0.250000X0.225000X-0.250000X-0.225000X0*%
%ADD11RoundRect,0.218750X-0.218750X-0.256250X0.218750X-0.256250X0.218750X0.256250X-0.218750X0.256250X0*%
%ADD12RoundRect,0.125000X-0.125000X-0.125000X0.125000X-0.125000X0.125000X0.125000X-0.125000X0.125000X0*%
%ADD13RoundRect,0.225000X-0.250000X0.225000X-0.250000X-0.225000X0.250000X-0.225000X0.250000X0.225000X0*%
%ADD14C,2.700000*%
%ADD15RoundRect,0.200000X0.275000X-0.200000X0.275000X0.200000X-0.275000X0.200000X-0.275000X-0.200000X0*%
%ADD16RoundRect,0.050000X-0.050000X0.337500X-0.050000X-0.337500X0.050000X-0.337500X0.050000X0.337500X0*%
%ADD17RoundRect,0.050000X-0.337500X0.050000X-0.337500X-0.050000X0.337500X-0.050000X0.337500X0.050000X0*%
%ADD18R,3.800000X3.800000*%
%ADD19RoundRect,0.250000X-1.500000X0.250000X-1.500000X-0.250000X1.500000X-0.250000X1.500000X0.250000X0*%
%ADD20RoundRect,0.250001X-1.449999X0.499999X-1.449999X-0.499999X1.449999X-0.499999X1.449999X0.499999X0*%
%ADD21RoundRect,0.200000X0.200000X0.275000X-0.200000X0.275000X-0.200000X-0.275000X0.200000X-0.275000X0*%
%ADD22R,0.540000X0.800000*%
%ADD23R,0.300000X0.800000*%
%ADD24FreePoly0,0.000000*%
%ADD25FreePoly1,0.000000*%
%ADD26RoundRect,0.125000X-0.125000X0.125000X-0.125000X-0.125000X0.125000X-0.125000X0.125000X0.125000X0*%
%ADD27RoundRect,0.150000X-0.825000X-0.150000X0.825000X-0.150000X0.825000X0.150000X-0.825000X0.150000X0*%
%ADD28RoundRect,0.237500X0.300000X0.237500X-0.300000X0.237500X-0.300000X-0.237500X0.300000X-0.237500X0*%
%ADD29RoundRect,0.225000X-0.225000X-0.250000X0.225000X-0.250000X0.225000X0.250000X-0.225000X0.250000X0*%
%ADD30RoundRect,0.237500X-0.237500X0.300000X-0.237500X-0.300000X0.237500X-0.300000X0.237500X0.300000X0*%
%ADD31RoundRect,0.200000X-0.200000X-0.275000X0.200000X-0.275000X0.200000X0.275000X-0.200000X0.275000X0*%
%ADD32RoundRect,0.218750X0.218750X0.256250X-0.218750X0.256250X-0.218750X-0.256250X0.218750X-0.256250X0*%
%ADD33RoundRect,0.102000X-0.373000X-0.323000X0.373000X-0.323000X0.373000X0.323000X-0.373000X0.323000X0*%
%ADD34R,0.500000X3.300000*%
%ADD35R,1.300000X3.300000*%
%ADD36RoundRect,0.200000X-0.275000X0.200000X-0.275000X-0.200000X0.275000X-0.200000X0.275000X0.200000X0*%
%ADD37RoundRect,0.075000X-0.075000X0.462500X-0.075000X-0.462500X0.075000X-0.462500X0.075000X0.462500X0*%
%ADD38RoundRect,0.075000X-0.462500X0.075000X-0.462500X-0.075000X0.462500X-0.075000X0.462500X0.075000X0*%
%ADD39R,2.150000X2.150000*%
%ADD40RoundRect,0.225000X0.225000X0.250000X-0.225000X0.250000X-0.225000X-0.250000X0.225000X-0.250000X0*%
%ADD41RoundRect,0.218750X-0.256250X0.218750X-0.256250X-0.218750X0.256250X-0.218750X0.256250X0.218750X0*%
%ADD42RoundRect,0.218750X0.256250X-0.218750X0.256250X0.218750X-0.256250X0.218750X-0.256250X-0.218750X0*%
%ADD43RoundRect,0.250000X-0.375000X-1.075000X0.375000X-1.075000X0.375000X1.075000X-0.375000X1.075000X0*%
%ADD44C,2.000000*%
%ADD45RoundRect,0.150000X-0.150000X0.587500X-0.150000X-0.587500X0.150000X-0.587500X0.150000X0.587500X0*%
%ADD46RoundRect,0.150000X0.150000X-0.512500X0.150000X0.512500X-0.150000X0.512500X-0.150000X-0.512500X0*%
%ADD47R,1.700000X0.900000*%
G04 APERTURE END LIST*
D10*
%TO.C,C17*%
X-39871000Y-215397500D03*
X-39871000Y-213847500D03*
%TD*%
D11*
%TO.C,L4*%
X-37518200Y-222005400D03*
X-35943200Y-222005400D03*
%TD*%
D12*
%TO.C,D4*%
X-60650000Y-224820000D03*
X-58450000Y-224820000D03*
%TD*%
D13*
%TO.C,C6*%
X-40596000Y-229044000D03*
X-40596000Y-230594000D03*
%TD*%
D14*
%TO.C,REF\u002A\u002A*%
X-19000000Y-214000000D03*
%TD*%
D15*
%TO.C,R12*%
X-30095600Y-230092200D03*
X-30095600Y-228442200D03*
%TD*%
D16*
%TO.C,U1*%
X-40797500Y-218349500D03*
X-41197500Y-218349500D03*
X-41597500Y-218349500D03*
X-41997500Y-218349500D03*
X-42397500Y-218349500D03*
X-42797500Y-218349500D03*
X-43197500Y-218349500D03*
X-43597500Y-218349500D03*
X-43997500Y-218349500D03*
X-44397500Y-218349500D03*
D17*
X-45085000Y-219037000D03*
X-45085000Y-219437000D03*
X-45085000Y-219837000D03*
X-45085000Y-220237000D03*
X-45085000Y-220637000D03*
X-45085000Y-221037000D03*
X-45085000Y-221437000D03*
X-45085000Y-221837000D03*
X-45085000Y-222237000D03*
X-45085000Y-222637000D03*
D16*
X-44397500Y-223324500D03*
X-43997500Y-223324500D03*
X-43597500Y-223324500D03*
X-43197500Y-223324500D03*
X-42797500Y-223324500D03*
X-42397500Y-223324500D03*
X-41997500Y-223324500D03*
X-41597500Y-223324500D03*
X-41197500Y-223324500D03*
X-40797500Y-223324500D03*
D17*
X-40110000Y-222637000D03*
X-40110000Y-222237000D03*
X-40110000Y-221837000D03*
X-40110000Y-221437000D03*
X-40110000Y-221037000D03*
X-40110000Y-220637000D03*
X-40110000Y-220237000D03*
X-40110000Y-219837000D03*
X-40110000Y-219437000D03*
X-40110000Y-219037000D03*
D18*
X-42597500Y-220837000D03*
%TD*%
D19*
%TO.C,J1*%
X-3982600Y-214569800D03*
X-3982600Y-216569800D03*
D20*
X-9732600Y-212219800D03*
X-9732600Y-218919800D03*
%TD*%
D21*
%TO.C,R7*%
X-15824200Y-221437200D03*
X-17474200Y-221437200D03*
%TD*%
D13*
%TO.C,C16*%
X-44121500Y-226653000D03*
X-44121500Y-228203000D03*
%TD*%
D22*
%TO.C,J2*%
X-65191150Y-216200000D03*
X-58791150Y-216200000D03*
X-64391150Y-216200000D03*
X-59591150Y-216200000D03*
D23*
X-60741150Y-216200000D03*
X-61741150Y-216200000D03*
X-62241150Y-216200000D03*
X-63241150Y-216200000D03*
X-63741150Y-216200000D03*
X-62741150Y-216200000D03*
X-61241150Y-216200000D03*
X-60233150Y-216200000D03*
D24*
X-67566450Y-211500000D03*
D25*
X-67566450Y-215300000D03*
D24*
X-56415850Y-211500000D03*
D25*
X-56415550Y-215300000D03*
%TD*%
D21*
%TO.C,R13*%
X-19114000Y-235585000D03*
X-20764000Y-235585000D03*
%TD*%
D26*
%TO.C,D5*%
X-32127600Y-228314200D03*
X-32127600Y-230514200D03*
%TD*%
D14*
%TO.C,REF\u002A\u002A*%
X-55000000Y-235000000D03*
%TD*%
D27*
%TO.C,Q1*%
X-33477700Y-211413600D03*
X-33477700Y-212683600D03*
X-33477700Y-213953600D03*
X-33477700Y-215223600D03*
X-28527700Y-215223600D03*
X-28527700Y-213953600D03*
X-28527700Y-212683600D03*
X-28527700Y-211413600D03*
%TD*%
D28*
%TO.C,C13*%
X-20821100Y-229522700D03*
X-22546100Y-229522700D03*
%TD*%
D29*
%TO.C,C4*%
X-37505700Y-225434400D03*
X-35955700Y-225434400D03*
%TD*%
D21*
%TO.C,R5*%
X-36175000Y-214750000D03*
X-37825000Y-214750000D03*
%TD*%
D29*
%TO.C,C15*%
X-37505700Y-218703400D03*
X-35955700Y-218703400D03*
%TD*%
D30*
%TO.C,C10*%
X-30093800Y-231944500D03*
X-30093800Y-233669500D03*
%TD*%
D31*
%TO.C,R11*%
X-67035000Y-223010000D03*
X-65385000Y-223010000D03*
%TD*%
D32*
%TO.C,D12*%
X-19126000Y-237363000D03*
X-20701000Y-237363000D03*
%TD*%
%TO.C,D10*%
X-14097000Y-237363000D03*
X-15672000Y-237363000D03*
%TD*%
D30*
%TO.C,C14*%
X-16078200Y-223241700D03*
X-16078200Y-224966700D03*
%TD*%
D33*
%TO.C,X1*%
X-42120000Y-227400000D03*
X-40670000Y-227400000D03*
X-40670000Y-226250000D03*
X-42120000Y-226250000D03*
%TD*%
D34*
%TO.C,D3*%
X-3000000Y-233784990D03*
X-5800000Y-233784990D03*
D35*
X-4400000Y-233784990D03*
%TD*%
D10*
%TO.C,C1*%
X-41649000Y-215423500D03*
X-41649000Y-213873500D03*
%TD*%
D36*
%TO.C,R3*%
X-12776200Y-226327200D03*
X-12776200Y-227977200D03*
%TD*%
D37*
%TO.C,U4*%
X-25465600Y-226986200D03*
X-26115600Y-226986200D03*
X-26765600Y-226986200D03*
X-27415600Y-226986200D03*
D38*
X-28278100Y-227848700D03*
X-28278100Y-228498700D03*
X-28278100Y-229148700D03*
X-28278100Y-229798700D03*
D37*
X-27415600Y-230661200D03*
X-26765600Y-230661200D03*
X-26115600Y-230661200D03*
X-25465600Y-230661200D03*
D38*
X-24603100Y-229798700D03*
X-24603100Y-229148700D03*
X-24603100Y-228498700D03*
X-24603100Y-227848700D03*
D39*
X-26440600Y-228823700D03*
%TD*%
D40*
%TO.C,C19*%
X-46624500Y-218430500D03*
X-48174500Y-218430500D03*
%TD*%
D41*
%TO.C,F5*%
X-12776200Y-223164200D03*
X-12776200Y-224739200D03*
%TD*%
D21*
%TO.C,R9*%
X-62294000Y-223042000D03*
X-63944000Y-223042000D03*
%TD*%
D31*
%TO.C,R10*%
X-15684000Y-235585000D03*
X-14034000Y-235585000D03*
%TD*%
D41*
%TO.C,L2*%
X-45899500Y-229701500D03*
X-45899500Y-231276500D03*
%TD*%
D32*
%TO.C,L3*%
X-35968700Y-220354400D03*
X-37543700Y-220354400D03*
%TD*%
D21*
%TO.C,R6*%
X-12649200Y-221437200D03*
X-14299200Y-221437200D03*
%TD*%
D41*
%TO.C,L1*%
X-45899500Y-226653500D03*
X-45899500Y-228228500D03*
%TD*%
D13*
%TO.C,C7*%
X-42120000Y-229044000D03*
X-42120000Y-230594000D03*
%TD*%
D42*
%TO.C,F1*%
X-28600200Y-219319700D03*
X-28600200Y-217744700D03*
%TD*%
D43*
%TO.C,L5*%
X-28290600Y-224188700D03*
X-25490600Y-224188700D03*
%TD*%
D10*
%TO.C,C3*%
X-47550500Y-228216000D03*
X-47550500Y-226666000D03*
%TD*%
D15*
%TO.C,R2*%
X-15700000Y-229750000D03*
X-15700000Y-228100000D03*
%TD*%
D34*
%TO.C,D2*%
X-77400000Y-234000000D03*
X-74600000Y-234000000D03*
D35*
X-76000000Y-234000000D03*
%TD*%
D36*
%TO.C,R14*%
X-24604600Y-232253700D03*
X-24604600Y-233903700D03*
%TD*%
D10*
%TO.C,C18*%
X-43300000Y-215397500D03*
X-43300000Y-213847500D03*
%TD*%
D21*
%TO.C,R4*%
X-36175000Y-213000000D03*
X-37825000Y-213000000D03*
%TD*%
D44*
%TO.C,TP1*%
X-48100000Y-213400000D03*
%TD*%
D29*
%TO.C,C21*%
X-60198000Y-223042000D03*
X-58648000Y-223042000D03*
%TD*%
D45*
%TO.C,Q2*%
X-20659600Y-221263200D03*
X-22559600Y-221263200D03*
X-21609600Y-223138200D03*
%TD*%
D40*
%TO.C,C20*%
X-46624500Y-223256500D03*
X-48174500Y-223256500D03*
%TD*%
D14*
%TO.C,REF\u002A\u002A*%
X-76000000Y-214000000D03*
%TD*%
D29*
%TO.C,C5*%
X-37505700Y-223656400D03*
X-35955700Y-223656400D03*
%TD*%
D28*
%TO.C,C12*%
X-20821100Y-227871700D03*
X-22546100Y-227871700D03*
%TD*%
D29*
%TO.C,C2*%
X-37505700Y-227212400D03*
X-35955700Y-227212400D03*
%TD*%
D46*
%TO.C,U3*%
X-26690200Y-220203100D03*
X-25740200Y-220203100D03*
X-24790200Y-220203100D03*
X-24790200Y-217928100D03*
X-26690200Y-217928100D03*
%TD*%
D47*
%TO.C,RST*%
X-52298600Y-221333800D03*
X-52298600Y-217933800D03*
%TD*%
M02*
