%TF.GenerationSoftware,KiCad,Pcbnew,7.0.2*%
%TF.CreationDate,2023-06-20T04:37:47+02:00*%
%TF.ProjectId,SenseU_Mainboard,53656e73-6555-45f4-9d61-696e626f6172,rev?*%
%TF.SameCoordinates,Original*%
%TF.FileFunction,Soldermask,Top*%
%TF.FilePolarity,Negative*%
%FSLAX46Y46*%
G04 Gerber Fmt 4.6, Leading zero omitted, Abs format (unit mm)*
G04 Created by KiCad (PCBNEW 7.0.2) date 2023-06-20 04:37:47*
%MOMM*%
%LPD*%
G01*
G04 APERTURE LIST*
G04 Aperture macros list*
%AMRoundRect*
0 Rectangle with rounded corners*
0 $1 Rounding radius*
0 $2 $3 $4 $5 $6 $7 $8 $9 X,Y pos of 4 corners*
0 Add a 4 corners polygon primitive as box body*
4,1,4,$2,$3,$4,$5,$6,$7,$8,$9,$2,$3,0*
0 Add four circle primitives for the rounded corners*
1,1,$1+$1,$2,$3*
1,1,$1+$1,$4,$5*
1,1,$1+$1,$6,$7*
1,1,$1+$1,$8,$9*
0 Add four rect primitives between the rounded corners*
20,1,$1+$1,$2,$3,$4,$5,0*
20,1,$1+$1,$4,$5,$6,$7,0*
20,1,$1+$1,$6,$7,$8,$9,0*
20,1,$1+$1,$8,$9,$2,$3,0*%
G04 Aperture macros list end*
%ADD10RoundRect,0.225000X0.250000X-0.225000X0.250000X0.225000X-0.250000X0.225000X-0.250000X-0.225000X0*%
%ADD11RoundRect,0.218750X0.256250X-0.218750X0.256250X0.218750X-0.256250X0.218750X-0.256250X-0.218750X0*%
%ADD12RoundRect,0.225000X0.225000X0.250000X-0.225000X0.250000X-0.225000X-0.250000X0.225000X-0.250000X0*%
%ADD13RoundRect,0.200000X-0.275000X0.200000X-0.275000X-0.200000X0.275000X-0.200000X0.275000X0.200000X0*%
%ADD14RoundRect,0.225000X-0.250000X0.225000X-0.250000X-0.225000X0.250000X-0.225000X0.250000X0.225000X0*%
%ADD15C,0.900000*%
%ADD16R,1.500000X0.700000*%
%ADD17R,0.800000X1.000000*%
%ADD18R,1.700000X0.900000*%
%ADD19RoundRect,0.225000X-0.225000X-0.250000X0.225000X-0.250000X0.225000X0.250000X-0.225000X0.250000X0*%
%ADD20RoundRect,0.150000X-0.150000X0.587500X-0.150000X-0.587500X0.150000X-0.587500X0.150000X0.587500X0*%
%ADD21RoundRect,0.218750X-0.256250X0.218750X-0.256250X-0.218750X0.256250X-0.218750X0.256250X0.218750X0*%
%ADD22RoundRect,0.200000X0.275000X-0.200000X0.275000X0.200000X-0.275000X0.200000X-0.275000X-0.200000X0*%
%ADD23C,2.700000*%
%ADD24RoundRect,0.150000X-0.512500X-0.150000X0.512500X-0.150000X0.512500X0.150000X-0.512500X0.150000X0*%
%ADD25RoundRect,0.125000X-0.125000X0.125000X-0.125000X-0.125000X0.125000X-0.125000X0.125000X0.125000X0*%
%ADD26RoundRect,0.011200X0.783800X0.128800X-0.783800X0.128800X-0.783800X-0.128800X0.783800X-0.128800X0*%
%ADD27C,1.397000*%
%ADD28RoundRect,0.102000X-0.323000X0.373000X-0.323000X-0.373000X0.323000X-0.373000X0.323000X0.373000X0*%
%ADD29C,0.650000*%
%ADD30R,0.600000X1.150000*%
%ADD31R,0.300000X1.150000*%
%ADD32O,1.050000X2.100000*%
%ADD33O,1.000000X2.000000*%
%ADD34C,2.000000*%
%ADD35RoundRect,0.075000X-0.462500X-0.075000X0.462500X-0.075000X0.462500X0.075000X-0.462500X0.075000X0*%
%ADD36RoundRect,0.075000X-0.075000X-0.462500X0.075000X-0.462500X0.075000X0.462500X-0.075000X0.462500X0*%
%ADD37R,2.150000X2.150000*%
%ADD38RoundRect,0.250000X-0.250000X-1.500000X0.250000X-1.500000X0.250000X1.500000X-0.250000X1.500000X0*%
%ADD39RoundRect,0.250001X-0.499999X-1.449999X0.499999X-1.449999X0.499999X1.449999X-0.499999X1.449999X0*%
%ADD40RoundRect,0.250000X0.375000X1.075000X-0.375000X1.075000X-0.375000X-1.075000X0.375000X-1.075000X0*%
%ADD41C,1.200000*%
%ADD42C,1.700000*%
%ADD43R,0.350000X2.000000*%
%ADD44R,4.500000X4.600000*%
%ADD45RoundRect,0.050000X-0.337500X-0.050000X0.337500X-0.050000X0.337500X0.050000X-0.337500X0.050000X0*%
%ADD46RoundRect,0.050000X-0.050000X-0.337500X0.050000X-0.337500X0.050000X0.337500X-0.050000X0.337500X0*%
%ADD47R,3.800000X3.800000*%
G04 APERTURE END LIST*
D10*
%TO.C,C5*%
X132334000Y-104407000D03*
X132334000Y-102857000D03*
%TD*%
D11*
%TO.C,D4*%
X112014000Y-119913500D03*
X112014000Y-118338500D03*
%TD*%
D12*
%TO.C,C6*%
X136665000Y-100838000D03*
X135115000Y-100838000D03*
%TD*%
D13*
%TO.C,R5*%
X112014000Y-121603000D03*
X112014000Y-123253000D03*
%TD*%
D14*
%TO.C,C11*%
X104140000Y-129781000D03*
X104140000Y-131331000D03*
%TD*%
D15*
%TO.C,S1*%
X111252000Y-96544000D03*
X111252000Y-99544000D03*
D16*
X113002000Y-95794000D03*
X113002000Y-98794000D03*
X113002000Y-100294000D03*
D17*
X112302000Y-94394000D03*
X110202000Y-94394000D03*
X110202000Y-101694000D03*
X112302000Y-101694000D03*
%TD*%
D18*
%TO.C,RST1*%
X99568000Y-136320000D03*
X99568000Y-132920000D03*
%TD*%
D19*
%TO.C,C17*%
X108191000Y-120396000D03*
X109741000Y-120396000D03*
%TD*%
D20*
%TO.C,Q1*%
X100772000Y-106758500D03*
X98872000Y-106758500D03*
X99822000Y-108633500D03*
%TD*%
D21*
%TO.C,F1*%
X115570000Y-95478500D03*
X115570000Y-97053500D03*
%TD*%
D13*
%TO.C,R2*%
X144526000Y-102807000D03*
X144526000Y-104457000D03*
%TD*%
D19*
%TO.C,C19*%
X108191000Y-134112000D03*
X109741000Y-134112000D03*
%TD*%
D22*
%TO.C,R3*%
X104902000Y-104965000D03*
X104902000Y-103315000D03*
%TD*%
D11*
%TO.C,L3*%
X100584000Y-114071500D03*
X100584000Y-112496500D03*
%TD*%
D19*
%TO.C,C8*%
X108191000Y-127000000D03*
X109741000Y-127000000D03*
%TD*%
D23*
%TO.C,H2*%
X100076000Y-96012000D03*
%TD*%
D19*
%TO.C,C10*%
X108191000Y-125222000D03*
X109741000Y-125222000D03*
%TD*%
D11*
%TO.C,L2*%
X100584000Y-117119500D03*
X100584000Y-115544500D03*
%TD*%
D10*
%TO.C,C7*%
X98806000Y-117107000D03*
X98806000Y-115557000D03*
%TD*%
D14*
%TO.C,C1*%
X113792000Y-118351000D03*
X113792000Y-119901000D03*
%TD*%
D10*
%TO.C,C16*%
X102362000Y-114059000D03*
X102362000Y-112509000D03*
%TD*%
D13*
%TO.C,R1*%
X149098000Y-102807000D03*
X149098000Y-104457000D03*
%TD*%
D24*
%TO.C,U1*%
X111027500Y-103670500D03*
X111027500Y-104620500D03*
X111027500Y-105570500D03*
X113302500Y-105570500D03*
X113302500Y-103670500D03*
%TD*%
D25*
%TO.C,D1*%
X102616000Y-106342000D03*
X102616000Y-108542000D03*
%TD*%
D23*
%TO.C,H1*%
X113792000Y-134874000D03*
%TD*%
D26*
%TO.C,U3*%
X139783000Y-104632000D03*
X139783000Y-104132000D03*
X139783000Y-103632000D03*
X139783000Y-103132000D03*
X139783000Y-102632000D03*
X135553000Y-102632000D03*
X135553000Y-103132000D03*
X135553000Y-103632000D03*
X135553000Y-104132000D03*
X135553000Y-104632000D03*
%TD*%
D22*
%TO.C,R6*%
X113506000Y-111093000D03*
X113506000Y-109443000D03*
%TD*%
D14*
%TO.C,C2*%
X110490000Y-109461000D03*
X110490000Y-111011000D03*
%TD*%
D27*
%TO.C,J3*%
X177495200Y-94970600D03*
X174955200Y-94970600D03*
X172415200Y-94970600D03*
X169875200Y-94970600D03*
X167335200Y-94970600D03*
X164795200Y-94970600D03*
X177495200Y-97510600D03*
X174955200Y-97510600D03*
X172415200Y-97510600D03*
X169875200Y-97510600D03*
X167335200Y-97510600D03*
X164795200Y-97510600D03*
%TD*%
D19*
%TO.C,C14*%
X108191000Y-132334000D03*
X109741000Y-132334000D03*
%TD*%
D14*
%TO.C,C20*%
X105918000Y-129781000D03*
X105918000Y-131331000D03*
%TD*%
D28*
%TO.C,X1*%
X104581000Y-115607000D03*
X104581000Y-117057000D03*
X105731000Y-117057000D03*
X105731000Y-115607000D03*
%TD*%
D29*
%TO.C,J1*%
X149448000Y-99946000D03*
X143668000Y-99946000D03*
D30*
X149758000Y-101021000D03*
X148958000Y-101021000D03*
D31*
X147808000Y-101021000D03*
X146808000Y-101021000D03*
X146308000Y-101021000D03*
X145308000Y-101021000D03*
D30*
X143358000Y-101021000D03*
X144158000Y-101021000D03*
D31*
X144808000Y-101021000D03*
X145808000Y-101021000D03*
X147308000Y-101021000D03*
X148308000Y-101021000D03*
D32*
X150878000Y-100446000D03*
D33*
X150878000Y-96266000D03*
X142238000Y-96266000D03*
D32*
X142238000Y-100446000D03*
%TD*%
D19*
%TO.C,C12*%
X108191000Y-130556000D03*
X109741000Y-130556000D03*
%TD*%
D22*
%TO.C,R4*%
X115062000Y-111061000D03*
X115062000Y-109411000D03*
%TD*%
D21*
%TO.C,L4*%
X105918000Y-135356500D03*
X105918000Y-136931500D03*
%TD*%
D14*
%TO.C,C3*%
X112014000Y-109461000D03*
X112014000Y-111011000D03*
%TD*%
D34*
%TO.C,TP1*%
X97790000Y-128270000D03*
%TD*%
D35*
%TO.C,U2*%
X109382500Y-113865000D03*
X109382500Y-114515000D03*
X109382500Y-115165000D03*
X109382500Y-115815000D03*
D36*
X110245000Y-116677500D03*
X110895000Y-116677500D03*
X111545000Y-116677500D03*
X112195000Y-116677500D03*
D35*
X113057500Y-115815000D03*
X113057500Y-115165000D03*
X113057500Y-114515000D03*
X113057500Y-113865000D03*
D36*
X112195000Y-113002500D03*
X111545000Y-113002500D03*
X110895000Y-113002500D03*
X110245000Y-113002500D03*
D37*
X111220000Y-114840000D03*
%TD*%
D13*
%TO.C,R7*%
X98806000Y-112459000D03*
X98806000Y-114109000D03*
%TD*%
D38*
%TO.C,J2*%
X120158000Y-95448000D03*
X122158000Y-95448000D03*
D39*
X117808000Y-101198000D03*
X124508000Y-101198000D03*
%TD*%
D40*
%TO.C,L1*%
X107096000Y-111728000D03*
X104296000Y-111728000D03*
%TD*%
D21*
%TO.C,D3*%
X115062000Y-112750500D03*
X115062000Y-114325500D03*
%TD*%
%TO.C,F2*%
X97536000Y-118846500D03*
X97536000Y-120421500D03*
%TD*%
%TO.C,L5*%
X104140000Y-135356500D03*
X104140000Y-136931500D03*
%TD*%
D19*
%TO.C,C18*%
X108191000Y-121920000D03*
X109741000Y-121920000D03*
%TD*%
D10*
%TO.C,C4*%
X108966000Y-111011000D03*
X108966000Y-109461000D03*
%TD*%
D23*
%TO.C,H3*%
X190500000Y-96520000D03*
%TD*%
D19*
%TO.C,C13*%
X108191000Y-128778000D03*
X109741000Y-128778000D03*
%TD*%
D14*
%TO.C,C9*%
X102362000Y-129781000D03*
X102362000Y-131331000D03*
%TD*%
D41*
%TO.C,J4*%
X121286000Y-112105500D03*
D42*
X188086000Y-112105500D03*
D43*
X186336000Y-108005500D03*
X186036000Y-116205500D03*
X185736000Y-108005500D03*
X185436000Y-116205500D03*
X185136000Y-108005500D03*
X184836000Y-116205500D03*
X184536000Y-108005500D03*
X184236000Y-116205500D03*
X183936000Y-108005500D03*
X183636000Y-116205500D03*
X183336000Y-108005500D03*
X183036000Y-116205500D03*
X182736000Y-108005500D03*
X182436000Y-116205500D03*
X182136000Y-108005500D03*
X181836000Y-116205500D03*
X181536000Y-108005500D03*
X181236000Y-116205500D03*
X180936000Y-108005500D03*
X180636000Y-116205500D03*
X180336000Y-108005500D03*
X180036000Y-116205500D03*
X179736000Y-108005500D03*
X179436000Y-116205500D03*
X179136000Y-108005500D03*
X178836000Y-116205500D03*
X178536000Y-108005500D03*
X178236000Y-116205500D03*
X177936000Y-108005500D03*
X177636000Y-116205500D03*
X177336000Y-108005500D03*
X177036000Y-116205500D03*
X176736000Y-108005500D03*
X176436000Y-116205500D03*
X176136000Y-108005500D03*
X175836000Y-116205500D03*
X175536000Y-108005500D03*
X175236000Y-116205500D03*
X174936000Y-108005500D03*
X174636000Y-116205500D03*
X170736000Y-108005500D03*
X170436000Y-116205500D03*
X170136000Y-108005500D03*
X169836000Y-116205500D03*
X169536000Y-108005500D03*
X169236000Y-116205500D03*
X168936000Y-108005500D03*
X168636000Y-116205500D03*
X168336000Y-108005500D03*
X168036000Y-116205500D03*
X167736000Y-108005500D03*
X167436000Y-116205500D03*
X167136000Y-108005500D03*
X166836000Y-116205500D03*
X166536000Y-108005500D03*
X166236000Y-116205500D03*
X165936000Y-108005500D03*
X165636000Y-116205500D03*
X165336000Y-108005500D03*
X165036000Y-116205500D03*
X164736000Y-108005500D03*
X164436000Y-116205500D03*
X164136000Y-108005500D03*
X163836000Y-116205500D03*
X163536000Y-108005500D03*
X163236000Y-116205500D03*
X162936000Y-108005500D03*
X162636000Y-116205500D03*
X162336000Y-108005500D03*
X162036000Y-116205500D03*
X161736000Y-108005500D03*
X161436000Y-116205500D03*
X161136000Y-108005500D03*
X160836000Y-116205500D03*
X160536000Y-108005500D03*
X160236000Y-116205500D03*
X159936000Y-108005500D03*
X159636000Y-116205500D03*
X159336000Y-108005500D03*
X159036000Y-116205500D03*
X158736000Y-108005500D03*
X158436000Y-116205500D03*
X158136000Y-108005500D03*
X157836000Y-116205500D03*
X157536000Y-108005500D03*
X157236000Y-116205500D03*
X156936000Y-108005500D03*
X156636000Y-116205500D03*
X156336000Y-108005500D03*
X156036000Y-116205500D03*
X155736000Y-108005500D03*
X155436000Y-116205500D03*
X155136000Y-108005500D03*
X154836000Y-116205500D03*
X154536000Y-108005500D03*
X154236000Y-116205500D03*
X153936000Y-108005500D03*
X153636000Y-116205500D03*
X153336000Y-108005500D03*
X153036000Y-116205500D03*
X152736000Y-108005500D03*
X152436000Y-116205500D03*
X152136000Y-108005500D03*
X151836000Y-116205500D03*
X151536000Y-108005500D03*
X151236000Y-116205500D03*
X150936000Y-108005500D03*
X150636000Y-116205500D03*
X150336000Y-108005500D03*
X150036000Y-116205500D03*
X149736000Y-108005500D03*
X149436000Y-116205500D03*
X149136000Y-108005500D03*
X148836000Y-116205500D03*
X148536000Y-108005500D03*
X148236000Y-116205500D03*
X147936000Y-108005500D03*
X147636000Y-116205500D03*
X147336000Y-108005500D03*
X147036000Y-116205500D03*
X146736000Y-108005500D03*
X146436000Y-116205500D03*
X146136000Y-108005500D03*
X145836000Y-116205500D03*
X145536000Y-108005500D03*
X145236000Y-116205500D03*
X144936000Y-108005500D03*
X144636000Y-116205500D03*
X144336000Y-108005500D03*
X144036000Y-116205500D03*
X143736000Y-108005500D03*
X143436000Y-116205500D03*
X143136000Y-108005500D03*
X142836000Y-116205500D03*
X142536000Y-108005500D03*
X142236000Y-116205500D03*
X141936000Y-108005500D03*
X141636000Y-116205500D03*
X141336000Y-108005500D03*
X141036000Y-116205500D03*
X140736000Y-108005500D03*
X140436000Y-116205500D03*
X140136000Y-108005500D03*
X139836000Y-116205500D03*
X139536000Y-108005500D03*
X139236000Y-116205500D03*
X138936000Y-108005500D03*
X138636000Y-116205500D03*
X138336000Y-108005500D03*
X138036000Y-116205500D03*
X137736000Y-108005500D03*
X137436000Y-116205500D03*
X137136000Y-108005500D03*
X136836000Y-116205500D03*
X136536000Y-108005500D03*
X136236000Y-116205500D03*
X135936000Y-108005500D03*
X135636000Y-116205500D03*
X135336000Y-108005500D03*
X135036000Y-116205500D03*
X134736000Y-108005500D03*
X134436000Y-116205500D03*
X134136000Y-108005500D03*
X133836000Y-116205500D03*
X133536000Y-108005500D03*
X133236000Y-116205500D03*
X132936000Y-108005500D03*
X132636000Y-116205500D03*
X132336000Y-108005500D03*
X132036000Y-116205500D03*
X131736000Y-108005500D03*
X131436000Y-116205500D03*
X131136000Y-108005500D03*
X130836000Y-116205500D03*
X130536000Y-108005500D03*
X130236000Y-116205500D03*
X129936000Y-108005500D03*
X129636000Y-116205500D03*
X129336000Y-108005500D03*
X129036000Y-116205500D03*
X128736000Y-108005500D03*
X128436000Y-116205500D03*
X128136000Y-108005500D03*
X127836000Y-116205500D03*
X127536000Y-108005500D03*
X127236000Y-116205500D03*
X126936000Y-108005500D03*
X126636000Y-116205500D03*
X126336000Y-108005500D03*
X126036000Y-116205500D03*
X125736000Y-108005500D03*
X125436000Y-116205500D03*
X125136000Y-108005500D03*
X124836000Y-116205500D03*
X124536000Y-108005500D03*
X124236000Y-116205500D03*
X123936000Y-108005500D03*
X123636000Y-116205500D03*
X123336000Y-108005500D03*
X123036000Y-116205500D03*
D44*
X187236000Y-124105500D03*
X122136000Y-124105500D03*
%TD*%
D45*
%TO.C,U4*%
X100890500Y-119612000D03*
X100890500Y-120012000D03*
X100890500Y-120412000D03*
X100890500Y-120812000D03*
X100890500Y-121212000D03*
X100890500Y-121612000D03*
X100890500Y-122012000D03*
X100890500Y-122412000D03*
X100890500Y-122812000D03*
X100890500Y-123212000D03*
D46*
X101578000Y-123899500D03*
X101978000Y-123899500D03*
X102378000Y-123899500D03*
X102778000Y-123899500D03*
X103178000Y-123899500D03*
X103578000Y-123899500D03*
X103978000Y-123899500D03*
X104378000Y-123899500D03*
X104778000Y-123899500D03*
X105178000Y-123899500D03*
D45*
X105865500Y-123212000D03*
X105865500Y-122812000D03*
X105865500Y-122412000D03*
X105865500Y-122012000D03*
X105865500Y-121612000D03*
X105865500Y-121212000D03*
X105865500Y-120812000D03*
X105865500Y-120412000D03*
X105865500Y-120012000D03*
X105865500Y-119612000D03*
D46*
X105178000Y-118924500D03*
X104778000Y-118924500D03*
X104378000Y-118924500D03*
X103978000Y-118924500D03*
X103578000Y-118924500D03*
X103178000Y-118924500D03*
X102778000Y-118924500D03*
X102378000Y-118924500D03*
X101978000Y-118924500D03*
X101578000Y-118924500D03*
D47*
X103378000Y-121412000D03*
%TD*%
D13*
%TO.C,R8*%
X100584000Y-129731000D03*
X100584000Y-131381000D03*
%TD*%
D25*
%TO.C,D2*%
X102616000Y-103040000D03*
X102616000Y-105240000D03*
%TD*%
D14*
%TO.C,C15*%
X97536000Y-121907000D03*
X97536000Y-123457000D03*
%TD*%
M02*
