M48
; DRILL file {KiCad 7.0.2} date Tue Jun 20 04:32:11 2023
; FORMAT={-:-/ absolute / inch / decimal}
; #@! TF.CreationDate,2023-06-20T04:32:11+02:00
; #@! TF.GenerationSoftware,Kicad,Pcbnew,7.0.2
; #@! TF.FileFunction,Plated,1,2,PTH
FMAT,2
INCH
; #@! TA.AperFunction,Plated,PTH,ComponentDrill
T1C0.0118
; #@! TA.AperFunction,Plated,PTH,ViaDrill
T2C0.0157
; #@! TA.AperFunction,Plated,PTH,ComponentDrill
T3C0.0236
; #@! TA.AperFunction,Plated,PTH,ComponentDrill
T4C0.0350
%
G90
G05
T1
X3.8982Y-5.4567
T2
X3.84Y-4.64
X3.85Y-4.51
X3.85Y-5.05
X3.88Y-4.7105
X3.8822Y-4.7517
X3.8823Y-4.6712
X3.8823Y-4.7911
X3.89Y-4.93
X3.8988Y-4.8698
X3.8996Y-4.8264
X3.92Y-4.97
X3.9213Y-4.5255
X3.93Y-5.09
X3.9399Y-4.6502
X3.97Y-4.39
X3.97Y-5.2118
X3.99Y-4.28
X3.9975Y-4.9575
X4.0005Y-4.6385
X4.01Y-5.0
X4.0206Y-5.0394
X4.03Y-4.37
X4.04Y-4.59
X4.0599Y-5.13
X4.07Y-4.8375
X4.11Y-4.93
X4.13Y-4.26
X4.21Y-4.68
X4.22Y-3.97
X4.22Y-4.46
X4.2275Y-4.93
X4.23Y-4.07
X4.23Y-4.17
X4.2477Y-4.31
X4.2652Y-4.5275
X4.27Y-4.42
X4.287Y-4.59
X4.29Y-4.6325
X4.3045Y-4.6875
X4.32Y-4.86
X4.3298Y-4.1298
X4.3352Y-4.8237
X4.37Y-4.52
X4.43Y-4.21
X4.4399Y-4.68
X4.44Y-4.2975
X4.48Y-4.75
X4.5Y-3.9
X4.51Y-4.09
X4.51Y-4.56
X4.53Y-4.61
X4.54Y-4.71
X4.54Y-5.11
X4.55Y-4.24
X4.56Y-4.87
X4.6175Y-4.67
X4.62Y-5.0275
X4.63Y-4.25
X4.63Y-4.31
X4.69Y-3.84
X4.74Y-4.15
X4.88Y-4.19
X4.96Y-4.18
X5.02Y-5.15
X5.02Y-5.39
X5.02Y-5.63
X5.07Y-3.82
X5.1Y-4.49
X5.12Y-4.14
X5.13Y-4.46
X5.21Y-3.82
X5.21Y-4.14
X5.2201Y-4.1894
X5.28Y-4.13
X5.3Y-4.18
X5.31Y-4.34
X5.34Y-4.18
X5.35Y-4.36
X5.37Y-3.82
X5.42Y-4.06
X5.4266Y-4.18
X5.436Y-4.1042
X5.45Y-4.34
X5.45Y-4.4
X5.4622Y-4.1387
X5.53Y-5.16
X5.53Y-5.38
X5.53Y-5.63
X5.61Y-4.12
X5.7Y-4.34
X5.76Y-4.05
X5.817Y-4.0479
X5.82Y-4.12
X5.82Y-4.51
X5.94Y-4.5
X5.9523Y-4.3177
X5.99Y-4.02
X5.99Y-5.17
X5.99Y-5.37
X6.0Y-5.63
X6.01Y-4.5
X6.16Y-4.66
X6.17Y-4.51
X6.22Y-3.98
X6.25Y-4.3225
X6.34Y-4.49
X6.35Y-4.66
X6.43Y-3.76
X6.45Y-4.1225
X6.49Y-5.17
X6.5Y-5.37
X6.51Y-5.63
X6.54Y-3.76
X6.5845Y-4.1245
X6.59Y-4.49
X6.59Y-4.67
X6.64Y-3.7525
X6.679Y-4.3152
X6.86Y-4.3
X6.89Y-4.67
X6.9Y-4.49
X6.92Y-5.17
X6.93Y-5.37
X6.93Y-5.63
X6.96Y-4.33
X6.97Y-4.67
X7.03Y-4.33
X7.04Y-4.49
X7.04Y-4.67
X7.1Y-4.33
X7.17Y-4.33
X7.18Y-4.49
X7.18Y-4.67
T4
X6.488Y-3.739
X6.488Y-3.839
X6.588Y-3.739
X6.588Y-3.839
X6.688Y-3.739
X6.688Y-3.839
X6.788Y-3.739
X6.788Y-3.839
X6.888Y-3.739
X6.888Y-3.839
X6.988Y-3.739
X6.988Y-3.839
T3
G00X5.5999Y-3.8057
M15
G01X5.5999Y-3.7743
M16
G05
G00X5.5999Y-3.9762
M15
G01X5.5999Y-3.9329
M16
G05
G00X5.9401Y-3.8057
M15
G01X5.9401Y-3.7743
M16
G05
G00X5.9401Y-3.9762
M15
G01X5.9401Y-3.9329
M16
G05
T0
M30
